<?xml version="1.0" encoding="UTF-8"?><svg xmlns="http://www.w3.org/2000/svg" xmlns:xlink="http://www.w3.org/1999/xlink" color-interpolation="auto" color-rendering="auto" fill="rgb(0,0,0)" fill-opacity="0" font-family="'Dialog'" font-size="12px" font-style="normal" font-weight="normal" height="210" image-rendering="auto" shape-rendering="auto" stroke="rgb(0,0,0)" stroke-dasharray="none" stroke-dashoffset="0" stroke-linecap="square" stroke-linejoin="miter" stroke-miterlimit="10" stroke-opacity="0" stroke-width="1" text-rendering="auto" viewbox="0 0 891 210" width="891"><!--Generated by the Batik Graphics2D SVG Generator--><defs id="genericDefs"/><g><defs id="defs1"><clipPath clipPathUnits="userSpaceOnUse" id="3d2b4475-ee8a-4bf0-bae3-9f26c175a696"><path d="M-8 -8 L893 -8 L893 212 L-8 212 L-8 -8 Z"/></clipPath><clipPath clipPathUnits="userSpaceOnUse" id="d68515d9-34b9-4342-a3ea-c6a67a3c63c7"><path d="M0 0 L0 7 L879 7 L879 0 Z"/></clipPath><clipPath clipPathUnits="userSpaceOnUse" id="9b5ad77a-949c-44d9-b53a-1caefec45406"><path d="M-8 -8 L26 -8 L26 112 L-8 112 L-8 -8 Z"/></clipPath><clipPath clipPathUnits="userSpaceOnUse" id="d1ca6bab-1ff6-4d04-afc2-4950e5ae3336"><path d="M-8 -8 L26 -8 L26 112 L-8 112 L-8 -8 Z"/></clipPath><clipPath clipPathUnits="userSpaceOnUse" id="1f6e8dd5-021e-47a1-b4af-f392020841eb"><path d="M-8 -8 L26 -8 L26 112 L-8 112 L-8 -8 Z"/></clipPath><clipPath clipPathUnits="userSpaceOnUse" id="cc45cae5-d1d2-478b-ae09-961766e9365b"><path d="M0 0 L0 100 L14 100 L14 0 Z"/></clipPath><clipPath clipPathUnits="userSpaceOnUse" id="f7b83da7-37fb-4f34-abc5-baec0333f8f5"><path d="M100 0 L0 0 L0 14 L100 14 Z"/></clipPath><clipPath clipPathUnits="userSpaceOnUse" id="b07afab2-44af-4c2f-af46-838b8242a06b"><path d="M-8 -8 L879 -8 L879 112 L-8 112 L-8 -8 Z"/></clipPath><clipPath clipPathUnits="userSpaceOnUse" id="475703de-dc63-4bc8-b96a-2b937161750f"><path d="M-8 -8 L879 -8 L879 112 L-8 112 L-8 -8 Z"/></clipPath><clipPath clipPathUnits="userSpaceOnUse" id="296704ea-63f3-4f6f-a483-5b8dd79dd08b"><path d="M-8 -8 L879 -8 L879 112 L-8 112 L-8 -8 Z"/></clipPath><clipPath clipPathUnits="userSpaceOnUse" id="81f3b391-0fcc-43b2-b54b-2c5085fe8565"><path d="M0 0 L0 100 L867 100 L867 0 Z"/></clipPath><clipPath clipPathUnits="userSpaceOnUse" id="759bd244-0382-441a-99a1-4144ffe7bd85"><path d="M-8 -8 L26 -8 L26 112 L-8 112 L-8 -8 Z"/></clipPath><clipPath clipPathUnits="userSpaceOnUse" id="64f0d75c-5164-4b72-bb96-28b0809658b1"><path d="M-8 -8 L26 -8 L26 112 L-8 112 L-8 -8 Z"/></clipPath><clipPath clipPathUnits="userSpaceOnUse" id="900eb3c6-3f1d-46b1-8354-d74ca3fa804d"><path d="M-8 -8 L26 -8 L26 112 L-8 112 L-8 -8 Z"/></clipPath><clipPath clipPathUnits="userSpaceOnUse" id="7fa12ee2-f99b-4796-9540-e409bd8a79b8"><path d="M0 0 L0 100 L14 100 L14 0 Z"/></clipPath><clipPath clipPathUnits="userSpaceOnUse" id="75fd4875-8b94-474b-8465-da98410f4aa9"><path d="M100 0 L0 0 L0 14 L100 14 Z"/></clipPath><clipPath clipPathUnits="userSpaceOnUse" id="29cab140-e7e1-44bf-92f9-171541a525f1"><path d="M-8 -8 L879 -8 L879 112 L-8 112 L-8 -8 Z"/></clipPath><clipPath clipPathUnits="userSpaceOnUse" id="19c85ca8-0461-42d3-ac6b-08c9ec08b2a2"><path d="M-8 -8 L879 -8 L879 112 L-8 112 L-8 -8 Z"/></clipPath><clipPath clipPathUnits="userSpaceOnUse" id="bfe154d8-ea83-425a-a0be-996055a5aecd"><path d="M-8 -8 L879 -8 L879 112 L-8 112 L-8 -8 Z"/></clipPath><clipPath clipPathUnits="userSpaceOnUse" id="e0bd3704-6a6e-42ff-93d9-d14921569700"><path d="M0 0 L0 100 L867 100 L867 0 Z"/></clipPath><clipPath clipPathUnits="userSpaceOnUse" id="57c582f7-31ad-47c1-ac40-05e14f088a97"><path d="M-7 -7 L86 -7 L86 51 L-7 51 L-7 -7 Z"/></clipPath><clipPath clipPathUnits="userSpaceOnUse" id="9e3283d6-ad44-4b7b-b4f0-4b89f9439611"><path d="M-7 -7 L86 -7 L86 51 L-7 51 L-7 -7 Z"/></clipPath><clipPath clipPathUnits="userSpaceOnUse" id="54b68996-4400-4c92-a36d-b2806359ddb7"><path d="M-7 -7 L86 -7 L86 51 L-7 51 L-7 -7 Z"/></clipPath><clipPath clipPathUnits="userSpaceOnUse" id="32149720-983e-4dde-acf1-a3673ee755d9"><path d="M0 0 L0 40 L75 40 L75 0 Z"/></clipPath><clipPath clipPathUnits="userSpaceOnUse" id="4828e6db-99f3-4018-859d-6dc020052db9"><path d="M-7 -7 L101 -7 L101 51 L-7 51 L-7 -7 Z"/></clipPath><clipPath clipPathUnits="userSpaceOnUse" id="d1f18e9a-0e02-4b0f-a526-3ad8b324d434"><path d="M-7 -7 L101 -7 L101 51 L-7 51 L-7 -7 Z"/></clipPath><clipPath clipPathUnits="userSpaceOnUse" id="44fe7ed6-564e-4cbb-b00d-f6f4eb385f79"><path d="M-7 -7 L101 -7 L101 51 L-7 51 L-7 -7 Z"/></clipPath><clipPath clipPathUnits="userSpaceOnUse" id="e1f00ae3-05fb-4779-b26f-f5de2222bdc5"><path d="M0 0 L0 40 L90 40 L90 0 Z"/></clipPath><clipPath clipPathUnits="userSpaceOnUse" id="b4be5b02-88e6-48fa-ab8c-bed820701796"><path d="M-7 -7 L51 -7 L51 31 L-7 31 L-7 -7 Z"/></clipPath><clipPath clipPathUnits="userSpaceOnUse" id="77d6dd77-8593-40b4-b0c4-20c737980b46"><path d="M-7 -7 L51 -7 L51 31 L-7 31 L-7 -7 Z"/></clipPath><clipPath clipPathUnits="userSpaceOnUse" id="b9fa8d3e-e8b4-423d-b68c-df8b3b786908"><path d="M-7 -7 L71 -7 L71 51 L-7 51 L-7 -7 Z"/></clipPath><clipPath clipPathUnits="userSpaceOnUse" id="b6898a87-712d-4922-83f8-851e0046a886"><path d="M-7 -7 L71 -7 L71 51 L-7 51 L-7 -7 Z"/></clipPath><clipPath clipPathUnits="userSpaceOnUse" id="b83597dd-60d4-4c05-b503-a1a6ea9b70f0"><path d="M-7 -7 L71 -7 L71 51 L-7 51 L-7 -7 Z"/></clipPath><clipPath clipPathUnits="userSpaceOnUse" id="29c4ad75-600b-4a16-9df7-7c2bf0f66b81"><path d="M0 0 L0 40 L60 40 L60 0 Z"/></clipPath><clipPath clipPathUnits="userSpaceOnUse" id="3415c51d-209e-40e5-adf0-3454807b2711"><path d="M-7 -7 L71 -7 L71 51 L-7 51 L-7 -7 Z"/></clipPath><clipPath clipPathUnits="userSpaceOnUse" id="5395f395-36a0-4a3e-bdc3-24654ed4c5e1"><path d="M-7 -7 L71 -7 L71 51 L-7 51 L-7 -7 Z"/></clipPath><clipPath clipPathUnits="userSpaceOnUse" id="8446d59b-5a56-4676-9a63-afe6841f1a7d"><path d="M0 0 L0 40 L60 40 L60 0 Z"/></clipPath><clipPath clipPathUnits="userSpaceOnUse" id="20ed658d-11f7-4f54-a852-f736f3a7cbc8"><path d="M-7 -7 L72 -7 L72 51 L-7 51 L-7 -7 Z"/></clipPath><clipPath clipPathUnits="userSpaceOnUse" id="d49091de-b0d2-4dbb-ae0b-d827ae86edcf"><path d="M-7 -7 L72 -7 L72 51 L-7 51 L-7 -7 Z"/></clipPath><clipPath clipPathUnits="userSpaceOnUse" id="c793f4fa-67a4-45ad-a52e-104d511bd0ea"><path d="M-7 -7 L72 -7 L72 51 L-7 51 L-7 -7 Z"/></clipPath><clipPath clipPathUnits="userSpaceOnUse" id="f03ba89f-6438-47bc-97fd-aa6202031f46"><path d="M0 0 L0 40 L61 40 L61 0 Z"/></clipPath><clipPath clipPathUnits="userSpaceOnUse" id="0880d8ed-3108-46dc-85d8-6c5dbf9a54da"><path d="M-7 -7 L71 -7 L71 51 L-7 51 L-7 -7 Z"/></clipPath><clipPath clipPathUnits="userSpaceOnUse" id="ede1e61d-d555-4314-bb8f-09a57eafc8e2"><path d="M-7 -7 L71 -7 L71 51 L-7 51 L-7 -7 Z"/></clipPath><clipPath clipPathUnits="userSpaceOnUse" id="2f164e34-bbf4-4892-b6dd-a578d4a4ddbc"><path d="M-7 -7 L71 -7 L71 51 L-7 51 L-7 -7 Z"/></clipPath><clipPath clipPathUnits="userSpaceOnUse" id="940352e3-a3c4-43a4-a39c-2870c8e73537"><path d="M0 0 L0 40 L60 40 L60 0 Z"/></clipPath><clipPath clipPathUnits="userSpaceOnUse" id="f38d0a6f-1ce8-4461-93dd-70eb0208f360"><path d="M-7 -7 L71 -7 L71 51 L-7 51 L-7 -7 Z"/></clipPath><clipPath clipPathUnits="userSpaceOnUse" id="11a1486f-c60f-4faf-b838-e136ec8b88ad"><path d="M-7 -7 L71 -7 L71 51 L-7 51 L-7 -7 Z"/></clipPath><clipPath clipPathUnits="userSpaceOnUse" id="63ec0acb-86c4-48b5-b1a0-9554e210ac1c"><path d="M0 0 L0 40 L60 40 L60 0 Z"/></clipPath><clipPath clipPathUnits="userSpaceOnUse" id="32570cb2-50cb-4f78-a8dd-0e5baf45a1f7"><path d="M-7 -7 L115 -7 L115 51 L-7 51 L-7 -7 Z"/></clipPath><clipPath clipPathUnits="userSpaceOnUse" id="cfd2344e-bc85-422c-b0c9-0204ba762485"><path d="M-7 -7 L115 -7 L115 51 L-7 51 L-7 -7 Z"/></clipPath><clipPath clipPathUnits="userSpaceOnUse" id="aa7923ab-0444-4734-8973-f52a4250637b"><path d="M-7 -7 L115 -7 L115 51 L-7 51 L-7 -7 Z"/></clipPath><clipPath clipPathUnits="userSpaceOnUse" id="0fd3c839-353d-43c3-a87a-c26b497ae0ed"><path d="M0 0 L0 40 L104 40 L104 0 Z"/></clipPath><clipPath clipPathUnits="userSpaceOnUse" id="5777bf07-e737-4851-adb2-4d38b65c04ed"><path d="M-7 -7 L92 -7 L92 51 L-7 51 L-7 -7 Z"/></clipPath><clipPath clipPathUnits="userSpaceOnUse" id="3fdb8478-8d07-400e-8f22-283c95f12ca7"><path d="M-7 -7 L92 -7 L92 51 L-7 51 L-7 -7 Z"/></clipPath><clipPath clipPathUnits="userSpaceOnUse" id="c7b9c75f-a505-4d0b-b35a-487b00ef9712"><path d="M-7 -7 L92 -7 L92 51 L-7 51 L-7 -7 Z"/></clipPath><clipPath clipPathUnits="userSpaceOnUse" id="4f214b62-9537-47f1-b9cb-5a486bca87a9"><path d="M0 0 L0 40 L81 40 L81 0 Z"/></clipPath><clipPath clipPathUnits="userSpaceOnUse" id="75cd32e7-4c75-4556-b49e-709dd8db917e"><path d="M-7 -7 L100 -7 L100 51 L-7 51 L-7 -7 Z"/></clipPath><clipPath clipPathUnits="userSpaceOnUse" id="af4cd17f-11ff-4801-8d6b-a0a0196171e7"><path d="M-7 -7 L100 -7 L100 51 L-7 51 L-7 -7 Z"/></clipPath><clipPath clipPathUnits="userSpaceOnUse" id="f3e12b04-45a3-4d31-9496-ad2023965502"><path d="M-7 -7 L100 -7 L100 51 L-7 51 L-7 -7 Z"/></clipPath><clipPath clipPathUnits="userSpaceOnUse" id="7f11b154-19ba-480c-8974-3e3b4c137631"><path d="M0 0 L0 40 L89 40 L89 0 Z"/></clipPath><clipPath clipPathUnits="userSpaceOnUse" id="0ac161a5-e6e5-434d-be53-db78c66a13fa"><path d="M-7 -7 L31 -7 L31 31 L-7 31 L-7 -7 Z"/></clipPath><clipPath clipPathUnits="userSpaceOnUse" id="9ac81e14-00df-4d7f-9082-89ea5ee5b2c8"><path d="M-7 -7 L31 -7 L31 31 L-7 31 L-7 -7 Z"/></clipPath><clipPath clipPathUnits="userSpaceOnUse" id="1156723e-14ab-4dfa-8af4-6ca579df4cf0"><path d="M0 0 L170 0 L170 104 L0 104 L0 0 Z"/></clipPath><clipPath clipPathUnits="userSpaceOnUse" id="63761019-87e8-400f-9f93-7987a2d2eba9"><path d="M0 0 L0 104 L170 104 L170 0 Z"/></clipPath><clipPath clipPathUnits="userSpaceOnUse" id="bd7bfa46-073c-41b8-88a3-055cdcf89404"><path d="M0 0 L185 0 L185 104 L0 104 L0 0 Z"/></clipPath><clipPath clipPathUnits="userSpaceOnUse" id="55a2ae59-8c9a-4d26-ab7f-98cf0a06e388"><path d="M0 0 L0 104 L185 104 L185 0 Z"/></clipPath><clipPath clipPathUnits="userSpaceOnUse" id="df01a577-8b73-4334-84f8-f6c9645c0cce"><path d="M0 0 L185 0 L185 104 L0 104 L0 0 Z"/></clipPath><clipPath clipPathUnits="userSpaceOnUse" id="5a9c04b9-49d5-4418-baae-c2789441bea8"><path d="M0 0 L0 104 L185 104 L185 0 Z"/></clipPath><clipPath clipPathUnits="userSpaceOnUse" id="a164df52-6e7a-4e32-ba46-66b982e3c660"><path d="M0 0 L165 0 L165 104 L0 104 L0 0 Z"/></clipPath><clipPath clipPathUnits="userSpaceOnUse" id="bf0db8d9-1a3f-4a9c-8502-964f5b861179"><path d="M0 0 L0 104 L165 104 L165 0 Z"/></clipPath><clipPath clipPathUnits="userSpaceOnUse" id="eaf6e926-cd58-4c09-8e4e-ef16873ca49d"><path d="M0 0 L159 0 L159 104 L0 104 L0 0 Z"/></clipPath><clipPath clipPathUnits="userSpaceOnUse" id="a5e7ea7b-5023-4896-8ef6-10c64eddb7ce"><path d="M0 0 L0 104 L159 104 L159 0 Z"/></clipPath><clipPath clipPathUnits="userSpaceOnUse" id="fd77150d-836b-40de-a123-beddf5ce8cdf"><path d="M0 0 L159 0 L159 104 L0 104 L0 0 Z"/></clipPath><clipPath clipPathUnits="userSpaceOnUse" id="6ad135a0-76b6-4140-963e-b3d517fb0c49"><path d="M0 0 L0 104 L159 104 L159 0 Z"/></clipPath><clipPath clipPathUnits="userSpaceOnUse" id="9caa1cb6-08cc-42a7-9a4a-d7e42aefc810"><path d="M0 0 L170 0 L170 104 L0 104 L0 0 Z"/></clipPath><clipPath clipPathUnits="userSpaceOnUse" id="c6147ffb-a763-4be4-ab7c-479182d87235"><path d="M0 0 L0 104 L170 104 L170 0 Z"/></clipPath><clipPath clipPathUnits="userSpaceOnUse" id="0c7965c3-8500-4ae5-8a57-84b94c750857"><path d="M0 0 L141 0 L141 104 L0 104 L0 0 Z"/></clipPath><clipPath clipPathUnits="userSpaceOnUse" id="710ab6bd-e88f-4353-8d3c-2a4d4496c750"><path d="M0 0 L0 104 L141 104 L141 0 Z"/></clipPath><clipPath clipPathUnits="userSpaceOnUse" id="75b95e5e-818d-46d0-a148-d61d365362ce"><path d="M0 0 L150 0 L150 104 L0 104 L0 0 Z"/></clipPath><clipPath clipPathUnits="userSpaceOnUse" id="460aac91-f8c6-4802-9237-8b3ddb1525d4"><path d="M0 0 L0 104 L150 104 L150 0 Z"/></clipPath><clipPath clipPathUnits="userSpaceOnUse" id="3255a8fc-075d-4b0d-99bc-319781a6376e"><path d="M0 0 L181 0 L181 104 L0 104 L0 0 Z"/></clipPath><clipPath clipPathUnits="userSpaceOnUse" id="efc4ec71-80c2-4903-b245-bc0106e8d1c8"><path d="M0 0 L0 104 L181 104 L181 0 Z"/></clipPath><clipPath clipPathUnits="userSpaceOnUse" id="d1ddf564-868c-4a43-a00e-c25b42a7486e"><path d="M0 0 L646 0 L646 161 L0 161 L0 0 Z"/></clipPath><clipPath clipPathUnits="userSpaceOnUse" id="ed9b6589-bf98-47c4-a644-747b656d0963"><path d="M0 0 L0 161 L646 161 L646 0 Z"/></clipPath></defs><g fill="white" fill-opacity="1" stroke="white" stroke-opacity="1" text-rendering="geometricPrecision"><rect height="210" stroke="none" width="891" x="0" y="0"/></g><g data="{&quot;name&quot;:&quot;Deploy&quot;,&quot;modelType&quot;:&quot;ActivityPartition&quot;}" hyper="" model-id="shape-JUOX0tmAUAAArSz3" style="pointer-events: auto; cursor: pointer;"><g fill="black" fill-opacity="1" font-family="sans-serif" font-size="11px" image-rendering="optimizeQuality" stroke="black" stroke-linecap="butt" stroke-linejoin="round" stroke-miterlimit="0" stroke-opacity="1" stroke-width="2" text-rendering="geometricPrecision" transform="translate(4,4)"><rect clip-path="url(#d1ca6bab-1ff6-4d04-afc2-4950e5ae3336)" fill="none" height="100" width="14" x="0" y="0"/></g></g><g fill="black" fill-opacity="1" font-family="sans-serif" font-size="11px" image-rendering="optimizeQuality" stroke="black" stroke-opacity="1" text-rendering="geometricPrecision" transform="translate(54,54) rotate(-90) translate(-50,-50)"><text clip-path="url(#f7b83da7-37fb-4f34-abc5-baec0333f8f5)" stroke="none" x="32" xml:space="preserve" y="11">Deploy</text></g><g data="" hyper="" model-id="" style="pointer-events: auto; cursor: pointer;"><g fill="black" fill-opacity="1" font-family="sans-serif" font-size="11px" image-rendering="optimizeQuality" stroke="black" stroke-linecap="butt" stroke-linejoin="round" stroke-miterlimit="0" stroke-opacity="1" stroke-width="2" text-rendering="geometricPrecision" transform="translate(18,4)"><rect clip-path="url(#475703de-dc63-4bc8-b96a-2b937161750f)" fill="none" height="100" width="867" x="0" y="0"/></g></g><g data="{&quot;name&quot;:&quot;Build&quot;,&quot;modelType&quot;:&quot;ActivityPartition&quot;}" hyper="" model-id="shape-dUOX0tmAUAAArSz." style="pointer-events: auto; cursor: pointer;"><g fill="black" fill-opacity="1" font-family="sans-serif" font-size="11px" image-rendering="optimizeQuality" stroke="black" stroke-linecap="butt" stroke-linejoin="round" stroke-miterlimit="0" stroke-opacity="1" stroke-width="2" text-rendering="geometricPrecision" transform="translate(4,104)"><rect clip-path="url(#64f0d75c-5164-4b72-bb96-28b0809658b1)" fill="none" height="100" width="14" x="0" y="0"/></g></g><g fill="black" fill-opacity="1" font-family="sans-serif" font-size="11px" image-rendering="optimizeQuality" stroke="black" stroke-opacity="1" text-rendering="geometricPrecision" transform="translate(54,154) rotate(-90) translate(-50,-50)"><text clip-path="url(#75fd4875-8b94-474b-8465-da98410f4aa9)" stroke="none" x="37" xml:space="preserve" y="11">Build</text></g><g data="" hyper="" model-id="" style="pointer-events: auto; cursor: pointer;"><g fill="black" fill-opacity="1" font-family="sans-serif" font-size="11px" image-rendering="optimizeQuality" stroke="black" stroke-linecap="butt" stroke-linejoin="round" stroke-miterlimit="0" stroke-opacity="1" stroke-width="2" text-rendering="geometricPrecision" transform="translate(18,104)"><rect clip-path="url(#19c85ca8-0461-42d3-ac6b-08c9ec08b2a2)" fill="none" height="100" width="867" x="0" y="0"/></g></g><g data="{&quot;name&quot;:&quot;Setup Dotnet&quot;,&quot;modelType&quot;:&quot;ActivityAction&quot;}" hyper="" model-id="shape-HUOX0tmAUAAArS0F" style="pointer-events: auto; cursor: pointer;"><g fill="rgb(122,207,245)" fill-opacity="1" font-family="sans-serif" font-size="11px" image-rendering="optimizeQuality" stroke="rgb(122,207,245)" stroke-opacity="1" text-rendering="geometricPrecision" transform="translate(410,134)"><rect clip-path="url(#9e3283d6-ad44-4b7b-b4f0-4b89f9439611)" height="40" rx="15" ry="15" stroke="none" width="75" x="0" y="0"/></g><g fill="black" fill-opacity="1" font-family="sans-serif" font-size="11px" image-rendering="optimizeQuality" stroke="black" stroke-linecap="butt" stroke-linejoin="round" stroke-miterlimit="0" stroke-opacity="1" text-rendering="geometricPrecision" transform="translate(410,134)"><rect clip-path="url(#9e3283d6-ad44-4b7b-b4f0-4b89f9439611)" fill="none" height="40" rx="15" ry="15" width="75" x="0" y="0"/></g></g><g fill="black" fill-opacity="1" font-family="sans-serif" font-size="11px" image-rendering="optimizeQuality" stroke="black" stroke-opacity="1" text-rendering="geometricPrecision" transform="translate(410,134)"><text clip-path="url(#32149720-983e-4dde-acf1-a3673ee755d9)" stroke="none" x="5" xml:space="preserve" y="24">Setup Dotnet</text></g><g data="{&quot;name&quot;:&quot;Upload Artifacts&quot;,&quot;modelType&quot;:&quot;ActivityAction&quot;}" hyper="" model-id="shape-vUOX0tmAUAAArS0K" style="pointer-events: auto; cursor: pointer;"><g fill="rgb(122,207,245)" fill-opacity="1" font-family="sans-serif" font-size="11px" image-rendering="optimizeQuality" stroke="rgb(122,207,245)" stroke-opacity="1" text-rendering="geometricPrecision" transform="translate(664,134)"><rect clip-path="url(#d1f18e9a-0e02-4b0f-a526-3ad8b324d434)" height="40" rx="15" ry="15" stroke="none" width="90" x="0" y="0"/></g><g fill="black" fill-opacity="1" font-family="sans-serif" font-size="11px" image-rendering="optimizeQuality" stroke="black" stroke-linecap="butt" stroke-linejoin="round" stroke-miterlimit="0" stroke-opacity="1" text-rendering="geometricPrecision" transform="translate(664,134)"><rect clip-path="url(#d1f18e9a-0e02-4b0f-a526-3ad8b324d434)" fill="none" height="40" rx="15" ry="15" width="90" x="0" y="0"/></g></g><g fill="black" fill-opacity="1" font-family="sans-serif" font-size="11px" image-rendering="optimizeQuality" stroke="black" stroke-opacity="1" text-rendering="geometricPrecision" transform="translate(664,134)"><text clip-path="url(#e1f00ae3-05fb-4779-b26f-f5de2222bdc5)" stroke="none" x="4" xml:space="preserve" y="24">Upload Artifacts</text></g><g data="{&quot;name&quot;:&quot;&quot;,&quot;modelType&quot;:&quot;InitialNode&quot;}" hyper="" model-id="shape-Y0OX0tmAUAAArS0P" style="pointer-events: auto; cursor: pointer;"><g fill="black" fill-opacity="1" font-family="sans-serif" font-size="11px" image-rendering="optimizeQuality" stroke="black" stroke-opacity="1" text-rendering="geometricPrecision" transform="translate(30,144)"><circle clip-path="url(#77d6dd77-8593-40b4-b0c4-20c737980b46)" cx="20" cy="10" r="10" stroke="none"/></g></g><g data="{&quot;name&quot;:&quot;Set up job&quot;,&quot;modelType&quot;:&quot;ActivityAction&quot;}" hyper="" model-id="shape-M0OX0tmAUAAArS0U" style="pointer-events: auto; cursor: pointer;"><g fill="rgb(122,207,245)" fill-opacity="1" font-family="sans-serif" font-size="11px" image-rendering="optimizeQuality" stroke="rgb(122,207,245)" stroke-opacity="1" text-rendering="geometricPrecision" transform="translate(126,134)"><rect clip-path="url(#b6898a87-712d-4922-83f8-851e0046a886)" height="40" rx="15" ry="15" stroke="none" width="60" x="0" y="0"/></g><g fill="black" fill-opacity="1" font-family="sans-serif" font-size="11px" image-rendering="optimizeQuality" stroke="black" stroke-linecap="butt" stroke-linejoin="round" stroke-miterlimit="0" stroke-opacity="1" text-rendering="geometricPrecision" transform="translate(126,134)"><rect clip-path="url(#b6898a87-712d-4922-83f8-851e0046a886)" fill="none" height="40" rx="15" ry="15" width="60" x="0" y="0"/></g></g><g fill="black" fill-opacity="1" font-family="sans-serif" font-size="11px" image-rendering="optimizeQuality" stroke="black" stroke-opacity="1" text-rendering="geometricPrecision" transform="translate(126,134)"><text clip-path="url(#29c4ad75-600b-4a16-9df7-7c2bf0f66b81)" stroke="none" x="5" xml:space="preserve" y="24">Set up job</text></g><g data="{&quot;name&quot;:&quot;Checkout&quot;,&quot;modelType&quot;:&quot;ActivityAction&quot;}" hyper="" model-id="shape-K0OX0tmAUAAArS0a" style="pointer-events: auto; cursor: pointer;"><g fill="rgb(122,207,245)" fill-opacity="1" font-family="sans-serif" font-size="11px" image-rendering="optimizeQuality" stroke="rgb(122,207,245)" stroke-opacity="1" text-rendering="geometricPrecision" transform="translate(268,134)"><rect clip-path="url(#3415c51d-209e-40e5-adf0-3454807b2711)" height="40" rx="15" ry="15" stroke="none" width="60" x="0" y="0"/></g><g fill="black" fill-opacity="1" font-family="sans-serif" font-size="11px" image-rendering="optimizeQuality" stroke="black" stroke-linecap="butt" stroke-linejoin="round" stroke-miterlimit="0" stroke-opacity="1" text-rendering="geometricPrecision" transform="translate(268,134)"><rect clip-path="url(#3415c51d-209e-40e5-adf0-3454807b2711)" fill="none" height="40" rx="15" ry="15" width="60" x="0" y="0"/></g></g><g fill="black" fill-opacity="1" font-family="sans-serif" font-size="11px" image-rendering="optimizeQuality" stroke="black" stroke-opacity="1" text-rendering="geometricPrecision" transform="translate(268,134)"><text clip-path="url(#8446d59b-5a56-4676-9a63-afe6841f1a7d)" stroke="none" x="6" xml:space="preserve" y="24">Checkout</text></g><g data="{&quot;name&quot;:&quot;Build Web&quot;,&quot;modelType&quot;:&quot;ActivityAction&quot;}" hyper="" model-id="shape-u0OX0tmAUAAArS0f" style="pointer-events: auto; cursor: pointer;"><g fill="rgb(122,207,245)" fill-opacity="1" font-family="sans-serif" font-size="11px" image-rendering="optimizeQuality" stroke="rgb(122,207,245)" stroke-opacity="1" text-rendering="geometricPrecision" transform="translate(547,134)"><rect clip-path="url(#d49091de-b0d2-4dbb-ae0b-d827ae86edcf)" height="40" rx="15" ry="15" stroke="none" width="61" x="0" y="0"/></g><g fill="black" fill-opacity="1" font-family="sans-serif" font-size="11px" image-rendering="optimizeQuality" stroke="black" stroke-linecap="butt" stroke-linejoin="round" stroke-miterlimit="0" stroke-opacity="1" text-rendering="geometricPrecision" transform="translate(547,134)"><rect clip-path="url(#d49091de-b0d2-4dbb-ae0b-d827ae86edcf)" fill="none" height="40" rx="15" ry="15" width="61" x="0" y="0"/></g></g><g fill="black" fill-opacity="1" font-family="sans-serif" font-size="11px" image-rendering="optimizeQuality" stroke="black" stroke-opacity="1" text-rendering="geometricPrecision" transform="translate(547,134)"><text clip-path="url(#f03ba89f-6438-47bc-97fd-aa6202031f46)" stroke="none" x="4" xml:space="preserve" y="24">Build Web</text></g><g data="{&quot;name&quot;:&quot;Clean up&quot;,&quot;modelType&quot;:&quot;ActivityAction&quot;}" hyper="" model-id="shape-x0OX0tmAUAAArS0k" style="pointer-events: auto; cursor: pointer;"><g fill="rgb(122,207,245)" fill-opacity="1" font-family="sans-serif" font-size="11px" image-rendering="optimizeQuality" stroke="rgb(122,207,245)" stroke-opacity="1" text-rendering="geometricPrecision" transform="translate(810,134)"><rect clip-path="url(#ede1e61d-d555-4314-bb8f-09a57eafc8e2)" height="40" rx="15" ry="15" stroke="none" width="60" x="0" y="0"/></g><g fill="black" fill-opacity="1" font-family="sans-serif" font-size="11px" image-rendering="optimizeQuality" stroke="black" stroke-linecap="butt" stroke-linejoin="round" stroke-miterlimit="0" stroke-opacity="1" text-rendering="geometricPrecision" transform="translate(810,134)"><rect clip-path="url(#ede1e61d-d555-4314-bb8f-09a57eafc8e2)" fill="none" height="40" rx="15" ry="15" width="60" x="0" y="0"/></g></g><g fill="black" fill-opacity="1" font-family="sans-serif" font-size="11px" image-rendering="optimizeQuality" stroke="black" stroke-opacity="1" text-rendering="geometricPrecision" transform="translate(810,134)"><text clip-path="url(#940352e3-a3c4-43a4-a39c-2870c8e73537)" stroke="none" x="7" xml:space="preserve" y="24">Clean up</text></g><g data="{&quot;name&quot;:&quot;Set up job&quot;,&quot;modelType&quot;:&quot;ActivityAction&quot;}" hyper="" model-id="shape-M0OX0tmAUAAArS0U" style="pointer-events: auto; cursor: pointer;"><g fill="rgb(122,207,245)" fill-opacity="1" font-family="sans-serif" font-size="11px" image-rendering="optimizeQuality" stroke="rgb(122,207,245)" stroke-opacity="1" text-rendering="geometricPrecision" transform="translate(268,36)"><rect clip-path="url(#f38d0a6f-1ce8-4461-93dd-70eb0208f360)" height="40" rx="15" ry="15" stroke="none" width="60" x="0" y="0"/></g><g fill="black" fill-opacity="1" font-family="sans-serif" font-size="11px" image-rendering="optimizeQuality" stroke="black" stroke-linecap="butt" stroke-linejoin="round" stroke-miterlimit="0" stroke-opacity="1" text-rendering="geometricPrecision" transform="translate(268,36)"><rect clip-path="url(#f38d0a6f-1ce8-4461-93dd-70eb0208f360)" fill="none" height="40" rx="15" ry="15" width="60" x="0" y="0"/></g></g><g fill="black" fill-opacity="1" font-family="sans-serif" font-size="11px" image-rendering="optimizeQuality" stroke="black" stroke-opacity="1" text-rendering="geometricPrecision" transform="translate(268,36)"><text clip-path="url(#63ec0acb-86c4-48b5-b1a0-9554e210ac1c)" stroke="none" x="5" xml:space="preserve" y="24">Set up job</text></g><g data="{&quot;name&quot;:&quot;Download Artifacts&quot;,&quot;modelType&quot;:&quot;ActivityAction&quot;}" hyper="" model-id="shape-j0OX0tmAUAAArS0t" style="pointer-events: auto; cursor: pointer;"><g fill="rgb(122,207,245)" fill-opacity="1" font-family="sans-serif" font-size="11px" image-rendering="optimizeQuality" stroke="rgb(122,207,245)" stroke-opacity="1" text-rendering="geometricPrecision" transform="translate(395,36)"><rect clip-path="url(#cfd2344e-bc85-422c-b0c9-0204ba762485)" height="40" rx="15" ry="15" stroke="none" width="104" x="0" y="0"/></g><g fill="black" fill-opacity="1" font-family="sans-serif" font-size="11px" image-rendering="optimizeQuality" stroke="black" stroke-linecap="butt" stroke-linejoin="round" stroke-miterlimit="0" stroke-opacity="1" text-rendering="geometricPrecision" transform="translate(395,36)"><rect clip-path="url(#cfd2344e-bc85-422c-b0c9-0204ba762485)" fill="none" height="40" rx="15" ry="15" width="104" x="0" y="0"/></g></g><g fill="black" fill-opacity="1" font-family="sans-serif" font-size="11px" image-rendering="optimizeQuality" stroke="black" stroke-opacity="1" text-rendering="geometricPrecision" transform="translate(395,36)"><text clip-path="url(#0fd3c839-353d-43c3-a87a-c26b497ae0ed)" stroke="none" x="5" xml:space="preserve" y="24">Download Artifacts</text></g><g data="{&quot;name&quot;:&quot;Login to Azure&quot;,&quot;modelType&quot;:&quot;ActivityAction&quot;}" hyper="" model-id="shape-b0OX0tmAUAAArS0y" style="pointer-events: auto; cursor: pointer;"><g fill="rgb(122,207,245)" fill-opacity="1" font-family="sans-serif" font-size="11px" image-rendering="optimizeQuality" stroke="rgb(122,207,245)" stroke-opacity="1" text-rendering="geometricPrecision" transform="translate(537,36)"><rect clip-path="url(#3fdb8478-8d07-400e-8f22-283c95f12ca7)" height="40" rx="15" ry="15" stroke="none" width="81" x="0" y="0"/></g><g fill="black" fill-opacity="1" font-family="sans-serif" font-size="11px" image-rendering="optimizeQuality" stroke="black" stroke-linecap="butt" stroke-linejoin="round" stroke-miterlimit="0" stroke-opacity="1" text-rendering="geometricPrecision" transform="translate(537,36)"><rect clip-path="url(#3fdb8478-8d07-400e-8f22-283c95f12ca7)" fill="none" height="40" rx="15" ry="15" width="81" x="0" y="0"/></g></g><g fill="black" fill-opacity="1" font-family="sans-serif" font-size="11px" image-rendering="optimizeQuality" stroke="black" stroke-opacity="1" text-rendering="geometricPrecision" transform="translate(537,36)"><text clip-path="url(#4f214b62-9537-47f1-b9cb-5a486bca87a9)" stroke="none" x="5" xml:space="preserve" y="24">Login to Azure</text></g><g data="{&quot;name&quot;:&quot;Deploy to Azure&quot;,&quot;modelType&quot;:&quot;ActivityAction&quot;}" hyper="" model-id="shape-P0OX0tmAUAAArS03" style="pointer-events: auto; cursor: pointer;"><g fill="rgb(122,207,245)" fill-opacity="1" font-family="sans-serif" font-size="11px" image-rendering="optimizeQuality" stroke="rgb(122,207,245)" stroke-opacity="1" text-rendering="geometricPrecision" transform="translate(665,36)"><rect clip-path="url(#af4cd17f-11ff-4801-8d6b-a0a0196171e7)" height="40" rx="15" ry="15" stroke="none" width="89" x="0" y="0"/></g><g fill="black" fill-opacity="1" font-family="sans-serif" font-size="11px" image-rendering="optimizeQuality" stroke="black" stroke-linecap="butt" stroke-linejoin="round" stroke-miterlimit="0" stroke-opacity="1" text-rendering="geometricPrecision" transform="translate(665,36)"><rect clip-path="url(#af4cd17f-11ff-4801-8d6b-a0a0196171e7)" fill="none" height="40" rx="15" ry="15" width="89" x="0" y="0"/></g></g><g fill="black" fill-opacity="1" font-family="sans-serif" font-size="11px" image-rendering="optimizeQuality" stroke="black" stroke-opacity="1" text-rendering="geometricPrecision" transform="translate(665,36)"><text clip-path="url(#7f11b154-19ba-480c-8974-3e3b4c137631)" stroke="none" x="5" xml:space="preserve" y="24">Deploy to Azure</text></g><g data="{&quot;name&quot;:&quot;&quot;,&quot;modelType&quot;:&quot;ActivityFinalNode&quot;}" hyper="" model-id="shape-gMOX0tmAUAAArS08" style="pointer-events: auto; cursor: pointer;"><g fill="black" fill-opacity="1" font-family="sans-serif" font-size="11px" image-rendering="optimizeQuality" stroke="black" stroke-opacity="1" text-rendering="geometricPrecision" transform="translate(830,46)"><circle clip-path="url(#9ac81e14-00df-4d7f-9082-89ea5ee5b2c8)" cx="10" cy="10" r="6.6667" stroke="none"/><circle clip-path="url(#9ac81e14-00df-4d7f-9082-89ea5ee5b2c8)" cx="10" cy="10" fill="none" r="10" stroke-linecap="butt" stroke-linejoin="round" stroke-miterlimit="0"/></g></g><g data="{&quot;modelType&quot;:&quot;ControlFlow&quot;}" hyper="" model-id="connector-4MOX0tmAUAAArS1B" style="pointer-events: auto; cursor: pointer;"><g fill="black" fill-opacity="1" font-family="sans-serif" font-size="11px" image-rendering="optimizeQuality" stroke="black" stroke-linecap="butt" stroke-linejoin="round" stroke-opacity="1" text-rendering="geometricPrecision" transform="translate(9,104)"><line clip-path="url(#63761019-87e8-400f-9f93-7987a2d2eba9)" fill="none" x1="50" x2="116" y1="50" y2="50"/><line clip-path="url(#63761019-87e8-400f-9f93-7987a2d2eba9)" fill="none" x1="116" x2="104" y1="50" y2="44"/><line clip-path="url(#63761019-87e8-400f-9f93-7987a2d2eba9)" fill="none" x1="116" x2="104" y1="50" y2="56"/></g></g><g data="{&quot;modelType&quot;:&quot;ControlFlow&quot;}" hyper="" model-id="connector-0MOX0tmAUAAArS1G" style="pointer-events: auto; cursor: pointer;"><g fill="black" fill-opacity="1" font-family="sans-serif" font-size="11px" image-rendering="optimizeQuality" stroke="black" stroke-linecap="butt" stroke-linejoin="round" stroke-opacity="1" text-rendering="geometricPrecision" transform="translate(136,104)"><line clip-path="url(#55a2ae59-8c9a-4d26-ab7f-98cf0a06e388)" fill="none" x1="50" x2="131" y1="50" y2="50"/><line clip-path="url(#55a2ae59-8c9a-4d26-ab7f-98cf0a06e388)" fill="none" x1="131" x2="119" y1="50" y2="44"/><line clip-path="url(#55a2ae59-8c9a-4d26-ab7f-98cf0a06e388)" fill="none" x1="131" x2="119" y1="50" y2="56"/></g></g><g data="{&quot;modelType&quot;:&quot;ControlFlow&quot;}" hyper="" model-id="connector-MMOX0tmAUAAArS1L" style="pointer-events: auto; cursor: pointer;"><g fill="black" fill-opacity="1" font-family="sans-serif" font-size="11px" image-rendering="optimizeQuality" stroke="black" stroke-linecap="butt" stroke-linejoin="round" stroke-opacity="1" text-rendering="geometricPrecision" transform="translate(278,104)"><line clip-path="url(#5a9c04b9-49d5-4418-baae-c2789441bea8)" fill="none" x1="50" x2="131" y1="50" y2="50"/><line clip-path="url(#5a9c04b9-49d5-4418-baae-c2789441bea8)" fill="none" x1="131" x2="119" y1="50" y2="44"/><line clip-path="url(#5a9c04b9-49d5-4418-baae-c2789441bea8)" fill="none" x1="131" x2="119" y1="50" y2="56"/></g></g><g data="{&quot;modelType&quot;:&quot;ControlFlow&quot;}" hyper="" model-id="connector-cMOX0tmAUAAArS1Q" style="pointer-events: auto; cursor: pointer;"><g fill="black" fill-opacity="1" font-family="sans-serif" font-size="11px" image-rendering="optimizeQuality" stroke="black" stroke-linecap="butt" stroke-linejoin="round" stroke-opacity="1" text-rendering="geometricPrecision" transform="translate(435,104)"><line clip-path="url(#bf0db8d9-1a3f-4a9c-8502-964f5b861179)" fill="none" x1="50" x2="111" y1="50" y2="50"/><line clip-path="url(#bf0db8d9-1a3f-4a9c-8502-964f5b861179)" fill="none" x1="111" x2="99" y1="50" y2="44"/><line clip-path="url(#bf0db8d9-1a3f-4a9c-8502-964f5b861179)" fill="none" x1="111" x2="99" y1="50" y2="56"/></g></g><g data="{&quot;modelType&quot;:&quot;ControlFlow&quot;}" hyper="" model-id="connector-iMOX0tmAUAAArS1V" style="pointer-events: auto; cursor: pointer;"><g fill="black" fill-opacity="1" font-family="sans-serif" font-size="11px" image-rendering="optimizeQuality" stroke="black" stroke-linecap="butt" stroke-linejoin="round" stroke-opacity="1" text-rendering="geometricPrecision" transform="translate(558,104)"><line clip-path="url(#a5e7ea7b-5023-4896-8ef6-10c64eddb7ce)" fill="none" x1="50" x2="105" y1="50" y2="50"/><line clip-path="url(#a5e7ea7b-5023-4896-8ef6-10c64eddb7ce)" fill="none" x1="105" x2="93" y1="50" y2="44"/><line clip-path="url(#a5e7ea7b-5023-4896-8ef6-10c64eddb7ce)" fill="none" x1="105" x2="93" y1="50" y2="56"/></g></g><g data="{&quot;modelType&quot;:&quot;ControlFlow&quot;}" hyper="" model-id="connector-yMOX0tmAUAAArS1a" style="pointer-events: auto; cursor: pointer;"><g fill="black" fill-opacity="1" font-family="sans-serif" font-size="11px" image-rendering="optimizeQuality" stroke="black" stroke-linecap="butt" stroke-linejoin="round" stroke-opacity="1" text-rendering="geometricPrecision" transform="translate(704,104)"><line clip-path="url(#6ad135a0-76b6-4140-963e-b3d517fb0c49)" fill="none" x1="50" x2="105" y1="50" y2="50"/><line clip-path="url(#6ad135a0-76b6-4140-963e-b3d517fb0c49)" fill="none" x1="105" x2="93" y1="50" y2="44"/><line clip-path="url(#6ad135a0-76b6-4140-963e-b3d517fb0c49)" fill="none" x1="105" x2="93" y1="50" y2="56"/></g></g><g data="{&quot;modelType&quot;:&quot;ControlFlow&quot;}" hyper="" model-id="connector-qMOX0tmAUAAArS1f" style="pointer-events: auto; cursor: pointer;"><g fill="black" fill-opacity="1" font-family="sans-serif" font-size="11px" image-rendering="optimizeQuality" stroke="black" stroke-linecap="butt" stroke-linejoin="round" stroke-opacity="1" text-rendering="geometricPrecision" transform="translate(278,6)"><line clip-path="url(#c6147ffb-a763-4be4-ab7c-479182d87235)" fill="none" x1="50" x2="116" y1="50" y2="50"/><line clip-path="url(#c6147ffb-a763-4be4-ab7c-479182d87235)" fill="none" x1="116" x2="104" y1="50" y2="44"/><line clip-path="url(#c6147ffb-a763-4be4-ab7c-479182d87235)" fill="none" x1="116" x2="104" y1="50" y2="56"/></g></g><g data="{&quot;modelType&quot;:&quot;ControlFlow&quot;}" hyper="" model-id="connector-WMOX0tmAUAAArS1k" style="pointer-events: auto; cursor: pointer;"><g fill="black" fill-opacity="1" font-family="sans-serif" font-size="11px" image-rendering="optimizeQuality" stroke="black" stroke-linecap="butt" stroke-linejoin="round" stroke-opacity="1" text-rendering="geometricPrecision" transform="translate(449,6)"><line clip-path="url(#710ab6bd-e88f-4353-8d3c-2a4d4496c750)" fill="none" x1="50" x2="87" y1="50" y2="50"/><line clip-path="url(#710ab6bd-e88f-4353-8d3c-2a4d4496c750)" fill="none" x1="87" x2="75" y1="50" y2="44"/><line clip-path="url(#710ab6bd-e88f-4353-8d3c-2a4d4496c750)" fill="none" x1="87" x2="75" y1="50" y2="56"/></g></g><g data="{&quot;modelType&quot;:&quot;ControlFlow&quot;}" hyper="" model-id="connector-OMOX0tmAUAAArS1p" style="pointer-events: auto; cursor: pointer;"><g fill="black" fill-opacity="1" font-family="sans-serif" font-size="11px" image-rendering="optimizeQuality" stroke="black" stroke-linecap="butt" stroke-linejoin="round" stroke-opacity="1" text-rendering="geometricPrecision" transform="translate(568,6)"><line clip-path="url(#460aac91-f8c6-4802-9237-8b3ddb1525d4)" fill="none" x1="50" x2="96" y1="50" y2="50"/><line clip-path="url(#460aac91-f8c6-4802-9237-8b3ddb1525d4)" fill="none" x1="96" x2="84" y1="50" y2="44"/><line clip-path="url(#460aac91-f8c6-4802-9237-8b3ddb1525d4)" fill="none" x1="96" x2="84" y1="50" y2="56"/></g></g><g data="{&quot;modelType&quot;:&quot;ControlFlow&quot;}" hyper="" model-id="connector-eMOX0tmAUAAArS1u" style="pointer-events: auto; cursor: pointer;"><g fill="black" fill-opacity="1" font-family="sans-serif" font-size="11px" image-rendering="optimizeQuality" stroke="black" stroke-linecap="butt" stroke-linejoin="round" stroke-opacity="1" text-rendering="geometricPrecision" transform="translate(704,6)"><line clip-path="url(#efc4ec71-80c2-4903-b245-bc0106e8d1c8)" fill="none" x1="50" x2="127" y1="50" y2="50"/><line clip-path="url(#efc4ec71-80c2-4903-b245-bc0106e8d1c8)" fill="none" x1="127" x2="115" y1="50" y2="44"/><line clip-path="url(#efc4ec71-80c2-4903-b245-bc0106e8d1c8)" fill="none" x1="127" x2="115" y1="50" y2="56"/></g></g><g data="{&quot;modelType&quot;:&quot;ControlFlow&quot;}" hyper="" model-id="connector-BMOX0tmAUAAArS1z" style="pointer-events: auto; cursor: pointer;"><g fill="black" fill-opacity="1" font-family="sans-serif" font-size="11px" image-rendering="optimizeQuality" stroke="black" stroke-linecap="butt" stroke-linejoin="round" stroke-opacity="1" text-rendering="geometricPrecision" transform="translate(248,26)"><line clip-path="url(#ed9b6589-bf98-47c4-a644-747b656d0963)" fill="none" x1="592" x2="592" y1="107" y2="90"/><line clip-path="url(#ed9b6589-bf98-47c4-a644-747b656d0963)" fill="none" x1="592" x2="50" y1="90" y2="67"/><line clip-path="url(#ed9b6589-bf98-47c4-a644-747b656d0963)" fill="none" x1="50" x2="50" y1="67" y2="50"/><line clip-path="url(#ed9b6589-bf98-47c4-a644-747b656d0963)" fill="none" x1="50" x2="44" y1="50" y2="62"/><line clip-path="url(#ed9b6589-bf98-47c4-a644-747b656d0963)" fill="none" x1="50" x2="56" y1="50" y2="62"/></g></g><g fill="rgb(120,120,120)" fill-opacity="1" font-size="10px" image-rendering="optimizeQuality" stroke="rgb(120,120,120)" stroke-opacity="1" text-rendering="geometricPrecision"></g></g></svg>
