<?xml version="1.0" encoding="UTF-8"?><svg xmlns="http://www.w3.org/2000/svg" xmlns:xlink="http://www.w3.org/1999/xlink" color-interpolation="auto" color-rendering="auto" fill="rgb(0,0,0)" fill-opacity="0" font-family="'Dialog'" font-size="12px" font-style="normal" font-weight="normal" height="1414" image-rendering="auto" shape-rendering="auto" stroke="rgb(0,0,0)" stroke-dasharray="none" stroke-dashoffset="0" stroke-linecap="square" stroke-linejoin="miter" stroke-miterlimit="10" stroke-opacity="0" stroke-width="1" text-rendering="auto" viewbox="0 0 244 1414" width="244"><!--Generated by the Batik Graphics2D SVG Generator--><defs id="genericDefs"/><g><defs id="defs1"><clipPath clipPathUnits="userSpaceOnUse" id="fcde3548-e95a-48d7-a4cc-0dd46dac0c2d"><path d="M-8 -8 L246 -8 L246 1416 L-8 1416 L-8 -8 Z"/></clipPath><clipPath clipPathUnits="userSpaceOnUse" id="887da90c-e043-47c2-91e5-7509e2c1d8d6"><path d="M0 0 L0 1402 L7 1402 L7 0 Z"/></clipPath><clipPath clipPathUnits="userSpaceOnUse" id="e58d29a8-603b-4edc-af1c-eee1c314203b"><path d="M-8 -8 L122 -8 L122 26 L-8 26 L-8 -8 Z"/></clipPath><clipPath clipPathUnits="userSpaceOnUse" id="37d20676-23c0-4d20-9253-35c8a685d333"><path d="M-8 -8 L122 -8 L122 26 L-8 26 L-8 -8 Z"/></clipPath><clipPath clipPathUnits="userSpaceOnUse" id="20a33e05-b44a-4c5b-bdd8-cb3da95c6a84"><path d="M-8 -8 L122 -8 L122 26 L-8 26 L-8 -8 Z"/></clipPath><clipPath clipPathUnits="userSpaceOnUse" id="1d5dfb11-cadf-43c9-947e-7a1735e48fea"><path d="M0 0 L0 14 L110 14 L110 0 Z"/></clipPath><clipPath clipPathUnits="userSpaceOnUse" id="ce813511-c7a1-4199-935b-6f839b854231"><path d="M-8 -8 L122 -8 L122 1402 L-8 1402 L-8 -8 Z"/></clipPath><clipPath clipPathUnits="userSpaceOnUse" id="54a5d79a-2974-4753-89e4-27fdd7b9a9c7"><path d="M-8 -8 L122 -8 L122 1402 L-8 1402 L-8 -8 Z"/></clipPath><clipPath clipPathUnits="userSpaceOnUse" id="f5cf865d-74dd-4932-bf82-8f0538b769cb"><path d="M-8 -8 L122 -8 L122 1402 L-8 1402 L-8 -8 Z"/></clipPath><clipPath clipPathUnits="userSpaceOnUse" id="acd95d28-b361-438c-9302-f6f943724eef"><path d="M0 0 L0 1390 L110 1390 L110 0 Z"/></clipPath><clipPath clipPathUnits="userSpaceOnUse" id="c7409705-e0ce-47c1-904b-40c8a8baa7fb"><path d="M-7 -7 L86 -7 L86 51 L-7 51 L-7 -7 Z"/></clipPath><clipPath clipPathUnits="userSpaceOnUse" id="5efece61-0cee-4ca1-bc08-aa3382c6c680"><path d="M-7 -7 L86 -7 L86 51 L-7 51 L-7 -7 Z"/></clipPath><clipPath clipPathUnits="userSpaceOnUse" id="b61254ee-f9dd-41e0-bbb6-76b4dd95028a"><path d="M-7 -7 L86 -7 L86 51 L-7 51 L-7 -7 Z"/></clipPath><clipPath clipPathUnits="userSpaceOnUse" id="13593df4-a8ca-4d31-a035-d7c89954e090"><path d="M0 0 L0 40 L75 40 L75 0 Z"/></clipPath><clipPath clipPathUnits="userSpaceOnUse" id="8f280109-28ba-4a54-bba6-b2407b568166"><path d="M-7 -7 L101 -7 L101 51 L-7 51 L-7 -7 Z"/></clipPath><clipPath clipPathUnits="userSpaceOnUse" id="7433456a-b411-4105-a04c-8f50ba05ede4"><path d="M-7 -7 L101 -7 L101 51 L-7 51 L-7 -7 Z"/></clipPath><clipPath clipPathUnits="userSpaceOnUse" id="0931c173-7e34-4449-8df6-d99541d773ef"><path d="M-7 -7 L101 -7 L101 51 L-7 51 L-7 -7 Z"/></clipPath><clipPath clipPathUnits="userSpaceOnUse" id="4f936b0f-1d9c-4d37-a855-4875e2ff998e"><path d="M0 0 L0 40 L90 40 L90 0 Z"/></clipPath><clipPath clipPathUnits="userSpaceOnUse" id="312caf8a-a8eb-4365-bf4b-85636236831d"><path d="M-7 -7 L51 -7 L51 31 L-7 31 L-7 -7 Z"/></clipPath><clipPath clipPathUnits="userSpaceOnUse" id="fe206ae6-622e-4413-85ad-e2ad1c568fcf"><path d="M-7 -7 L51 -7 L51 31 L-7 31 L-7 -7 Z"/></clipPath><clipPath clipPathUnits="userSpaceOnUse" id="2751351d-38a7-4199-b59a-f882955fd89b"><path d="M-7 -7 L71 -7 L71 51 L-7 51 L-7 -7 Z"/></clipPath><clipPath clipPathUnits="userSpaceOnUse" id="1371024f-8bea-4149-ad2c-cf6638b8b5a3"><path d="M-7 -7 L71 -7 L71 51 L-7 51 L-7 -7 Z"/></clipPath><clipPath clipPathUnits="userSpaceOnUse" id="1388501b-1f06-419d-b501-fda141e844a8"><path d="M-7 -7 L71 -7 L71 51 L-7 51 L-7 -7 Z"/></clipPath><clipPath clipPathUnits="userSpaceOnUse" id="cfda3dfa-5bf6-4dc2-a459-4991b4a9fc99"><path d="M0 0 L0 40 L60 40 L60 0 Z"/></clipPath><clipPath clipPathUnits="userSpaceOnUse" id="e400ea89-46cf-430b-b12f-7e82b7f06736"><path d="M-7 -7 L71 -7 L71 51 L-7 51 L-7 -7 Z"/></clipPath><clipPath clipPathUnits="userSpaceOnUse" id="8171ee78-23ee-4320-8eeb-d851af57f464"><path d="M-7 -7 L71 -7 L71 51 L-7 51 L-7 -7 Z"/></clipPath><clipPath clipPathUnits="userSpaceOnUse" id="56643337-befd-4664-87f8-5d185c4f8288"><path d="M0 0 L0 40 L60 40 L60 0 Z"/></clipPath><clipPath clipPathUnits="userSpaceOnUse" id="7dcd52ee-3228-4e3d-814d-982a3e73e574"><path d="M-7 -7 L72 -7 L72 51 L-7 51 L-7 -7 Z"/></clipPath><clipPath clipPathUnits="userSpaceOnUse" id="e9a76030-7ed1-4ef7-a7e7-c4e1fc1a154b"><path d="M-7 -7 L72 -7 L72 51 L-7 51 L-7 -7 Z"/></clipPath><clipPath clipPathUnits="userSpaceOnUse" id="aa7106b4-76f7-477d-8928-86bda53950dc"><path d="M-7 -7 L72 -7 L72 51 L-7 51 L-7 -7 Z"/></clipPath><clipPath clipPathUnits="userSpaceOnUse" id="da95efc0-49f0-4c1c-80e6-2d1046d691f6"><path d="M0 0 L0 40 L61 40 L61 0 Z"/></clipPath><clipPath clipPathUnits="userSpaceOnUse" id="595ba11b-86d7-4d41-9ec7-4d0a95bdc6f5"><path d="M-7 -7 L71 -7 L71 51 L-7 51 L-7 -7 Z"/></clipPath><clipPath clipPathUnits="userSpaceOnUse" id="1f5dac3b-885b-4bce-a170-8f43b4cfeaa8"><path d="M-7 -7 L71 -7 L71 51 L-7 51 L-7 -7 Z"/></clipPath><clipPath clipPathUnits="userSpaceOnUse" id="b855b4d5-7bd2-4ac4-b4f5-8e33dc430349"><path d="M-7 -7 L71 -7 L71 51 L-7 51 L-7 -7 Z"/></clipPath><clipPath clipPathUnits="userSpaceOnUse" id="3a6d9600-0c3f-499a-9249-2157b8a3ba6c"><path d="M0 0 L0 40 L60 40 L60 0 Z"/></clipPath><clipPath clipPathUnits="userSpaceOnUse" id="cdf9ae07-6873-4398-9262-61a0e88d7b11"><path d="M-8 -8 L136 -8 L136 26 L-8 26 L-8 -8 Z"/></clipPath><clipPath clipPathUnits="userSpaceOnUse" id="c96adb6d-e700-4a99-ad8c-a3cf8dfa9ce9"><path d="M-8 -8 L136 -8 L136 26 L-8 26 L-8 -8 Z"/></clipPath><clipPath clipPathUnits="userSpaceOnUse" id="e425e200-6482-4e61-8cda-fce675dbad19"><path d="M-8 -8 L136 -8 L136 26 L-8 26 L-8 -8 Z"/></clipPath><clipPath clipPathUnits="userSpaceOnUse" id="ed88a063-8e1b-42bf-93f8-4bb66eff5364"><path d="M0 0 L0 14 L124 14 L124 0 Z"/></clipPath><clipPath clipPathUnits="userSpaceOnUse" id="f4f5dbad-f55d-41fb-9be8-1c6c8547cac3"><path d="M-8 -8 L136 -8 L136 1402 L-8 1402 L-8 -8 Z"/></clipPath><clipPath clipPathUnits="userSpaceOnUse" id="692592c5-e280-44cf-acd2-ad8890f674da"><path d="M-8 -8 L136 -8 L136 1402 L-8 1402 L-8 -8 Z"/></clipPath><clipPath clipPathUnits="userSpaceOnUse" id="0ec85372-e24f-4e36-9c91-87c319eb2e7f"><path d="M-8 -8 L136 -8 L136 1402 L-8 1402 L-8 -8 Z"/></clipPath><clipPath clipPathUnits="userSpaceOnUse" id="02907046-da8e-46e1-b099-3166f786d6df"><path d="M0 0 L0 1390 L124 1390 L124 0 Z"/></clipPath><clipPath clipPathUnits="userSpaceOnUse" id="11da0e12-5332-449e-a160-7f2d9bf9eccc"><path d="M-7 -7 L71 -7 L71 51 L-7 51 L-7 -7 Z"/></clipPath><clipPath clipPathUnits="userSpaceOnUse" id="5cbe90bb-e72e-4c12-abfd-05813f8c5f0f"><path d="M-7 -7 L71 -7 L71 51 L-7 51 L-7 -7 Z"/></clipPath><clipPath clipPathUnits="userSpaceOnUse" id="4ac7d36c-05b5-48fc-8c0b-4e4965c4c4a1"><path d="M-7 -7 L71 -7 L71 51 L-7 51 L-7 -7 Z"/></clipPath><clipPath clipPathUnits="userSpaceOnUse" id="bd0d1c19-4fc5-4cd0-bd58-6a54ec8475ee"><path d="M0 0 L0 40 L60 40 L60 0 Z"/></clipPath><clipPath clipPathUnits="userSpaceOnUse" id="1d69040f-cb73-4cee-8e1e-693bac7b9283"><path d="M-7 -7 L115 -7 L115 51 L-7 51 L-7 -7 Z"/></clipPath><clipPath clipPathUnits="userSpaceOnUse" id="1d508801-003e-4554-909b-496953d284f9"><path d="M-7 -7 L115 -7 L115 51 L-7 51 L-7 -7 Z"/></clipPath><clipPath clipPathUnits="userSpaceOnUse" id="6f981ff5-29b2-44c6-9816-6dccfd65724e"><path d="M-7 -7 L115 -7 L115 51 L-7 51 L-7 -7 Z"/></clipPath><clipPath clipPathUnits="userSpaceOnUse" id="3f80763b-73b2-430e-9b01-4a5bb3d5b40e"><path d="M0 0 L0 40 L104 40 L104 0 Z"/></clipPath><clipPath clipPathUnits="userSpaceOnUse" id="2ba1febf-76f6-470b-ac3e-21407de5fdfd"><path d="M-7 -7 L92 -7 L92 51 L-7 51 L-7 -7 Z"/></clipPath><clipPath clipPathUnits="userSpaceOnUse" id="4c15a9e8-c49d-4771-8585-f4de500d007d"><path d="M-7 -7 L92 -7 L92 51 L-7 51 L-7 -7 Z"/></clipPath><clipPath clipPathUnits="userSpaceOnUse" id="28fc6329-13b2-49df-b582-4feef0501e9a"><path d="M-7 -7 L92 -7 L92 51 L-7 51 L-7 -7 Z"/></clipPath><clipPath clipPathUnits="userSpaceOnUse" id="1647d1c3-561b-43df-8a05-254daca4d7db"><path d="M0 0 L0 40 L81 40 L81 0 Z"/></clipPath><clipPath clipPathUnits="userSpaceOnUse" id="0e6e40a5-0b66-4036-80db-55e94b6a7cc0"><path d="M-7 -7 L100 -7 L100 51 L-7 51 L-7 -7 Z"/></clipPath><clipPath clipPathUnits="userSpaceOnUse" id="15f11cbc-ef41-446c-9e7f-9097923a6e46"><path d="M-7 -7 L100 -7 L100 51 L-7 51 L-7 -7 Z"/></clipPath><clipPath clipPathUnits="userSpaceOnUse" id="2babc429-c2d9-490e-b38b-e15391904e0b"><path d="M-7 -7 L100 -7 L100 51 L-7 51 L-7 -7 Z"/></clipPath><clipPath clipPathUnits="userSpaceOnUse" id="db0279a9-e3f8-44a0-b898-e01731ca1880"><path d="M0 0 L0 40 L89 40 L89 0 Z"/></clipPath><clipPath clipPathUnits="userSpaceOnUse" id="a074ad85-bbce-4a65-9e62-bae3b0d05d14"><path d="M-7 -7 L31 -7 L31 31 L-7 31 L-7 -7 Z"/></clipPath><clipPath clipPathUnits="userSpaceOnUse" id="a5023101-f0f4-4f12-941a-57a29a776aba"><path d="M-7 -7 L31 -7 L31 31 L-7 31 L-7 -7 Z"/></clipPath><clipPath clipPathUnits="userSpaceOnUse" id="6d3e714e-ede8-4abf-846b-964028e607e9"><path d="M0 0 L104 0 L104 194 L0 194 L0 0 Z"/></clipPath><clipPath clipPathUnits="userSpaceOnUse" id="ab370222-66b8-41e5-80be-c60aecc8ff25"><path d="M0 0 L0 194 L104 194 L104 0 Z"/></clipPath><clipPath clipPathUnits="userSpaceOnUse" id="ee0c6a55-5131-4e3d-a248-5de3e31c44e8"><path d="M0 0 L104 0 L104 163 L0 163 L0 0 Z"/></clipPath><clipPath clipPathUnits="userSpaceOnUse" id="192de4b8-600a-448a-ac09-e66431c2287b"><path d="M0 0 L0 163 L104 163 L104 0 Z"/></clipPath><clipPath clipPathUnits="userSpaceOnUse" id="5918aec7-20f9-41d1-b36d-607fcb878246"><path d="M0 0 L104 0 L104 193 L0 193 L0 0 Z"/></clipPath><clipPath clipPathUnits="userSpaceOnUse" id="b2099ff5-65fa-4405-9ceb-8a0db26b2234"><path d="M0 0 L0 193 L104 193 L104 0 Z"/></clipPath><clipPath clipPathUnits="userSpaceOnUse" id="56036ee5-4ed9-400f-8706-2f7ecf4d0dfa"><path d="M0 0 L104 0 L104 193 L0 193 L0 0 Z"/></clipPath><clipPath clipPathUnits="userSpaceOnUse" id="4c4c1bf7-bee5-4d1c-8550-caa87e81369d"><path d="M0 0 L0 193 L104 193 L104 0 Z"/></clipPath><clipPath clipPathUnits="userSpaceOnUse" id="a0e178b0-3f88-4a0a-8ce5-e1bf033a6e1e"><path d="M0 0 L104 0 L104 193 L0 193 L0 0 Z"/></clipPath><clipPath clipPathUnits="userSpaceOnUse" id="00958abb-256c-4a61-9c99-71eb9883c888"><path d="M0 0 L0 193 L104 193 L104 0 Z"/></clipPath><clipPath clipPathUnits="userSpaceOnUse" id="bc8a01b4-7777-45f0-9463-89a71ef94302"><path d="M0 0 L104 0 L104 193 L0 193 L0 0 Z"/></clipPath><clipPath clipPathUnits="userSpaceOnUse" id="1b971b68-aaf0-4b0c-8cb4-f7fa51b65856"><path d="M0 0 L0 193 L104 193 L104 0 Z"/></clipPath><clipPath clipPathUnits="userSpaceOnUse" id="a66f8d6e-e227-4600-91b1-f3a0cc7ad7ab"><path d="M0 0 L104 0 L104 193 L0 193 L0 0 Z"/></clipPath><clipPath clipPathUnits="userSpaceOnUse" id="734e56dc-551d-441d-888b-761e954d69b3"><path d="M0 0 L0 193 L104 193 L104 0 Z"/></clipPath><clipPath clipPathUnits="userSpaceOnUse" id="d3c7ac9d-8706-46f6-88d4-8a8e505d69a3"><path d="M0 0 L104 0 L104 163 L0 163 L0 0 Z"/></clipPath><clipPath clipPathUnits="userSpaceOnUse" id="f622ad1e-21c4-40a0-92ac-2e51822ee7d5"><path d="M0 0 L0 163 L104 163 L104 0 Z"/></clipPath><clipPath clipPathUnits="userSpaceOnUse" id="66172f1d-3a01-44af-b030-bbec09b5575b"><path d="M0 0 L104 0 L104 193 L0 193 L0 0 Z"/></clipPath><clipPath clipPathUnits="userSpaceOnUse" id="675654f5-9e06-4261-b811-393dcde9a0bd"><path d="M0 0 L0 193 L104 193 L104 0 Z"/></clipPath><clipPath clipPathUnits="userSpaceOnUse" id="b02f9acd-ca14-4869-860d-69f0ee70c8e1"><path d="M0 0 L191 0 L191 214 L0 214 L0 0 Z"/></clipPath><clipPath clipPathUnits="userSpaceOnUse" id="1b979058-e99e-4629-a4e6-38a9615cde48"><path d="M0 0 L0 214 L191 214 L191 0 Z"/></clipPath><clipPath clipPathUnits="userSpaceOnUse" id="211f4ef2-35e0-4303-84f9-bfbfa697c904"><path d="M0 0 L104 0 L104 195 L0 195 L0 0 Z"/></clipPath><clipPath clipPathUnits="userSpaceOnUse" id="f4110b3a-7983-490e-966b-e36193a294bd"><path d="M0 0 L0 195 L104 195 L104 0 Z"/></clipPath></defs><g fill="white" fill-opacity="1" stroke="white" stroke-opacity="1" text-rendering="geometricPrecision"><rect height="1414" stroke="none" width="244" x="0" y="0"/></g><g data="{&quot;name&quot;:&quot;Build&quot;,&quot;modelType&quot;:&quot;ActivityPartition&quot;}" hyper="" model-id="shape-4ZLj0tmAUAAArRpw" style="pointer-events: auto; cursor: pointer;"><g fill="black" fill-opacity="1" font-family="sans-serif" font-size="11px" image-rendering="optimizeQuality" stroke="black" stroke-linecap="butt" stroke-linejoin="round" stroke-miterlimit="0" stroke-opacity="1" stroke-width="2" text-rendering="geometricPrecision" transform="translate(4,4)"><rect clip-path="url(#37d20676-23c0-4d20-9253-35c8a685d333)" fill="none" height="14" width="110" x="0" y="0"/></g></g><g fill="black" fill-opacity="1" font-family="sans-serif" font-size="11px" image-rendering="optimizeQuality" stroke="black" stroke-opacity="1" text-rendering="geometricPrecision" transform="translate(4,4)"><text clip-path="url(#1d5dfb11-cadf-43c9-947e-7a1735e48fea)" stroke="none" x="42" xml:space="preserve" y="11">Build</text></g><g data="" hyper="" model-id="" style="pointer-events: auto; cursor: pointer;"><g fill="black" fill-opacity="1" font-family="sans-serif" font-size="11px" image-rendering="optimizeQuality" stroke="black" stroke-linecap="butt" stroke-linejoin="round" stroke-miterlimit="0" stroke-opacity="1" stroke-width="2" text-rendering="geometricPrecision" transform="translate(4,18)"><rect clip-path="url(#54a5d79a-2974-4753-89e4-27fdd7b9a9c7)" fill="none" height="1390" width="110" x="0" y="0"/></g></g><g data="{&quot;name&quot;:&quot;Setup Dotnet&quot;,&quot;modelType&quot;:&quot;ActivityAction&quot;}" hyper="" model-id="shape-MvB90tmAUAAArRi9" style="pointer-events: auto; cursor: pointer;"><g fill="rgb(122,207,245)" fill-opacity="1" font-family="sans-serif" font-size="11px" image-rendering="optimizeQuality" stroke="rgb(122,207,245)" stroke-opacity="1" text-rendering="geometricPrecision" transform="translate(16,368)"><rect clip-path="url(#5efece61-0cee-4ca1-bc08-aa3382c6c680)" height="40" rx="15" ry="15" stroke="none" width="75" x="0" y="0"/></g><g fill="black" fill-opacity="1" font-family="sans-serif" font-size="11px" image-rendering="optimizeQuality" stroke="black" stroke-linecap="butt" stroke-linejoin="round" stroke-miterlimit="0" stroke-opacity="1" text-rendering="geometricPrecision" transform="translate(16,368)"><rect clip-path="url(#5efece61-0cee-4ca1-bc08-aa3382c6c680)" fill="none" height="40" rx="15" ry="15" width="75" x="0" y="0"/></g></g><g fill="black" fill-opacity="1" font-family="sans-serif" font-size="11px" image-rendering="optimizeQuality" stroke="black" stroke-opacity="1" text-rendering="geometricPrecision" transform="translate(16,368)"><text clip-path="url(#13593df4-a8ca-4d31-a035-d7c89954e090)" stroke="none" x="5" xml:space="preserve" y="24">Setup Dotnet</text></g><g data="{&quot;name&quot;:&quot;Upload Artifacts&quot;,&quot;modelType&quot;:&quot;ActivityAction&quot;}" hyper="" model-id="shape-gXID0tmAUAAArRj9" style="pointer-events: auto; cursor: pointer;"><g fill="rgb(122,207,245)" fill-opacity="1" font-family="sans-serif" font-size="11px" image-rendering="optimizeQuality" stroke="rgb(122,207,245)" stroke-opacity="1" text-rendering="geometricPrecision" transform="translate(14,628)"><rect clip-path="url(#7433456a-b411-4105-a04c-8f50ba05ede4)" height="40" rx="15" ry="15" stroke="none" width="90" x="0" y="0"/></g><g fill="black" fill-opacity="1" font-family="sans-serif" font-size="11px" image-rendering="optimizeQuality" stroke="black" stroke-linecap="butt" stroke-linejoin="round" stroke-miterlimit="0" stroke-opacity="1" text-rendering="geometricPrecision" transform="translate(14,628)"><rect clip-path="url(#7433456a-b411-4105-a04c-8f50ba05ede4)" fill="none" height="40" rx="15" ry="15" width="90" x="0" y="0"/></g></g><g fill="black" fill-opacity="1" font-family="sans-serif" font-size="11px" image-rendering="optimizeQuality" stroke="black" stroke-opacity="1" text-rendering="geometricPrecision" transform="translate(14,628)"><text clip-path="url(#4f936b0f-1d9c-4d37-a855-4875e2ff998e)" stroke="none" x="4" xml:space="preserve" y="24">Upload Artifacts</text></g><g data="{&quot;name&quot;:&quot;&quot;,&quot;modelType&quot;:&quot;InitialNode&quot;}" hyper="" model-id="shape-fe8d0tmAUAAArRgB" style="pointer-events: auto; cursor: pointer;"><g fill="black" fill-opacity="1" font-family="sans-serif" font-size="11px" image-rendering="optimizeQuality" stroke="black" stroke-opacity="1" text-rendering="geometricPrecision" transform="translate(16,28)"><circle clip-path="url(#fe206ae6-622e-4413-85ad-e2ad1c568fcf)" cx="20" cy="10" r="10" stroke="none"/></g></g><g data="{&quot;name&quot;:&quot;Set up job&quot;,&quot;modelType&quot;:&quot;ActivityAction&quot;}" hyper="" model-id="shape-KQud0tmAUAAArRgW" style="pointer-events: auto; cursor: pointer;"><g fill="rgb(122,207,245)" fill-opacity="1" font-family="sans-serif" font-size="11px" image-rendering="optimizeQuality" stroke="rgb(122,207,245)" stroke-opacity="1" text-rendering="geometricPrecision" transform="translate(16,138)"><rect clip-path="url(#1371024f-8bea-4149-ad2c-cf6638b8b5a3)" height="40" rx="15" ry="15" stroke="none" width="60" x="0" y="0"/></g><g fill="black" fill-opacity="1" font-family="sans-serif" font-size="11px" image-rendering="optimizeQuality" stroke="black" stroke-linecap="butt" stroke-linejoin="round" stroke-miterlimit="0" stroke-opacity="1" text-rendering="geometricPrecision" transform="translate(16,138)"><rect clip-path="url(#1371024f-8bea-4149-ad2c-cf6638b8b5a3)" fill="none" height="40" rx="15" ry="15" width="60" x="0" y="0"/></g></g><g fill="black" fill-opacity="1" font-family="sans-serif" font-size="11px" image-rendering="optimizeQuality" stroke="black" stroke-opacity="1" text-rendering="geometricPrecision" transform="translate(16,138)"><text clip-path="url(#cfda3dfa-5bf6-4dc2-a459-4991b4a9fc99)" stroke="none" x="5" xml:space="preserve" y="24">Set up job</text></g><g data="{&quot;name&quot;:&quot;Checkout&quot;,&quot;modelType&quot;:&quot;ActivityAction&quot;}" hyper="" model-id="shape-GLTd0tmAUAAArRg0" style="pointer-events: auto; cursor: pointer;"><g fill="rgb(122,207,245)" fill-opacity="1" font-family="sans-serif" font-size="11px" image-rendering="optimizeQuality" stroke="rgb(122,207,245)" stroke-opacity="1" text-rendering="geometricPrecision" transform="translate(16,238)"><rect clip-path="url(#e400ea89-46cf-430b-b12f-7e82b7f06736)" height="40" rx="15" ry="15" stroke="none" width="60" x="0" y="0"/></g><g fill="black" fill-opacity="1" font-family="sans-serif" font-size="11px" image-rendering="optimizeQuality" stroke="black" stroke-linecap="butt" stroke-linejoin="round" stroke-miterlimit="0" stroke-opacity="1" text-rendering="geometricPrecision" transform="translate(16,238)"><rect clip-path="url(#e400ea89-46cf-430b-b12f-7e82b7f06736)" fill="none" height="40" rx="15" ry="15" width="60" x="0" y="0"/></g></g><g fill="black" fill-opacity="1" font-family="sans-serif" font-size="11px" image-rendering="optimizeQuality" stroke="black" stroke-opacity="1" text-rendering="geometricPrecision" transform="translate(16,238)"><text clip-path="url(#56643337-befd-4664-87f8-5d185c4f8288)" stroke="none" x="6" xml:space="preserve" y="24">Checkout</text></g><g data="{&quot;name&quot;:&quot;Build Web&quot;,&quot;modelType&quot;:&quot;ActivityAction&quot;}" hyper="" model-id="shape-hpj90tmAUAAArRjr" style="pointer-events: auto; cursor: pointer;"><g fill="rgb(122,207,245)" fill-opacity="1" font-family="sans-serif" font-size="11px" image-rendering="optimizeQuality" stroke="rgb(122,207,245)" stroke-opacity="1" text-rendering="geometricPrecision" transform="translate(16,498)"><rect clip-path="url(#e9a76030-7ed1-4ef7-a7e7-c4e1fc1a154b)" height="40" rx="15" ry="15" stroke="none" width="61" x="0" y="0"/></g><g fill="black" fill-opacity="1" font-family="sans-serif" font-size="11px" image-rendering="optimizeQuality" stroke="black" stroke-linecap="butt" stroke-linejoin="round" stroke-miterlimit="0" stroke-opacity="1" text-rendering="geometricPrecision" transform="translate(16,498)"><rect clip-path="url(#e9a76030-7ed1-4ef7-a7e7-c4e1fc1a154b)" fill="none" height="40" rx="15" ry="15" width="61" x="0" y="0"/></g></g><g fill="black" fill-opacity="1" font-family="sans-serif" font-size="11px" image-rendering="optimizeQuality" stroke="black" stroke-opacity="1" text-rendering="geometricPrecision" transform="translate(16,498)"><text clip-path="url(#da95efc0-49f0-4c1c-80e6-2d1046d691f6)" stroke="none" x="4" xml:space="preserve" y="24">Build Web</text></g><g data="{&quot;name&quot;:&quot;Clean up&quot;,&quot;modelType&quot;:&quot;ActivityAction&quot;}" hyper="" model-id="shape-cRED0tmAUAAArRkP" style="pointer-events: auto; cursor: pointer;"><g fill="rgb(122,207,245)" fill-opacity="1" font-family="sans-serif" font-size="11px" image-rendering="optimizeQuality" stroke="rgb(122,207,245)" stroke-opacity="1" text-rendering="geometricPrecision" transform="translate(16,758)"><rect clip-path="url(#1f5dac3b-885b-4bce-a170-8f43b4cfeaa8)" height="40" rx="15" ry="15" stroke="none" width="60" x="0" y="0"/></g><g fill="black" fill-opacity="1" font-family="sans-serif" font-size="11px" image-rendering="optimizeQuality" stroke="black" stroke-linecap="butt" stroke-linejoin="round" stroke-miterlimit="0" stroke-opacity="1" text-rendering="geometricPrecision" transform="translate(16,758)"><rect clip-path="url(#1f5dac3b-885b-4bce-a170-8f43b4cfeaa8)" fill="none" height="40" rx="15" ry="15" width="60" x="0" y="0"/></g></g><g fill="black" fill-opacity="1" font-family="sans-serif" font-size="11px" image-rendering="optimizeQuality" stroke="black" stroke-opacity="1" text-rendering="geometricPrecision" transform="translate(16,758)"><text clip-path="url(#3a6d9600-0c3f-499a-9249-2157b8a3ba6c)" stroke="none" x="7" xml:space="preserve" y="24">Clean up</text></g><g data="{&quot;name&quot;:&quot;Deploy&quot;,&quot;modelType&quot;:&quot;ActivityPartition&quot;}" hyper="" model-id="shape-GZLj0tmAUAAArRp2" style="pointer-events: auto; cursor: pointer;"><g fill="black" fill-opacity="1" font-family="sans-serif" font-size="11px" image-rendering="optimizeQuality" stroke="black" stroke-linecap="butt" stroke-linejoin="round" stroke-miterlimit="0" stroke-opacity="1" stroke-width="2" text-rendering="geometricPrecision" transform="translate(114,4)"><rect clip-path="url(#c96adb6d-e700-4a99-ad8c-a3cf8dfa9ce9)" fill="none" height="14" width="124" x="0" y="0"/></g></g><g fill="black" fill-opacity="1" font-family="sans-serif" font-size="11px" image-rendering="optimizeQuality" stroke="black" stroke-opacity="1" text-rendering="geometricPrecision" transform="translate(114,4)"><text clip-path="url(#ed88a063-8e1b-42bf-93f8-4bb66eff5364)" stroke="none" x="44" xml:space="preserve" y="11">Deploy</text></g><g data="" hyper="" model-id="" style="pointer-events: auto; cursor: pointer;"><g fill="black" fill-opacity="1" font-family="sans-serif" font-size="11px" image-rendering="optimizeQuality" stroke="black" stroke-linecap="butt" stroke-linejoin="round" stroke-miterlimit="0" stroke-opacity="1" stroke-width="2" text-rendering="geometricPrecision" transform="translate(114,18)"><rect clip-path="url(#692592c5-e280-44cf-acd2-ad8890f674da)" fill="none" height="1390" width="124" x="0" y="0"/></g></g><g data="{&quot;name&quot;:&quot;Set up job&quot;,&quot;modelType&quot;:&quot;ActivityAction&quot;}" hyper="" model-id="shape-KQud0tmAUAAArRgW" style="pointer-events: auto; cursor: pointer;"><g fill="rgb(122,207,245)" fill-opacity="1" font-family="sans-serif" font-size="11px" image-rendering="optimizeQuality" stroke="rgb(122,207,245)" stroke-opacity="1" text-rendering="geometricPrecision" transform="translate(134,888)"><rect clip-path="url(#5cbe90bb-e72e-4c12-abfd-05813f8c5f0f)" height="40" rx="15" ry="15" stroke="none" width="60" x="0" y="0"/></g><g fill="black" fill-opacity="1" font-family="sans-serif" font-size="11px" image-rendering="optimizeQuality" stroke="black" stroke-linecap="butt" stroke-linejoin="round" stroke-miterlimit="0" stroke-opacity="1" text-rendering="geometricPrecision" transform="translate(134,888)"><rect clip-path="url(#5cbe90bb-e72e-4c12-abfd-05813f8c5f0f)" fill="none" height="40" rx="15" ry="15" width="60" x="0" y="0"/></g></g><g fill="black" fill-opacity="1" font-family="sans-serif" font-size="11px" image-rendering="optimizeQuality" stroke="black" stroke-opacity="1" text-rendering="geometricPrecision" transform="translate(134,888)"><text clip-path="url(#bd0d1c19-4fc5-4cd0-bd58-6a54ec8475ee)" stroke="none" x="5" xml:space="preserve" y="24">Set up job</text></g><g data="{&quot;name&quot;:&quot;Download Artifacts&quot;,&quot;modelType&quot;:&quot;ActivityAction&quot;}" hyper="" model-id="shape-T3aT0tmAUAAArRsk" style="pointer-events: auto; cursor: pointer;"><g fill="rgb(122,207,245)" fill-opacity="1" font-family="sans-serif" font-size="11px" image-rendering="optimizeQuality" stroke="rgb(122,207,245)" stroke-opacity="1" text-rendering="geometricPrecision" transform="translate(124,1018)"><rect clip-path="url(#1d508801-003e-4554-909b-496953d284f9)" height="40" rx="15" ry="15" stroke="none" width="104" x="0" y="0"/></g><g fill="black" fill-opacity="1" font-family="sans-serif" font-size="11px" image-rendering="optimizeQuality" stroke="black" stroke-linecap="butt" stroke-linejoin="round" stroke-miterlimit="0" stroke-opacity="1" text-rendering="geometricPrecision" transform="translate(124,1018)"><rect clip-path="url(#1d508801-003e-4554-909b-496953d284f9)" fill="none" height="40" rx="15" ry="15" width="104" x="0" y="0"/></g></g><g fill="black" fill-opacity="1" font-family="sans-serif" font-size="11px" image-rendering="optimizeQuality" stroke="black" stroke-opacity="1" text-rendering="geometricPrecision" transform="translate(124,1018)"><text clip-path="url(#3f80763b-73b2-430e-9b01-4a5bb3d5b40e)" stroke="none" x="5" xml:space="preserve" y="24">Download Artifacts</text></g><g data="{&quot;name&quot;:&quot;Login to Azure&quot;,&quot;modelType&quot;:&quot;ActivityAction&quot;}" hyper="" model-id="shape-zsBT0tmAUAAArRtb" style="pointer-events: auto; cursor: pointer;"><g fill="rgb(122,207,245)" fill-opacity="1" font-family="sans-serif" font-size="11px" image-rendering="optimizeQuality" stroke="rgb(122,207,245)" stroke-opacity="1" text-rendering="geometricPrecision" transform="translate(134,1118)"><rect clip-path="url(#4c15a9e8-c49d-4771-8585-f4de500d007d)" height="40" rx="15" ry="15" stroke="none" width="81" x="0" y="0"/></g><g fill="black" fill-opacity="1" font-family="sans-serif" font-size="11px" image-rendering="optimizeQuality" stroke="black" stroke-linecap="butt" stroke-linejoin="round" stroke-miterlimit="0" stroke-opacity="1" text-rendering="geometricPrecision" transform="translate(134,1118)"><rect clip-path="url(#4c15a9e8-c49d-4771-8585-f4de500d007d)" fill="none" height="40" rx="15" ry="15" width="81" x="0" y="0"/></g></g><g fill="black" fill-opacity="1" font-family="sans-serif" font-size="11px" image-rendering="optimizeQuality" stroke="black" stroke-opacity="1" text-rendering="geometricPrecision" transform="translate(134,1118)"><text clip-path="url(#1647d1c3-561b-43df-8a05-254daca4d7db)" stroke="none" x="5" xml:space="preserve" y="24">Login to Azure</text></g><g data="{&quot;name&quot;:&quot;Deploy to Azure&quot;,&quot;modelType&quot;:&quot;ActivityAction&quot;}" hyper="" model-id="shape-98dT0tmAUAAArRuS" style="pointer-events: auto; cursor: pointer;"><g fill="rgb(122,207,245)" fill-opacity="1" font-family="sans-serif" font-size="11px" image-rendering="optimizeQuality" stroke="rgb(122,207,245)" stroke-opacity="1" text-rendering="geometricPrecision" transform="translate(134,1248)"><rect clip-path="url(#15f11cbc-ef41-446c-9e7f-9097923a6e46)" height="40" rx="15" ry="15" stroke="none" width="89" x="0" y="0"/></g><g fill="black" fill-opacity="1" font-family="sans-serif" font-size="11px" image-rendering="optimizeQuality" stroke="black" stroke-linecap="butt" stroke-linejoin="round" stroke-miterlimit="0" stroke-opacity="1" text-rendering="geometricPrecision" transform="translate(134,1248)"><rect clip-path="url(#15f11cbc-ef41-446c-9e7f-9097923a6e46)" fill="none" height="40" rx="15" ry="15" width="89" x="0" y="0"/></g></g><g fill="black" fill-opacity="1" font-family="sans-serif" font-size="11px" image-rendering="optimizeQuality" stroke="black" stroke-opacity="1" text-rendering="geometricPrecision" transform="translate(134,1248)"><text clip-path="url(#db0279a9-e3f8-44a0-b898-e01731ca1880)" stroke="none" x="5" xml:space="preserve" y="24">Deploy to Azure</text></g><g data="{&quot;name&quot;:&quot;&quot;,&quot;modelType&quot;:&quot;ActivityFinalNode&quot;}" hyper="" model-id="shape-Jm3T0tmAUAAArRvj" style="pointer-events: auto; cursor: pointer;"><g fill="black" fill-opacity="1" font-family="sans-serif" font-size="11px" image-rendering="optimizeQuality" stroke="black" stroke-opacity="1" text-rendering="geometricPrecision" transform="translate(134,1378)"><circle clip-path="url(#a5023101-f0f4-4f12-941a-57a29a776aba)" cx="10" cy="10" r="6.6667" stroke="none"/><circle clip-path="url(#a5023101-f0f4-4f12-941a-57a29a776aba)" cx="10" cy="10" fill="none" r="10" stroke-linecap="butt" stroke-linejoin="round" stroke-miterlimit="0"/></g></g><g data="{&quot;modelType&quot;:&quot;ControlFlow&quot;}" hyper="" model-id="connector-VQud0tmAUAAArRga" style="pointer-events: auto; cursor: pointer;"><g fill="black" fill-opacity="1" font-family="sans-serif" font-size="11px" image-rendering="optimizeQuality" stroke="black" stroke-linecap="butt" stroke-linejoin="round" stroke-opacity="1" text-rendering="geometricPrecision" transform="translate(-14,-3)"><line clip-path="url(#ab370222-66b8-41e5-80be-c60aecc8ff25)" fill="none" x1="50" x2="50" y1="50" y2="140"/><line clip-path="url(#ab370222-66b8-41e5-80be-c60aecc8ff25)" fill="none" x1="50" x2="56" y1="140" y2="128"/><line clip-path="url(#ab370222-66b8-41e5-80be-c60aecc8ff25)" fill="none" x1="50" x2="44" y1="140" y2="128"/></g></g><g data="{&quot;modelType&quot;:&quot;ControlFlow&quot;}" hyper="" model-id="connector-NLTd0tmAUAAArRg4" style="pointer-events: auto; cursor: pointer;"><g fill="black" fill-opacity="1" font-family="sans-serif" font-size="11px" image-rendering="optimizeQuality" stroke="black" stroke-linecap="butt" stroke-linejoin="round" stroke-opacity="1" text-rendering="geometricPrecision" transform="translate(-4,128)"><line clip-path="url(#192de4b8-600a-448a-ac09-e66431c2287b)" fill="none" x1="50" x2="50" y1="50" y2="109"/><line clip-path="url(#192de4b8-600a-448a-ac09-e66431c2287b)" fill="none" x1="50" x2="56" y1="109" y2="97"/><line clip-path="url(#192de4b8-600a-448a-ac09-e66431c2287b)" fill="none" x1="50" x2="44" y1="109" y2="97"/></g></g><g data="{&quot;modelType&quot;:&quot;ControlFlow&quot;}" hyper="" model-id="connector-pvB90tmAUAAArRjB" style="pointer-events: auto; cursor: pointer;"><g fill="black" fill-opacity="1" font-family="sans-serif" font-size="11px" image-rendering="optimizeQuality" stroke="black" stroke-linecap="butt" stroke-linejoin="round" stroke-opacity="1" text-rendering="geometricPrecision" transform="translate(-4,228)"><line clip-path="url(#b2099ff5-65fa-4405-9ceb-8a0db26b2234)" fill="none" x1="50" x2="50" y1="50" y2="139"/><line clip-path="url(#b2099ff5-65fa-4405-9ceb-8a0db26b2234)" fill="none" x1="50" x2="56" y1="139" y2="127"/><line clip-path="url(#b2099ff5-65fa-4405-9ceb-8a0db26b2234)" fill="none" x1="50" x2="44" y1="139" y2="127"/></g></g><g data="{&quot;modelType&quot;:&quot;ControlFlow&quot;}" hyper="" model-id="connector-7pj90tmAUAAArRjv" style="pointer-events: auto; cursor: pointer;"><g fill="black" fill-opacity="1" font-family="sans-serif" font-size="11px" image-rendering="optimizeQuality" stroke="black" stroke-linecap="butt" stroke-linejoin="round" stroke-opacity="1" text-rendering="geometricPrecision" transform="translate(3,358)"><line clip-path="url(#4c4c1bf7-bee5-4d1c-8550-caa87e81369d)" fill="none" x1="50" x2="50" y1="50" y2="139"/><line clip-path="url(#4c4c1bf7-bee5-4d1c-8550-caa87e81369d)" fill="none" x1="50" x2="56" y1="139" y2="127"/><line clip-path="url(#4c4c1bf7-bee5-4d1c-8550-caa87e81369d)" fill="none" x1="50" x2="44" y1="139" y2="127"/></g></g><g data="{&quot;modelType&quot;:&quot;ControlFlow&quot;}" hyper="" model-id="connector-mXID0tmAUAAArRkB" style="pointer-events: auto; cursor: pointer;"><g fill="black" fill-opacity="1" font-family="sans-serif" font-size="11px" image-rendering="optimizeQuality" stroke="black" stroke-linecap="butt" stroke-linejoin="round" stroke-opacity="1" text-rendering="geometricPrecision" transform="translate(-4,488)"><line clip-path="url(#00958abb-256c-4a61-9c99-71eb9883c888)" fill="none" x1="50" x2="50" y1="50" y2="139"/><line clip-path="url(#00958abb-256c-4a61-9c99-71eb9883c888)" fill="none" x1="50" x2="56" y1="139" y2="127"/><line clip-path="url(#00958abb-256c-4a61-9c99-71eb9883c888)" fill="none" x1="50" x2="44" y1="139" y2="127"/></g></g><g data="{&quot;modelType&quot;:&quot;ControlFlow&quot;}" hyper="" model-id="connector-pRED0tmAUAAArRkT" style="pointer-events: auto; cursor: pointer;"><g fill="black" fill-opacity="1" font-family="sans-serif" font-size="11px" image-rendering="optimizeQuality" stroke="black" stroke-linecap="butt" stroke-linejoin="round" stroke-opacity="1" text-rendering="geometricPrecision" transform="translate(9,618)"><line clip-path="url(#1b971b68-aaf0-4b0c-8cb4-f7fa51b65856)" fill="none" x1="50" x2="50" y1="50" y2="139"/><line clip-path="url(#1b971b68-aaf0-4b0c-8cb4-f7fa51b65856)" fill="none" x1="50" x2="56" y1="139" y2="127"/><line clip-path="url(#1b971b68-aaf0-4b0c-8cb4-f7fa51b65856)" fill="none" x1="50" x2="44" y1="139" y2="127"/></g></g><g data="{&quot;modelType&quot;:&quot;ControlFlow&quot;}" hyper="" model-id="connector-cPaT0tmAUAAArRso" style="pointer-events: auto; cursor: pointer;"><g fill="black" fill-opacity="1" font-family="sans-serif" font-size="11px" image-rendering="optimizeQuality" stroke="black" stroke-linecap="butt" stroke-linejoin="round" stroke-opacity="1" text-rendering="geometricPrecision" transform="translate(114,878)"><line clip-path="url(#734e56dc-551d-441d-888b-761e954d69b3)" fill="none" x1="50" x2="50" y1="50" y2="139"/><line clip-path="url(#734e56dc-551d-441d-888b-761e954d69b3)" fill="none" x1="50" x2="56" y1="139" y2="127"/><line clip-path="url(#734e56dc-551d-441d-888b-761e954d69b3)" fill="none" x1="50" x2="44" y1="139" y2="127"/></g></g><g data="{&quot;modelType&quot;:&quot;ControlFlow&quot;}" hyper="" model-id="connector-ccBT0tmAUAAArRtf" style="pointer-events: auto; cursor: pointer;"><g fill="black" fill-opacity="1" font-family="sans-serif" font-size="11px" image-rendering="optimizeQuality" stroke="black" stroke-linecap="butt" stroke-linejoin="round" stroke-opacity="1" text-rendering="geometricPrecision" transform="translate(126,1008)"><line clip-path="url(#f622ad1e-21c4-40a0-92ac-2e51822ee7d5)" fill="none" x1="50" x2="50" y1="50" y2="109"/><line clip-path="url(#f622ad1e-21c4-40a0-92ac-2e51822ee7d5)" fill="none" x1="50" x2="56" y1="109" y2="97"/><line clip-path="url(#f622ad1e-21c4-40a0-92ac-2e51822ee7d5)" fill="none" x1="50" x2="44" y1="109" y2="97"/></g></g><g data="{&quot;modelType&quot;:&quot;ControlFlow&quot;}" hyper="" model-id="connector-YCdT0tmAUAAArRuW" style="pointer-events: auto; cursor: pointer;"><g fill="black" fill-opacity="1" font-family="sans-serif" font-size="11px" image-rendering="optimizeQuality" stroke="black" stroke-linecap="butt" stroke-linejoin="round" stroke-opacity="1" text-rendering="geometricPrecision" transform="translate(124,1108)"><line clip-path="url(#675654f5-9e06-4261-b811-393dcde9a0bd)" fill="none" x1="50" x2="50" y1="50" y2="139"/><line clip-path="url(#675654f5-9e06-4261-b811-393dcde9a0bd)" fill="none" x1="50" x2="56" y1="139" y2="127"/><line clip-path="url(#675654f5-9e06-4261-b811-393dcde9a0bd)" fill="none" x1="50" x2="44" y1="139" y2="127"/></g></g><g data="{&quot;modelType&quot;:&quot;ControlFlow&quot;}" hyper="" model-id="connector-t9nT0tmAUAAArRvX" style="pointer-events: auto; cursor: pointer;"><g fill="black" fill-opacity="1" font-family="sans-serif" font-size="11px" image-rendering="optimizeQuality" stroke="black" stroke-linecap="butt" stroke-linejoin="round" stroke-opacity="1" text-rendering="geometricPrecision" transform="translate(-4,748)"><line clip-path="url(#1b979058-e99e-4629-a4e6-38a9615cde48)" fill="none" x1="50" x2="50" y1="50" y2="160"/><line clip-path="url(#1b979058-e99e-4629-a4e6-38a9615cde48)" fill="none" x1="50" x2="137" y1="160" y2="160"/><line clip-path="url(#1b979058-e99e-4629-a4e6-38a9615cde48)" fill="none" x1="137" x2="125" y1="160" y2="154"/><line clip-path="url(#1b979058-e99e-4629-a4e6-38a9615cde48)" fill="none" x1="137" x2="125" y1="160" y2="166"/></g></g><g data="{&quot;modelType&quot;:&quot;ControlFlow&quot;}" hyper="" model-id="connector-fm3T0tmAUAAArRvn" style="pointer-events: auto; cursor: pointer;"><g fill="black" fill-opacity="1" font-family="sans-serif" font-size="11px" image-rendering="optimizeQuality" stroke="black" stroke-linecap="butt" stroke-linejoin="round" stroke-opacity="1" text-rendering="geometricPrecision" transform="translate(94,1238)"><line clip-path="url(#f4110b3a-7983-490e-966b-e36193a294bd)" fill="none" x1="50" x2="50" y1="50" y2="141"/><line clip-path="url(#f4110b3a-7983-490e-966b-e36193a294bd)" fill="none" x1="50" x2="56" y1="141" y2="129"/><line clip-path="url(#f4110b3a-7983-490e-966b-e36193a294bd)" fill="none" x1="50" x2="44" y1="141" y2="129"/></g></g><g fill="rgb(120,120,120)" fill-opacity="1" font-size="10px" image-rendering="optimizeQuality" stroke="rgb(120,120,120)" stroke-opacity="1" text-rendering="geometricPrecision"></g></g></svg>