<?xml version="1.0" encoding="UTF-8"?><svg xmlns="http://www.w3.org/2000/svg" xmlns:xlink="http://www.w3.org/1999/xlink" color-interpolation="auto" color-rendering="auto" fill="rgb(0,0,0)" fill-opacity="0" font-family="'Dialog'" font-size="12px" font-style="normal" font-weight="normal" height="951" image-rendering="auto" shape-rendering="auto" stroke="rgb(0,0,0)" stroke-dasharray="none" stroke-dashoffset="0" stroke-linecap="square" stroke-linejoin="miter" stroke-miterlimit="10" stroke-opacity="0" stroke-width="1" text-rendering="auto" viewbox="0 0 349 951" width="349"><!--Generated by the Batik Graphics2D SVG Generator--><defs id="genericDefs"/><g><defs id="defs1"><clipPath clipPathUnits="userSpaceOnUse" id="0a220806-ef27-49b9-bcad-8d3d3ee572cd"><path d="M-7 -7 L51 -7 L51 31 L-7 31 L-7 -7 Z"/></clipPath><clipPath clipPathUnits="userSpaceOnUse" id="d6a941f4-8807-4708-9952-e376e2df2c03"><path d="M-7 -7 L51 -7 L51 31 L-7 31 L-7 -7 Z"/></clipPath><clipPath clipPathUnits="userSpaceOnUse" id="fd24a76f-46fb-42b0-92cf-a82401bbd1d4"><path d="M-7 -7 L131 -7 L131 51 L-7 51 L-7 -7 Z"/></clipPath><clipPath clipPathUnits="userSpaceOnUse" id="1f11162d-dcbe-4051-bdc4-1425e1041381"><path d="M-7 -7 L131 -7 L131 51 L-7 51 L-7 -7 Z"/></clipPath><clipPath clipPathUnits="userSpaceOnUse" id="f8c37525-700b-42b2-9c9e-c48be2480dd0"><path d="M-7 -7 L131 -7 L131 51 L-7 51 L-7 -7 Z"/></clipPath><clipPath clipPathUnits="userSpaceOnUse" id="f3212e67-ff56-4ce1-bd5f-eb2d79b88e53"><path d="M0 0 L0 40 L120 40 L120 0 Z"/></clipPath><clipPath clipPathUnits="userSpaceOnUse" id="63bf5955-b0bb-4bdb-8d60-2410ac453c36"><path d="M-7 -7 L97 -7 L97 51 L-7 51 L-7 -7 Z"/></clipPath><clipPath clipPathUnits="userSpaceOnUse" id="a6c05aae-4f1a-4d17-9989-d0e3cac4345d"><path d="M-7 -7 L97 -7 L97 51 L-7 51 L-7 -7 Z"/></clipPath><clipPath clipPathUnits="userSpaceOnUse" id="4293900f-4153-4661-a9a4-79fa5b251cbd"><path d="M-7 -7 L97 -7 L97 51 L-7 51 L-7 -7 Z"/></clipPath><clipPath clipPathUnits="userSpaceOnUse" id="9a036385-c9fc-4a6b-895b-75313fc465af"><path d="M0 0 L0 40 L86 40 L86 0 Z"/></clipPath><clipPath clipPathUnits="userSpaceOnUse" id="8c4b5721-99d9-4ad5-821f-21f7e347589a"><path d="M-7 -7 L85 -7 L85 51 L-7 51 L-7 -7 Z"/></clipPath><clipPath clipPathUnits="userSpaceOnUse" id="c4591863-c930-4546-bc78-ff85f7242e9b"><path d="M-7 -7 L85 -7 L85 51 L-7 51 L-7 -7 Z"/></clipPath><clipPath clipPathUnits="userSpaceOnUse" id="5f0d9489-b850-45d5-bce8-5b8d68dfdcee"><path d="M-7 -7 L85 -7 L85 51 L-7 51 L-7 -7 Z"/></clipPath><clipPath clipPathUnits="userSpaceOnUse" id="72c9e101-00eb-48f7-8d18-618b7d4fb0cb"><path d="M0 0 L0 40 L74 40 L74 0 Z"/></clipPath><clipPath clipPathUnits="userSpaceOnUse" id="08cfe6e6-89eb-4b9f-a09d-eb9487c6c0b8"><path d="M-7 -7 L71 -7 L71 51 L-7 51 L-7 -7 Z"/></clipPath><clipPath clipPathUnits="userSpaceOnUse" id="45d78599-b5f3-4102-9fe1-c15c41c1ccfd"><path d="M-7 -7 L71 -7 L71 51 L-7 51 L-7 -7 Z"/></clipPath><clipPath clipPathUnits="userSpaceOnUse" id="435b1442-2678-43af-a23c-fe833b05f764"><path d="M-7 -7 L71 -7 L71 51 L-7 51 L-7 -7 Z"/></clipPath><clipPath clipPathUnits="userSpaceOnUse" id="0fdbf34f-31a6-4213-ad01-101e8c305433"><path d="M0 0 L0 40 L60 40 L60 0 Z"/></clipPath><clipPath clipPathUnits="userSpaceOnUse" id="612bf6ec-b79b-41d6-b146-1eba32f7c983"><path d="M-7 -7 L31 -7 L31 51 L-7 51 L-7 -7 Z"/></clipPath><clipPath clipPathUnits="userSpaceOnUse" id="27008e3a-746b-4bc4-a271-6fb40e1aa330"><path d="M-7 -7 L31 -7 L31 51 L-7 51 L-7 -7 Z"/></clipPath><clipPath clipPathUnits="userSpaceOnUse" id="077ebabf-aaa5-41d8-8ac5-dfc9ce803d45"><path d="M-7 -7 L71 -7 L71 51 L-7 51 L-7 -7 Z"/></clipPath><clipPath clipPathUnits="userSpaceOnUse" id="618d5df0-0d44-4265-aec2-b4e6fea16c9d"><path d="M-7 -7 L71 -7 L71 51 L-7 51 L-7 -7 Z"/></clipPath><clipPath clipPathUnits="userSpaceOnUse" id="413d5b9a-24ee-415f-a7da-0a95784f2728"><path d="M-7 -7 L71 -7 L71 51 L-7 51 L-7 -7 Z"/></clipPath><clipPath clipPathUnits="userSpaceOnUse" id="8f717811-bcc7-4630-9e99-5b90cf46cc97"><path d="M0 0 L0 40 L60 40 L60 0 Z"/></clipPath><clipPath clipPathUnits="userSpaceOnUse" id="9385da01-244d-4ea5-9c9f-d764428ed023"><path d="M-7 -7 L71 -7 L71 51 L-7 51 L-7 -7 Z"/></clipPath><clipPath clipPathUnits="userSpaceOnUse" id="27112931-faa4-48a5-a457-af2f99b78c9e"><path d="M-7 -7 L71 -7 L71 51 L-7 51 L-7 -7 Z"/></clipPath><clipPath clipPathUnits="userSpaceOnUse" id="885c7c61-cb49-4d11-ad2b-8d70a6474d9c"><path d="M0 0 L0 40 L60 40 L60 0 Z"/></clipPath><clipPath clipPathUnits="userSpaceOnUse" id="3f139d08-c331-43df-a5e7-abc8b7acbe5f"><path d="M-7 -7 L137 -7 L137 51 L-7 51 L-7 -7 Z"/></clipPath><clipPath clipPathUnits="userSpaceOnUse" id="61016081-fc03-42d8-8d1c-d418cfc445c9"><path d="M-7 -7 L137 -7 L137 51 L-7 51 L-7 -7 Z"/></clipPath><clipPath clipPathUnits="userSpaceOnUse" id="0f62a7d1-5264-4c54-8b5c-249976e43ebb"><path d="M-7 -7 L137 -7 L137 51 L-7 51 L-7 -7 Z"/></clipPath><clipPath clipPathUnits="userSpaceOnUse" id="300e3041-8d48-451e-8b97-7dffe9d9bc84"><path d="M0 0 L0 40 L126 40 L126 0 Z"/></clipPath><clipPath clipPathUnits="userSpaceOnUse" id="bd12a2fa-04e6-42c1-9d61-59544e0aa35a"><path d="M-7 -7 L142 -7 L142 51 L-7 51 L-7 -7 Z"/></clipPath><clipPath clipPathUnits="userSpaceOnUse" id="dfe986b7-b1ec-4e6f-95cd-8cc1f98f44d4"><path d="M-7 -7 L142 -7 L142 51 L-7 51 L-7 -7 Z"/></clipPath><clipPath clipPathUnits="userSpaceOnUse" id="7369ac64-4454-489b-a576-9542b4e48bf8"><path d="M-7 -7 L142 -7 L142 51 L-7 51 L-7 -7 Z"/></clipPath><clipPath clipPathUnits="userSpaceOnUse" id="a4285e2e-d9df-47b7-8a8e-7f4284cbdbf7"><path d="M0 0 L0 40 L131 40 L131 0 Z"/></clipPath><clipPath clipPathUnits="userSpaceOnUse" id="ff5d6ab6-de22-4bc7-868e-c07e9876d518"><path d="M-7 -7 L31 -7 L31 31 L-7 31 L-7 -7 Z"/></clipPath><clipPath clipPathUnits="userSpaceOnUse" id="fdf6d56f-eba4-49f0-aee8-a16e943d2380"><path d="M-7 -7 L31 -7 L31 31 L-7 31 L-7 -7 Z"/></clipPath><clipPath clipPathUnits="userSpaceOnUse" id="546ba6c3-78cc-4641-9023-6da61562e4d4"><path d="M-70 -14 L140 -14 L140 28 L-70 28 L-70 -14 Z"/></clipPath><clipPath clipPathUnits="userSpaceOnUse" id="9047c3ef-6d0c-4188-9de6-1d7ae8983c9f"><path d="M0 0 L104 0 L104 164 L0 164 L0 0 Z"/></clipPath><clipPath clipPathUnits="userSpaceOnUse" id="9b986884-011f-4011-8039-32544e85786c"><path d="M0 0 L0 164 L104 164 L104 0 Z"/></clipPath><clipPath clipPathUnits="userSpaceOnUse" id="d2b60a17-42f3-4086-9b34-50f91e39ebb6"><path d="M0 0 L104 0 L104 163 L0 163 L0 0 Z"/></clipPath><clipPath clipPathUnits="userSpaceOnUse" id="0dba71db-bd58-415d-9e59-2ab5306da99a"><path d="M0 0 L0 163 L104 163 L104 0 Z"/></clipPath><clipPath clipPathUnits="userSpaceOnUse" id="c2037f32-e23a-428d-b899-845ceeaf3ac5"><path d="M0 0 L104 0 L104 163 L0 163 L0 0 Z"/></clipPath><clipPath clipPathUnits="userSpaceOnUse" id="98e040c3-448a-4969-b9a4-d16d6e377712"><path d="M0 0 L0 163 L104 163 L104 0 Z"/></clipPath><clipPath clipPathUnits="userSpaceOnUse" id="288564bb-f599-4b42-a16f-8c5852f7c973"><path d="M0 0 L104 0 L104 163 L0 163 L0 0 Z"/></clipPath><clipPath clipPathUnits="userSpaceOnUse" id="71fa795e-3df2-44c3-9665-301463e5ccb7"><path d="M0 0 L0 163 L104 163 L104 0 Z"/></clipPath><clipPath clipPathUnits="userSpaceOnUse" id="36d83866-6da8-49a3-8015-33a899226d06"><path d="M0 0 L314 0 L314 104 L0 104 L0 0 Z"/></clipPath><clipPath clipPathUnits="userSpaceOnUse" id="78fee744-4cdb-4c7c-a67c-4a33b19855c2"><path d="M181 34 L181 48 L134 48 L134 34 ZM79 70 L79 84 L9 84 L9 70 ZM0 0 L0 100 L42 100 L42 104 L314 104 L314 0 Z"/></clipPath><clipPath clipPathUnits="userSpaceOnUse" id="1d1cdab9-1776-41e6-9014-bc963989ad43"><path d="M0 0 L104 0 L104 185 L0 185 L0 0 Z"/></clipPath><clipPath clipPathUnits="userSpaceOnUse" id="518c68e4-188b-4b6e-baa6-199c8acee7a9"><path d="M85 58 L85 72 L15 72 L15 58 ZM0 0 L0 88 L48 88 L48 102 L0 102 L0 185 L104 185 L104 0 Z"/></clipPath><clipPath clipPathUnits="userSpaceOnUse" id="6118e8de-31a8-4c9a-a1c8-7b52570fbf36"><path d="M0 0 L104 0 L104 172 L0 172 L0 0 Z"/></clipPath><clipPath clipPathUnits="userSpaceOnUse" id="6fc1e509-1f82-4901-88b8-3752fd2aaf5c"><path d="M85 150 L85 164 L15 164 L15 150 ZM0 0 L0 172 L104 172 L104 0 Z"/></clipPath><clipPath clipPathUnits="userSpaceOnUse" id="2f74448e-2646-4b8d-83bc-11a62e0abed7"><path d="M0 0 L163 0 L163 215 L0 215 L0 0 Z"/></clipPath><clipPath clipPathUnits="userSpaceOnUse" id="34c4afe7-2c31-492e-a4d0-8bd1d5403f26"><path d="M0 0 L0 215 L163 215 L163 0 Z"/></clipPath><clipPath clipPathUnits="userSpaceOnUse" id="1c675932-81df-4c8c-a3f2-e20bce36d346"><path d="M0 0 L165 0 L165 329 L0 329 L0 0 Z"/></clipPath><clipPath clipPathUnits="userSpaceOnUse" id="51b812b0-5a9a-4662-9b56-e8dba1207041"><path d="M0 0 L0 14 L1 14 L1 28 L0 28 L0 329 L165 329 L165 0 Z"/></clipPath><clipPath clipPathUnits="userSpaceOnUse" id="c555ab69-00c3-463b-9d4b-a1cc5b610881"><path d="M0 0 L104 0 L104 163 L0 163 L0 0 Z"/></clipPath><clipPath clipPathUnits="userSpaceOnUse" id="c2bdc154-a092-48ab-ae18-7cefe5c92e9f"><path d="M0 0 L0 163 L104 163 L104 0 Z"/></clipPath><clipPath clipPathUnits="userSpaceOnUse" id="f56c33e0-3887-4b5c-877a-1dc6cc540ca7"><path d="M0 0 L104 0 L104 165 L0 165 L0 0 Z"/></clipPath><clipPath clipPathUnits="userSpaceOnUse" id="5e1724b5-1008-4249-b619-627fdccedfeb"><path d="M0 0 L0 165 L104 165 L104 0 Z"/></clipPath><clipPath clipPathUnits="userSpaceOnUse" id="e995a7dd-7d50-45a0-92da-ef6d89298af2"><path d="M-64 -14 L128 -14 L128 28 L-64 28 L-64 -14 Z"/></clipPath><clipPath clipPathUnits="userSpaceOnUse" id="b42c2b10-b3e9-4d72-913c-29b2cbced0b1"><path d="M-47 -14 L94 -14 L94 28 L-47 28 L-47 -14 Z"/></clipPath></defs><g fill="white" fill-opacity="1" stroke="white" stroke-opacity="1" text-rendering="geometricPrecision"><rect height="951" stroke="none" width="349" x="0" y="0"/></g><g data="{&quot;name&quot;:&quot;&quot;,&quot;modelType&quot;:&quot;InitialNode&quot;}" hyper="" model-id="shape-tN4b0tmAUAAArSkE" style="pointer-events: auto; cursor: pointer;"><g fill="black" fill-opacity="1" font-family="sans-serif" font-size="11px" image-rendering="optimizeQuality" stroke="black" stroke-opacity="1" text-rendering="geometricPrecision" transform="translate(48,2)"><circle clip-path="url(#d6a941f4-8807-4708-9952-e376e2df2c03)" cx="20" cy="10" r="10" stroke="none"/></g></g><g data="{&quot;name&quot;:&quot;Create Github Release&quot;,&quot;modelType&quot;:&quot;ActivityAction&quot;}" hyper="" model-id="shape-.Qab0tmAUAAArSkf" style="pointer-events: auto; cursor: pointer;"><g fill="rgb(122,207,245)" fill-opacity="1" font-family="sans-serif" font-size="11px" image-rendering="optimizeQuality" stroke="rgb(122,207,245)" stroke-opacity="1" text-rendering="geometricPrecision" transform="translate(9,82)"><rect clip-path="url(#1f11162d-dcbe-4051-bdc4-1425e1041381)" height="40" rx="15" ry="15" stroke="none" width="120" x="0" y="0"/></g><g fill="black" fill-opacity="1" font-family="sans-serif" font-size="11px" image-rendering="optimizeQuality" stroke="black" stroke-linecap="butt" stroke-linejoin="round" stroke-miterlimit="0" stroke-opacity="1" text-rendering="geometricPrecision" transform="translate(9,82)"><rect clip-path="url(#1f11162d-dcbe-4051-bdc4-1425e1041381)" fill="none" height="40" rx="15" ry="15" width="120" x="0" y="0"/></g></g><g fill="black" fill-opacity="1" font-family="sans-serif" font-size="11px" image-rendering="optimizeQuality" stroke="black" stroke-opacity="1" text-rendering="geometricPrecision" transform="translate(9,82)"><text clip-path="url(#f3212e67-ff56-4ce1-bd5f-eb2d79b88e53)" stroke="none" x="4" xml:space="preserve" y="24">Create Github Release</text></g><g data="{&quot;name&quot;:&quot;Checkout&quot;,&quot;modelType&quot;:&quot;ActivityAction&quot;}" hyper="" model-id="shape-ClX70tmAUAAArSqG" style="pointer-events: auto; cursor: pointer;"><g fill="rgb(122,207,245)" fill-opacity="1" font-family="sans-serif" font-size="11px" image-rendering="optimizeQuality" stroke="rgb(122,207,245)" stroke-opacity="1" text-rendering="geometricPrecision" transform="translate(25,182)"><rect clip-path="url(#a6c05aae-4f1a-4d17-9989-d0e3cac4345d)" height="40" rx="15" ry="15" stroke="none" width="86" x="0" y="0"/></g><g fill="black" fill-opacity="1" font-family="sans-serif" font-size="11px" image-rendering="optimizeQuality" stroke="black" stroke-linecap="butt" stroke-linejoin="round" stroke-miterlimit="0" stroke-opacity="1" text-rendering="geometricPrecision" transform="translate(25,182)"><rect clip-path="url(#a6c05aae-4f1a-4d17-9989-d0e3cac4345d)" fill="none" height="40" rx="15" ry="15" width="86" x="0" y="0"/></g></g><g fill="black" fill-opacity="1" font-family="sans-serif" font-size="11px" image-rendering="optimizeQuality" stroke="black" stroke-opacity="1" text-rendering="geometricPrecision" transform="translate(25,182)"><text clip-path="url(#9a036385-c9fc-4a6b-895b-75313fc465af)" stroke="none" x="19" xml:space="preserve" y="24">Checkout</text></g><g data="{&quot;name&quot;:&quot;Setup dotnet&quot;,&quot;modelType&quot;:&quot;ActivityAction&quot;}" hyper="" model-id="shape-AJSH0tmAUAAArSra" style="pointer-events: auto; cursor: pointer;"><g fill="rgb(122,207,245)" fill-opacity="1" font-family="sans-serif" font-size="11px" image-rendering="optimizeQuality" stroke="rgb(122,207,245)" stroke-opacity="1" text-rendering="geometricPrecision" transform="translate(31,282)"><rect clip-path="url(#c4591863-c930-4546-bc78-ff85f7242e9b)" height="40" rx="15" ry="15" stroke="none" width="74" x="0" y="0"/></g><g fill="black" fill-opacity="1" font-family="sans-serif" font-size="11px" image-rendering="optimizeQuality" stroke="black" stroke-linecap="butt" stroke-linejoin="round" stroke-miterlimit="0" stroke-opacity="1" text-rendering="geometricPrecision" transform="translate(31,282)"><rect clip-path="url(#c4591863-c930-4546-bc78-ff85f7242e9b)" fill="none" height="40" rx="15" ry="15" width="74" x="0" y="0"/></g></g><g fill="black" fill-opacity="1" font-family="sans-serif" font-size="11px" image-rendering="optimizeQuality" stroke="black" stroke-opacity="1" text-rendering="geometricPrecision" transform="translate(31,282)"><text clip-path="url(#72c9e101-00eb-48f7-8d18-618b7d4fb0cb)" stroke="none" x="5" xml:space="preserve" y="24">Setup dotnet</text></g><g data="{&quot;name&quot;:&quot;Build&quot;,&quot;modelType&quot;:&quot;ActivityAction&quot;}" hyper="" model-id="shape-HUeH0tmAUAAArSrw" style="pointer-events: auto; cursor: pointer;"><g fill="rgb(122,207,245)" fill-opacity="1" font-family="sans-serif" font-size="11px" image-rendering="optimizeQuality" stroke="rgb(122,207,245)" stroke-opacity="1" text-rendering="geometricPrecision" transform="translate(38,382)"><rect clip-path="url(#45d78599-b5f3-4102-9fe1-c15c41c1ccfd)" height="40" rx="15" ry="15" stroke="none" width="60" x="0" y="0"/></g><g fill="black" fill-opacity="1" font-family="sans-serif" font-size="11px" image-rendering="optimizeQuality" stroke="black" stroke-linecap="butt" stroke-linejoin="round" stroke-miterlimit="0" stroke-opacity="1" text-rendering="geometricPrecision" transform="translate(38,382)"><rect clip-path="url(#45d78599-b5f3-4102-9fe1-c15c41c1ccfd)" fill="none" height="40" rx="15" ry="15" width="60" x="0" y="0"/></g></g><g fill="black" fill-opacity="1" font-family="sans-serif" font-size="11px" image-rendering="optimizeQuality" stroke="black" stroke-opacity="1" text-rendering="geometricPrecision" transform="translate(38,382)"><text clip-path="url(#0fdbf34f-31a6-4213-ad01-101e8c305433)" stroke="none" x="16" xml:space="preserve" y="24">Build</text></g><g data="{&quot;name&quot;:&quot;Compress&quot;,&quot;modelType&quot;:&quot;DecisionNode&quot;}" hyper="" model-id="shape-ALXH0tmAUAAArStc" style="pointer-events: auto; cursor: pointer;"><g fill="rgb(122,207,245)" fill-opacity="1" font-family="sans-serif" font-size="11px" image-rendering="optimizeQuality" stroke="rgb(122,207,245)" stroke-opacity="1" text-rendering="geometricPrecision" transform="translate(58,482)"><path clip-path="url(#27008e3a-746b-4bc4-a271-6fb40e1aa330)" d="M10 7.5 L17 20 L10 32.5 L3 20 Z" stroke="none"/></g><g fill="black" fill-opacity="1" font-family="sans-serif" font-size="11px" image-rendering="optimizeQuality" stroke="black" stroke-linecap="butt" stroke-linejoin="round" stroke-miterlimit="0" stroke-opacity="1" text-rendering="geometricPrecision" transform="translate(58,482)"><path clip-path="url(#27008e3a-746b-4bc4-a271-6fb40e1aa330)" d="M10 7.5 L17 20 L10 32.5 L3 20 Z" fill="none"/></g></g><g data="{&quot;name&quot;:&quot;tar.gz&quot;,&quot;modelType&quot;:&quot;ActivityAction&quot;}" hyper="" model-id="shape-hLXH0tmAUAAArStl" style="pointer-events: auto; cursor: pointer;"><g fill="rgb(122,207,245)" fill-opacity="1" font-family="sans-serif" font-size="11px" image-rendering="optimizeQuality" stroke="rgb(122,207,245)" stroke-opacity="1" text-rendering="geometricPrecision" transform="translate(285,482)"><rect clip-path="url(#618d5df0-0d44-4265-aec2-b4e6fea16c9d)" height="40" rx="15" ry="15" stroke="none" width="60" x="0" y="0"/></g><g fill="black" fill-opacity="1" font-family="sans-serif" font-size="11px" image-rendering="optimizeQuality" stroke="black" stroke-linecap="butt" stroke-linejoin="round" stroke-miterlimit="0" stroke-opacity="1" text-rendering="geometricPrecision" transform="translate(285,482)"><rect clip-path="url(#618d5df0-0d44-4265-aec2-b4e6fea16c9d)" fill="none" height="40" rx="15" ry="15" width="60" x="0" y="0"/></g></g><g fill="black" fill-opacity="1" font-family="sans-serif" font-size="11px" image-rendering="optimizeQuality" stroke="black" stroke-opacity="1" text-rendering="geometricPrecision" transform="translate(285,482)"><text clip-path="url(#8f717811-bcc7-4630-9e99-5b90cf46cc97)" stroke="none" x="15" xml:space="preserve" y="24">tar.gz</text></g><g data="{&quot;name&quot;:&quot;Zip&quot;,&quot;modelType&quot;:&quot;ActivityAction&quot;}" hyper="" model-id="shape-tLXH0tmAUAAArStp" style="pointer-events: auto; cursor: pointer;"><g fill="rgb(122,207,245)" fill-opacity="1" font-family="sans-serif" font-size="11px" image-rendering="optimizeQuality" stroke="rgb(122,207,245)" stroke-opacity="1" text-rendering="geometricPrecision" transform="translate(38,596)"><rect clip-path="url(#9385da01-244d-4ea5-9c9f-d764428ed023)" height="40" rx="15" ry="15" stroke="none" width="60" x="0" y="0"/></g><g fill="black" fill-opacity="1" font-family="sans-serif" font-size="11px" image-rendering="optimizeQuality" stroke="black" stroke-linecap="butt" stroke-linejoin="round" stroke-miterlimit="0" stroke-opacity="1" text-rendering="geometricPrecision" transform="translate(38,596)"><rect clip-path="url(#9385da01-244d-4ea5-9c9f-d764428ed023)" fill="none" height="40" rx="15" ry="15" width="60" x="0" y="0"/></g></g><g fill="black" fill-opacity="1" font-family="sans-serif" font-size="11px" image-rendering="optimizeQuality" stroke="black" stroke-opacity="1" text-rendering="geometricPrecision" transform="translate(38,596)"><text clip-path="url(#885c7c61-cb49-4d11-ad2b-8d70a6474d9c)" stroke="none" x="21" xml:space="preserve" y="24">Zip</text></g><g data="{&quot;name&quot;:&quot;Delete output directory&quot;,&quot;modelType&quot;:&quot;ActivityAction&quot;}" hyper="" model-id="shape-6L8n0tmAUAAArSuh" style="pointer-events: auto; cursor: pointer;"><g fill="rgb(122,207,245)" fill-opacity="1" font-family="sans-serif" font-size="11px" image-rendering="optimizeQuality" stroke="rgb(122,207,245)" stroke-opacity="1" text-rendering="geometricPrecision" transform="translate(128,727)"><rect clip-path="url(#61016081-fc03-42d8-8d1c-d418cfc445c9)" height="40" rx="15" ry="15" stroke="none" width="126" x="0" y="0"/></g><g fill="black" fill-opacity="1" font-family="sans-serif" font-size="11px" image-rendering="optimizeQuality" stroke="black" stroke-linecap="butt" stroke-linejoin="round" stroke-miterlimit="0" stroke-opacity="1" text-rendering="geometricPrecision" transform="translate(128,727)"><rect clip-path="url(#61016081-fc03-42d8-8d1c-d418cfc445c9)" fill="none" height="40" rx="15" ry="15" width="126" x="0" y="0"/></g></g><g fill="black" fill-opacity="1" font-family="sans-serif" font-size="11px" image-rendering="optimizeQuality" stroke="black" stroke-opacity="1" text-rendering="geometricPrecision" transform="translate(128,727)"><text clip-path="url(#300e3041-8d48-451e-8b97-7dffe9d9bc84)" stroke="none" x="4" xml:space="preserve" y="24">Delete output directory</text></g><g data="{&quot;name&quot;:&quot;Populate Github Release&quot;,&quot;modelType&quot;:&quot;ActivityAction&quot;}" hyper="" model-id="shape-q5un0tmAUAAArSvZ" style="pointer-events: auto; cursor: pointer;"><g fill="rgb(122,207,245)" fill-opacity="1" font-family="sans-serif" font-size="11px" image-rendering="optimizeQuality" stroke="rgb(122,207,245)" stroke-opacity="1" text-rendering="geometricPrecision" transform="translate(126,827)"><rect clip-path="url(#dfe986b7-b1ec-4e6f-95cd-8cc1f98f44d4)" height="40" rx="15" ry="15" stroke="none" width="131" x="0" y="0"/></g><g fill="black" fill-opacity="1" font-family="sans-serif" font-size="11px" image-rendering="optimizeQuality" stroke="black" stroke-linecap="butt" stroke-linejoin="round" stroke-miterlimit="0" stroke-opacity="1" text-rendering="geometricPrecision" transform="translate(126,827)"><rect clip-path="url(#dfe986b7-b1ec-4e6f-95cd-8cc1f98f44d4)" fill="none" height="40" rx="15" ry="15" width="131" x="0" y="0"/></g></g><g fill="black" fill-opacity="1" font-family="sans-serif" font-size="11px" image-rendering="optimizeQuality" stroke="black" stroke-opacity="1" text-rendering="geometricPrecision" transform="translate(126,827)"><text clip-path="url(#a4285e2e-d9df-47b7-8a8e-7f4284cbdbf7)" stroke="none" x="5" xml:space="preserve" y="24">Populate Github Release</text></g><g data="{&quot;name&quot;:&quot;&quot;,&quot;modelType&quot;:&quot;ActivityFinalNode&quot;}" hyper="" model-id="shape-3FJn0tmAUAAArSvt" style="pointer-events: auto; cursor: pointer;"><g fill="black" fill-opacity="1" font-family="sans-serif" font-size="11px" image-rendering="optimizeQuality" stroke="black" stroke-opacity="1" text-rendering="geometricPrecision" transform="translate(181,927)"><circle clip-path="url(#fdf6d56f-eba4-49f0-aee8-a16e943d2380)" cx="10" cy="10" r="6.6667" stroke="none"/><circle clip-path="url(#fdf6d56f-eba4-49f0-aee8-a16e943d2380)" cx="10" cy="10" fill="none" r="10" stroke-linecap="butt" stroke-linejoin="round" stroke-miterlimit="0"/></g></g><g fill="black" fill-opacity="1" font-family="sans-serif" font-size="11px" image-rendering="optimizeQuality" stroke="black" stroke-opacity="1" text-rendering="geometricPrecision" transform="translate(33,522)"><text clip-path="url(#546ba6c3-78cc-4641-9023-6da61562e4d4)" stroke="none" x="10" xml:space="preserve" y="11">Compress</text></g><g data="{&quot;modelType&quot;:&quot;ControlFlow&quot;}" hyper="" model-id="connector-3lzb0tmAUAAArSmm" style="pointer-events: auto; cursor: pointer;"><g fill="black" fill-opacity="1" font-family="sans-serif" font-size="11px" image-rendering="optimizeQuality" stroke="black" stroke-linecap="butt" stroke-linejoin="round" stroke-opacity="1" text-rendering="geometricPrecision" transform="translate(18,-29)"><line clip-path="url(#9b986884-011f-4011-8039-32544e85786c)" fill="none" x1="50" x2="50" y1="50" y2="110"/><line clip-path="url(#9b986884-011f-4011-8039-32544e85786c)" fill="none" x1="50" x2="56" y1="110" y2="98"/><line clip-path="url(#9b986884-011f-4011-8039-32544e85786c)" fill="none" x1="50" x2="44" y1="110" y2="98"/></g></g><g data="{&quot;modelType&quot;:&quot;ControlFlow&quot;}" hyper="" model-id="connector-qJSH0tmAUAAArSre" style="pointer-events: auto; cursor: pointer;"><g fill="black" fill-opacity="1" font-family="sans-serif" font-size="11px" image-rendering="optimizeQuality" stroke="black" stroke-linecap="butt" stroke-linejoin="round" stroke-opacity="1" text-rendering="geometricPrecision" transform="translate(18,172)"><line clip-path="url(#0dba71db-bd58-415d-9e59-2ab5306da99a)" fill="none" x1="50" x2="50" y1="50" y2="109"/><line clip-path="url(#0dba71db-bd58-415d-9e59-2ab5306da99a)" fill="none" x1="50" x2="56" y1="109" y2="97"/><line clip-path="url(#0dba71db-bd58-415d-9e59-2ab5306da99a)" fill="none" x1="50" x2="44" y1="109" y2="97"/></g></g><g data="{&quot;modelType&quot;:&quot;ControlFlow&quot;}" hyper="" model-id="connector-C0eH0tmAUAAArSr0" style="pointer-events: auto; cursor: pointer;"><g fill="black" fill-opacity="1" font-family="sans-serif" font-size="11px" image-rendering="optimizeQuality" stroke="black" stroke-linecap="butt" stroke-linejoin="round" stroke-opacity="1" text-rendering="geometricPrecision" transform="translate(18,272)"><line clip-path="url(#98e040c3-448a-4969-b9a4-d16d6e377712)" fill="none" x1="50" x2="50" y1="50" y2="109"/><line clip-path="url(#98e040c3-448a-4969-b9a4-d16d6e377712)" fill="none" x1="50" x2="56" y1="109" y2="97"/><line clip-path="url(#98e040c3-448a-4969-b9a4-d16d6e377712)" fill="none" x1="50" x2="44" y1="109" y2="97"/></g></g><g data="{&quot;modelType&quot;:&quot;ControlFlow&quot;}" hyper="" model-id="connector-6TNH0tmAUAAArSss" style="pointer-events: auto; cursor: pointer;"><g fill="black" fill-opacity="1" font-family="sans-serif" font-size="11px" image-rendering="optimizeQuality" stroke="black" stroke-linecap="butt" stroke-linejoin="round" stroke-opacity="1" text-rendering="geometricPrecision" transform="translate(19,72)"><line clip-path="url(#71fa795e-3df2-44c3-9665-301463e5ccb7)" fill="none" x1="50" x2="50" y1="50" y2="109"/><line clip-path="url(#71fa795e-3df2-44c3-9665-301463e5ccb7)" fill="none" x1="50" x2="56" y1="109" y2="97"/><line clip-path="url(#71fa795e-3df2-44c3-9665-301463e5ccb7)" fill="none" x1="50" x2="44" y1="109" y2="97"/></g></g><g data="{&quot;name&quot;:&quot;[Else]&quot;,&quot;modelType&quot;:&quot;ControlFlow&quot;}" hyper="" model-id="connector-fLXH0tmAUAAArStt" style="pointer-events: auto; cursor: pointer;"><g fill="black" fill-opacity="1" font-family="sans-serif" font-size="11px" image-rendering="optimizeQuality" stroke="black" stroke-linecap="butt" stroke-linejoin="round" stroke-opacity="1" text-rendering="geometricPrecision" transform="translate(24,452)"><line clip-path="url(#78fee744-4cdb-4c7c-a67c-4a33b19855c2)" fill="none" x1="50" x2="260" y1="50" y2="50"/><line clip-path="url(#78fee744-4cdb-4c7c-a67c-4a33b19855c2)" fill="none" x1="260" x2="248" y1="50" y2="44"/><line clip-path="url(#78fee744-4cdb-4c7c-a67c-4a33b19855c2)" fill="none" x1="260" x2="248" y1="50" y2="56"/></g></g><g data="{&quot;name&quot;:&quot;[Windos]&quot;,&quot;modelType&quot;:&quot;ControlFlow&quot;}" hyper="" model-id="connector-ErXH0tmAUAAArStx" style="pointer-events: auto; cursor: pointer;"><g fill="black" fill-opacity="1" font-family="sans-serif" font-size="11px" image-rendering="optimizeQuality" stroke="black" stroke-linecap="butt" stroke-linejoin="round" stroke-opacity="1" text-rendering="geometricPrecision" transform="translate(18,464)"><line clip-path="url(#518c68e4-188b-4b6e-baa6-199c8acee7a9)" fill="none" x1="50" x2="50" y1="50" y2="131"/><line clip-path="url(#518c68e4-188b-4b6e-baa6-199c8acee7a9)" fill="none" x1="50" x2="56" y1="131" y2="119"/><line clip-path="url(#518c68e4-188b-4b6e-baa6-199c8acee7a9)" fill="none" x1="50" x2="44" y1="131" y2="119"/></g></g><g data="{&quot;modelType&quot;:&quot;ControlFlow&quot;}" hyper="" model-id="connector-aLXH0tmAUAAArStg" style="pointer-events: auto; cursor: pointer;"><g fill="black" fill-opacity="1" font-family="sans-serif" font-size="11px" image-rendering="optimizeQuality" stroke="black" stroke-linecap="butt" stroke-linejoin="round" stroke-opacity="1" text-rendering="geometricPrecision" transform="translate(18,372)"><line clip-path="url(#6fc1e509-1f82-4901-88b8-3752fd2aaf5c)" fill="none" x1="50" x2="50" y1="50" y2="118"/><line clip-path="url(#6fc1e509-1f82-4901-88b8-3752fd2aaf5c)" fill="none" x1="50" x2="56" y1="118" y2="106"/><line clip-path="url(#6fc1e509-1f82-4901-88b8-3752fd2aaf5c)" fill="none" x1="50" x2="44" y1="118" y2="106"/></g></g><g data="{&quot;modelType&quot;:&quot;ControlFlow&quot;}" hyper="" model-id="connector-9L8n0tmAUAAArSul" style="pointer-events: auto; cursor: pointer;"><g fill="black" fill-opacity="1" font-family="sans-serif" font-size="11px" image-rendering="optimizeQuality" stroke="black" stroke-linecap="butt" stroke-linejoin="round" stroke-opacity="1" text-rendering="geometricPrecision" transform="translate(18,586)"><line clip-path="url(#34c4afe7-2c31-492e-a4d0-8bd1d5403f26)" fill="none" x1="50" x2="50" y1="50" y2="161"/><line clip-path="url(#34c4afe7-2c31-492e-a4d0-8bd1d5403f26)" fill="none" x1="50" x2="109" y1="161" y2="161"/><line clip-path="url(#34c4afe7-2c31-492e-a4d0-8bd1d5403f26)" fill="none" x1="109" x2="97" y1="161" y2="155"/><line clip-path="url(#34c4afe7-2c31-492e-a4d0-8bd1d5403f26)" fill="none" x1="109" x2="97" y1="161" y2="167"/></g></g><g data="{&quot;modelType&quot;:&quot;ControlFlow&quot;}" hyper="" model-id="connector-Jgmn0tmAUAAArSu5" style="pointer-events: auto; cursor: pointer;"><g fill="black" fill-opacity="1" font-family="sans-serif" font-size="11px" image-rendering="optimizeQuality" stroke="black" stroke-linecap="butt" stroke-linejoin="round" stroke-opacity="1" text-rendering="geometricPrecision" transform="translate(204,472)"><line clip-path="url(#51b812b0-5a9a-4662-9b56-e8dba1207041)" fill="none" x1="111" x2="111" y1="50" y2="275"/><line clip-path="url(#51b812b0-5a9a-4662-9b56-e8dba1207041)" fill="none" x1="111" x2="50" y1="275" y2="275"/><line clip-path="url(#51b812b0-5a9a-4662-9b56-e8dba1207041)" fill="none" x1="50" x2="62" y1="275" y2="281"/><line clip-path="url(#51b812b0-5a9a-4662-9b56-e8dba1207041)" fill="none" x1="50" x2="62" y1="275" y2="269"/></g></g><g data="{&quot;modelType&quot;:&quot;ControlFlow&quot;}" hyper="" model-id="connector-t5un0tmAUAAArSvd" style="pointer-events: auto; cursor: pointer;"><g fill="black" fill-opacity="1" font-family="sans-serif" font-size="11px" image-rendering="optimizeQuality" stroke="black" stroke-linecap="butt" stroke-linejoin="round" stroke-opacity="1" text-rendering="geometricPrecision" transform="translate(141,717)"><line clip-path="url(#c2bdc154-a092-48ab-ae18-7cefe5c92e9f)" fill="none" x1="50" x2="50" y1="50" y2="109"/><line clip-path="url(#c2bdc154-a092-48ab-ae18-7cefe5c92e9f)" fill="none" x1="50" x2="56" y1="109" y2="97"/><line clip-path="url(#c2bdc154-a092-48ab-ae18-7cefe5c92e9f)" fill="none" x1="50" x2="44" y1="109" y2="97"/></g></g><g data="{&quot;modelType&quot;:&quot;ControlFlow&quot;}" hyper="" model-id="connector-8lJn0tmAUAAArSvx" style="pointer-events: auto; cursor: pointer;"><g fill="black" fill-opacity="1" font-family="sans-serif" font-size="11px" image-rendering="optimizeQuality" stroke="black" stroke-linecap="butt" stroke-linejoin="round" stroke-opacity="1" text-rendering="geometricPrecision" transform="translate(141,817)"><line clip-path="url(#5e1724b5-1008-4249-b619-627fdccedfeb)" fill="none" x1="50" x2="50" y1="50" y2="111"/><line clip-path="url(#5e1724b5-1008-4249-b619-627fdccedfeb)" fill="none" x1="50" x2="56" y1="111" y2="99"/><line clip-path="url(#5e1724b5-1008-4249-b619-627fdccedfeb)" fill="none" x1="50" x2="44" y1="111" y2="99"/></g></g><g fill="black" fill-opacity="1" font-family="sans-serif" font-size="11px" image-rendering="optimizeQuality" stroke="black" stroke-opacity="1" text-rendering="geometricPrecision" transform="translate(2,552)"><text clip-path="url(#e995a7dd-7d50-45a0-92da-ef6d89298af2)" stroke="none" x="9" xml:space="preserve" y="11">[Windos]</text></g><g fill="black" fill-opacity="1" font-family="sans-serif" font-size="11px" image-rendering="optimizeQuality" stroke="black" stroke-opacity="1" text-rendering="geometricPrecision" transform="translate(158,486)"><text clip-path="url(#b42c2b10-b3e9-4d72-913c-29b2cbced0b1)" stroke="none" x="9" xml:space="preserve" y="11">[Else]</text></g><g fill="rgb(120,120,120)" fill-opacity="1" font-size="10px" image-rendering="optimizeQuality" stroke="rgb(120,120,120)" stroke-opacity="1" text-rendering="geometricPrecision"></g></g></svg>
