<?xml version="1.0" encoding="UTF-8"?><svg xmlns="http://www.w3.org/2000/svg" xmlns:xlink="http://www.w3.org/1999/xlink" color-interpolation="auto" color-rendering="auto" fill="rgb(0,0,0)" fill-opacity="0" font-family="'Dialog'" font-size="12px" font-style="normal" font-weight="normal" height="217" image-rendering="auto" shape-rendering="auto" stroke="rgb(0,0,0)" stroke-dasharray="none" stroke-dashoffset="0" stroke-linecap="square" stroke-linejoin="miter" stroke-miterlimit="10" stroke-opacity="0" stroke-width="1" text-rendering="auto" viewbox="0 0 748 217" width="748"><!--Generated by the Batik Graphics2D SVG Generator--><defs id="genericDefs"/><g><defs id="defs1"><clipPath clipPathUnits="userSpaceOnUse" id="c6585fac-2da0-4293-b266-88640c901a6b"><path d="M-7 -7 L51 -7 L51 31 L-7 31 L-7 -7 Z"/></clipPath><clipPath clipPathUnits="userSpaceOnUse" id="a48740d4-e9c5-4c17-a01a-62650633966d"><path d="M-7 -7 L51 -7 L51 31 L-7 31 L-7 -7 Z"/></clipPath><clipPath clipPathUnits="userSpaceOnUse" id="9c07fb30-31cc-4d3a-9f30-a7219b92fb61"><path d="M-7 -7 L131 -7 L131 51 L-7 51 L-7 -7 Z"/></clipPath><clipPath clipPathUnits="userSpaceOnUse" id="6d15d91d-32f9-40fa-b623-c4a27083b9c4"><path d="M-7 -7 L131 -7 L131 51 L-7 51 L-7 -7 Z"/></clipPath><clipPath clipPathUnits="userSpaceOnUse" id="68d4bff8-0bbd-40da-831c-409ea7282270"><path d="M-7 -7 L131 -7 L131 51 L-7 51 L-7 -7 Z"/></clipPath><clipPath clipPathUnits="userSpaceOnUse" id="b28f12be-fc85-475a-877f-dec4d3f98f3c"><path d="M0 0 L0 40 L120 40 L120 0 Z"/></clipPath><clipPath clipPathUnits="userSpaceOnUse" id="6344e800-426e-404a-ab4e-2bcafc541ea7"><path d="M-7 -7 L97 -7 L97 51 L-7 51 L-7 -7 Z"/></clipPath><clipPath clipPathUnits="userSpaceOnUse" id="fc461b92-91ef-429b-bb66-14f73e41feaf"><path d="M-7 -7 L97 -7 L97 51 L-7 51 L-7 -7 Z"/></clipPath><clipPath clipPathUnits="userSpaceOnUse" id="359837ce-d925-4b57-a9d0-f88744e9107a"><path d="M-7 -7 L97 -7 L97 51 L-7 51 L-7 -7 Z"/></clipPath><clipPath clipPathUnits="userSpaceOnUse" id="37421261-9770-4efa-acba-0440095a4e89"><path d="M0 0 L0 40 L86 40 L86 0 Z"/></clipPath><clipPath clipPathUnits="userSpaceOnUse" id="5373bb54-2855-4463-a68b-32b29ae780d9"><path d="M-7 -7 L85 -7 L85 51 L-7 51 L-7 -7 Z"/></clipPath><clipPath clipPathUnits="userSpaceOnUse" id="d0fd10ef-7e6b-4f71-ae20-0a865a843917"><path d="M-7 -7 L85 -7 L85 51 L-7 51 L-7 -7 Z"/></clipPath><clipPath clipPathUnits="userSpaceOnUse" id="61e832f4-2d45-4a5d-9ffc-5517224dd048"><path d="M-7 -7 L85 -7 L85 51 L-7 51 L-7 -7 Z"/></clipPath><clipPath clipPathUnits="userSpaceOnUse" id="f88b4bed-dc24-4605-ab25-2c5109088240"><path d="M0 0 L0 40 L74 40 L74 0 Z"/></clipPath><clipPath clipPathUnits="userSpaceOnUse" id="76f24be8-9351-4ed3-a041-4f83b52e5b4f"><path d="M-7 -7 L71 -7 L71 51 L-7 51 L-7 -7 Z"/></clipPath><clipPath clipPathUnits="userSpaceOnUse" id="9ec21a49-41ec-41a8-96f8-521cfd07ef2c"><path d="M-7 -7 L71 -7 L71 51 L-7 51 L-7 -7 Z"/></clipPath><clipPath clipPathUnits="userSpaceOnUse" id="da2f7ad4-db7a-4ee5-8b93-d0683ebe5608"><path d="M-7 -7 L71 -7 L71 51 L-7 51 L-7 -7 Z"/></clipPath><clipPath clipPathUnits="userSpaceOnUse" id="01b444c3-4d29-4430-a42a-aaf6d735191b"><path d="M0 0 L0 40 L60 40 L60 0 Z"/></clipPath><clipPath clipPathUnits="userSpaceOnUse" id="00cf9623-e68e-4a0e-8288-d164eac755fd"><path d="M-7 -7 L31 -7 L31 51 L-7 51 L-7 -7 Z"/></clipPath><clipPath clipPathUnits="userSpaceOnUse" id="c1bd37c9-0098-4f68-8b4d-483140f04ce0"><path d="M-7 -7 L31 -7 L31 51 L-7 51 L-7 -7 Z"/></clipPath><clipPath clipPathUnits="userSpaceOnUse" id="3d48dcdd-861e-4c06-a8a3-8406e3b65ef1"><path d="M-7 -7 L71 -7 L71 51 L-7 51 L-7 -7 Z"/></clipPath><clipPath clipPathUnits="userSpaceOnUse" id="502f5d8d-f90c-4148-b81b-67c1db2ca734"><path d="M-7 -7 L71 -7 L71 51 L-7 51 L-7 -7 Z"/></clipPath><clipPath clipPathUnits="userSpaceOnUse" id="13ba6a4f-8fcd-46d2-9a50-82735d052432"><path d="M-7 -7 L71 -7 L71 51 L-7 51 L-7 -7 Z"/></clipPath><clipPath clipPathUnits="userSpaceOnUse" id="0b09e641-458c-4d30-92ca-d2ee94b89fab"><path d="M0 0 L0 40 L60 40 L60 0 Z"/></clipPath><clipPath clipPathUnits="userSpaceOnUse" id="f17f8241-a02d-4b97-84d6-19f09ef2a520"><path d="M-7 -7 L71 -7 L71 51 L-7 51 L-7 -7 Z"/></clipPath><clipPath clipPathUnits="userSpaceOnUse" id="14aa2161-5466-4623-a4dd-1582e51c9c7d"><path d="M-7 -7 L71 -7 L71 51 L-7 51 L-7 -7 Z"/></clipPath><clipPath clipPathUnits="userSpaceOnUse" id="348da810-9864-4391-abab-707ebb957273"><path d="M0 0 L0 40 L60 40 L60 0 Z"/></clipPath><clipPath clipPathUnits="userSpaceOnUse" id="d7a78389-2bdc-47ad-a907-79cae019cdc9"><path d="M-7 -7 L137 -7 L137 51 L-7 51 L-7 -7 Z"/></clipPath><clipPath clipPathUnits="userSpaceOnUse" id="da37c701-3351-4711-853b-4ea4a09d8408"><path d="M-7 -7 L137 -7 L137 51 L-7 51 L-7 -7 Z"/></clipPath><clipPath clipPathUnits="userSpaceOnUse" id="d922078b-6d79-457a-a1b6-fd4dbd9ec4f2"><path d="M-7 -7 L137 -7 L137 51 L-7 51 L-7 -7 Z"/></clipPath><clipPath clipPathUnits="userSpaceOnUse" id="f25c5b75-bfb5-408a-bdef-baea8891082f"><path d="M0 0 L0 40 L126 40 L126 0 Z"/></clipPath><clipPath clipPathUnits="userSpaceOnUse" id="a6497d44-839a-4093-a98f-4b69bcc0cb4b"><path d="M-7 -7 L142 -7 L142 51 L-7 51 L-7 -7 Z"/></clipPath><clipPath clipPathUnits="userSpaceOnUse" id="7c12aa98-9cc0-497e-a807-dd0671b7ed1f"><path d="M-7 -7 L142 -7 L142 51 L-7 51 L-7 -7 Z"/></clipPath><clipPath clipPathUnits="userSpaceOnUse" id="4b54f104-8099-40e5-9c48-745a6a4fc6e9"><path d="M-7 -7 L142 -7 L142 51 L-7 51 L-7 -7 Z"/></clipPath><clipPath clipPathUnits="userSpaceOnUse" id="db33b550-8349-4d8f-8087-ade45b788014"><path d="M0 0 L0 40 L131 40 L131 0 Z"/></clipPath><clipPath clipPathUnits="userSpaceOnUse" id="0893b3e8-9f92-4a39-bbe6-03fc97566c8e"><path d="M-7 -7 L31 -7 L31 31 L-7 31 L-7 -7 Z"/></clipPath><clipPath clipPathUnits="userSpaceOnUse" id="59dcfab9-454d-40e2-8abd-964844f43d3f"><path d="M-7 -7 L31 -7 L31 31 L-7 31 L-7 -7 Z"/></clipPath><clipPath clipPathUnits="userSpaceOnUse" id="b004cc5e-107a-4a25-b10d-0076ceff340d"><path d="M-70 -14 L140 -14 L140 28 L-70 28 L-70 -14 Z"/></clipPath><clipPath clipPathUnits="userSpaceOnUse" id="e87f6b2e-6be4-4d8a-bef0-3d6fb6f7d6af"><path d="M0 0 L194 0 L194 104 L0 104 L0 0 Z"/></clipPath><clipPath clipPathUnits="userSpaceOnUse" id="ab02ae6f-ef63-445c-bbc9-b6325f75ba1f"><path d="M0 0 L0 104 L194 104 L194 0 Z"/></clipPath><clipPath clipPathUnits="userSpaceOnUse" id="c8dfeaf5-99bf-4fa8-861f-0f1f48edd080"><path d="M0 0 L183 0 L183 104 L0 104 L0 0 Z"/></clipPath><clipPath clipPathUnits="userSpaceOnUse" id="1d4a20f9-2329-48cf-b971-aff2ccd339a4"><path d="M0 0 L0 104 L183 104 L183 0 Z"/></clipPath><clipPath clipPathUnits="userSpaceOnUse" id="acdcefa2-d934-44e0-a821-05e6d4de3122"><path d="M0 0 L183 0 L183 104 L0 104 L0 0 Z"/></clipPath><clipPath clipPathUnits="userSpaceOnUse" id="fca083d5-e185-4064-af9f-efd85647ad7c"><path d="M0 0 L0 104 L183 104 L183 0 Z"/></clipPath><clipPath clipPathUnits="userSpaceOnUse" id="cc37cf19-82d5-492b-af57-9a738ae60611"><path d="M0 0 L183 0 L183 104 L0 104 L0 0 Z"/></clipPath><clipPath clipPathUnits="userSpaceOnUse" id="976a92d8-ac65-4f2b-9992-7968881ee0ac"><path d="M0 0 L0 104 L183 104 L183 0 Z"/></clipPath><clipPath clipPathUnits="userSpaceOnUse" id="f8e342c0-bccf-42ad-87af-f361735bfd61"><path d="M0 0 L104 0 L104 146 L0 146 L0 0 Z"/></clipPath><clipPath clipPathUnits="userSpaceOnUse" id="c03e01f7-dca0-4a0f-b37a-a4a0787e835c"><path d="M85 124 L85 138 L15 138 L15 124 ZM0 0 L0 116 L12 116 L12 130 L0 130 L0 146 L104 146 L104 0 Z"/></clipPath><clipPath clipPathUnits="userSpaceOnUse" id="981a3a9e-3e04-4bfc-b603-98c87b35723d"><path d="M0 0 L214 0 L214 104 L0 104 L0 0 Z"/></clipPath><clipPath clipPathUnits="userSpaceOnUse" id="33dd0f68-173d-40ba-b159-2dd57eb64c54"><path d="M129 62 L129 76 L82 76 L82 62 ZM202 70 L202 84 L132 84 L132 70 ZM0 0 L0 104 L167 104 L167 96 L214 96 L214 0 Z"/></clipPath><clipPath clipPathUnits="userSpaceOnUse" id="ce229488-4a99-436e-bec3-174d567b50c7"><path d="M0 0 L104 0 L104 168 L0 168 L0 0 Z"/></clipPath><clipPath clipPathUnits="userSpaceOnUse" id="f672b1ed-a525-4b96-ae83-248fda280a88"><path d="M85 58 L85 72 L15 72 L15 58 ZM0 0 L0 50 L12 50 L12 64 L0 64 L0 168 L104 168 L104 98 L50 98 L50 84 L104 84 L104 0 Z"/></clipPath><clipPath clipPathUnits="userSpaceOnUse" id="d6ff5371-4313-470d-9214-7603522ac178"><path d="M0 0 L157 0 L157 104 L0 104 L0 0 Z"/></clipPath><clipPath clipPathUnits="userSpaceOnUse" id="81f3d4e5-b589-4ff7-9e86-5660ddf287b9"><path d="M0 0 L0 104 L157 104 L157 13 L134 13 L134 0 Z"/></clipPath><clipPath clipPathUnits="userSpaceOnUse" id="0b29bc61-9ba5-4610-83d2-e37c65ff2ba3"><path d="M0 0 L104 0 L104 160 L0 160 L0 0 Z"/></clipPath><clipPath clipPathUnits="userSpaceOnUse" id="bd07a4cc-e592-4b97-8ef0-cf1983ca3c71"><path d="M0 0 L0 160 L104 160 L104 0 Z"/></clipPath><clipPath clipPathUnits="userSpaceOnUse" id="3aa11b7f-11a1-44ef-8ca4-480d9dd26373"><path d="M0 0 L157 0 L157 104 L0 104 L0 0 Z"/></clipPath><clipPath clipPathUnits="userSpaceOnUse" id="ab7a7476-67c1-42b4-adfd-4ce6b8c2717d"><path d="M0 0 L0 104 L157 104 L157 0 Z"/></clipPath><clipPath clipPathUnits="userSpaceOnUse" id="3879b3d9-0ea6-4afc-9c3e-15a34aa00a87"><path d="M0 0 L158 0 L158 104 L0 104 L0 0 Z"/></clipPath><clipPath clipPathUnits="userSpaceOnUse" id="b1f27477-b474-4d05-9bad-01e9839233de"><path d="M0 0 L0 104 L158 104 L158 0 Z"/></clipPath><clipPath clipPathUnits="userSpaceOnUse" id="f51bfdb7-6f2b-4555-a770-bc56e5929294"><path d="M-72 -14 L144 -14 L144 28 L-72 28 L-72 -14 Z"/></clipPath><clipPath clipPathUnits="userSpaceOnUse" id="a9f20c09-e31c-4914-a46f-7e65734088f2"><path d="M-47 -14 L94 -14 L94 28 L-47 28 L-47 -14 Z"/></clipPath></defs><g fill="white" fill-opacity="1" stroke="white" stroke-opacity="1" text-rendering="geometricPrecision"><rect height="217" stroke="none" width="748" x="0" y="0"/></g><g data="{&quot;name&quot;:&quot;&quot;,&quot;modelType&quot;:&quot;InitialNode&quot;}" hyper="" model-id="shape-tN4b0tmAUAAArSkE" style="pointer-events: auto; cursor: pointer;"><g fill="black" fill-opacity="1" font-family="sans-serif" font-size="11px" image-rendering="optimizeQuality" stroke="black" stroke-opacity="1" text-rendering="geometricPrecision" transform="translate(2,12)"><circle clip-path="url(#a48740d4-e9c5-4c17-a01a-62650633966d)" cx="20" cy="10" r="10" stroke="none"/></g></g><g data="{&quot;name&quot;:&quot;Create Github Release&quot;,&quot;modelType&quot;:&quot;ActivityAction&quot;}" hyper="" model-id="shape-.Qab0tmAUAAArSkf" style="pointer-events: auto; cursor: pointer;"><g fill="rgb(122,207,245)" fill-opacity="1" font-family="sans-serif" font-size="11px" image-rendering="optimizeQuality" stroke="rgb(122,207,245)" stroke-opacity="1" text-rendering="geometricPrecision" transform="translate(122,2)"><rect clip-path="url(#6d15d91d-32f9-40fa-b623-c4a27083b9c4)" height="40" rx="15" ry="15" stroke="none" width="120" x="0" y="0"/></g><g fill="black" fill-opacity="1" font-family="sans-serif" font-size="11px" image-rendering="optimizeQuality" stroke="black" stroke-linecap="butt" stroke-linejoin="round" stroke-miterlimit="0" stroke-opacity="1" text-rendering="geometricPrecision" transform="translate(122,2)"><rect clip-path="url(#6d15d91d-32f9-40fa-b623-c4a27083b9c4)" fill="none" height="40" rx="15" ry="15" width="120" x="0" y="0"/></g></g><g fill="black" fill-opacity="1" font-family="sans-serif" font-size="11px" image-rendering="optimizeQuality" stroke="black" stroke-opacity="1" text-rendering="geometricPrecision" transform="translate(122,2)"><text clip-path="url(#b28f12be-fc85-475a-877f-dec4d3f98f3c)" stroke="none" x="4" xml:space="preserve" y="24">Create Github Release</text></g><g data="{&quot;name&quot;:&quot;Checkout&quot;,&quot;modelType&quot;:&quot;ActivityAction&quot;}" hyper="" model-id="shape-ClX70tmAUAAArSqG" style="pointer-events: auto; cursor: pointer;"><g fill="rgb(122,207,245)" fill-opacity="1" font-family="sans-serif" font-size="11px" image-rendering="optimizeQuality" stroke="rgb(122,207,245)" stroke-opacity="1" text-rendering="geometricPrecision" transform="translate(322,2)"><rect clip-path="url(#fc461b92-91ef-429b-bb66-14f73e41feaf)" height="40" rx="15" ry="15" stroke="none" width="86" x="0" y="0"/></g><g fill="black" fill-opacity="1" font-family="sans-serif" font-size="11px" image-rendering="optimizeQuality" stroke="black" stroke-linecap="butt" stroke-linejoin="round" stroke-miterlimit="0" stroke-opacity="1" text-rendering="geometricPrecision" transform="translate(322,2)"><rect clip-path="url(#fc461b92-91ef-429b-bb66-14f73e41feaf)" fill="none" height="40" rx="15" ry="15" width="86" x="0" y="0"/></g></g><g fill="black" fill-opacity="1" font-family="sans-serif" font-size="11px" image-rendering="optimizeQuality" stroke="black" stroke-opacity="1" text-rendering="geometricPrecision" transform="translate(322,2)"><text clip-path="url(#37421261-9770-4efa-acba-0440095a4e89)" stroke="none" x="19" xml:space="preserve" y="24">Checkout</text></g><g data="{&quot;name&quot;:&quot;Setup dotnet&quot;,&quot;modelType&quot;:&quot;ActivityAction&quot;}" hyper="" model-id="shape-AJSH0tmAUAAArSra" style="pointer-events: auto; cursor: pointer;"><g fill="rgb(122,207,245)" fill-opacity="1" font-family="sans-serif" font-size="11px" image-rendering="optimizeQuality" stroke="rgb(122,207,245)" stroke-opacity="1" text-rendering="geometricPrecision" transform="translate(488,2)"><rect clip-path="url(#d0fd10ef-7e6b-4f71-ae20-0a865a843917)" height="40" rx="15" ry="15" stroke="none" width="74" x="0" y="0"/></g><g fill="black" fill-opacity="1" font-family="sans-serif" font-size="11px" image-rendering="optimizeQuality" stroke="black" stroke-linecap="butt" stroke-linejoin="round" stroke-miterlimit="0" stroke-opacity="1" text-rendering="geometricPrecision" transform="translate(488,2)"><rect clip-path="url(#d0fd10ef-7e6b-4f71-ae20-0a865a843917)" fill="none" height="40" rx="15" ry="15" width="74" x="0" y="0"/></g></g><g fill="black" fill-opacity="1" font-family="sans-serif" font-size="11px" image-rendering="optimizeQuality" stroke="black" stroke-opacity="1" text-rendering="geometricPrecision" transform="translate(488,2)"><text clip-path="url(#f88b4bed-dc24-4605-ab25-2c5109088240)" stroke="none" x="5" xml:space="preserve" y="24">Setup dotnet</text></g><g data="{&quot;name&quot;:&quot;Build&quot;,&quot;modelType&quot;:&quot;ActivityAction&quot;}" hyper="" model-id="shape-HUeH0tmAUAAArSrw" style="pointer-events: auto; cursor: pointer;"><g fill="rgb(122,207,245)" fill-opacity="1" font-family="sans-serif" font-size="11px" image-rendering="optimizeQuality" stroke="rgb(122,207,245)" stroke-opacity="1" text-rendering="geometricPrecision" transform="translate(642,2)"><rect clip-path="url(#9ec21a49-41ec-41a8-96f8-521cfd07ef2c)" height="40" rx="15" ry="15" stroke="none" width="60" x="0" y="0"/></g><g fill="black" fill-opacity="1" font-family="sans-serif" font-size="11px" image-rendering="optimizeQuality" stroke="black" stroke-linecap="butt" stroke-linejoin="round" stroke-miterlimit="0" stroke-opacity="1" text-rendering="geometricPrecision" transform="translate(642,2)"><rect clip-path="url(#9ec21a49-41ec-41a8-96f8-521cfd07ef2c)" fill="none" height="40" rx="15" ry="15" width="60" x="0" y="0"/></g></g><g fill="black" fill-opacity="1" font-family="sans-serif" font-size="11px" image-rendering="optimizeQuality" stroke="black" stroke-opacity="1" text-rendering="geometricPrecision" transform="translate(642,2)"><text clip-path="url(#01b444c3-4d29-4430-a42a-aaf6d735191b)" stroke="none" x="16" xml:space="preserve" y="24">Build</text></g><g data="{&quot;name&quot;:&quot;Compress&quot;,&quot;modelType&quot;:&quot;DecisionNode&quot;}" hyper="" model-id="shape-ALXH0tmAUAAArStc" style="pointer-events: auto; cursor: pointer;"><g fill="rgb(122,207,245)" fill-opacity="1" font-family="sans-serif" font-size="11px" image-rendering="optimizeQuality" stroke="rgb(122,207,245)" stroke-opacity="1" text-rendering="geometricPrecision" transform="translate(662,76)"><path clip-path="url(#c1bd37c9-0098-4f68-8b4d-483140f04ce0)" d="M10 7.5 L17 20 L10 32.5 L3 20 Z" stroke="none"/></g><g fill="black" fill-opacity="1" font-family="sans-serif" font-size="11px" image-rendering="optimizeQuality" stroke="black" stroke-linecap="butt" stroke-linejoin="round" stroke-miterlimit="0" stroke-opacity="1" text-rendering="geometricPrecision" transform="translate(662,76)"><path clip-path="url(#c1bd37c9-0098-4f68-8b4d-483140f04ce0)" d="M10 7.5 L17 20 L10 32.5 L3 20 Z" fill="none"/></g></g><g data="{&quot;name&quot;:&quot;tar.gz&quot;,&quot;modelType&quot;:&quot;ActivityAction&quot;}" hyper="" model-id="shape-hLXH0tmAUAAArStl" style="pointer-events: auto; cursor: pointer;"><g fill="rgb(122,207,245)" fill-opacity="1" font-family="sans-serif" font-size="11px" image-rendering="optimizeQuality" stroke="rgb(122,207,245)" stroke-opacity="1" text-rendering="geometricPrecision" transform="translate(495,76)"><rect clip-path="url(#502f5d8d-f90c-4148-b81b-67c1db2ca734)" height="40" rx="15" ry="15" stroke="none" width="60" x="0" y="0"/></g><g fill="black" fill-opacity="1" font-family="sans-serif" font-size="11px" image-rendering="optimizeQuality" stroke="black" stroke-linecap="butt" stroke-linejoin="round" stroke-miterlimit="0" stroke-opacity="1" text-rendering="geometricPrecision" transform="translate(495,76)"><rect clip-path="url(#502f5d8d-f90c-4148-b81b-67c1db2ca734)" fill="none" height="40" rx="15" ry="15" width="60" x="0" y="0"/></g></g><g fill="black" fill-opacity="1" font-family="sans-serif" font-size="11px" image-rendering="optimizeQuality" stroke="black" stroke-opacity="1" text-rendering="geometricPrecision" transform="translate(495,76)"><text clip-path="url(#0b09e641-458c-4d30-92ca-d2ee94b89fab)" stroke="none" x="15" xml:space="preserve" y="24">tar.gz</text></g><g data="{&quot;name&quot;:&quot;Zip&quot;,&quot;modelType&quot;:&quot;ActivityAction&quot;}" hyper="" model-id="shape-tLXH0tmAUAAArStp" style="pointer-events: auto; cursor: pointer;"><g fill="rgb(122,207,245)" fill-opacity="1" font-family="sans-serif" font-size="11px" image-rendering="optimizeQuality" stroke="rgb(122,207,245)" stroke-opacity="1" text-rendering="geometricPrecision" transform="translate(642,173)"><rect clip-path="url(#f17f8241-a02d-4b97-84d6-19f09ef2a520)" height="40" rx="15" ry="15" stroke="none" width="60" x="0" y="0"/></g><g fill="black" fill-opacity="1" font-family="sans-serif" font-size="11px" image-rendering="optimizeQuality" stroke="black" stroke-linecap="butt" stroke-linejoin="round" stroke-miterlimit="0" stroke-opacity="1" text-rendering="geometricPrecision" transform="translate(642,173)"><rect clip-path="url(#f17f8241-a02d-4b97-84d6-19f09ef2a520)" fill="none" height="40" rx="15" ry="15" width="60" x="0" y="0"/></g></g><g fill="black" fill-opacity="1" font-family="sans-serif" font-size="11px" image-rendering="optimizeQuality" stroke="black" stroke-opacity="1" text-rendering="geometricPrecision" transform="translate(642,173)"><text clip-path="url(#348da810-9864-4391-abab-707ebb957273)" stroke="none" x="21" xml:space="preserve" y="24">Zip</text></g><g data="{&quot;name&quot;:&quot;Delete output directory&quot;,&quot;modelType&quot;:&quot;ActivityAction&quot;}" hyper="" model-id="shape-6L8n0tmAUAAArSuh" style="pointer-events: auto; cursor: pointer;"><g fill="rgb(122,207,245)" fill-opacity="1" font-family="sans-serif" font-size="11px" image-rendering="optimizeQuality" stroke="rgb(122,207,245)" stroke-opacity="1" text-rendering="geometricPrecision" transform="translate(462,173)"><rect clip-path="url(#da37c701-3351-4711-853b-4ea4a09d8408)" height="40" rx="15" ry="15" stroke="none" width="126" x="0" y="0"/></g><g fill="black" fill-opacity="1" font-family="sans-serif" font-size="11px" image-rendering="optimizeQuality" stroke="black" stroke-linecap="butt" stroke-linejoin="round" stroke-miterlimit="0" stroke-opacity="1" text-rendering="geometricPrecision" transform="translate(462,173)"><rect clip-path="url(#da37c701-3351-4711-853b-4ea4a09d8408)" fill="none" height="40" rx="15" ry="15" width="126" x="0" y="0"/></g></g><g fill="black" fill-opacity="1" font-family="sans-serif" font-size="11px" image-rendering="optimizeQuality" stroke="black" stroke-opacity="1" text-rendering="geometricPrecision" transform="translate(462,173)"><text clip-path="url(#f25c5b75-bfb5-408a-bdef-baea8891082f)" stroke="none" x="4" xml:space="preserve" y="24">Delete output directory</text></g><g data="{&quot;name&quot;:&quot;Populate Github Release&quot;,&quot;modelType&quot;:&quot;ActivityAction&quot;}" hyper="" model-id="shape-q5un0tmAUAAArSvZ" style="pointer-events: auto; cursor: pointer;"><g fill="rgb(122,207,245)" fill-opacity="1" font-family="sans-serif" font-size="11px" image-rendering="optimizeQuality" stroke="rgb(122,207,245)" stroke-opacity="1" text-rendering="geometricPrecision" transform="translate(277,173)"><rect clip-path="url(#7c12aa98-9cc0-497e-a807-dd0671b7ed1f)" height="40" rx="15" ry="15" stroke="none" width="131" x="0" y="0"/></g><g fill="black" fill-opacity="1" font-family="sans-serif" font-size="11px" image-rendering="optimizeQuality" stroke="black" stroke-linecap="butt" stroke-linejoin="round" stroke-miterlimit="0" stroke-opacity="1" text-rendering="geometricPrecision" transform="translate(277,173)"><rect clip-path="url(#7c12aa98-9cc0-497e-a807-dd0671b7ed1f)" fill="none" height="40" rx="15" ry="15" width="131" x="0" y="0"/></g></g><g fill="black" fill-opacity="1" font-family="sans-serif" font-size="11px" image-rendering="optimizeQuality" stroke="black" stroke-opacity="1" text-rendering="geometricPrecision" transform="translate(277,173)"><text clip-path="url(#db33b550-8349-4d8f-8087-ade45b788014)" stroke="none" x="5" xml:space="preserve" y="24">Populate Github Release</text></g><g data="{&quot;name&quot;:&quot;&quot;,&quot;modelType&quot;:&quot;ActivityFinalNode&quot;}" hyper="" model-id="shape-3FJn0tmAUAAArSvt" style="pointer-events: auto; cursor: pointer;"><g fill="black" fill-opacity="1" font-family="sans-serif" font-size="11px" image-rendering="optimizeQuality" stroke="black" stroke-opacity="1" text-rendering="geometricPrecision" transform="translate(203,183)"><circle clip-path="url(#59dcfab9-454d-40e2-8abd-964844f43d3f)" cx="10" cy="10" r="6.6667" stroke="none"/><circle clip-path="url(#59dcfab9-454d-40e2-8abd-964844f43d3f)" cx="10" cy="10" fill="none" r="10" stroke-linecap="butt" stroke-linejoin="round" stroke-miterlimit="0"/></g></g><g fill="black" fill-opacity="1" font-family="sans-serif" font-size="11px" image-rendering="optimizeQuality" stroke="black" stroke-opacity="1" text-rendering="geometricPrecision" transform="translate(637,116)"><text clip-path="url(#b004cc5e-107a-4a25-b10d-0076ceff340d)" stroke="none" x="10" xml:space="preserve" y="11">Compress</text></g><g data="{&quot;modelType&quot;:&quot;ControlFlow&quot;}" hyper="" model-id="connector-3lzb0tmAUAAArSmm" style="pointer-events: auto; cursor: pointer;"><g fill="black" fill-opacity="1" font-family="sans-serif" font-size="11px" image-rendering="optimizeQuality" stroke="black" stroke-linecap="butt" stroke-linejoin="round" stroke-opacity="1" text-rendering="geometricPrecision" transform="translate(-19,-28)"><line clip-path="url(#ab02ae6f-ef63-445c-bbc9-b6325f75ba1f)" fill="none" x1="50" x2="140" y1="50" y2="50"/><line clip-path="url(#ab02ae6f-ef63-445c-bbc9-b6325f75ba1f)" fill="none" x1="140" x2="128" y1="50" y2="44"/><line clip-path="url(#ab02ae6f-ef63-445c-bbc9-b6325f75ba1f)" fill="none" x1="140" x2="128" y1="50" y2="56"/></g></g><g data="{&quot;modelType&quot;:&quot;ControlFlow&quot;}" hyper="" model-id="connector-qJSH0tmAUAAArSre" style="pointer-events: auto; cursor: pointer;"><g fill="black" fill-opacity="1" font-family="sans-serif" font-size="11px" image-rendering="optimizeQuality" stroke="black" stroke-linecap="butt" stroke-linejoin="round" stroke-opacity="1" text-rendering="geometricPrecision" transform="translate(358,-28)"><line clip-path="url(#1d4a20f9-2329-48cf-b971-aff2ccd339a4)" fill="none" x1="50" x2="129" y1="50" y2="50"/><line clip-path="url(#1d4a20f9-2329-48cf-b971-aff2ccd339a4)" fill="none" x1="129" x2="117" y1="50" y2="44"/><line clip-path="url(#1d4a20f9-2329-48cf-b971-aff2ccd339a4)" fill="none" x1="129" x2="117" y1="50" y2="56"/></g></g><g data="{&quot;modelType&quot;:&quot;ControlFlow&quot;}" hyper="" model-id="connector-C0eH0tmAUAAArSr0" style="pointer-events: auto; cursor: pointer;"><g fill="black" fill-opacity="1" font-family="sans-serif" font-size="11px" image-rendering="optimizeQuality" stroke="black" stroke-linecap="butt" stroke-linejoin="round" stroke-opacity="1" text-rendering="geometricPrecision" transform="translate(512,-28)"><line clip-path="url(#fca083d5-e185-4064-af9f-efd85647ad7c)" fill="none" x1="50" x2="129" y1="50" y2="50"/><line clip-path="url(#fca083d5-e185-4064-af9f-efd85647ad7c)" fill="none" x1="129" x2="117" y1="50" y2="44"/><line clip-path="url(#fca083d5-e185-4064-af9f-efd85647ad7c)" fill="none" x1="129" x2="117" y1="50" y2="56"/></g></g><g data="{&quot;modelType&quot;:&quot;ControlFlow&quot;}" hyper="" model-id="connector-6TNH0tmAUAAArSss" style="pointer-events: auto; cursor: pointer;"><g fill="black" fill-opacity="1" font-family="sans-serif" font-size="11px" image-rendering="optimizeQuality" stroke="black" stroke-linecap="butt" stroke-linejoin="round" stroke-opacity="1" text-rendering="geometricPrecision" transform="translate(192,-28)"><line clip-path="url(#976a92d8-ac65-4f2b-9992-7968881ee0ac)" fill="none" x1="50" x2="129" y1="50" y2="50"/><line clip-path="url(#976a92d8-ac65-4f2b-9992-7968881ee0ac)" fill="none" x1="129" x2="117" y1="50" y2="44"/><line clip-path="url(#976a92d8-ac65-4f2b-9992-7968881ee0ac)" fill="none" x1="129" x2="117" y1="50" y2="56"/></g></g><g data="{&quot;modelType&quot;:&quot;ControlFlow&quot;}" hyper="" model-id="connector-aLXH0tmAUAAArStg" style="pointer-events: auto; cursor: pointer;"><g fill="black" fill-opacity="1" font-family="sans-serif" font-size="11px" image-rendering="optimizeQuality" stroke="black" stroke-linecap="butt" stroke-linejoin="round" stroke-opacity="1" text-rendering="geometricPrecision" transform="translate(622,-8)"><line clip-path="url(#c03e01f7-dca0-4a0f-b37a-a4a0787e835c)" fill="none" x1="50" x2="50" y1="50" y2="92"/><line clip-path="url(#c03e01f7-dca0-4a0f-b37a-a4a0787e835c)" fill="none" x1="50" x2="56" y1="92" y2="80"/><line clip-path="url(#c03e01f7-dca0-4a0f-b37a-a4a0787e835c)" fill="none" x1="50" x2="44" y1="92" y2="80"/></g></g><g data="{&quot;name&quot;:&quot;[Else]&quot;,&quot;modelType&quot;:&quot;ControlFlow&quot;}" hyper="" model-id="connector-fLXH0tmAUAAArStt" style="pointer-events: auto; cursor: pointer;"><g fill="black" fill-opacity="1" font-family="sans-serif" font-size="11px" image-rendering="optimizeQuality" stroke="black" stroke-linecap="butt" stroke-linejoin="round" stroke-opacity="1" text-rendering="geometricPrecision" transform="translate(505,46)"><line clip-path="url(#33dd0f68-173d-40ba-b159-2dd57eb64c54)" fill="none" x1="160" x2="50" y1="50" y2="50"/><line clip-path="url(#33dd0f68-173d-40ba-b159-2dd57eb64c54)" fill="none" x1="50" x2="62" y1="50" y2="56"/><line clip-path="url(#33dd0f68-173d-40ba-b159-2dd57eb64c54)" fill="none" x1="50" x2="62" y1="50" y2="44"/></g></g><g data="{&quot;name&quot;:&quot;[Windows]&quot;,&quot;modelType&quot;:&quot;ControlFlow&quot;}" hyper="" model-id="connector-ErXH0tmAUAAArStx" style="pointer-events: auto; cursor: pointer;"><g fill="black" fill-opacity="1" font-family="sans-serif" font-size="11px" image-rendering="optimizeQuality" stroke="black" stroke-linecap="butt" stroke-linejoin="round" stroke-opacity="1" text-rendering="geometricPrecision" transform="translate(622,58)"><line clip-path="url(#f672b1ed-a525-4b96-ae83-248fda280a88)" fill="none" x1="50" x2="50" y1="50" y2="114"/><line clip-path="url(#f672b1ed-a525-4b96-ae83-248fda280a88)" fill="none" x1="50" x2="56" y1="114" y2="102"/><line clip-path="url(#f672b1ed-a525-4b96-ae83-248fda280a88)" fill="none" x1="50" x2="44" y1="114" y2="102"/></g></g><g data="{&quot;modelType&quot;:&quot;ControlFlow&quot;}" hyper="" model-id="connector-9L8n0tmAUAAArSul" style="pointer-events: auto; cursor: pointer;"><g fill="black" fill-opacity="1" font-family="sans-serif" font-size="11px" image-rendering="optimizeQuality" stroke="black" stroke-linecap="butt" stroke-linejoin="round" stroke-opacity="1" text-rendering="geometricPrecision" transform="translate(538,143)"><line clip-path="url(#81f3d4e5-b589-4ff7-9e86-5660ddf287b9)" fill="none" x1="103" x2="50" y1="50" y2="50"/><line clip-path="url(#81f3d4e5-b589-4ff7-9e86-5660ddf287b9)" fill="none" x1="50" x2="62" y1="50" y2="56"/><line clip-path="url(#81f3d4e5-b589-4ff7-9e86-5660ddf287b9)" fill="none" x1="50" x2="62" y1="50" y2="44"/></g></g><g data="{&quot;modelType&quot;:&quot;ControlFlow&quot;}" hyper="" model-id="connector-Jgmn0tmAUAAArSu5" style="pointer-events: auto; cursor: pointer;"><g fill="black" fill-opacity="1" font-family="sans-serif" font-size="11px" image-rendering="optimizeQuality" stroke="black" stroke-linecap="butt" stroke-linejoin="round" stroke-opacity="1" text-rendering="geometricPrecision" transform="translate(475,66)"><line clip-path="url(#bd07a4cc-e592-4b97-8ef0-cf1983ca3c71)" fill="none" x1="50" x2="50" y1="50" y2="106"/><line clip-path="url(#bd07a4cc-e592-4b97-8ef0-cf1983ca3c71)" fill="none" x1="50" x2="56" y1="106" y2="94"/><line clip-path="url(#bd07a4cc-e592-4b97-8ef0-cf1983ca3c71)" fill="none" x1="50" x2="44" y1="106" y2="94"/></g></g><g data="{&quot;modelType&quot;:&quot;ControlFlow&quot;}" hyper="" model-id="connector-t5un0tmAUAAArSvd" style="pointer-events: auto; cursor: pointer;"><g fill="black" fill-opacity="1" font-family="sans-serif" font-size="11px" image-rendering="optimizeQuality" stroke="black" stroke-linecap="butt" stroke-linejoin="round" stroke-opacity="1" text-rendering="geometricPrecision" transform="translate(358,143)"><line clip-path="url(#ab7a7476-67c1-42b4-adfd-4ce6b8c2717d)" fill="none" x1="103" x2="50" y1="50" y2="50"/><line clip-path="url(#ab7a7476-67c1-42b4-adfd-4ce6b8c2717d)" fill="none" x1="50" x2="62" y1="50" y2="56"/><line clip-path="url(#ab7a7476-67c1-42b4-adfd-4ce6b8c2717d)" fill="none" x1="50" x2="62" y1="50" y2="44"/></g></g><g data="{&quot;modelType&quot;:&quot;ControlFlow&quot;}" hyper="" model-id="connector-8lJn0tmAUAAArSvx" style="pointer-events: auto; cursor: pointer;"><g fill="black" fill-opacity="1" font-family="sans-serif" font-size="11px" image-rendering="optimizeQuality" stroke="black" stroke-linecap="butt" stroke-linejoin="round" stroke-opacity="1" text-rendering="geometricPrecision" transform="translate(172,143)"><line clip-path="url(#b1f27477-b474-4d05-9bad-01e9839233de)" fill="none" x1="104" x2="50" y1="50" y2="50"/><line clip-path="url(#b1f27477-b474-4d05-9bad-01e9839233de)" fill="none" x1="50" x2="62" y1="50" y2="56"/><line clip-path="url(#b1f27477-b474-4d05-9bad-01e9839233de)" fill="none" x1="50" x2="62" y1="50" y2="44"/></g></g><g fill="black" fill-opacity="1" font-family="sans-serif" font-size="11px" image-rendering="optimizeQuality" stroke="black" stroke-opacity="1" text-rendering="geometricPrecision" transform="translate(672,142)"><text clip-path="url(#f51bfdb7-6f2b-4555-a770-bc56e5929294)" stroke="none" x="10" xml:space="preserve" y="11">[Windows]</text></g><g fill="black" fill-opacity="1" font-family="sans-serif" font-size="11px" image-rendering="optimizeQuality" stroke="black" stroke-opacity="1" text-rendering="geometricPrecision" transform="translate(587,108)"><text clip-path="url(#a9f20c09-e31c-4914-a46f-7e65734088f2)" stroke="none" x="9" xml:space="preserve" y="11">[Else]</text></g><g fill="rgb(120,120,120)" fill-opacity="1" font-size="10px" image-rendering="optimizeQuality" stroke="rgb(120,120,120)" stroke-opacity="1" text-rendering="geometricPrecision"></g></g></svg>
