<?xml version="1.0" encoding="UTF-8"?><svg xmlns="http://www.w3.org/2000/svg" xmlns:xlink="http://www.w3.org/1999/xlink" color-interpolation="auto" color-rendering="auto" fill="rgb(0,0,0)" fill-opacity="0" font-family="'Dialog'" font-size="12px" font-style="normal" font-weight="normal" height="153" image-rendering="auto" shape-rendering="auto" stroke="rgb(0,0,0)" stroke-dasharray="none" stroke-dashoffset="0" stroke-linecap="square" stroke-linejoin="miter" stroke-miterlimit="10" stroke-opacity="0" stroke-width="1" text-rendering="auto" viewbox="0 0 706 153" width="706"><!--Generated by the Batik Graphics2D SVG Generator--><defs id="genericDefs"/><g><defs id="defs1"><clipPath clipPathUnits="userSpaceOnUse" id="cfba16cf-2dc9-4416-b2d9-3ec536d9d1ae"><path d="M-7 -7 L51 -7 L51 31 L-7 31 L-7 -7 Z"/></clipPath><clipPath clipPathUnits="userSpaceOnUse" id="355a49cc-91bd-40a1-b3ab-0d0a6d1f0615"><path d="M-7 -7 L51 -7 L51 31 L-7 31 L-7 -7 Z"/></clipPath><clipPath clipPathUnits="userSpaceOnUse" id="c90bcdbb-0e62-4f77-9ccf-fcd685a921ea"><path d="M-7 -7 L131 -7 L131 51 L-7 51 L-7 -7 Z"/></clipPath><clipPath clipPathUnits="userSpaceOnUse" id="58cec809-c700-4fcd-8522-b607fa34b1f1"><path d="M-7 -7 L131 -7 L131 51 L-7 51 L-7 -7 Z"/></clipPath><clipPath clipPathUnits="userSpaceOnUse" id="6d1218e4-73d0-4346-9d0e-91424e361e7e"><path d="M-7 -7 L131 -7 L131 51 L-7 51 L-7 -7 Z"/></clipPath><clipPath clipPathUnits="userSpaceOnUse" id="021e2421-ac50-464c-82a7-6d788238e45b"><path d="M0 0 L0 40 L120 40 L120 0 Z"/></clipPath><clipPath clipPathUnits="userSpaceOnUse" id="64d2d81a-d1ae-4a9c-a1ee-2c07b1e425f7"><path d="M-7 -7 L97 -7 L97 51 L-7 51 L-7 -7 Z"/></clipPath><clipPath clipPathUnits="userSpaceOnUse" id="445b7fd8-81f3-4fd2-bef6-fa8ccf5645d0"><path d="M-7 -7 L97 -7 L97 51 L-7 51 L-7 -7 Z"/></clipPath><clipPath clipPathUnits="userSpaceOnUse" id="20114270-eb73-442e-be0c-217421133e0d"><path d="M-7 -7 L97 -7 L97 51 L-7 51 L-7 -7 Z"/></clipPath><clipPath clipPathUnits="userSpaceOnUse" id="27707e77-06f9-493a-98f7-029e30dd7337"><path d="M0 0 L0 40 L86 40 L86 0 Z"/></clipPath><clipPath clipPathUnits="userSpaceOnUse" id="a1d31d79-fdcf-4cc1-a315-004a1432e642"><path d="M-7 -7 L85 -7 L85 51 L-7 51 L-7 -7 Z"/></clipPath><clipPath clipPathUnits="userSpaceOnUse" id="2c83ec11-dab7-4262-8342-bc6eea70ceb6"><path d="M-7 -7 L85 -7 L85 51 L-7 51 L-7 -7 Z"/></clipPath><clipPath clipPathUnits="userSpaceOnUse" id="a8580800-c2af-4449-898b-8f173659b0b5"><path d="M-7 -7 L85 -7 L85 51 L-7 51 L-7 -7 Z"/></clipPath><clipPath clipPathUnits="userSpaceOnUse" id="3ac70350-df5e-4d01-8256-4f3077d98bd3"><path d="M0 0 L0 40 L74 40 L74 0 Z"/></clipPath><clipPath clipPathUnits="userSpaceOnUse" id="def12ab4-b0e7-4f79-af3e-6230b36c23fd"><path d="M-7 -7 L71 -7 L71 51 L-7 51 L-7 -7 Z"/></clipPath><clipPath clipPathUnits="userSpaceOnUse" id="6874cb98-d9d8-4276-818f-fa34b3455ba1"><path d="M-7 -7 L71 -7 L71 51 L-7 51 L-7 -7 Z"/></clipPath><clipPath clipPathUnits="userSpaceOnUse" id="776493e0-4246-4921-8ae1-be10c5636256"><path d="M-7 -7 L71 -7 L71 51 L-7 51 L-7 -7 Z"/></clipPath><clipPath clipPathUnits="userSpaceOnUse" id="5e52e79e-85c9-4850-a190-dddf2190d205"><path d="M0 0 L0 40 L60 40 L60 0 Z"/></clipPath><clipPath clipPathUnits="userSpaceOnUse" id="faa61268-1022-4b50-a55b-cfe9e7d87c14"><path d="M-7 -7 L71 -7 L71 51 L-7 51 L-7 -7 Z"/></clipPath><clipPath clipPathUnits="userSpaceOnUse" id="418f69f6-eb13-4070-972b-29ae9e49ba95"><path d="M-7 -7 L71 -7 L71 51 L-7 51 L-7 -7 Z"/></clipPath><clipPath clipPathUnits="userSpaceOnUse" id="29b8af6f-5969-4544-ad3c-5478e9b6bd9b"><path d="M0 0 L0 40 L60 40 L60 0 Z"/></clipPath><clipPath clipPathUnits="userSpaceOnUse" id="16ed2389-6cdd-402a-a495-949dfba76141"><path d="M-7 -7 L137 -7 L137 51 L-7 51 L-7 -7 Z"/></clipPath><clipPath clipPathUnits="userSpaceOnUse" id="9f40f7dc-f9c9-4526-9051-00fd87278b03"><path d="M-7 -7 L137 -7 L137 51 L-7 51 L-7 -7 Z"/></clipPath><clipPath clipPathUnits="userSpaceOnUse" id="cdc5e370-7d26-4026-939b-d9e42621f5fd"><path d="M-7 -7 L137 -7 L137 51 L-7 51 L-7 -7 Z"/></clipPath><clipPath clipPathUnits="userSpaceOnUse" id="fcad3b14-6539-44e2-9b45-db39130c2619"><path d="M0 0 L0 40 L126 40 L126 0 Z"/></clipPath><clipPath clipPathUnits="userSpaceOnUse" id="161f9a0c-4781-452c-825b-17c793e38481"><path d="M-7 -7 L142 -7 L142 51 L-7 51 L-7 -7 Z"/></clipPath><clipPath clipPathUnits="userSpaceOnUse" id="c2f3b356-e542-42a1-b031-e4c03d06c939"><path d="M-7 -7 L142 -7 L142 51 L-7 51 L-7 -7 Z"/></clipPath><clipPath clipPathUnits="userSpaceOnUse" id="854bb2f2-5294-45d6-bc15-9b47458e7206"><path d="M-7 -7 L142 -7 L142 51 L-7 51 L-7 -7 Z"/></clipPath><clipPath clipPathUnits="userSpaceOnUse" id="fbc23302-e863-4c5c-b767-112027daf21b"><path d="M0 0 L0 40 L131 40 L131 0 Z"/></clipPath><clipPath clipPathUnits="userSpaceOnUse" id="97da37b4-a85c-49d2-a680-1a75ce5464bd"><path d="M-7 -7 L31 -7 L31 31 L-7 31 L-7 -7 Z"/></clipPath><clipPath clipPathUnits="userSpaceOnUse" id="992080a2-9556-4bc5-b225-8e4be8459f1d"><path d="M-7 -7 L31 -7 L31 31 L-7 31 L-7 -7 Z"/></clipPath><clipPath clipPathUnits="userSpaceOnUse" id="77efadab-5d24-4b5f-81a3-8f441109d31f"><path d="M0 0 L194 0 L194 104 L0 104 L0 0 Z"/></clipPath><clipPath clipPathUnits="userSpaceOnUse" id="ab0d3680-18db-4683-b318-92f3df578ff6"><path d="M0 0 L0 104 L194 104 L194 0 Z"/></clipPath><clipPath clipPathUnits="userSpaceOnUse" id="e9873006-0e4f-4bec-bb8e-bfbba4fe36fb"><path d="M0 0 L183 0 L183 104 L0 104 L0 0 Z"/></clipPath><clipPath clipPathUnits="userSpaceOnUse" id="837e3015-1fc8-4f36-9732-d64a2d1ac4a3"><path d="M0 0 L0 104 L183 104 L183 0 Z"/></clipPath><clipPath clipPathUnits="userSpaceOnUse" id="7a98e487-8bee-4044-af34-6cdb41e8863b"><path d="M0 0 L183 0 L183 104 L0 104 L0 0 Z"/></clipPath><clipPath clipPathUnits="userSpaceOnUse" id="ece23d56-b870-47ed-8558-d27a9597d26a"><path d="M0 0 L0 104 L183 104 L183 0 Z"/></clipPath><clipPath clipPathUnits="userSpaceOnUse" id="b360c4ce-fc9e-4217-ad33-cfdbebaf2f08"><path d="M0 0 L183 0 L183 104 L0 104 L0 0 Z"/></clipPath><clipPath clipPathUnits="userSpaceOnUse" id="85aeb75d-3644-4475-95cd-6df79941e034"><path d="M0 0 L0 104 L183 104 L183 0 Z"/></clipPath><clipPath clipPathUnits="userSpaceOnUse" id="80662bb9-a8a7-4ef7-ba79-4190443da6ac"><path d="M0 0 L146 0 L146 104 L0 104 L0 0 Z"/></clipPath><clipPath clipPathUnits="userSpaceOnUse" id="966c35a6-8482-47ad-a2e9-57bb66b1f22c"><path d="M0 0 L0 104 L146 104 L146 0 Z"/></clipPath><clipPath clipPathUnits="userSpaceOnUse" id="db2d86c7-7b1f-4b95-b95e-077c779c05aa"><path d="M0 0 L156 0 L156 104 L0 104 L0 0 Z"/></clipPath><clipPath clipPathUnits="userSpaceOnUse" id="73649d58-8777-4d44-974a-956eeeb282fa"><path d="M0 0 L0 104 L156 104 L156 0 Z"/></clipPath><clipPath clipPathUnits="userSpaceOnUse" id="a3c417ba-5500-4024-99bb-2ead66765cc1"><path d="M0 0 L172 0 L172 104 L0 104 L0 0 Z"/></clipPath><clipPath clipPathUnits="userSpaceOnUse" id="04f8db92-7656-46f8-b576-485645ab1b78"><path d="M0 0 L0 104 L172 104 L172 0 Z"/></clipPath><clipPath clipPathUnits="userSpaceOnUse" id="a68d0f79-ea8d-4750-9d5f-d1963aaa5820"><path d="M0 0 L104 0 L104 170 L0 170 L0 0 Z"/></clipPath><clipPath clipPathUnits="userSpaceOnUse" id="08d929d0-7ef7-46d9-9d84-1eb4a3681c11"><path d="M0 0 L0 170 L104 170 L104 0 Z"/></clipPath></defs><g fill="white" fill-opacity="1" stroke="white" stroke-opacity="1" text-rendering="geometricPrecision"><rect height="153" stroke="none" width="706" x="0" y="0"/></g><g data="{&quot;name&quot;:&quot;&quot;,&quot;modelType&quot;:&quot;InitialNode&quot;}" hyper="" model-id="shape-tN4b0tmAUAAArSkE" style="pointer-events: auto; cursor: pointer;"><g fill="black" fill-opacity="1" font-family="sans-serif" font-size="11px" image-rendering="optimizeQuality" stroke="black" stroke-opacity="1" text-rendering="geometricPrecision" transform="translate(2,12)"><circle clip-path="url(#355a49cc-91bd-40a1-b3ab-0d0a6d1f0615)" cx="20" cy="10" r="10" stroke="none"/></g></g><g data="{&quot;name&quot;:&quot;Create Github Release&quot;,&quot;modelType&quot;:&quot;ActivityAction&quot;}" hyper="" model-id="shape-.Qab0tmAUAAArSkf" style="pointer-events: auto; cursor: pointer;"><g fill="rgb(122,207,245)" fill-opacity="1" font-family="sans-serif" font-size="11px" image-rendering="optimizeQuality" stroke="rgb(122,207,245)" stroke-opacity="1" text-rendering="geometricPrecision" transform="translate(122,2)"><rect clip-path="url(#58cec809-c700-4fcd-8522-b607fa34b1f1)" height="40" rx="15" ry="15" stroke="none" width="120" x="0" y="0"/></g><g fill="black" fill-opacity="1" font-family="sans-serif" font-size="11px" image-rendering="optimizeQuality" stroke="black" stroke-linecap="butt" stroke-linejoin="round" stroke-miterlimit="0" stroke-opacity="1" text-rendering="geometricPrecision" transform="translate(122,2)"><rect clip-path="url(#58cec809-c700-4fcd-8522-b607fa34b1f1)" fill="none" height="40" rx="15" ry="15" width="120" x="0" y="0"/></g></g><g fill="black" fill-opacity="1" font-family="sans-serif" font-size="11px" image-rendering="optimizeQuality" stroke="black" stroke-opacity="1" text-rendering="geometricPrecision" transform="translate(122,2)"><text clip-path="url(#021e2421-ac50-464c-82a7-6d788238e45b)" stroke="none" x="4" xml:space="preserve" y="24">Create Github Release</text></g><g data="{&quot;name&quot;:&quot;Checkout&quot;,&quot;modelType&quot;:&quot;ActivityAction&quot;}" hyper="" model-id="shape-ClX70tmAUAAArSqG" style="pointer-events: auto; cursor: pointer;"><g fill="rgb(122,207,245)" fill-opacity="1" font-family="sans-serif" font-size="11px" image-rendering="optimizeQuality" stroke="rgb(122,207,245)" stroke-opacity="1" text-rendering="geometricPrecision" transform="translate(322,2)"><rect clip-path="url(#445b7fd8-81f3-4fd2-bef6-fa8ccf5645d0)" height="40" rx="15" ry="15" stroke="none" width="86" x="0" y="0"/></g><g fill="black" fill-opacity="1" font-family="sans-serif" font-size="11px" image-rendering="optimizeQuality" stroke="black" stroke-linecap="butt" stroke-linejoin="round" stroke-miterlimit="0" stroke-opacity="1" text-rendering="geometricPrecision" transform="translate(322,2)"><rect clip-path="url(#445b7fd8-81f3-4fd2-bef6-fa8ccf5645d0)" fill="none" height="40" rx="15" ry="15" width="86" x="0" y="0"/></g></g><g fill="black" fill-opacity="1" font-family="sans-serif" font-size="11px" image-rendering="optimizeQuality" stroke="black" stroke-opacity="1" text-rendering="geometricPrecision" transform="translate(322,2)"><text clip-path="url(#27707e77-06f9-493a-98f7-029e30dd7337)" stroke="none" x="19" xml:space="preserve" y="24">Checkout</text></g><g data="{&quot;name&quot;:&quot;Setup dotnet&quot;,&quot;modelType&quot;:&quot;ActivityAction&quot;}" hyper="" model-id="shape-AJSH0tmAUAAArSra" style="pointer-events: auto; cursor: pointer;"><g fill="rgb(122,207,245)" fill-opacity="1" font-family="sans-serif" font-size="11px" image-rendering="optimizeQuality" stroke="rgb(122,207,245)" stroke-opacity="1" text-rendering="geometricPrecision" transform="translate(488,2)"><rect clip-path="url(#2c83ec11-dab7-4262-8342-bc6eea70ceb6)" height="40" rx="15" ry="15" stroke="none" width="74" x="0" y="0"/></g><g fill="black" fill-opacity="1" font-family="sans-serif" font-size="11px" image-rendering="optimizeQuality" stroke="black" stroke-linecap="butt" stroke-linejoin="round" stroke-miterlimit="0" stroke-opacity="1" text-rendering="geometricPrecision" transform="translate(488,2)"><rect clip-path="url(#2c83ec11-dab7-4262-8342-bc6eea70ceb6)" fill="none" height="40" rx="15" ry="15" width="74" x="0" y="0"/></g></g><g fill="black" fill-opacity="1" font-family="sans-serif" font-size="11px" image-rendering="optimizeQuality" stroke="black" stroke-opacity="1" text-rendering="geometricPrecision" transform="translate(488,2)"><text clip-path="url(#3ac70350-df5e-4d01-8256-4f3077d98bd3)" stroke="none" x="5" xml:space="preserve" y="24">Setup dotnet</text></g><g data="{&quot;name&quot;:&quot;Build&quot;,&quot;modelType&quot;:&quot;ActivityAction&quot;}" hyper="" model-id="shape-HUeH0tmAUAAArSrw" style="pointer-events: auto; cursor: pointer;"><g fill="rgb(122,207,245)" fill-opacity="1" font-family="sans-serif" font-size="11px" image-rendering="optimizeQuality" stroke="rgb(122,207,245)" stroke-opacity="1" text-rendering="geometricPrecision" transform="translate(642,2)"><rect clip-path="url(#6874cb98-d9d8-4276-818f-fa34b3455ba1)" height="40" rx="15" ry="15" stroke="none" width="60" x="0" y="0"/></g><g fill="black" fill-opacity="1" font-family="sans-serif" font-size="11px" image-rendering="optimizeQuality" stroke="black" stroke-linecap="butt" stroke-linejoin="round" stroke-miterlimit="0" stroke-opacity="1" text-rendering="geometricPrecision" transform="translate(642,2)"><rect clip-path="url(#6874cb98-d9d8-4276-818f-fa34b3455ba1)" fill="none" height="40" rx="15" ry="15" width="60" x="0" y="0"/></g></g><g fill="black" fill-opacity="1" font-family="sans-serif" font-size="11px" image-rendering="optimizeQuality" stroke="black" stroke-opacity="1" text-rendering="geometricPrecision" transform="translate(642,2)"><text clip-path="url(#5e52e79e-85c9-4850-a190-dddf2190d205)" stroke="none" x="16" xml:space="preserve" y="24">Build</text></g><g data="{&quot;name&quot;:&quot;Zip&quot;,&quot;modelType&quot;:&quot;ActivityAction&quot;}" hyper="" model-id="shape-tLXH0tmAUAAArStp" style="pointer-events: auto; cursor: pointer;"><g fill="rgb(122,207,245)" fill-opacity="1" font-family="sans-serif" font-size="11px" image-rendering="optimizeQuality" stroke="rgb(122,207,245)" stroke-opacity="1" text-rendering="geometricPrecision" transform="translate(642,109)"><rect clip-path="url(#faa61268-1022-4b50-a55b-cfe9e7d87c14)" height="40" rx="15" ry="15" stroke="none" width="60" x="0" y="0"/></g><g fill="black" fill-opacity="1" font-family="sans-serif" font-size="11px" image-rendering="optimizeQuality" stroke="black" stroke-linecap="butt" stroke-linejoin="round" stroke-miterlimit="0" stroke-opacity="1" text-rendering="geometricPrecision" transform="translate(642,109)"><rect clip-path="url(#faa61268-1022-4b50-a55b-cfe9e7d87c14)" fill="none" height="40" rx="15" ry="15" width="60" x="0" y="0"/></g></g><g fill="black" fill-opacity="1" font-family="sans-serif" font-size="11px" image-rendering="optimizeQuality" stroke="black" stroke-opacity="1" text-rendering="geometricPrecision" transform="translate(642,109)"><text clip-path="url(#29b8af6f-5969-4544-ad3c-5478e9b6bd9b)" stroke="none" x="21" xml:space="preserve" y="24">Zip</text></g><g data="{&quot;name&quot;:&quot;Delete output directory&quot;,&quot;modelType&quot;:&quot;ActivityAction&quot;}" hyper="" model-id="shape-6L8n0tmAUAAArSuh" style="pointer-events: auto; cursor: pointer;"><g fill="rgb(122,207,245)" fill-opacity="1" font-family="sans-serif" font-size="11px" image-rendering="optimizeQuality" stroke="rgb(122,207,245)" stroke-opacity="1" text-rendering="geometricPrecision" transform="translate(473,109)"><rect clip-path="url(#9f40f7dc-f9c9-4526-9051-00fd87278b03)" height="40" rx="15" ry="15" stroke="none" width="126" x="0" y="0"/></g><g fill="black" fill-opacity="1" font-family="sans-serif" font-size="11px" image-rendering="optimizeQuality" stroke="black" stroke-linecap="butt" stroke-linejoin="round" stroke-miterlimit="0" stroke-opacity="1" text-rendering="geometricPrecision" transform="translate(473,109)"><rect clip-path="url(#9f40f7dc-f9c9-4526-9051-00fd87278b03)" fill="none" height="40" rx="15" ry="15" width="126" x="0" y="0"/></g></g><g fill="black" fill-opacity="1" font-family="sans-serif" font-size="11px" image-rendering="optimizeQuality" stroke="black" stroke-opacity="1" text-rendering="geometricPrecision" transform="translate(473,109)"><text clip-path="url(#fcad3b14-6539-44e2-9b45-db39130c2619)" stroke="none" x="4" xml:space="preserve" y="24">Delete output directory</text></g><g data="{&quot;name&quot;:&quot;Populate Github Release&quot;,&quot;modelType&quot;:&quot;ActivityAction&quot;}" hyper="" model-id="shape-q5un0tmAUAAArSvZ" style="pointer-events: auto; cursor: pointer;"><g fill="rgb(122,207,245)" fill-opacity="1" font-family="sans-serif" font-size="11px" image-rendering="optimizeQuality" stroke="rgb(122,207,245)" stroke-opacity="1" text-rendering="geometricPrecision" transform="translate(289,109)"><rect clip-path="url(#c2f3b356-e542-42a1-b031-e4c03d06c939)" height="40" rx="15" ry="15" stroke="none" width="131" x="0" y="0"/></g><g fill="black" fill-opacity="1" font-family="sans-serif" font-size="11px" image-rendering="optimizeQuality" stroke="black" stroke-linecap="butt" stroke-linejoin="round" stroke-miterlimit="0" stroke-opacity="1" text-rendering="geometricPrecision" transform="translate(289,109)"><rect clip-path="url(#c2f3b356-e542-42a1-b031-e4c03d06c939)" fill="none" height="40" rx="15" ry="15" width="131" x="0" y="0"/></g></g><g fill="black" fill-opacity="1" font-family="sans-serif" font-size="11px" image-rendering="optimizeQuality" stroke="black" stroke-opacity="1" text-rendering="geometricPrecision" transform="translate(289,109)"><text clip-path="url(#fbc23302-e863-4c5c-b767-112027daf21b)" stroke="none" x="5" xml:space="preserve" y="24">Populate Github Release</text></g><g data="{&quot;name&quot;:&quot;&quot;,&quot;modelType&quot;:&quot;ActivityFinalNode&quot;}" hyper="" model-id="shape-3FJn0tmAUAAArSvt" style="pointer-events: auto; cursor: pointer;"><g fill="black" fill-opacity="1" font-family="sans-serif" font-size="11px" image-rendering="optimizeQuality" stroke="black" stroke-opacity="1" text-rendering="geometricPrecision" transform="translate(201,119)"><circle clip-path="url(#992080a2-9556-4bc5-b225-8e4be8459f1d)" cx="10" cy="10" r="6.6667" stroke="none"/><circle clip-path="url(#992080a2-9556-4bc5-b225-8e4be8459f1d)" cx="10" cy="10" fill="none" r="10" stroke-linecap="butt" stroke-linejoin="round" stroke-miterlimit="0"/></g></g><g data="{&quot;modelType&quot;:&quot;ControlFlow&quot;}" hyper="" model-id="connector-3lzb0tmAUAAArSmm" style="pointer-events: auto; cursor: pointer;"><g fill="black" fill-opacity="1" font-family="sans-serif" font-size="11px" image-rendering="optimizeQuality" stroke="black" stroke-linecap="butt" stroke-linejoin="round" stroke-opacity="1" text-rendering="geometricPrecision" transform="translate(-19,-28)"><line clip-path="url(#ab0d3680-18db-4683-b318-92f3df578ff6)" fill="none" x1="50" x2="140" y1="50" y2="50"/><line clip-path="url(#ab0d3680-18db-4683-b318-92f3df578ff6)" fill="none" x1="140" x2="128" y1="50" y2="44"/><line clip-path="url(#ab0d3680-18db-4683-b318-92f3df578ff6)" fill="none" x1="140" x2="128" y1="50" y2="56"/></g></g><g data="{&quot;modelType&quot;:&quot;ControlFlow&quot;}" hyper="" model-id="connector-qJSH0tmAUAAArSre" style="pointer-events: auto; cursor: pointer;"><g fill="black" fill-opacity="1" font-family="sans-serif" font-size="11px" image-rendering="optimizeQuality" stroke="black" stroke-linecap="butt" stroke-linejoin="round" stroke-opacity="1" text-rendering="geometricPrecision" transform="translate(358,-28)"><line clip-path="url(#837e3015-1fc8-4f36-9732-d64a2d1ac4a3)" fill="none" x1="50" x2="129" y1="50" y2="50"/><line clip-path="url(#837e3015-1fc8-4f36-9732-d64a2d1ac4a3)" fill="none" x1="129" x2="117" y1="50" y2="44"/><line clip-path="url(#837e3015-1fc8-4f36-9732-d64a2d1ac4a3)" fill="none" x1="129" x2="117" y1="50" y2="56"/></g></g><g data="{&quot;modelType&quot;:&quot;ControlFlow&quot;}" hyper="" model-id="connector-C0eH0tmAUAAArSr0" style="pointer-events: auto; cursor: pointer;"><g fill="black" fill-opacity="1" font-family="sans-serif" font-size="11px" image-rendering="optimizeQuality" stroke="black" stroke-linecap="butt" stroke-linejoin="round" stroke-opacity="1" text-rendering="geometricPrecision" transform="translate(512,-28)"><line clip-path="url(#ece23d56-b870-47ed-8558-d27a9597d26a)" fill="none" x1="50" x2="129" y1="50" y2="50"/><line clip-path="url(#ece23d56-b870-47ed-8558-d27a9597d26a)" fill="none" x1="129" x2="117" y1="50" y2="44"/><line clip-path="url(#ece23d56-b870-47ed-8558-d27a9597d26a)" fill="none" x1="129" x2="117" y1="50" y2="56"/></g></g><g data="{&quot;modelType&quot;:&quot;ControlFlow&quot;}" hyper="" model-id="connector-6TNH0tmAUAAArSss" style="pointer-events: auto; cursor: pointer;"><g fill="black" fill-opacity="1" font-family="sans-serif" font-size="11px" image-rendering="optimizeQuality" stroke="black" stroke-linecap="butt" stroke-linejoin="round" stroke-opacity="1" text-rendering="geometricPrecision" transform="translate(192,-28)"><line clip-path="url(#85aeb75d-3644-4475-95cd-6df79941e034)" fill="none" x1="50" x2="129" y1="50" y2="50"/><line clip-path="url(#85aeb75d-3644-4475-95cd-6df79941e034)" fill="none" x1="129" x2="117" y1="50" y2="44"/><line clip-path="url(#85aeb75d-3644-4475-95cd-6df79941e034)" fill="none" x1="129" x2="117" y1="50" y2="56"/></g></g><g data="{&quot;modelType&quot;:&quot;ControlFlow&quot;}" hyper="" model-id="connector-9L8n0tmAUAAArSul" style="pointer-events: auto; cursor: pointer;"><g fill="black" fill-opacity="1" font-family="sans-serif" font-size="11px" image-rendering="optimizeQuality" stroke="black" stroke-linecap="butt" stroke-linejoin="round" stroke-opacity="1" text-rendering="geometricPrecision" transform="translate(549,79)"><line clip-path="url(#966c35a6-8482-47ad-a2e9-57bb66b1f22c)" fill="none" x1="92" x2="50" y1="50" y2="50"/><line clip-path="url(#966c35a6-8482-47ad-a2e9-57bb66b1f22c)" fill="none" x1="50" x2="62" y1="50" y2="56"/><line clip-path="url(#966c35a6-8482-47ad-a2e9-57bb66b1f22c)" fill="none" x1="50" x2="62" y1="50" y2="44"/></g></g><g data="{&quot;modelType&quot;:&quot;ControlFlow&quot;}" hyper="" model-id="connector-t5un0tmAUAAArSvd" style="pointer-events: auto; cursor: pointer;"><g fill="black" fill-opacity="1" font-family="sans-serif" font-size="11px" image-rendering="optimizeQuality" stroke="black" stroke-linecap="butt" stroke-linejoin="round" stroke-opacity="1" text-rendering="geometricPrecision" transform="translate(370,79)"><line clip-path="url(#73649d58-8777-4d44-974a-956eeeb282fa)" fill="none" x1="102" x2="50" y1="50" y2="50"/><line clip-path="url(#73649d58-8777-4d44-974a-956eeeb282fa)" fill="none" x1="50" x2="62" y1="50" y2="56"/><line clip-path="url(#73649d58-8777-4d44-974a-956eeeb282fa)" fill="none" x1="50" x2="62" y1="50" y2="44"/></g></g><g data="{&quot;modelType&quot;:&quot;ControlFlow&quot;}" hyper="" model-id="connector-8lJn0tmAUAAArSvx" style="pointer-events: auto; cursor: pointer;"><g fill="black" fill-opacity="1" font-family="sans-serif" font-size="11px" image-rendering="optimizeQuality" stroke="black" stroke-linecap="butt" stroke-linejoin="round" stroke-opacity="1" text-rendering="geometricPrecision" transform="translate(170,79)"><line clip-path="url(#04f8db92-7656-46f8-b576-485645ab1b78)" fill="none" x1="118" x2="50" y1="50" y2="50"/><line clip-path="url(#04f8db92-7656-46f8-b576-485645ab1b78)" fill="none" x1="50" x2="62" y1="50" y2="56"/><line clip-path="url(#04f8db92-7656-46f8-b576-485645ab1b78)" fill="none" x1="50" x2="62" y1="50" y2="44"/></g></g><g data="{&quot;modelType&quot;:&quot;ControlFlow&quot;}" hyper="" model-id="connector-rphwatmAUAAArQnm" style="pointer-events: auto; cursor: pointer;"><g fill="black" fill-opacity="1" font-family="sans-serif" font-size="11px" image-rendering="optimizeQuality" stroke="black" stroke-linecap="butt" stroke-linejoin="round" stroke-opacity="1" text-rendering="geometricPrecision" transform="translate(622,-8)"><line clip-path="url(#08d929d0-7ef7-46d9-9d84-1eb4a3681c11)" fill="none" x1="50" x2="50" y1="50" y2="116"/><line clip-path="url(#08d929d0-7ef7-46d9-9d84-1eb4a3681c11)" fill="none" x1="50" x2="56" y1="116" y2="104"/><line clip-path="url(#08d929d0-7ef7-46d9-9d84-1eb4a3681c11)" fill="none" x1="50" x2="44" y1="116" y2="104"/></g></g><g fill="rgb(120,120,120)" fill-opacity="1" font-size="10px" image-rendering="optimizeQuality" stroke="rgb(120,120,120)" stroke-opacity="1" text-rendering="geometricPrecision"></g></g></svg>
