<?xml version="1.0" encoding="UTF-8"?><svg xmlns="http://www.w3.org/2000/svg" xmlns:xlink="http://www.w3.org/1999/xlink" color-interpolation="auto" color-rendering="auto" fill="rgb(0,0,0)" fill-opacity="0" font-family="'Dialog'" font-size="12px" font-style="normal" font-weight="normal" height="306" image-rendering="auto" shape-rendering="auto" stroke="rgb(0,0,0)" stroke-dasharray="none" stroke-dashoffset="0" stroke-linecap="square" stroke-linejoin="miter" stroke-miterlimit="10" stroke-opacity="0" stroke-width="1" text-rendering="auto" viewbox="0 0 554 306" width="554"><!--Generated by the Batik Graphics2D SVG Generator--><defs id="genericDefs"/><g><defs id="defs1"><clipPath clipPathUnits="userSpaceOnUse" id="59d58739-6157-4422-91c7-a4b0cc5c1ce4"><path d="M-7 -7 L146 -7 L146 102 L-7 102 L-7 -7 Z"/></clipPath><clipPath clipPathUnits="userSpaceOnUse" id="efe5ae22-bb0f-442d-ad32-174bb0e05376"><path d="M-7 -7 L146 -7 L146 102 L-7 102 L-7 -7 Z"/></clipPath><clipPath clipPathUnits="userSpaceOnUse" id="6593fd14-60c5-416d-aacf-91472410ab5f"><path d="M-7 -7 L146 -7 L146 102 L-7 102 L-7 -7 Z"/></clipPath><clipPath clipPathUnits="userSpaceOnUse" id="d6865956-738f-4b99-b687-e0254541ccbe"><path d="M-0 0 L-0 75 L135 75 L135 0 Z"/></clipPath><clipPath clipPathUnits="userSpaceOnUse" id="7474af37-9396-47af-b1c3-d93ce2153683"><path d="M-0 0 L-0 16 L135 16 L135 0 Z"/></clipPath><clipPath clipPathUnits="userSpaceOnUse" id="93733db8-c108-4cab-8d1f-6c3a6ade960f"><path d="M-7 -7 L141 -7 L141 112 L-7 112 L-7 -7 Z"/></clipPath><clipPath clipPathUnits="userSpaceOnUse" id="27faca34-3884-4d16-a6d1-e3e4b7dfa637"><path d="M-7 -7 L141 -7 L141 112 L-7 112 L-7 -7 Z"/></clipPath><clipPath clipPathUnits="userSpaceOnUse" id="a1c02fbc-beba-4bd7-9207-e25e8a27489c"><path d="M-7 -7 L141 -7 L141 112 L-7 112 L-7 -7 Z"/></clipPath><clipPath clipPathUnits="userSpaceOnUse" id="a632c5ce-d5ac-40a6-a773-3965c50ab5e5"><path d="M-0 0 L-0 85 L130 85 L130 0 Z"/></clipPath><clipPath clipPathUnits="userSpaceOnUse" id="3090d038-a248-4513-a450-fb694f78a269"><path d="M-0 0 L-0 16 L130 16 L130 0 Z"/></clipPath><clipPath clipPathUnits="userSpaceOnUse" id="161fd2db-af05-4cfc-adcd-e0f9ef564703"><path d="M-7 -7 L141 -7 L141 97 L-7 97 L-7 -7 Z"/></clipPath><clipPath clipPathUnits="userSpaceOnUse" id="a9f0ea00-228e-4fd1-9e7b-24e7026fdab1"><path d="M-7 -7 L141 -7 L141 97 L-7 97 L-7 -7 Z"/></clipPath><clipPath clipPathUnits="userSpaceOnUse" id="ec735748-734d-4318-8477-16250ea8419b"><path d="M-7 -7 L141 -7 L141 97 L-7 97 L-7 -7 Z"/></clipPath><clipPath clipPathUnits="userSpaceOnUse" id="a548173b-b5c3-46b7-8673-47efd39cf370"><path d="M0 0 L0 70 L130 70 L130 0 Z"/></clipPath><clipPath clipPathUnits="userSpaceOnUse" id="a1ffa044-a5fd-4f4b-b554-a34599c46fb1"><path d="M0 0 L0 16 L130 16 L130 0 Z"/></clipPath><clipPath clipPathUnits="userSpaceOnUse" id="c3385a10-6878-4033-9fdf-b4184b1f23ab"><path d="M-7 -7 L139 -7 L139 112 L-7 112 L-7 -7 Z"/></clipPath><clipPath clipPathUnits="userSpaceOnUse" id="c8a3aade-226c-4b87-b3c5-08c8dd19ec0e"><path d="M-7 -7 L139 -7 L139 112 L-7 112 L-7 -7 Z"/></clipPath><clipPath clipPathUnits="userSpaceOnUse" id="72bd1fcc-6396-478b-b941-55f65284888e"><path d="M-7 -7 L139 -7 L139 112 L-7 112 L-7 -7 Z"/></clipPath><clipPath clipPathUnits="userSpaceOnUse" id="75896c68-939d-40a3-9420-7fc52eeca759"><path d="M-0 0 L-0 85 L128 85 L128 0 Z"/></clipPath><clipPath clipPathUnits="userSpaceOnUse" id="c77552a7-9d4d-4bcd-8169-7cc2e6961e01"><path d="M-0 0 L-0 16 L128 16 L128 0 Z"/></clipPath><clipPath clipPathUnits="userSpaceOnUse" id="f70ad959-59d6-4b1c-9331-1833ce7afd8f"><path d="M-7 -7 L115 -7 L115 65 L-7 65 L-7 -7 Z"/></clipPath><clipPath clipPathUnits="userSpaceOnUse" id="8e5a8ed3-b088-498c-95d4-9f1edcd5b7c6"><path d="M-7 -7 L115 -7 L115 65 L-7 65 L-7 -7 Z"/></clipPath><clipPath clipPathUnits="userSpaceOnUse" id="1496deea-2706-4cf9-a7ce-6f05b87a3e0c"><path d="M-7 -7 L115 -7 L115 65 L-7 65 L-7 -7 Z"/></clipPath><clipPath clipPathUnits="userSpaceOnUse" id="b0203141-e78d-414b-89c0-570af24244c7"><path d="M-0 0 L-0 38 L104 38 L104 0 Z"/></clipPath><clipPath clipPathUnits="userSpaceOnUse" id="b74d4335-75b0-4a57-a663-2ed1dc98c6c7"><path d="M-0 0 L-0 16 L104 16 L104 0 Z"/></clipPath><clipPath clipPathUnits="userSpaceOnUse" id="2db53f12-bdf5-4097-ab19-7beb77ecf1f4"><path d="M-7 -7 L38 -7 L38 27 L-7 27 L-7 -7 Z"/></clipPath><clipPath clipPathUnits="userSpaceOnUse" id="a8538a56-80ed-413a-8e2a-598d67f063d6"><path d="M-7 -7 L38 -7 L38 27 L-7 27 L-7 -7 Z"/></clipPath><clipPath clipPathUnits="userSpaceOnUse" id="a4bd19da-faf6-47df-b263-e2dfc57967c2"><path d="M-0 0 L-0 16 L27 16 L27 0 Z"/></clipPath><clipPath clipPathUnits="userSpaceOnUse" id="0758b15f-ac21-489e-97d4-93bd3ddd1fcc"><path d="M-7 -7 L38 -7 L38 27 L-7 27 L-7 -7 Z"/></clipPath><clipPath clipPathUnits="userSpaceOnUse" id="c1bc76aa-ff09-4be4-bf77-116075b14ae5"><path d="M-0 0 L-0 16 L27 16 L27 0 Z"/></clipPath><clipPath clipPathUnits="userSpaceOnUse" id="63debc1f-14cf-4eea-91f5-f197f8e34fcb"><path d="M-7 -7 L38 -7 L38 27 L-7 27 L-7 -7 Z"/></clipPath><clipPath clipPathUnits="userSpaceOnUse" id="5f83a897-d262-43cc-b616-c0ed0d263141"><path d="M-0 0 L-0 16 L27 16 L27 0 Z"/></clipPath><clipPath clipPathUnits="userSpaceOnUse" id="fb8ce869-bc03-4e92-a3cf-89470a3100e6"><path d="M-7 -7 L38 -7 L38 27 L-7 27 L-7 -7 Z"/></clipPath><clipPath clipPathUnits="userSpaceOnUse" id="f7cb6d38-ffe0-418a-8bde-bcebc26109fe"><path d="M-0 0 L-0 16 L27 16 L27 0 Z"/></clipPath><clipPath clipPathUnits="userSpaceOnUse" id="fe0b34e2-6825-41a9-b39c-bafc4222d122"><path d="M-7 -7 L38 -7 L38 27 L-7 27 L-7 -7 Z"/></clipPath><clipPath clipPathUnits="userSpaceOnUse" id="05290fd8-a880-4cf5-98ff-873e7546bc5f"><path d="M-0 0 L-0 16 L27 16 L27 0 Z"/></clipPath><clipPath clipPathUnits="userSpaceOnUse" id="508417ba-3d25-412f-904d-4514999d6280"><path d="M-7 -7 L38 -7 L38 27 L-7 27 L-7 -7 Z"/></clipPath><clipPath clipPathUnits="userSpaceOnUse" id="eb8ab1dd-3966-4a53-abd9-c10eeb4c9308"><path d="M-0 0 L-0 16 L27 16 L27 0 Z"/></clipPath><clipPath clipPathUnits="userSpaceOnUse" id="c6893a51-c91b-44dd-8f2c-07d48335f654"><path d="M-7 -7 L38 -7 L38 27 L-7 27 L-7 -7 Z"/></clipPath><clipPath clipPathUnits="userSpaceOnUse" id="2513d151-8d70-4622-970a-b23e2a667b89"><path d="M-0 0 L-0 15 L27 15 L27 0 Z"/></clipPath><clipPath clipPathUnits="userSpaceOnUse" id="30c246e8-d6c6-456c-8e42-d8fe3aa55d2a"><path d="M-0 0 L171 0 L171 164 L-0 164 L-0 0 Z"/></clipPath><clipPath clipPathUnits="userSpaceOnUse" id="49b40f5f-3917-4d61-97f1-912184ba6319"><path d="M-0 0 L-0 164 L171 164 L171 0 Z"/></clipPath><clipPath clipPathUnits="userSpaceOnUse" id="2525c3ad-d1ec-4347-9ab4-d2ab13663d86"><path d="M-0 0 L149 0 L149 57 L-0 57 L-0 0 Z"/></clipPath><clipPath clipPathUnits="userSpaceOnUse" id="825303c5-5499-4784-9d56-65a27834187e"><path d="M-0 0 L-0 57 L149 57 L149 0 Z"/></clipPath><clipPath clipPathUnits="userSpaceOnUse" id="723b88f6-11ec-4dc1-8fc5-5a9fd1f153cc"><path d="M-0 0 L57 0 L57 164 L-0 164 L-0 0 Z"/></clipPath><clipPath clipPathUnits="userSpaceOnUse" id="186466d6-1c3b-4c54-98a0-6d6cc9d9d418"><path d="M-0 0 L-0 164 L57 164 L57 0 Z"/></clipPath><clipPath clipPathUnits="userSpaceOnUse" id="8b8c1f21-b359-4ee9-b446-7353b5714029"><path d="M-0 0 L178 0 L178 56 L-0 56 L-0 0 Z"/></clipPath><clipPath clipPathUnits="userSpaceOnUse" id="0cb3f1dd-0eae-4def-9ba8-bf0eefd81801"><path d="M-0 0 L-0 56 L178 56 L178 0 Z"/></clipPath><clipPath clipPathUnits="userSpaceOnUse" id="6ff4f399-8500-43d4-b320-04913277ec34"><path d="M0 0 L115 0 L115 75 L0 75 L0 0 Z"/></clipPath><clipPath clipPathUnits="userSpaceOnUse" id="71d50c04-4480-44b1-8ddb-45d0b00f082e"><path d="M0 0 L0 75 L115 75 L115 0 Z"/></clipPath></defs><g fill="white" fill-opacity="1" stroke="white" stroke-opacity="1" text-rendering="geometricPrecision"><rect height="306" stroke="none" width="554" x="0" y="0"/></g><g data="{&quot;name&quot;:&quot;Author&quot;,&quot;modelType&quot;:&quot;Class&quot;}" hyper="" model-id="shape-CxIgYtmGAqACcRUG" style="pointer-events: auto; cursor: pointer;"><g fill="rgb(122,207,245)" fill-opacity="1" font-family="sans-serif" font-size="11px" font-weight="bold" image-rendering="optimizeQuality" stroke="rgb(122,207,245)" stroke-opacity="1" text-rendering="geometricPrecision" transform="translate(172.2857,210.8571)"><rect clip-path="url(#efe5ae22-bb0f-442d-ad32-174bb0e05376)" height="91" stroke="none" width="135" x="0" y="0"/></g><g fill="black" fill-opacity="1" font-family="sans-serif" font-size="11px" font-weight="bold" image-rendering="optimizeQuality" stroke="black" stroke-linecap="butt" stroke-linejoin="round" stroke-miterlimit="0" stroke-opacity="1" text-rendering="geometricPrecision" transform="translate(172.2857,210.8571)"><rect clip-path="url(#efe5ae22-bb0f-442d-ad32-174bb0e05376)" fill="none" height="91" width="135" x="0" y="0"/><line clip-path="url(#efe5ae22-bb0f-442d-ad32-174bb0e05376)" fill="none" x1="0" x2="135" y1="16" y2="16"/></g></g><g fill="black" fill-opacity="1" font-family="sans-serif" font-size="11px" image-rendering="optimizeQuality" stroke="black" stroke-opacity="1" text-rendering="geometricPrecision" transform="matrix(1,0,0,1,172.2857,226.8571)"><text clip-path="url(#d6865956-738f-4b99-b687-e0254541ccbe)" stroke="none" x="2" xml:space="preserve" y="14">+Name : String</text></g><g fill="black" fill-opacity="1" font-family="sans-serif" font-size="11px" image-rendering="optimizeQuality" stroke="black" stroke-opacity="1" text-rendering="geometricPrecision" transform="matrix(1,0,0,1,172.2857,226.8571)"><text clip-path="url(#d6865956-738f-4b99-b687-e0254541ccbe)" stroke="none" x="2" xml:space="preserve" y="30">+Cheeps : List&lt;Cheep&gt;</text></g><g fill="black" fill-opacity="1" font-family="sans-serif" font-size="11px" image-rendering="optimizeQuality" stroke="black" stroke-opacity="1" text-rendering="geometricPrecision" transform="matrix(1,0,0,1,172.2857,226.8571)"><text clip-path="url(#d6865956-738f-4b99-b687-e0254541ccbe)" stroke="none" x="2" xml:space="preserve" y="46">+Following : List&lt;Follow&gt;</text></g><g fill="black" fill-opacity="1" font-family="sans-serif" font-size="11px" image-rendering="optimizeQuality" stroke="black" stroke-opacity="1" text-rendering="geometricPrecision" transform="matrix(1,0,0,1,172.2857,226.8571)"><text clip-path="url(#d6865956-738f-4b99-b687-e0254541ccbe)" stroke="none" x="2" xml:space="preserve" y="62">+Followers : List&lt;Follow&gt;</text></g><g fill="black" fill-opacity="1" font-family="sans-serif" font-size="11px" font-weight="bold" image-rendering="optimizeQuality" stroke="black" stroke-opacity="1" text-rendering="geometricPrecision" transform="translate(172.2857,210.8571)"><text clip-path="url(#7474af37-9396-47af-b1c3-d93ce2153683)" stroke="none" x="47" xml:space="preserve" y="12">Author</text></g><g data="{&quot;name&quot;:&quot;Cheep&quot;,&quot;modelType&quot;:&quot;Class&quot;}" hyper="" model-id="shape-INLAYtmGAqACcRTx" style="pointer-events: auto; cursor: pointer;"><g fill="rgb(122,207,245)" fill-opacity="1" font-family="sans-serif" font-size="11px" font-weight="bold" image-rendering="optimizeQuality" stroke="rgb(122,207,245)" stroke-opacity="1" text-rendering="geometricPrecision" transform="translate(168.2857,1.8571)"><rect clip-path="url(#27faca34-3884-4d16-a6d1-e3e4b7dfa637)" height="101" stroke="none" width="130" x="0" y="0"/></g><g fill="black" fill-opacity="1" font-family="sans-serif" font-size="11px" font-weight="bold" image-rendering="optimizeQuality" stroke="black" stroke-linecap="butt" stroke-linejoin="round" stroke-miterlimit="0" stroke-opacity="1" text-rendering="geometricPrecision" transform="translate(168.2857,1.8571)"><rect clip-path="url(#27faca34-3884-4d16-a6d1-e3e4b7dfa637)" fill="none" height="101" width="130" x="0" y="0"/><line clip-path="url(#27faca34-3884-4d16-a6d1-e3e4b7dfa637)" fill="none" x1="0" x2="130" y1="16" y2="16"/></g></g><g fill="black" fill-opacity="1" font-family="sans-serif" font-size="11px" image-rendering="optimizeQuality" stroke="black" stroke-opacity="1" text-rendering="geometricPrecision" transform="matrix(1,0,0,1,168.2857,17.8571)"><text clip-path="url(#a632c5ce-d5ac-40a6-a773-3965c50ab5e5)" stroke="none" x="2" xml:space="preserve" y="14">+Id : int</text></g><g fill="black" fill-opacity="1" font-family="sans-serif" font-size="11px" image-rendering="optimizeQuality" stroke="black" stroke-opacity="1" text-rendering="geometricPrecision" transform="matrix(1,0,0,1,168.2857,17.8571)"><text clip-path="url(#a632c5ce-d5ac-40a6-a773-3965c50ab5e5)" stroke="none" x="2" xml:space="preserve" y="30">+Text : String</text></g><g fill="black" fill-opacity="1" font-family="sans-serif" font-size="11px" image-rendering="optimizeQuality" stroke="black" stroke-opacity="1" text-rendering="geometricPrecision" transform="matrix(1,0,0,1,168.2857,17.8571)"><text clip-path="url(#a632c5ce-d5ac-40a6-a773-3965c50ab5e5)" stroke="none" x="2" xml:space="preserve" y="46">+Timestamp : DateTime</text></g><g fill="black" fill-opacity="1" font-family="sans-serif" font-size="11px" image-rendering="optimizeQuality" stroke="black" stroke-opacity="1" text-rendering="geometricPrecision" transform="matrix(1,0,0,1,168.2857,17.8571)"><text clip-path="url(#a632c5ce-d5ac-40a6-a773-3965c50ab5e5)" stroke="none" x="2" xml:space="preserve" y="62">+Author : Author</text></g><g fill="black" fill-opacity="1" font-family="sans-serif" font-size="11px" image-rendering="optimizeQuality" stroke="black" stroke-opacity="1" text-rendering="geometricPrecision" transform="matrix(1,0,0,1,168.2857,17.8571)"><text clip-path="url(#a632c5ce-d5ac-40a6-a773-3965c50ab5e5)" stroke="none" x="2" xml:space="preserve" y="78">+Replies : List&lt;Reply&gt;</text></g><g fill="black" fill-opacity="1" font-family="sans-serif" font-size="11px" font-weight="bold" image-rendering="optimizeQuality" stroke="black" stroke-opacity="1" text-rendering="geometricPrecision" transform="translate(168.2857,1.8571)"><text clip-path="url(#3090d038-a248-4513-a450-fb694f78a269)" stroke="none" x="47" xml:space="preserve" y="12">Cheep</text></g><g data="{&quot;name&quot;:&quot;IdentityUser\u003cint\u003e&quot;,&quot;modelType&quot;:&quot;Class&quot;}" hyper="" model-id="shape-bmMgYtmGAqACcRVE" style="pointer-events: auto; cursor: pointer;"><g fill="rgb(122,207,245)" fill-opacity="1" font-family="sans-serif" font-size="11px" font-weight="bold" image-rendering="optimizeQuality" stroke="rgb(122,207,245)" stroke-opacity="1" text-rendering="geometricPrecision" transform="translate(2.2857,215.8571)"><rect clip-path="url(#a9f0ea00-228e-4fd1-9e7b-24e7026fdab1)" height="86" stroke="none" width="130" x="0" y="0"/></g><g fill="black" fill-opacity="1" font-family="sans-serif" font-size="11px" font-weight="bold" image-rendering="optimizeQuality" stroke="black" stroke-linecap="butt" stroke-linejoin="round" stroke-miterlimit="0" stroke-opacity="1" text-rendering="geometricPrecision" transform="translate(2.2857,215.8571)"><rect clip-path="url(#a9f0ea00-228e-4fd1-9e7b-24e7026fdab1)" fill="none" height="86" width="130" x="0" y="0"/><line clip-path="url(#a9f0ea00-228e-4fd1-9e7b-24e7026fdab1)" fill="none" x1="0" x2="130" y1="16" y2="16"/></g></g><g fill="black" fill-opacity="1" font-family="sans-serif" font-size="11px" image-rendering="optimizeQuality" stroke="black" stroke-opacity="1" text-rendering="geometricPrecision" transform="matrix(1,0,0,1,2.2857,231.8571)"><text clip-path="url(#a548173b-b5c3-46b7-8673-47efd39cf370)" stroke="none" x="2" xml:space="preserve" y="14">+Id : int</text></g><g fill="black" fill-opacity="1" font-family="sans-serif" font-size="11px" image-rendering="optimizeQuality" stroke="black" stroke-opacity="1" text-rendering="geometricPrecision" transform="matrix(1,0,0,1,2.2857,231.8571)"><text clip-path="url(#a548173b-b5c3-46b7-8673-47efd39cf370)" stroke="none" x="2" xml:space="preserve" y="30">+UserName : String</text></g><g fill="black" fill-opacity="1" font-family="sans-serif" font-size="11px" image-rendering="optimizeQuality" stroke="black" stroke-opacity="1" text-rendering="geometricPrecision" transform="matrix(1,0,0,1,2.2857,231.8571)"><text clip-path="url(#a548173b-b5c3-46b7-8673-47efd39cf370)" stroke="none" x="2" xml:space="preserve" y="46">+Email : String</text></g><g fill="black" fill-opacity="1" font-family="sans-serif" font-size="11px" image-rendering="optimizeQuality" stroke="black" stroke-opacity="1" text-rendering="geometricPrecision" transform="matrix(1,0,0,1,2.2857,231.8571)"><text clip-path="url(#a548173b-b5c3-46b7-8673-47efd39cf370)" stroke="none" x="2" xml:space="preserve" y="62">+Password : String</text></g><g fill="black" fill-opacity="1" font-family="sans-serif" font-size="11px" font-weight="bold" image-rendering="optimizeQuality" stroke="black" stroke-opacity="1" text-rendering="geometricPrecision" transform="translate(2.2857,215.8571)"><text clip-path="url(#a1ffa044-a5fd-4f4b-b554-a34599c46fb1)" stroke="none" x="15" xml:space="preserve" y="12">IdentityUser&lt;int&gt;</text></g><g data="{&quot;name&quot;:&quot;Reply&quot;,&quot;modelType&quot;:&quot;Class&quot;}" hyper="" model-id="shape-XGEwYtmGAqACcRVr" style="pointer-events: auto; cursor: pointer;"><g fill="rgb(122,207,245)" fill-opacity="1" font-family="sans-serif" font-size="11px" font-weight="bold" image-rendering="optimizeQuality" stroke="rgb(122,207,245)" stroke-opacity="1" text-rendering="geometricPrecision" transform="translate(422.2857,1.8571)"><rect clip-path="url(#c8a3aade-226c-4b87-b3c5-08c8dd19ec0e)" height="101" stroke="none" width="128" x="0" y="0"/></g><g fill="black" fill-opacity="1" font-family="sans-serif" font-size="11px" font-weight="bold" image-rendering="optimizeQuality" stroke="black" stroke-linecap="butt" stroke-linejoin="round" stroke-miterlimit="0" stroke-opacity="1" text-rendering="geometricPrecision" transform="translate(422.2857,1.8571)"><rect clip-path="url(#c8a3aade-226c-4b87-b3c5-08c8dd19ec0e)" fill="none" height="101" width="128" x="0" y="0"/><line clip-path="url(#c8a3aade-226c-4b87-b3c5-08c8dd19ec0e)" fill="none" x1="0" x2="128" y1="16" y2="16"/></g></g><g fill="black" fill-opacity="1" font-family="sans-serif" font-size="11px" image-rendering="optimizeQuality" stroke="black" stroke-opacity="1" text-rendering="geometricPrecision" transform="matrix(1,0,0,1,422.2857,17.8571)"><text clip-path="url(#75896c68-939d-40a3-9420-7fc52eeca759)" stroke="none" x="2" xml:space="preserve" y="14">+Id : int</text></g><g fill="black" fill-opacity="1" font-family="sans-serif" font-size="11px" image-rendering="optimizeQuality" stroke="black" stroke-opacity="1" text-rendering="geometricPrecision" transform="matrix(1,0,0,1,422.2857,17.8571)"><text clip-path="url(#75896c68-939d-40a3-9420-7fc52eeca759)" stroke="none" x="2" xml:space="preserve" y="30">+Cheep : Cheep</text></g><g fill="black" fill-opacity="1" font-family="sans-serif" font-size="11px" image-rendering="optimizeQuality" stroke="black" stroke-opacity="1" text-rendering="geometricPrecision" transform="matrix(1,0,0,1,422.2857,17.8571)"><text clip-path="url(#75896c68-939d-40a3-9420-7fc52eeca759)" stroke="none" x="2" xml:space="preserve" y="46">+Text : String</text></g><g fill="black" fill-opacity="1" font-family="sans-serif" font-size="11px" image-rendering="optimizeQuality" stroke="black" stroke-opacity="1" text-rendering="geometricPrecision" transform="matrix(1,0,0,1,422.2857,17.8571)"><text clip-path="url(#75896c68-939d-40a3-9420-7fc52eeca759)" stroke="none" x="2" xml:space="preserve" y="62">+Timestamp : Datetime</text></g><g fill="black" fill-opacity="1" font-family="sans-serif" font-size="11px" image-rendering="optimizeQuality" stroke="black" stroke-opacity="1" text-rendering="geometricPrecision" transform="matrix(1,0,0,1,422.2857,17.8571)"><text clip-path="url(#75896c68-939d-40a3-9420-7fc52eeca759)" stroke="none" x="2" xml:space="preserve" y="78">+Author : Author</text></g><g fill="black" fill-opacity="1" font-family="sans-serif" font-size="11px" font-weight="bold" image-rendering="optimizeQuality" stroke="black" stroke-opacity="1" text-rendering="geometricPrecision" transform="translate(422.2857,1.8571)"><text clip-path="url(#c77552a7-9d4d-4bcd-8169-7cc2e6961e01)" stroke="none" x="48" xml:space="preserve" y="12">Reply</text></g><g data="{&quot;name&quot;:&quot;Follow&quot;,&quot;modelType&quot;:&quot;Class&quot;}" hyper="" model-id="shape-kHUsYtmGAqACcRdz" style="pointer-events: auto; cursor: pointer;"><g fill="rgb(122,207,245)" fill-opacity="1" font-family="sans-serif" font-size="11px" font-weight="bold" image-rendering="optimizeQuality" stroke="rgb(122,207,245)" stroke-opacity="1" text-rendering="geometricPrecision" transform="translate(399.2857,229.8571)"><rect clip-path="url(#8e5a8ed3-b088-498c-95d4-9f1edcd5b7c6)" height="54" stroke="none" width="104" x="0" y="0"/></g><g fill="black" fill-opacity="1" font-family="sans-serif" font-size="11px" font-weight="bold" image-rendering="optimizeQuality" stroke="black" stroke-linecap="butt" stroke-linejoin="round" stroke-miterlimit="0" stroke-opacity="1" text-rendering="geometricPrecision" transform="translate(399.2857,229.8571)"><rect clip-path="url(#8e5a8ed3-b088-498c-95d4-9f1edcd5b7c6)" fill="none" height="54" width="104" x="0" y="0"/><line clip-path="url(#8e5a8ed3-b088-498c-95d4-9f1edcd5b7c6)" fill="none" x1="0" x2="104" y1="16" y2="16"/></g></g><g fill="black" fill-opacity="1" font-family="sans-serif" font-size="11px" image-rendering="optimizeQuality" stroke="black" stroke-opacity="1" text-rendering="geometricPrecision" transform="matrix(1,0,0,1,399.2857,245.8571)"><text clip-path="url(#b0203141-e78d-414b-89c0-570af24244c7)" stroke="none" x="2" xml:space="preserve" y="14">+Follower : Author</text></g><g fill="black" fill-opacity="1" font-family="sans-serif" font-size="11px" image-rendering="optimizeQuality" stroke="black" stroke-opacity="1" text-rendering="geometricPrecision" transform="matrix(1,0,0,1,399.2857,245.8571)"><text clip-path="url(#b0203141-e78d-414b-89c0-570af24244c7)" stroke="none" x="2" xml:space="preserve" y="30">+Followee : Author</text></g><g fill="black" fill-opacity="1" font-family="sans-serif" font-size="11px" font-weight="bold" image-rendering="optimizeQuality" stroke="black" stroke-opacity="1" text-rendering="geometricPrecision" transform="translate(399.2857,229.8571)"><text clip-path="url(#b74d4335-75b0-4a57-a663-2ed1dc98c6c7)" stroke="none" x="34" xml:space="preserve" y="12">Follow</text></g><g fill="black" fill-opacity="1" font-family="sans-serif" font-size="11px" image-rendering="optimizeQuality" stroke="black" stroke-opacity="1" text-rendering="geometricPrecision" transform="translate(231.2857,190.8571)"><text clip-path="url(#a4bd19da-faf6-47df-b263-e2dfc57967c2)" stroke="none" x="10" xml:space="preserve" y="12">1</text></g><g fill="black" fill-opacity="1" font-family="sans-serif" font-size="11px" image-rendering="optimizeQuality" stroke="black" stroke-opacity="1" text-rendering="geometricPrecision" transform="translate(306.2857,267.8571)"><text clip-path="url(#c1bc76aa-ff09-4be4-bf77-116075b14ae5)" stroke="none" x="10" xml:space="preserve" y="12">2</text></g><g fill="black" fill-opacity="1" font-family="sans-serif" font-size="11px" image-rendering="optimizeQuality" stroke="black" stroke-opacity="1" text-rendering="geometricPrecision" transform="translate(231.2857,108.8571)"><text clip-path="url(#5f83a897-d262-43cc-b616-c0ed0d263141)" stroke="none" x="10" xml:space="preserve" y="12">*</text></g><g fill="black" fill-opacity="1" font-family="sans-serif" font-size="11px" image-rendering="optimizeQuality" stroke="black" stroke-opacity="1" text-rendering="geometricPrecision" transform="translate(309.2857,208.8571)"><text clip-path="url(#f7cb6d38-ffe0-418a-8bde-bcebc26109fe)" stroke="none" x="10" xml:space="preserve" y="12">1</text></g><g fill="black" fill-opacity="1" font-family="sans-serif" font-size="11px" image-rendering="optimizeQuality" stroke="black" stroke-opacity="1" text-rendering="geometricPrecision" transform="translate(299.2857,35.8571)"><text clip-path="url(#05290fd8-a880-4cf5-98ff-873e7546bc5f)" stroke="none" x="10" xml:space="preserve" y="12">1</text></g><g fill="black" fill-opacity="1" font-family="sans-serif" font-size="11px" image-rendering="optimizeQuality" stroke="black" stroke-opacity="1" text-rendering="geometricPrecision" transform="translate(393.2857,34.8571)"><text clip-path="url(#eb8ab1dd-3966-4a53-abd9-c10eeb4c9308)" stroke="none" x="10" xml:space="preserve" y="12">*</text></g><g fill="black" fill-opacity="1" font-family="sans-serif" font-size="11px" image-rendering="optimizeQuality" stroke="black" stroke-opacity="1" text-rendering="geometricPrecision" transform="translate(367.2857,267.8571)"><text clip-path="url(#2513d151-8d70-4622-970a-b23e2a667b89)" stroke="none" x="10" xml:space="preserve" y="12">*</text></g><g data="{&quot;modelType&quot;:&quot;Association&quot;}" hyper="" model-id="connector-CxZ2ZtmGAqACcQrG" style="pointer-events: auto; cursor: pointer;"><g fill="black" fill-opacity="1" font-family="sans-serif" font-size="11px" image-rendering="optimizeQuality" stroke="black" stroke-linecap="butt" stroke-linejoin="round" stroke-opacity="1" text-rendering="geometricPrecision" transform="translate(280.2857,77.8571)"><line clip-path="url(#49b40f5f-3917-4d61-97f1-912184ba6319)" fill="none" x1="141" x2="27" y1="26" y2="133"/><line clip-path="url(#49b40f5f-3917-4d61-97f1-912184ba6319)" fill="none" x1="27" x2="39" y1="133" y2="130"/><line clip-path="url(#49b40f5f-3917-4d61-97f1-912184ba6319)" fill="none" x1="27" x2="31" y1="133" y2="121"/></g></g><g data="{&quot;modelType&quot;:&quot;Association&quot;}" hyper="" model-id="connector-xfduZtmGAqACcQuR" style="pointer-events: auto; cursor: pointer;"><g fill="black" fill-opacity="1" font-family="sans-serif" font-size="11px" image-rendering="optimizeQuality" stroke="black" stroke-linecap="butt" stroke-linejoin="round" stroke-opacity="1" text-rendering="geometricPrecision" transform="translate(280.2857,233.8571)"><line clip-path="url(#825303c5-5499-4784-9d56-65a27834187e)" fill="none" x1="118" x2="28" y1="26" y2="26"/></g></g><g data="{&quot;modelType&quot;:&quot;Association&quot;}" hyper="" model-id="connector-UQieZtmGAqACcQxi" style="pointer-events: auto; cursor: pointer;"><g fill="black" fill-opacity="1" font-family="sans-serif" font-size="11px" image-rendering="optimizeQuality" stroke="black" stroke-linecap="butt" stroke-linejoin="round" stroke-opacity="1" text-rendering="geometricPrecision" transform="translate(201.2857,77.8571)"><line clip-path="url(#186466d6-1c3b-4c54-98a0-6d6cc9d9d418)" fill="none" x1="26" x2="26" y1="134" y2="27"/></g></g><g data="{&quot;modelType&quot;:&quot;Association&quot;}" hyper="" model-id="connector-adzeZtmGAqACcQzl" style="pointer-events: auto; cursor: pointer;"><g fill="black" fill-opacity="1" font-family="sans-serif" font-size="11px" image-rendering="optimizeQuality" stroke="black" stroke-linecap="butt" stroke-linejoin="round" stroke-opacity="1" text-rendering="geometricPrecision" transform="translate(272.2857,25.8571)"><line clip-path="url(#0cb3f1dd-0eae-4def-9ba8-bf0eefd81801)" fill="none" x1="26" x2="149" y1="26" y2="26"/></g></g><g data="{&quot;modelType&quot;:&quot;Generalization&quot;}" hyper="" model-id="connector-z1djDtmGAqACcQga" style="pointer-events: auto; cursor: pointer;"><g fill="black" fill-opacity="1" font-family="sans-serif" font-size="11px" image-rendering="optimizeQuality" stroke="black" stroke-linecap="butt" stroke-linejoin="round" stroke-opacity="1" text-rendering="geometricPrecision" transform="translate(96.2857,224.8571)"><line clip-path="url(#71d50c04-4480-44b1-8ddb-45d0b00f082e)" fill="none" x1="36" x2="75" y1="36" y2="36"/><polygon clip-path="url(#71d50c04-4480-44b1-8ddb-45d0b00f082e)" fill="white" points=" 36 36 48 42 48 30" stroke="none"/><polygon clip-path="url(#71d50c04-4480-44b1-8ddb-45d0b00f082e)" fill="none" points=" 36 36 48 42 48 30"/></g></g><g fill="rgb(120,120,120)" fill-opacity="1" font-size="10px" image-rendering="optimizeQuality" stroke="rgb(120,120,120)" stroke-opacity="1" text-rendering="geometricPrecision"></g></g></svg>
