<?xml version="1.0" encoding="UTF-8"?>
<svg xmlns="http://www.w3.org/2000/svg" xmlns:xlink="http://www.w3.org/1999/xlink"
    color-interpolation="auto" color-rendering="auto" fill="rgb(0,0,0)" fill-opacity="0"
    font-family="'Dialog'" font-size="12px" font-style="normal" font-weight="normal" height="526"
    image-rendering="auto" shape-rendering="auto" stroke="rgb(0,0,0)" stroke-dasharray="none"
    stroke-dashoffset="0" stroke-linecap="square" stroke-linejoin="miter" stroke-miterlimit="10"
    stroke-opacity="0" stroke-width="1" text-rendering="auto" viewbox="0 0 464 526" width="464"><!--Generated
    by the Batik Graphics2D SVG Generator-->
    <defs id="genericDefs" />
    <g>
        <defs id="defs1">
            <clipPath clipPathUnits="userSpaceOnUse" id="d2fc7f37-ff20-42b3-b247-4b1f2b480e84">
                <path d="M-7 -7 L51 -7 L51 31 L-7 31 L-7 -7 Z" />
            </clipPath>
            <clipPath clipPathUnits="userSpaceOnUse" id="91a07fce-0840-4880-93bb-70a779f9d183">
                <path d="M-7 -7 L51 -7 L51 31 L-7 31 L-7 -7 Z" />
            </clipPath>
            <clipPath clipPathUnits="userSpaceOnUse" id="184db194-bcec-4547-86af-05d854ba993f">
                <path d="M-7 -7 L118 -7 L118 51 L-7 51 L-7 -7 Z" />
            </clipPath>
            <clipPath clipPathUnits="userSpaceOnUse" id="c5bdc1fc-617d-40c1-a4a4-d8bfc9f88d1e">
                <path d="M-7 -7 L118 -7 L118 51 L-7 51 L-7 -7 Z" />
            </clipPath>
            <clipPath clipPathUnits="userSpaceOnUse" id="6bc78bc7-8951-4d63-b884-b975af8066db">
                <path d="M-7 -7 L118 -7 L118 51 L-7 51 L-7 -7 Z" />
            </clipPath>
            <clipPath clipPathUnits="userSpaceOnUse" id="85d6b8c0-f4f8-44b5-9d2c-a430b2815fed">
                <path d="M0 0 L0 40 L107 40 L107 0 Z" />
            </clipPath>
            <clipPath clipPathUnits="userSpaceOnUse" id="0339f7a2-5c43-4b7c-9168-7fa98dd2a389">
                <path d="M-7 -7 L207 -7 L207 85 L-7 85 L-7 -7 Z" />
            </clipPath>
            <clipPath clipPathUnits="userSpaceOnUse" id="474fc61e-f8d3-4909-a77d-57a496ffb067">
                <path d="M-7 -7 L207 -7 L207 85 L-7 85 L-7 -7 Z" />
            </clipPath>
            <clipPath clipPathUnits="userSpaceOnUse" id="3622203e-96c0-485c-bc6c-0aca41732c0e">
                <path d="M-7 -7 L207 -7 L207 85 L-7 85 L-7 -7 Z" />
            </clipPath>
            <clipPath clipPathUnits="userSpaceOnUse" id="807d6ce1-d0a5-4ff5-b3b4-855bbc534a8d">
                <path d="M0 0 L0 74 L181 74 L181 0 Z" />
            </clipPath>
            <clipPath clipPathUnits="userSpaceOnUse" id="24753611-f590-49e0-9a09-a89aae36b9af">
                <path d="M-7 -7 L118 -7 L118 51 L-7 51 L-7 -7 Z" />
            </clipPath>
            <clipPath clipPathUnits="userSpaceOnUse" id="8293c73a-9877-4ee3-b4b5-1e987d9a6805">
                <path d="M-7 -7 L118 -7 L118 51 L-7 51 L-7 -7 Z" />
            </clipPath>
            <clipPath clipPathUnits="userSpaceOnUse" id="43ac127f-bfa7-4e70-9864-96e2503bd379">
                <path d="M-7 -7 L118 -7 L118 51 L-7 51 L-7 -7 Z" />
            </clipPath>
            <clipPath clipPathUnits="userSpaceOnUse" id="f7a55746-299f-42b2-b5c0-ec76d29ce61e">
                <path d="M0 0 L0 40 L107 40 L107 0 Z" />
            </clipPath>
            <clipPath clipPathUnits="userSpaceOnUse" id="8f561f0f-4f31-4337-a16a-8852ea6d4fdb">
                <path d="M-7 -7 L118 -7 L118 51 L-7 51 L-7 -7 Z" />
            </clipPath>
            <clipPath clipPathUnits="userSpaceOnUse" id="03f4d8c0-9393-4b1b-b252-7f97d5317677">
                <path d="M-7 -7 L118 -7 L118 51 L-7 51 L-7 -7 Z" />
            </clipPath>
            <clipPath clipPathUnits="userSpaceOnUse" id="167633b2-5477-44c3-97f0-7f4af7f941f4">
                <path d="M0 0 L0 40 L107 40 L107 0 Z" />
            </clipPath>
            <clipPath clipPathUnits="userSpaceOnUse" id="b762944b-3912-4927-8f43-3969284d652d">
                <path d="M-7 -7 L118 -7 L118 51 L-7 51 L-7 -7 Z" />
            </clipPath>
            <clipPath clipPathUnits="userSpaceOnUse" id="be41ade8-52ea-4b1d-bcb3-55010ea4af10">
                <path d="M-7 -7 L118 -7 L118 51 L-7 51 L-7 -7 Z" />
            </clipPath>
            <clipPath clipPathUnits="userSpaceOnUse" id="d4ea6aa4-d952-4fcb-a389-603cb84f0eab">
                <path d="M0 0 L0 40 L107 40 L107 0 Z" />
            </clipPath>
            <clipPath clipPathUnits="userSpaceOnUse" id="a80a4020-006d-4099-aaf3-08ad9be6c91e">
                <path d="M-7 -7 L118 -7 L118 51 L-7 51 L-7 -7 Z" />
            </clipPath>
            <clipPath clipPathUnits="userSpaceOnUse" id="0e648275-a488-4db8-b816-d1230863ff57">
                <path d="M-7 -7 L118 -7 L118 51 L-7 51 L-7 -7 Z" />
            </clipPath>
            <clipPath clipPathUnits="userSpaceOnUse" id="30b93b5d-a4e5-4026-bf14-985dd421eedc">
                <path d="M0 0 L0 40 L107 40 L107 0 Z" />
            </clipPath>
            <clipPath clipPathUnits="userSpaceOnUse" id="95d88e81-1861-4f19-8795-c1992d6f2355">
                <path d="M-7 -7 L31 -7 L31 51 L-7 51 L-7 -7 Z" />
            </clipPath>
            <clipPath clipPathUnits="userSpaceOnUse" id="4122a3e9-b758-44ac-9585-6aa603971060">
                <path d="M-7 -7 L31 -7 L31 51 L-7 51 L-7 -7 Z" />
            </clipPath>
            <clipPath clipPathUnits="userSpaceOnUse" id="185a0f47-a035-41ac-be2f-2a2e089d00a1">
                <path d="M-7 -7 L118 -7 L118 51 L-7 51 L-7 -7 Z" />
            </clipPath>
            <clipPath clipPathUnits="userSpaceOnUse" id="8f107851-e32e-4d6a-b21c-6ca007b28f86">
                <path d="M-7 -7 L118 -7 L118 51 L-7 51 L-7 -7 Z" />
            </clipPath>
            <clipPath clipPathUnits="userSpaceOnUse" id="6c533e92-9f5b-4874-b6fb-ac05a385df8a">
                <path d="M-7 -7 L118 -7 L118 51 L-7 51 L-7 -7 Z" />
            </clipPath>
            <clipPath clipPathUnits="userSpaceOnUse" id="8f04e6c3-6080-45cd-9e21-0b0ccfc9e635">
                <path d="M0 0 L0 40 L107 40 L107 0 Z" />
            </clipPath>
            <clipPath clipPathUnits="userSpaceOnUse" id="e282f851-de35-46a2-86e5-14af9749235c">
                <path d="M-7 -7 L31 -7 L31 31 L-7 31 L-7 -7 Z" />
            </clipPath>
            <clipPath clipPathUnits="userSpaceOnUse" id="bb3884c6-4b0d-466b-a79f-cdecb52b8412">
                <path d="M-7 -7 L31 -7 L31 31 L-7 31 L-7 -7 Z" />
            </clipPath>
            <clipPath clipPathUnits="userSpaceOnUse" id="398780a2-584a-48bd-a90d-9c7fe92fcd03">
                <path d="M0 0 L104 0 L104 129 L0 129 L0 0 Z" />
            </clipPath>
            <clipPath clipPathUnits="userSpaceOnUse" id="d7741ef6-dab2-4ab5-a79d-1fee701dfa66">
                <path d="M0 0 L0 129 L104 129 L104 0 Z" />
            </clipPath>
            <clipPath clipPathUnits="userSpaceOnUse" id="3090b3b2-ddcb-46e3-a324-14b467c34d8c">
                <path d="M0 0 L169 0 L169 104 L0 104 L0 0 Z" />
            </clipPath>
            <clipPath clipPathUnits="userSpaceOnUse" id="ab87d565-033a-4d78-9091-98de426292c0">
                <path d="M0 0 L0 104 L169 104 L169 0 Z" />
            </clipPath>
            <clipPath clipPathUnits="userSpaceOnUse" id="a1f333da-e95e-468d-be9f-fa8769559a52">
                <path d="M0 0 L104 0 L104 128 L0 128 L0 0 Z" />
            </clipPath>
            <clipPath clipPathUnits="userSpaceOnUse" id="d5faa8e3-370d-49de-b08b-26f95010d2a0">
                <path d="M0 0 L0 128 L104 128 L104 0 Z" />
            </clipPath>
            <clipPath clipPathUnits="userSpaceOnUse" id="bc379f3a-ff7b-4cb2-8a3d-7b744e2637e3">
                <path d="M0 0 L104 0 L104 128 L0 128 L0 0 Z" />
            </clipPath>
            <clipPath clipPathUnits="userSpaceOnUse" id="8a1df869-e583-4c7f-be28-6560fc9ea2b4">
                <path d="M0 0 L0 128 L104 128 L104 0 Z" />
            </clipPath>
            <clipPath clipPathUnits="userSpaceOnUse" id="12e67a28-c806-4030-9d93-7d0b58c616b5">
                <path d="M0 0 L104 0 L104 127 L0 127 L0 0 Z" />
            </clipPath>
            <clipPath clipPathUnits="userSpaceOnUse" id="74c9923b-071b-4d06-9d23-cb0556ae5428">
                <path d="M0 0 L0 127 L104 127 L104 0 Z" />
            </clipPath>
            <clipPath clipPathUnits="userSpaceOnUse" id="79fac889-5e0b-453b-a9dc-a9cdcb88f933">
                <path d="M0 0 L104 0 L104 129 L0 129 L0 0 Z" />
            </clipPath>
            <clipPath clipPathUnits="userSpaceOnUse" id="611de963-55dc-4eb7-9f13-77e4f21b6522">
                <path d="M0 0 L0 120 L104 120 L104 0 Z" />
            </clipPath>
            <clipPath clipPathUnits="userSpaceOnUse" id="05ab1a32-2382-4475-880e-03b8e22791ed">
                <path d="M0 0 L104 0 L104 137 L0 137 L0 0 Z" />
            </clipPath>
            <clipPath clipPathUnits="userSpaceOnUse" id="22952076-5992-421e-b418-4d65420e7e7e">
                <path
                    d="M0 0 L0 54 L104 54 L104 0 ZM101 106 L101 121 L55 121 L55 106 ZM0 69 L0 137 L104 137 L104 69 Z" />
            </clipPath>
            <clipPath clipPathUnits="userSpaceOnUse" id="f53abcf4-0277-4baf-93a4-57077fb1aeac">
                <path d="M0 0 L104 0 L104 136 L0 136 L0 0 Z" />
            </clipPath>
            <clipPath clipPathUnits="userSpaceOnUse" id="2bacc8ab-6a9f-414b-9964-8b8a8d89212f">
                <path d="M101 49 L101 64 L55 64 L55 49 ZM0 12 L0 136 L104 136 L104 12 Z" />
            </clipPath>
            <clipPath clipPathUnits="userSpaceOnUse" id="4a715895-69b8-41dd-98a5-c29f9b485478">
                <path d="M0 0 L210 0 L210 235 L0 235 L0 0 Z" />
            </clipPath>
            <clipPath clipPathUnits="userSpaceOnUse" id="37162c5c-ab3a-408e-a38a-67e6e449c426">
                <path
                    d="M49 110 L49 130 L19 130 L19 110 ZM0 0 L0 235 L210 235 L210 207 L168 207 L168 192 L210 192 L210 155 L100 155 L100 140 L210 140 L210 0 Z" />
            </clipPath>
            <clipPath clipPathUnits="userSpaceOnUse" id="074d7ed3-7867-4add-b80e-dfd1bcf3848f">
                <path d="M0 0 L104 0 L104 130 L0 130 L0 0 Z" />
            </clipPath>
            <clipPath clipPathUnits="userSpaceOnUse" id="71630596-c2b5-49b7-b969-d53bbb79cfe9">
                <path d="M0 0 L0 130 L104 130 L104 0 Z" />
            </clipPath>
            <clipPath clipPathUnits="userSpaceOnUse" id="925a29f8-144a-485c-91d3-7d2095cbf779">
                <path d="M-30 -20 L60 -20 L60 40 L-30 40 L-30 -20 Z" />
            </clipPath>
            <clipPath clipPathUnits="userSpaceOnUse" id="99b4e3ab-48aa-4ab2-85a7-9b4d63713cbb">
                <path d="M-46 -15 L92 -15 L92 30 L-46 30 L-46 -15 Z" />
            </clipPath>
            <clipPath clipPathUnits="userSpaceOnUse" id="b8b24d35-ff6d-4586-96a0-084052ec8969">
                <path d="M-132 -15 L264 -15 L264 30 L-132 30 L-132 -15 Z" />
            </clipPath>
        </defs>
        <g fill="white" fill-opacity="1" stroke="white" stroke-opacity="1"
            text-rendering="geometricPrecision">
            <rect height="526" stroke="none" width="464" x="0" y="0" />
        </g>
        <g data="{&quot;name&quot;:&quot;&quot;,&quot;modelType&quot;:&quot;InitialNode&quot;}"
            hyper="" model-id="shape-K4bWatmGAqAAPxbH"
            style="pointer-events: auto; cursor: pointer;">
            <g fill="black" fill-opacity="1" font-family="sans-serif" font-size="11px"
                image-rendering="optimizeQuality" stroke="black" stroke-opacity="1"
                text-rendering="geometricPrecision" transform="translate(126,2)">
                <circle clip-path="url(#91a07fce-0840-4880-93bb-70a779f9d183)" cx="20" cy="10"
                    r="10" stroke="none" />
            </g>
        </g>
        <g
            data="{&quot;name&quot;:&quot;Create Issue (Task Description)&quot;,&quot;modelType&quot;:&quot;ActivityAction&quot;}"
            hyper="" model-id="shape-V87WatmGAqAAPxbZ"
            style="pointer-events: auto; cursor: pointer;">
            <g fill="rgb(122,207,245)" fill-opacity="1" font-family="sans-serif" font-size="11px"
                image-rendering="optimizeQuality" stroke="rgb(122,207,245)" stroke-opacity="1"
                text-rendering="geometricPrecision" transform="translate(93,47)">
                <rect clip-path="url(#c5bdc1fc-617d-40c1-a4a4-d8bfc9f88d1e)" height="40" rx="15"
                    ry="15" stroke="none" width="107" x="0" y="0" />
            </g>
            <g fill="black" fill-opacity="1" font-family="sans-serif" font-size="11px"
                image-rendering="optimizeQuality" stroke="black" stroke-linecap="butt"
                stroke-linejoin="round" stroke-miterlimit="0" stroke-opacity="1"
                text-rendering="geometricPrecision" transform="translate(93,47)">
                <rect clip-path="url(#c5bdc1fc-617d-40c1-a4a4-d8bfc9f88d1e)" fill="none" height="40"
                    rx="15" ry="15" width="107" x="0" y="0" />
            </g>
        </g>
        <g fill="black" fill-opacity="1" font-family="sans-serif" font-size="11px"
            image-rendering="optimizeQuality" stroke="black" stroke-opacity="1"
            text-rendering="geometricPrecision" transform="translate(93,47)">
            <text clip-path="url(#85d6b8c0-f4f8-44b5-9d2c-a430b2815fed)" stroke="none" x="6"
                xml:space="preserve" y="17">Create Issue (Task</text>
            <text clip-path="url(#85d6b8c0-f4f8-44b5-9d2c-a430b2815fed)" stroke="none" x="23"
                xml:space="preserve" y="32">Description)</text>
        </g>
        <g data="{&quot;name&quot;:&quot;&quot;,&quot;modelType&quot;:&quot;NOTE&quot;}" hyper=""
            model-id="shape-0HXWatmGAqAAPxbz" style="pointer-events: auto; cursor: pointer;">
            <g fill="rgb(122,207,245)" fill-opacity="1" font-family="sans-serif"
                image-rendering="optimizeQuality" stroke="rgb(122,207,245)" stroke-opacity="1"
                text-rendering="geometricPrecision" transform="translate(265,30)">
                <polygon clip-path="url(#474fc61e-f8d3-4909-a77d-57a496ffb067)"
                    points=" 0 0 180 0 195 15 180 15 180 0 195 15 195 73 0 73" stroke="none" />
            </g>
            <g fill="black" fill-opacity="1" font-family="sans-serif"
                image-rendering="optimizeQuality" stroke="black" stroke-linecap="butt"
                stroke-linejoin="round" stroke-miterlimit="0" stroke-opacity="1"
                text-rendering="geometricPrecision" transform="translate(265,30)">
                <polygon clip-path="url(#474fc61e-f8d3-4909-a77d-57a496ffb067)" fill="none"
                    points=" 0 0 180 0 195 15 180 15 180 0 195 15 195 73 0 73" />
            </g>
        </g>
        <g fill="black" fill-opacity="1" font-family="'Tahoma'" font-size="11px"
            image-rendering="optimizeQuality" stroke="black" stroke-opacity="1"
            text-rendering="geometricPrecision" transform="translate(265,30)">
            <path clip-path="url(#807d6ce1-d0a5-4ff5-b3b4-855bbc534a8d)"
                d="M3.8906 15.457 L3.8906 6.8633 L5.6094 6.8633 L7.6406 12.9414 Q7.9219 13.8008 8.0469 14.2227 Q8.1875 13.7539 8.5 12.8477 L10.5625 6.8633 L12.0938 6.8633 L12.0938 15.457 L11 15.457 L11 8.2695 L8.5 15.457 L7.4688 15.457 L4.9844 8.1445 L4.9844 15.457 L3.8906 15.457 ZM12.4062 12.3477 Q12.4062 10.6133 13.3594 9.7852 Q14.1562 9.0977 15.3125 9.0977 Q16.5938 9.0977 17.4062 9.9414 Q18.2344 10.7695 18.2344 12.2539 Q18.2344 13.457 17.875 14.1445 Q17.5156 14.832 16.8125 15.2227 Q16.125 15.5977 15.3125 15.5977 Q14.0156 15.5977 13.2031 14.7695 Q12.4062 13.9258 12.4062 12.3477 ZM13.4844 12.3477 Q13.4844 13.5352 14 14.1289 Q14.5312 14.7227 15.3125 14.7227 Q16.1094 14.7227 16.625 14.1289 Q17.1406 13.5352 17.1406 12.3164 Q17.1406 11.1602 16.6094 10.5664 Q16.0938 9.9727 15.3125 9.9727 Q14.5312 9.9727 14 10.5664 Q13.4844 11.1445 13.4844 12.3477 ZM19.375 13.5977 L20.4062 13.4414 Q20.5 14.0664 20.8906 14.3945 Q21.2969 14.7227 22.0312 14.7227 Q22.75 14.7227 23.0938 14.4414 Q23.4531 14.1445 23.4531 13.7383 Q23.4531 13.3789 23.1406 13.1758 Q22.9219 13.0352 22.0625 12.8164 Q20.9062 12.5195 20.4531 12.3164 Q20.0156 12.0977 19.7812 11.7227 Q19.5469 11.3477 19.5469 10.8789 Q19.5469 10.4727 19.7344 10.1133 Q19.9219 9.7539 20.25 9.5195 Q20.5 9.3477 20.9219 9.2227 Q21.3438 9.0977 21.8438 9.0977 Q22.5625 9.0977 23.1094 9.3164 Q23.6719 9.5195 23.9375 9.8789 Q24.2031 10.2383 24.2969 10.832 L23.2656 10.9727 Q23.2031 10.5039 22.8594 10.2383 Q22.5312 9.957 21.9062 9.957 Q21.1875 9.957 20.875 10.207 Q20.5625 10.4414 20.5625 10.7695 Q20.5625 10.9727 20.6875 11.1289 Q20.8281 11.3008 21.0938 11.4102 Q21.25 11.4727 22.0312 11.6758 Q23.1562 11.9883 23.5938 12.1758 Q24.0312 12.3633 24.2812 12.7227 Q24.5312 13.082 24.5312 13.6289 Q24.5312 14.1602 24.2188 14.6289 Q23.9219 15.082 23.3438 15.3477 Q22.7656 15.5977 22.0312 15.5977 Q20.8125 15.5977 20.1719 15.0977 Q19.5469 14.582 19.375 13.5977 ZM29.0938 14.5195 L29.25 15.4414 Q28.7969 15.5352 28.4531 15.5352 Q27.875 15.5352 27.5625 15.3633 Q27.25 15.1758 27.1094 14.8789 Q26.9844 14.582 26.9844 13.6289 L26.9844 10.0508 L26.2188 10.0508 L26.2188 9.2383 L26.9844 9.2383 L26.9844 7.6914 L28.0312 7.0664 L28.0312 9.2383 L29.0938 9.2383 L29.0938 10.0508 L28.0312 10.0508 L28.0312 13.6914 Q28.0312 14.1445 28.0781 14.2695 Q28.1406 14.3945 28.2656 14.4727 Q28.3906 14.5508 28.625 14.5508 Q28.8125 14.5508 29.0938 14.5195 ZM32.7969 8.082 L32.7969 6.8633 L33.8594 6.8633 L33.8594 8.082 L32.7969 8.082 ZM32.7969 15.457 L32.7969 9.2383 L33.8594 9.2383 L33.8594 15.457 L32.7969 15.457 ZM35.375 13.5977 L36.4062 13.4414 Q36.5 14.0664 36.8906 14.3945 Q37.2969 14.7227 38.0312 14.7227 Q38.75 14.7227 39.0938 14.4414 Q39.4531 14.1445 39.4531 13.7383 Q39.4531 13.3789 39.1406 13.1758 Q38.9219 13.0352 38.0625 12.8164 Q36.9062 12.5195 36.4531 12.3164 Q36.0156 12.0977 35.7812 11.7227 Q35.5469 11.3477 35.5469 10.8789 Q35.5469 10.4727 35.7344 10.1133 Q35.9219 9.7539 36.25 9.5195 Q36.5 9.3477 36.9219 9.2227 Q37.3438 9.0977 37.8438 9.0977 Q38.5625 9.0977 39.1094 9.3164 Q39.6719 9.5195 39.9375 9.8789 Q40.2031 10.2383 40.2969 10.832 L39.2656 10.9727 Q39.2031 10.5039 38.8594 10.2383 Q38.5312 9.957 37.9062 9.957 Q37.1875 9.957 36.875 10.207 Q36.5625 10.4414 36.5625 10.7695 Q36.5625 10.9727 36.6875 11.1289 Q36.8281 11.3008 37.0938 11.4102 Q37.25 11.4727 38.0312 11.6758 Q39.1562 11.9883 39.5938 12.1758 Q40.0312 12.3633 40.2812 12.7227 Q40.5312 13.082 40.5312 13.6289 Q40.5312 14.1602 40.2188 14.6289 Q39.9219 15.082 39.3438 15.3477 Q38.7656 15.5977 38.0312 15.5977 Q36.8125 15.5977 36.1719 15.0977 Q35.5469 14.582 35.375 13.5977 ZM42.375 13.5977 L43.4062 13.4414 Q43.5 14.0664 43.8906 14.3945 Q44.2969 14.7227 45.0312 14.7227 Q45.75 14.7227 46.0938 14.4414 Q46.4531 14.1445 46.4531 13.7383 Q46.4531 13.3789 46.1406 13.1758 Q45.9219 13.0352 45.0625 12.8164 Q43.9062 12.5195 43.4531 12.3164 Q43.0156 12.0977 42.7812 11.7227 Q42.5469 11.3477 42.5469 10.8789 Q42.5469 10.4727 42.7344 10.1133 Q42.9219 9.7539 43.25 9.5195 Q43.5 9.3477 43.9219 9.2227 Q44.3438 9.0977 44.8438 9.0977 Q45.5625 9.0977 46.1094 9.3164 Q46.6719 9.5195 46.9375 9.8789 Q47.2031 10.2383 47.2969 10.832 L46.2656 10.9727 Q46.2031 10.5039 45.8594 10.2383 Q45.5312 9.957 44.9062 9.957 Q44.1875 9.957 43.875 10.207 Q43.5625 10.4414 43.5625 10.7695 Q43.5625 10.9727 43.6875 11.1289 Q43.8281 11.3008 44.0938 11.4102 Q44.25 11.4727 45.0312 11.6758 Q46.1562 11.9883 46.5938 12.1758 Q47.0312 12.3633 47.2812 12.7227 Q47.5312 13.082 47.5312 13.6289 Q47.5312 14.1602 47.2188 14.6289 Q46.9219 15.082 46.3438 15.3477 Q45.7656 15.5977 45.0312 15.5977 Q43.8125 15.5977 43.1719 15.0977 Q42.5469 14.582 42.375 13.5977 ZM53.875 15.457 L53.875 14.5352 Q53.1406 15.5977 51.8906 15.5977 Q51.3438 15.5977 50.8594 15.3945 Q50.3906 15.1758 50.1562 14.8633 Q49.9219 14.5352 49.8281 14.0664 Q49.7656 13.7695 49.7656 13.082 L49.7656 9.2383 L50.8281 9.2383 L50.8281 12.6914 Q50.8281 13.5039 50.8906 13.8008 Q50.9844 14.207 51.2969 14.457 Q51.625 14.6914 52.1094 14.6914 Q52.5781 14.6914 52.9844 14.457 Q53.4062 14.207 53.5781 13.7852 Q53.7656 13.3633 53.7656 12.5664 L53.7656 9.2383 L54.8125 9.2383 L54.8125 15.457 L53.875 15.457 ZM61.0469 13.457 L62.1406 13.582 Q61.8906 14.5352 61.1875 15.0664 Q60.4844 15.5977 59.4062 15.5977 Q58.0469 15.5977 57.2344 14.7539 Q56.4375 13.9102 56.4375 12.3945 Q56.4375 10.832 57.25 9.9727 Q58.0625 9.0977 59.3438 9.0977 Q60.5938 9.0977 61.375 9.9414 Q62.1719 10.7852 62.1719 12.332 Q62.1719 12.4258 62.1719 12.6133 L57.5312 12.6133 Q57.5938 13.6445 58.1094 14.1914 Q58.625 14.7227 59.4062 14.7227 Q59.9844 14.7227 60.3906 14.4258 Q60.8125 14.1133 61.0469 13.457 ZM57.5938 11.7539 L61.0625 11.7539 Q61 10.957 60.6719 10.5664 Q60.1562 9.957 59.3594 9.957 Q58.625 9.957 58.125 10.4414 Q57.6406 10.9258 57.5938 11.7539 ZM63.375 13.5977 L64.4062 13.4414 Q64.5 14.0664 64.8906 14.3945 Q65.2969 14.7227 66.0312 14.7227 Q66.75 14.7227 67.0938 14.4414 Q67.4531 14.1445 67.4531 13.7383 Q67.4531 13.3789 67.1406 13.1758 Q66.9219 13.0352 66.0625 12.8164 Q64.9062 12.5195 64.4531 12.3164 Q64.0156 12.0977 63.7812 11.7227 Q63.5469 11.3477 63.5469 10.8789 Q63.5469 10.4727 63.7344 10.1133 Q63.9219 9.7539 64.25 9.5195 Q64.5 9.3477 64.9219 9.2227 Q65.3438 9.0977 65.8438 9.0977 Q66.5625 9.0977 67.1094 9.3164 Q67.6719 9.5195 67.9375 9.8789 Q68.2031 10.2383 68.2969 10.832 L67.2656 10.9727 Q67.2031 10.5039 66.8594 10.2383 Q66.5312 9.957 65.9062 9.957 Q65.1875 9.957 64.875 10.207 Q64.5625 10.4414 64.5625 10.7695 Q64.5625 10.9727 64.6875 11.1289 Q64.8281 11.3008 65.0938 11.4102 Q65.25 11.4727 66.0312 11.6758 Q67.1562 11.9883 67.5938 12.1758 Q68.0312 12.3633 68.2812 12.7227 Q68.5312 13.082 68.5312 13.6289 Q68.5312 14.1602 68.2188 14.6289 Q67.9219 15.082 67.3438 15.3477 Q66.7656 15.5977 66.0312 15.5977 Q64.8125 15.5977 64.1719 15.0977 Q63.5469 14.582 63.375 13.5977 ZM73.7969 15.457 L73.7969 9.2383 L74.7344 9.2383 L74.7344 10.1133 Q75.4219 9.0977 76.7188 9.0977 Q77.2812 9.0977 77.75 9.3008 Q78.2344 9.5039 78.4688 9.832 Q78.7031 10.1602 78.7969 10.5977 Q78.8438 10.8945 78.8438 11.6289 L78.8438 15.457 L77.7969 15.457 L77.7969 11.6758 Q77.7969 11.0195 77.6719 10.707 Q77.5469 10.3945 77.2344 10.207 Q76.9219 10.0039 76.5 10.0039 Q75.8281 10.0039 75.3281 10.4414 Q74.8438 10.8633 74.8438 12.0508 L74.8438 15.457 L73.7969 15.457 ZM85.0469 13.457 L86.1406 13.582 Q85.8906 14.5352 85.1875 15.0664 Q84.4844 15.5977 83.4062 15.5977 Q82.0469 15.5977 81.2344 14.7539 Q80.4375 13.9102 80.4375 12.3945 Q80.4375 10.832 81.25 9.9727 Q82.0625 9.0977 83.3438 9.0977 Q84.5938 9.0977 85.375 9.9414 Q86.1719 10.7852 86.1719 12.332 Q86.1719 12.4258 86.1719 12.6133 L81.5312 12.6133 Q81.5938 13.6445 82.1094 14.1914 Q82.625 14.7227 83.4062 14.7227 Q83.9844 14.7227 84.3906 14.4258 Q84.8125 14.1133 85.0469 13.457 ZM81.5938 11.7539 L85.0625 11.7539 Q85 10.957 84.6719 10.5664 Q84.1562 9.957 83.3594 9.957 Q82.625 9.957 82.125 10.4414 Q81.6406 10.9258 81.5938 11.7539 ZM92.0469 13.457 L93.1406 13.582 Q92.8906 14.5352 92.1875 15.0664 Q91.4844 15.5977 90.4062 15.5977 Q89.0469 15.5977 88.2344 14.7539 Q87.4375 13.9102 87.4375 12.3945 Q87.4375 10.832 88.25 9.9727 Q89.0625 9.0977 90.3438 9.0977 Q91.5938 9.0977 92.375 9.9414 Q93.1719 10.7852 93.1719 12.332 Q93.1719 12.4258 93.1719 12.6133 L88.5312 12.6133 Q88.5938 13.6445 89.1094 14.1914 Q89.625 14.7227 90.4062 14.7227 Q90.9844 14.7227 91.3906 14.4258 Q91.8125 14.1133 92.0469 13.457 ZM88.5938 11.7539 L92.0625 11.7539 Q92 10.957 91.6719 10.5664 Q91.1562 9.957 90.3594 9.957 Q89.625 9.957 89.125 10.4414 Q88.6406 10.9258 88.5938 11.7539 ZM98.8281 15.457 L98.8281 14.6758 Q98.2344 15.5977 97.0938 15.5977 Q96.3438 15.5977 95.7188 15.1914 Q95.0938 14.7695 94.75 14.0352 Q94.4062 13.3008 94.4062 12.3477 Q94.4062 11.4258 94.7188 10.6602 Q95.0312 9.8945 95.6562 9.5039 Q96.2812 9.0977 97.0469 9.0977 Q97.6094 9.0977 98.0469 9.332 Q98.4844 9.5664 98.7656 9.9414 L98.7656 6.8633 L99.8125 6.8633 L99.8125 15.457 L98.8281 15.457 ZM95.5 12.3477 Q95.5 13.5508 96 14.1445 Q96.5 14.7227 97.1875 14.7227 Q97.875 14.7227 98.3594 14.1602 Q98.8438 13.5977 98.8438 12.4414 Q98.8438 11.1602 98.3438 10.5664 Q97.8594 9.9727 97.1406 9.9727 Q96.4375 9.9727 95.9688 10.5508 Q95.5 11.1133 95.5 12.3477 ZM107.0938 14.5195 L107.25 15.4414 Q106.7969 15.5352 106.4531 15.5352 Q105.875 15.5352 105.5625 15.3633 Q105.25 15.1758 105.1094 14.8789 Q104.9844 14.582 104.9844 13.6289 L104.9844 10.0508 L104.2188 10.0508 L104.2188 9.2383 L104.9844 9.2383 L104.9844 7.6914 L106.0312 7.0664 L106.0312 9.2383 L107.0938 9.2383 L107.0938 10.0508 L106.0312 10.0508 L106.0312 13.6914 Q106.0312 14.1445 106.0781 14.2695 Q106.1406 14.3945 106.2656 14.4727 Q106.3906 14.5508 106.625 14.5508 Q106.8125 14.5508 107.0938 14.5195 ZM107.4062 12.3477 Q107.4062 10.6133 108.3594 9.7852 Q109.1562 9.0977 110.3125 9.0977 Q111.5938 9.0977 112.4062 9.9414 Q113.2344 10.7695 113.2344 12.2539 Q113.2344 13.457 112.875 14.1445 Q112.5156 14.832 111.8125 15.2227 Q111.125 15.5977 110.3125 15.5977 Q109.0156 15.5977 108.2031 14.7695 Q107.4062 13.9258 107.4062 12.3477 ZM108.4844 12.3477 Q108.4844 13.5352 109 14.1289 Q109.5312 14.7227 110.3125 14.7227 Q111.1094 14.7227 111.625 14.1289 Q112.1406 13.5352 112.1406 12.3164 Q112.1406 11.1602 111.6094 10.5664 Q111.0938 9.9727 110.3125 9.9727 Q109.5312 9.9727 109 10.5664 Q108.4844 11.1445 108.4844 12.3477 ZM118.7656 15.457 L117.7812 15.457 L117.7812 6.8633 L118.8438 6.8633 L118.8438 9.9258 Q119.5156 9.0977 120.5469 9.0977 Q121.125 9.0977 121.625 9.332 Q122.1406 9.5508 122.4688 9.9727 Q122.8125 10.3945 123 10.9883 Q123.1875 11.582 123.1875 12.2539 Q123.1875 13.8477 122.3906 14.7227 Q121.5938 15.5977 120.5 15.5977 Q119.3906 15.5977 118.7656 14.6758 L118.7656 15.457 ZM118.75 12.3008 Q118.75 13.4102 119.0625 13.9102 Q119.5625 14.7227 120.4062 14.7227 Q121.0938 14.7227 121.5938 14.1289 Q122.1094 13.5352 122.1094 12.332 Q122.1094 11.1133 121.625 10.5352 Q121.1406 9.957 120.4531 9.957 Q119.7656 9.957 119.25 10.5664 Q118.75 11.1602 118.75 12.3008 ZM129.0469 13.457 L130.1406 13.582 Q129.8906 14.5352 129.1875 15.0664 Q128.4844 15.5977 127.4062 15.5977 Q126.0469 15.5977 125.2344 14.7539 Q124.4375 13.9102 124.4375 12.3945 Q124.4375 10.832 125.25 9.9727 Q126.0625 9.0977 127.3438 9.0977 Q128.5938 9.0977 129.375 9.9414 Q130.1719 10.7852 130.1719 12.332 Q130.1719 12.4258 130.1719 12.6133 L125.5312 12.6133 Q125.5938 13.6445 126.1094 14.1914 Q126.625 14.7227 127.4062 14.7227 Q127.9844 14.7227 128.3906 14.4258 Q128.8125 14.1133 129.0469 13.457 ZM125.5938 11.7539 L129.0625 11.7539 Q129 10.957 128.6719 10.5664 Q128.1562 9.957 127.3594 9.957 Q126.625 9.957 126.125 10.4414 Q125.6406 10.9258 125.5938 11.7539 ZM135.9375 15.457 L134.0312 9.2383 L135.125 9.2383 L136.1094 12.832 L136.4844 14.1602 Q136.5156 14.0664 136.8125 12.8789 L137.7969 9.2383 L138.875 9.2383 L139.8125 12.8477 L140.125 14.0352 L140.4844 12.832 L141.5469 9.2383 L142.5781 9.2383 L140.625 15.457 L139.5312 15.457 L138.5469 11.7227 L138.2969 10.6758 L137.0469 15.457 L135.9375 15.457 ZM143.7812 15.457 L143.7812 9.2383 L144.7344 9.2383 L144.7344 10.1758 Q145.0938 9.5195 145.3906 9.3164 Q145.7031 9.0977 146.0781 9.0977 Q146.6094 9.0977 147.1562 9.4258 L146.7969 10.4102 Q146.4062 10.1758 146.0312 10.1758 Q145.6719 10.1758 145.3906 10.3945 Q145.125 10.5977 145.0156 10.9727 Q144.8281 11.5352 144.8281 12.1914 L144.8281 15.457 L143.7812 15.457 ZM147.7969 8.082 L147.7969 6.8633 L148.8594 6.8633 L148.8594 8.082 L147.7969 8.082 ZM147.7969 15.457 L147.7969 9.2383 L148.8594 9.2383 L148.8594 15.457 L147.7969 15.457 ZM153.0938 14.5195 L153.25 15.4414 Q152.7969 15.5352 152.4531 15.5352 Q151.875 15.5352 151.5625 15.3633 Q151.25 15.1758 151.1094 14.8789 Q150.9844 14.582 150.9844 13.6289 L150.9844 10.0508 L150.2188 10.0508 L150.2188 9.2383 L150.9844 9.2383 L150.9844 7.6914 L152.0312 7.0664 L152.0312 9.2383 L153.0938 9.2383 L153.0938 10.0508 L152.0312 10.0508 L152.0312 13.6914 Q152.0312 14.1445 152.0781 14.2695 Q152.1406 14.3945 152.2656 14.4727 Q152.3906 14.5508 152.625 14.5508 Q152.8125 14.5508 153.0938 14.5195 ZM156.0938 14.5195 L156.25 15.4414 Q155.7969 15.5352 155.4531 15.5352 Q154.875 15.5352 154.5625 15.3633 Q154.25 15.1758 154.1094 14.8789 Q153.9844 14.582 153.9844 13.6289 L153.9844 10.0508 L153.2188 10.0508 L153.2188 9.2383 L153.9844 9.2383 L153.9844 7.6914 L155.0312 7.0664 L155.0312 9.2383 L156.0938 9.2383 L156.0938 10.0508 L155.0312 10.0508 L155.0312 13.6914 Q155.0312 14.1445 155.0781 14.2695 Q155.1406 14.3945 155.2656 14.4727 Q155.3906 14.5508 155.625 14.5508 Q155.8125 14.5508 156.0938 14.5195 ZM161.0469 13.457 L162.1406 13.582 Q161.8906 14.5352 161.1875 15.0664 Q160.4844 15.5977 159.4062 15.5977 Q158.0469 15.5977 157.2344 14.7539 Q156.4375 13.9102 156.4375 12.3945 Q156.4375 10.832 157.25 9.9727 Q158.0625 9.0977 159.3438 9.0977 Q160.5938 9.0977 161.375 9.9414 Q162.1719 10.7852 162.1719 12.332 Q162.1719 12.4258 162.1719 12.6133 L157.5312 12.6133 Q157.5938 13.6445 158.1094 14.1914 Q158.625 14.7227 159.4062 14.7227 Q159.9844 14.7227 160.3906 14.4258 Q160.8125 14.1133 161.0469 13.457 ZM157.5938 11.7539 L161.0625 11.7539 Q161 10.957 160.6719 10.5664 Q160.1562 9.957 159.3594 9.957 Q158.625 9.957 158.125 10.4414 Q157.6406 10.9258 157.5938 11.7539 ZM163.7969 15.457 L163.7969 9.2383 L164.7344 9.2383 L164.7344 10.1133 Q165.4219 9.0977 166.7188 9.0977 Q167.2812 9.0977 167.75 9.3008 Q168.2344 9.5039 168.4688 9.832 Q168.7031 10.1602 168.7969 10.5977 Q168.8438 10.8945 168.8438 11.6289 L168.8438 15.457 L167.7969 15.457 L167.7969 11.6758 Q167.7969 11.0195 167.6719 10.707 Q167.5469 10.3945 167.2344 10.207 Q166.9219 10.0039 166.5 10.0039 Q165.8281 10.0039 165.3281 10.4414 Q164.8438 10.8633 164.8438 12.0508 L164.8438 15.457 L163.7969 15.457 Z"
                stroke="none" />
            <path clip-path="url(#807d6ce1-d0a5-4ff5-b3b4-855bbc534a8d)"
                d="M7.8594 30.6914 Q7.2656 31.1914 6.7188 31.3945 Q6.1875 31.5977 5.5625 31.5977 Q4.5312 31.5977 3.9844 31.0977 Q3.4375 30.5977 3.4375 29.8164 Q3.4375 29.3633 3.6406 28.9883 Q3.8438 28.5977 4.1875 28.3789 Q4.5312 28.1445 4.9531 28.0352 Q5.25 27.9414 5.8906 27.8633 Q7.1562 27.7227 7.7656 27.5039 Q7.7656 27.2852 7.7656 27.2383 Q7.7656 26.582 7.4688 26.3164 Q7.0625 25.9727 6.2656 25.9727 Q5.5312 25.9727 5.1719 26.2383 Q4.8125 26.4883 4.6406 27.1445 L3.6094 27.0039 Q3.75 26.3477 4.0781 25.9414 Q4.4062 25.5352 5.0156 25.3164 Q5.625 25.0977 6.4219 25.0977 Q7.2188 25.0977 7.7188 25.2852 Q8.2188 25.4727 8.4531 25.7539 Q8.6875 26.0352 8.7812 26.4727 Q8.8281 26.7383 8.8281 27.4414 L8.8281 28.8477 Q8.8281 30.3164 8.8906 30.707 Q8.9688 31.0977 9.1719 31.457 L8.0625 31.457 Q7.9062 31.1289 7.8594 30.6914 ZM7.7656 28.332 Q7.1875 28.5664 6.0469 28.7383 Q5.3906 28.832 5.125 28.957 Q4.8594 29.0664 4.7031 29.2852 Q4.5625 29.5039 4.5625 29.7852 Q4.5625 30.207 4.875 30.4883 Q5.2031 30.7695 5.8125 30.7695 Q6.4219 30.7695 6.8906 30.5039 Q7.375 30.2383 7.5938 29.7695 Q7.7656 29.4102 7.7656 28.7227 L7.7656 28.332 ZM10.375 29.5977 L11.4062 29.4414 Q11.5 30.0664 11.8906 30.3945 Q12.2969 30.7227 13.0312 30.7227 Q13.75 30.7227 14.0938 30.4414 Q14.4531 30.1445 14.4531 29.7383 Q14.4531 29.3789 14.1406 29.1758 Q13.9219 29.0352 13.0625 28.8164 Q11.9062 28.5195 11.4531 28.3164 Q11.0156 28.0977 10.7812 27.7227 Q10.5469 27.3477 10.5469 26.8789 Q10.5469 26.4727 10.7344 26.1133 Q10.9219 25.7539 11.25 25.5195 Q11.5 25.3477 11.9219 25.2227 Q12.3438 25.0977 12.8438 25.0977 Q13.5625 25.0977 14.1094 25.3164 Q14.6719 25.5195 14.9375 25.8789 Q15.2031 26.2383 15.2969 26.832 L14.2656 26.9727 Q14.2031 26.5039 13.8594 26.2383 Q13.5312 25.957 12.9062 25.957 Q12.1875 25.957 11.875 26.207 Q11.5625 26.4414 11.5625 26.7695 Q11.5625 26.9727 11.6875 27.1289 Q11.8281 27.3008 12.0938 27.4102 Q12.25 27.4727 13.0312 27.6758 Q14.1562 27.9883 14.5938 28.1758 Q15.0312 28.3633 15.2812 28.7227 Q15.5312 29.082 15.5312 29.6289 Q15.5312 30.1602 15.2188 30.6289 Q14.9219 31.082 14.3438 31.3477 Q13.7656 31.5977 13.0312 31.5977 Q11.8125 31.5977 11.1719 31.0977 Q10.5469 30.582 10.375 29.5977 ZM24.875 31.457 L24.875 30.5352 Q24.1406 31.5977 22.8906 31.5977 Q22.3438 31.5977 21.8594 31.3945 Q21.3906 31.1758 21.1562 30.8633 Q20.9219 30.5352 20.8281 30.0664 Q20.7656 29.7695 20.7656 29.082 L20.7656 25.2383 L21.8281 25.2383 L21.8281 28.6914 Q21.8281 29.5039 21.8906 29.8008 Q21.9844 30.207 22.2969 30.457 Q22.625 30.6914 23.1094 30.6914 Q23.5781 30.6914 23.9844 30.457 Q24.4062 30.207 24.5781 29.7852 Q24.7656 29.3633 24.7656 28.5664 L24.7656 25.2383 L25.8125 25.2383 L25.8125 31.457 L24.875 31.457 ZM27.375 29.5977 L28.4062 29.4414 Q28.5 30.0664 28.8906 30.3945 Q29.2969 30.7227 30.0312 30.7227 Q30.75 30.7227 31.0938 30.4414 Q31.4531 30.1445 31.4531 29.7383 Q31.4531 29.3789 31.1406 29.1758 Q30.9219 29.0352 30.0625 28.8164 Q28.9062 28.5195 28.4531 28.3164 Q28.0156 28.0977 27.7812 27.7227 Q27.5469 27.3477 27.5469 26.8789 Q27.5469 26.4727 27.7344 26.1133 Q27.9219 25.7539 28.25 25.5195 Q28.5 25.3477 28.9219 25.2227 Q29.3438 25.0977 29.8438 25.0977 Q30.5625 25.0977 31.1094 25.3164 Q31.6719 25.5195 31.9375 25.8789 Q32.2031 26.2383 32.2969 26.832 L31.2656 26.9727 Q31.2031 26.5039 30.8594 26.2383 Q30.5312 25.957 29.9062 25.957 Q29.1875 25.957 28.875 26.207 Q28.5625 26.4414 28.5625 26.7695 Q28.5625 26.9727 28.6875 27.1289 Q28.8281 27.3008 29.0938 27.4102 Q29.25 27.4727 30.0312 27.6758 Q31.1562 27.9883 31.5938 28.1758 Q32.0312 28.3633 32.2812 28.7227 Q32.5312 29.082 32.5312 29.6289 Q32.5312 30.1602 32.2188 30.6289 Q31.9219 31.082 31.3438 31.3477 Q30.7656 31.5977 30.0312 31.5977 Q28.8125 31.5977 28.1719 31.0977 Q27.5469 30.582 27.375 29.5977 ZM39.0469 29.457 L40.1406 29.582 Q39.8906 30.5352 39.1875 31.0664 Q38.4844 31.5977 37.4062 31.5977 Q36.0469 31.5977 35.2344 30.7539 Q34.4375 29.9102 34.4375 28.3945 Q34.4375 26.832 35.25 25.9727 Q36.0625 25.0977 37.3438 25.0977 Q38.5938 25.0977 39.375 25.9414 Q40.1719 26.7852 40.1719 28.332 Q40.1719 28.4258 40.1719 28.6133 L35.5312 28.6133 Q35.5938 29.6445 36.1094 30.1914 Q36.625 30.7227 37.4062 30.7227 Q37.9844 30.7227 38.3906 30.4258 Q38.8125 30.1133 39.0469 29.457 ZM35.5938 27.7539 L39.0625 27.7539 Q39 26.957 38.6719 26.5664 Q38.1562 25.957 37.3594 25.957 Q36.625 25.957 36.125 26.4414 Q35.6406 26.9258 35.5938 27.7539 ZM41.7812 31.457 L41.7812 25.2383 L42.7344 25.2383 L42.7344 26.1758 Q43.0938 25.5195 43.3906 25.3164 Q43.7031 25.0977 44.0781 25.0977 Q44.6094 25.0977 45.1562 25.4258 L44.7969 26.4102 Q44.4062 26.1758 44.0312 26.1758 Q43.6719 26.1758 43.3906 26.3945 Q43.125 26.5977 43.0156 26.9727 Q42.8281 27.5352 42.8281 28.1914 L42.8281 31.457 L41.7812 31.457 ZM48.375 29.5977 L49.4062 29.4414 Q49.5 30.0664 49.8906 30.3945 Q50.2969 30.7227 51.0312 30.7227 Q51.75 30.7227 52.0938 30.4414 Q52.4531 30.1445 52.4531 29.7383 Q52.4531 29.3789 52.1406 29.1758 Q51.9219 29.0352 51.0625 28.8164 Q49.9062 28.5195 49.4531 28.3164 Q49.0156 28.0977 48.7812 27.7227 Q48.5469 27.3477 48.5469 26.8789 Q48.5469 26.4727 48.7344 26.1133 Q48.9219 25.7539 49.25 25.5195 Q49.5 25.3477 49.9219 25.2227 Q50.3438 25.0977 50.8438 25.0977 Q51.5625 25.0977 52.1094 25.3164 Q52.6719 25.5195 52.9375 25.8789 Q53.2031 26.2383 53.2969 26.832 L52.2656 26.9727 Q52.2031 26.5039 51.8594 26.2383 Q51.5312 25.957 50.9062 25.957 Q50.1875 25.957 49.875 26.207 Q49.5625 26.4414 49.5625 26.7695 Q49.5625 26.9727 49.6875 27.1289 Q49.8281 27.3008 50.0938 27.4102 Q50.25 27.4727 51.0312 27.6758 Q52.1562 27.9883 52.5938 28.1758 Q53.0312 28.3633 53.2812 28.7227 Q53.5312 29.082 53.5312 29.6289 Q53.5312 30.1602 53.2188 30.6289 Q52.9219 31.082 52.3438 31.3477 Q51.7656 31.5977 51.0312 31.5977 Q49.8125 31.5977 49.1719 31.0977 Q48.5469 30.582 48.375 29.5977 ZM58.0938 30.5195 L58.25 31.4414 Q57.7969 31.5352 57.4531 31.5352 Q56.875 31.5352 56.5625 31.3633 Q56.25 31.1758 56.1094 30.8789 Q55.9844 30.582 55.9844 29.6289 L55.9844 26.0508 L55.2188 26.0508 L55.2188 25.2383 L55.9844 25.2383 L55.9844 23.6914 L57.0312 23.0664 L57.0312 25.2383 L58.0938 25.2383 L58.0938 26.0508 L57.0312 26.0508 L57.0312 29.6914 Q57.0312 30.1445 57.0781 30.2695 Q57.1406 30.3945 57.2656 30.4727 Q57.3906 30.5508 57.625 30.5508 Q57.8125 30.5508 58.0938 30.5195 ZM58.4062 28.3477 Q58.4062 26.6133 59.3594 25.7852 Q60.1562 25.0977 61.3125 25.0977 Q62.5938 25.0977 63.4062 25.9414 Q64.2344 26.7695 64.2344 28.2539 Q64.2344 29.457 63.875 30.1445 Q63.5156 30.832 62.8125 31.2227 Q62.125 31.5977 61.3125 31.5977 Q60.0156 31.5977 59.2031 30.7695 Q58.4062 29.9258 58.4062 28.3477 ZM59.4844 28.3477 Q59.4844 29.5352 60 30.1289 Q60.5312 30.7227 61.3125 30.7227 Q62.1094 30.7227 62.625 30.1289 Q63.1406 29.5352 63.1406 28.3164 Q63.1406 27.1602 62.6094 26.5664 Q62.0938 25.9727 61.3125 25.9727 Q60.5312 25.9727 60 26.5664 Q59.4844 27.1445 59.4844 28.3477 ZM65.7812 31.457 L65.7812 25.2383 L66.7344 25.2383 L66.7344 26.1758 Q67.0938 25.5195 67.3906 25.3164 Q67.7031 25.0977 68.0781 25.0977 Q68.6094 25.0977 69.1562 25.4258 L68.7969 26.4102 Q68.4062 26.1758 68.0312 26.1758 Q67.6719 26.1758 67.3906 26.3945 Q67.125 26.5977 67.0156 26.9727 Q66.8281 27.5352 66.8281 28.1914 L66.8281 31.457 L65.7812 31.457 ZM69.7969 24.082 L69.7969 22.8633 L70.8594 22.8633 L70.8594 24.082 L69.7969 24.082 ZM69.7969 31.457 L69.7969 25.2383 L70.8594 25.2383 L70.8594 31.457 L69.7969 31.457 ZM77.0469 29.457 L78.1406 29.582 Q77.8906 30.5352 77.1875 31.0664 Q76.4844 31.5977 75.4062 31.5977 Q74.0469 31.5977 73.2344 30.7539 Q72.4375 29.9102 72.4375 28.3945 Q72.4375 26.832 73.25 25.9727 Q74.0625 25.0977 75.3438 25.0977 Q76.5938 25.0977 77.375 25.9414 Q78.1719 26.7852 78.1719 28.332 Q78.1719 28.4258 78.1719 28.6133 L73.5312 28.6133 Q73.5938 29.6445 74.1094 30.1914 Q74.625 30.7227 75.4062 30.7227 Q75.9844 30.7227 76.3906 30.4258 Q76.8125 30.1133 77.0469 29.457 ZM73.5938 27.7539 L77.0625 27.7539 Q77 26.957 76.6719 26.5664 Q76.1562 25.957 75.3594 25.957 Q74.625 25.957 74.125 26.4414 Q73.6406 26.9258 73.5938 27.7539 ZM79.375 29.5977 L80.4062 29.4414 Q80.5 30.0664 80.8906 30.3945 Q81.2969 30.7227 82.0312 30.7227 Q82.75 30.7227 83.0938 30.4414 Q83.4531 30.1445 83.4531 29.7383 Q83.4531 29.3789 83.1406 29.1758 Q82.9219 29.0352 82.0625 28.8164 Q80.9062 28.5195 80.4531 28.3164 Q80.0156 28.0977 79.7812 27.7227 Q79.5469 27.3477 79.5469 26.8789 Q79.5469 26.4727 79.7344 26.1133 Q79.9219 25.7539 80.25 25.5195 Q80.5 25.3477 80.9219 25.2227 Q81.3438 25.0977 81.8438 25.0977 Q82.5625 25.0977 83.1094 25.3164 Q83.6719 25.5195 83.9375 25.8789 Q84.2031 26.2383 84.2969 26.832 L83.2656 26.9727 Q83.2031 26.5039 82.8594 26.2383 Q82.5312 25.957 81.9062 25.957 Q81.1875 25.957 80.875 26.207 Q80.5625 26.4414 80.5625 26.7695 Q80.5625 26.9727 80.6875 27.1289 Q80.8281 27.3008 81.0938 27.4102 Q81.25 27.4727 82.0312 27.6758 Q83.1562 27.9883 83.5938 28.1758 Q84.0312 28.3633 84.2812 28.7227 Q84.5312 29.082 84.5312 29.6289 Q84.5312 30.1602 84.2188 30.6289 Q83.9219 31.082 83.3438 31.3477 Q82.7656 31.5977 82.0312 31.5977 Q80.8125 31.5977 80.1719 31.0977 Q79.5469 30.582 79.375 29.5977 ZM90.9375 31.457 L89.0312 25.2383 L90.125 25.2383 L91.1094 28.832 L91.4844 30.1602 Q91.5156 30.0664 91.8125 28.8789 L92.7969 25.2383 L93.875 25.2383 L94.8125 28.8477 L95.125 30.0352 L95.4844 28.832 L96.5469 25.2383 L97.5781 25.2383 L95.625 31.457 L94.5312 31.457 L93.5469 27.7227 L93.2969 26.6758 L92.0469 31.457 L90.9375 31.457 ZM98.7969 24.082 L98.7969 22.8633 L99.8594 22.8633 L99.8594 24.082 L98.7969 24.082 ZM98.7969 31.457 L98.7969 25.2383 L99.8594 25.2383 L99.8594 31.457 L98.7969 31.457 ZM104.0938 30.5195 L104.25 31.4414 Q103.7969 31.5352 103.4531 31.5352 Q102.875 31.5352 102.5625 31.3633 Q102.25 31.1758 102.1094 30.8789 Q101.9844 30.582 101.9844 29.6289 L101.9844 26.0508 L101.2188 26.0508 L101.2188 25.2383 L101.9844 25.2383 L101.9844 23.6914 L103.0312 23.0664 L103.0312 25.2383 L104.0938 25.2383 L104.0938 26.0508 L103.0312 26.0508 L103.0312 29.6914 Q103.0312 30.1445 103.0781 30.2695 Q103.1406 30.3945 103.2656 30.4727 Q103.3906 30.5508 103.625 30.5508 Q103.8125 30.5508 104.0938 30.5195 ZM104.7969 31.457 L104.7969 22.8633 L105.8438 22.8633 L105.8438 25.9414 Q106.5781 25.0977 107.7031 25.0977 Q108.4062 25.0977 108.9062 25.3789 Q109.4219 25.6445 109.6406 26.1289 Q109.8594 26.5977 109.8594 27.5195 L109.8594 31.457 L108.8125 31.457 L108.8125 27.5195 Q108.8125 26.7227 108.4688 26.3633 Q108.125 26.0039 107.5 26.0039 Q107.0312 26.0039 106.6094 26.2539 Q106.2031 26.4883 106.0156 26.9102 Q105.8438 27.3164 105.8438 28.0508 L105.8438 31.457 L104.7969 31.457 ZM114.375 29.5977 L115.4062 29.4414 Q115.5 30.0664 115.8906 30.3945 Q116.2969 30.7227 117.0312 30.7227 Q117.75 30.7227 118.0938 30.4414 Q118.4531 30.1445 118.4531 29.7383 Q118.4531 29.3789 118.1406 29.1758 Q117.9219 29.0352 117.0625 28.8164 Q115.9062 28.5195 115.4531 28.3164 Q115.0156 28.0977 114.7812 27.7227 Q114.5469 27.3477 114.5469 26.8789 Q114.5469 26.4727 114.7344 26.1133 Q114.9219 25.7539 115.25 25.5195 Q115.5 25.3477 115.9219 25.2227 Q116.3438 25.0977 116.8438 25.0977 Q117.5625 25.0977 118.1094 25.3164 Q118.6719 25.5195 118.9375 25.8789 Q119.2031 26.2383 119.2969 26.832 L118.2656 26.9727 Q118.2031 26.5039 117.8594 26.2383 Q117.5312 25.957 116.9062 25.957 Q116.1875 25.957 115.875 26.207 Q115.5625 26.4414 115.5625 26.7695 Q115.5625 26.9727 115.6875 27.1289 Q115.8281 27.3008 116.0938 27.4102 Q116.25 27.4727 117.0312 27.6758 Q118.1562 27.9883 118.5938 28.1758 Q119.0312 28.3633 119.2812 28.7227 Q119.5312 29.082 119.5312 29.6289 Q119.5312 30.1602 119.2188 30.6289 Q118.9219 31.082 118.3438 31.3477 Q117.7656 31.5977 117.0312 31.5977 Q115.8125 31.5977 115.1719 31.0977 Q114.5469 30.582 114.375 29.5977 ZM125.875 31.457 L125.875 30.5352 Q125.1406 31.5977 123.8906 31.5977 Q123.3438 31.5977 122.8594 31.3945 Q122.3906 31.1758 122.1562 30.8633 Q121.9219 30.5352 121.8281 30.0664 Q121.7656 29.7695 121.7656 29.082 L121.7656 25.2383 L122.8281 25.2383 L122.8281 28.6914 Q122.8281 29.5039 122.8906 29.8008 Q122.9844 30.207 123.2969 30.457 Q123.625 30.6914 124.1094 30.6914 Q124.5781 30.6914 124.9844 30.457 Q125.4062 30.207 125.5781 29.7852 Q125.7656 29.3633 125.7656 28.5664 L125.7656 25.2383 L126.8125 25.2383 L126.8125 31.457 L125.875 31.457 ZM128.7969 24.082 L128.7969 22.8633 L129.8594 22.8633 L129.8594 24.082 L128.7969 24.082 ZM128.7969 31.457 L128.7969 25.2383 L129.8594 25.2383 L129.8594 31.457 L128.7969 31.457 ZM134.0938 30.5195 L134.25 31.4414 Q133.7969 31.5352 133.4531 31.5352 Q132.875 31.5352 132.5625 31.3633 Q132.25 31.1758 132.1094 30.8789 Q131.9844 30.582 131.9844 29.6289 L131.9844 26.0508 L131.2188 26.0508 L131.2188 25.2383 L131.9844 25.2383 L131.9844 23.6914 L133.0312 23.0664 L133.0312 25.2383 L134.0938 25.2383 L134.0938 26.0508 L133.0312 26.0508 L133.0312 29.6914 Q133.0312 30.1445 133.0781 30.2695 Q133.1406 30.3945 133.2656 30.4727 Q133.3906 30.5508 133.625 30.5508 Q133.8125 30.5508 134.0938 30.5195 ZM138.8594 30.6914 Q138.2656 31.1914 137.7188 31.3945 Q137.1875 31.5977 136.5625 31.5977 Q135.5312 31.5977 134.9844 31.0977 Q134.4375 30.5977 134.4375 29.8164 Q134.4375 29.3633 134.6406 28.9883 Q134.8438 28.5977 135.1875 28.3789 Q135.5312 28.1445 135.9531 28.0352 Q136.25 27.9414 136.8906 27.8633 Q138.1562 27.7227 138.7656 27.5039 Q138.7656 27.2852 138.7656 27.2383 Q138.7656 26.582 138.4688 26.3164 Q138.0625 25.9727 137.2656 25.9727 Q136.5312 25.9727 136.1719 26.2383 Q135.8125 26.4883 135.6406 27.1445 L134.6094 27.0039 Q134.75 26.3477 135.0781 25.9414 Q135.4062 25.5352 136.0156 25.3164 Q136.625 25.0977 137.4219 25.0977 Q138.2188 25.0977 138.7188 25.2852 Q139.2188 25.4727 139.4531 25.7539 Q139.6875 26.0352 139.7812 26.4727 Q139.8281 26.7383 139.8281 27.4414 L139.8281 28.8477 Q139.8281 30.3164 139.8906 30.707 Q139.9688 31.0977 140.1719 31.457 L139.0625 31.457 Q138.9062 31.1289 138.8594 30.6914 ZM138.7656 28.332 Q138.1875 28.5664 137.0469 28.7383 Q136.3906 28.832 136.125 28.957 Q135.8594 29.0664 135.7031 29.2852 Q135.5625 29.5039 135.5625 29.7852 Q135.5625 30.207 135.875 30.4883 Q136.2031 30.7695 136.8125 30.7695 Q137.4219 30.7695 137.8906 30.5039 Q138.375 30.2383 138.5938 29.7695 Q138.7656 29.4102 138.7656 28.7227 L138.7656 28.332 ZM142.7656 31.457 L141.7812 31.457 L141.7812 22.8633 L142.8438 22.8633 L142.8438 25.9258 Q143.5156 25.0977 144.5469 25.0977 Q145.125 25.0977 145.625 25.332 Q146.1406 25.5508 146.4688 25.9727 Q146.8125 26.3945 147 26.9883 Q147.1875 27.582 147.1875 28.2539 Q147.1875 29.8477 146.3906 30.7227 Q145.5938 31.5977 144.5 31.5977 Q143.3906 31.5977 142.7656 30.6758 L142.7656 31.457 ZM142.75 28.3008 Q142.75 29.4102 143.0625 29.9102 Q143.5625 30.7227 144.4062 30.7227 Q145.0938 30.7227 145.5938 30.1289 Q146.1094 29.5352 146.1094 28.332 Q146.1094 27.1133 145.625 26.5352 Q145.1406 25.957 144.4531 25.957 Q143.7656 25.957 143.25 26.5664 Q142.75 27.1602 142.75 28.3008 ZM148.7656 31.457 L148.7656 22.8633 L149.8281 22.8633 L149.8281 31.457 L148.7656 31.457 ZM156.0469 29.457 L157.1406 29.582 Q156.8906 30.5352 156.1875 31.0664 Q155.4844 31.5977 154.4062 31.5977 Q153.0469 31.5977 152.2344 30.7539 Q151.4375 29.9102 151.4375 28.3945 Q151.4375 26.832 152.25 25.9727 Q153.0625 25.0977 154.3438 25.0977 Q155.5938 25.0977 156.375 25.9414 Q157.1719 26.7852 157.1719 28.332 Q157.1719 28.4258 157.1719 28.6133 L152.5312 28.6133 Q152.5938 29.6445 153.1094 30.1914 Q153.625 30.7227 154.4062 30.7227 Q154.9844 30.7227 155.3906 30.4258 Q155.8125 30.1133 156.0469 29.457 ZM152.5938 27.7539 L156.0625 27.7539 Q156 26.957 155.6719 26.5664 Q155.1562 25.957 154.3594 25.957 Q153.625 25.957 153.125 26.4414 Q152.6406 26.9258 152.5938 27.7539 Z"
                stroke="none" />
            <path clip-path="url(#807d6ce1-d0a5-4ff5-b3b4-855bbc534a8d)"
                d="M7.8594 46.6914 Q7.2656 47.1914 6.7188 47.3945 Q6.1875 47.5977 5.5625 47.5977 Q4.5312 47.5977 3.9844 47.0977 Q3.4375 46.5977 3.4375 45.8164 Q3.4375 45.3633 3.6406 44.9883 Q3.8438 44.5977 4.1875 44.3789 Q4.5312 44.1445 4.9531 44.0352 Q5.25 43.9414 5.8906 43.8633 Q7.1562 43.7227 7.7656 43.5039 Q7.7656 43.2852 7.7656 43.2383 Q7.7656 42.582 7.4688 42.3164 Q7.0625 41.9727 6.2656 41.9727 Q5.5312 41.9727 5.1719 42.2383 Q4.8125 42.4883 4.6406 43.1445 L3.6094 43.0039 Q3.75 42.3477 4.0781 41.9414 Q4.4062 41.5352 5.0156 41.3164 Q5.625 41.0977 6.4219 41.0977 Q7.2188 41.0977 7.7188 41.2852 Q8.2188 41.4727 8.4531 41.7539 Q8.6875 42.0352 8.7812 42.4727 Q8.8281 42.7383 8.8281 43.4414 L8.8281 44.8477 Q8.8281 46.3164 8.8906 46.707 Q8.9688 47.0977 9.1719 47.457 L8.0625 47.457 Q7.9062 47.1289 7.8594 46.6914 ZM7.7656 44.332 Q7.1875 44.5664 6.0469 44.7383 Q5.3906 44.832 5.125 44.957 Q4.8594 45.0664 4.7031 45.2852 Q4.5625 45.5039 4.5625 45.7852 Q4.5625 46.207 4.875 46.4883 Q5.2031 46.7695 5.8125 46.7695 Q6.4219 46.7695 6.8906 46.5039 Q7.375 46.2383 7.5938 45.7695 Q7.7656 45.4102 7.7656 44.7227 L7.7656 44.332 ZM14.8594 45.1758 L15.8906 45.3164 Q15.7188 46.3789 15.0156 46.9883 Q14.3125 47.5977 13.2969 47.5977 Q12.0156 47.5977 11.2344 46.7695 Q10.4688 45.9258 10.4688 44.3633 Q10.4688 43.3633 10.7969 42.6133 Q11.1406 41.8477 11.8125 41.4727 Q12.5 41.0977 13.3125 41.0977 Q14.3125 41.0977 14.9531 41.6133 Q15.6094 42.1133 15.7969 43.0664 L14.7656 43.2227 Q14.625 42.5977 14.25 42.2852 Q13.875 41.957 13.3438 41.957 Q12.5469 41.957 12.0469 42.5352 Q11.5469 43.0977 11.5469 44.332 Q11.5469 45.5977 12.0312 46.1602 Q12.5156 46.7227 13.2812 46.7227 Q13.9062 46.7227 14.3125 46.3477 Q14.7344 45.9727 14.8594 45.1758 ZM20.8594 45.1758 L21.8906 45.3164 Q21.7188 46.3789 21.0156 46.9883 Q20.3125 47.5977 19.2969 47.5977 Q18.0156 47.5977 17.2344 46.7695 Q16.4688 45.9258 16.4688 44.3633 Q16.4688 43.3633 16.7969 42.6133 Q17.1406 41.8477 17.8125 41.4727 Q18.5 41.0977 19.3125 41.0977 Q20.3125 41.0977 20.9531 41.6133 Q21.6094 42.1133 21.7969 43.0664 L20.7656 43.2227 Q20.625 42.5977 20.25 42.2852 Q19.875 41.957 19.3438 41.957 Q18.5469 41.957 18.0469 42.5352 Q17.5469 43.0977 17.5469 44.332 Q17.5469 45.5977 18.0312 46.1602 Q18.5156 46.7227 19.2812 46.7227 Q19.9062 46.7227 20.3125 46.3477 Q20.7344 45.9727 20.8594 45.1758 ZM27.0469 45.457 L28.1406 45.582 Q27.8906 46.5352 27.1875 47.0664 Q26.4844 47.5977 25.4062 47.5977 Q24.0469 47.5977 23.2344 46.7539 Q22.4375 45.9102 22.4375 44.3945 Q22.4375 42.832 23.25 41.9727 Q24.0625 41.0977 25.3438 41.0977 Q26.5938 41.0977 27.375 41.9414 Q28.1719 42.7852 28.1719 44.332 Q28.1719 44.4258 28.1719 44.6133 L23.5312 44.6133 Q23.5938 45.6445 24.1094 46.1914 Q24.625 46.7227 25.4062 46.7227 Q25.9844 46.7227 26.3906 46.4258 Q26.8125 46.1133 27.0469 45.457 ZM23.5938 43.7539 L27.0625 43.7539 Q27 42.957 26.6719 42.5664 Q26.1562 41.957 25.3594 41.957 Q24.625 41.957 24.125 42.4414 Q23.6406 42.9258 23.5938 43.7539 ZM29.7969 49.8477 L29.7969 41.2383 L30.75 41.2383 L30.75 42.0352 Q31.0938 41.5664 31.5156 41.332 Q31.9531 41.0977 32.5625 41.0977 Q33.3594 41.0977 33.9688 41.5039 Q34.5781 41.9102 34.875 42.6602 Q35.1875 43.4102 35.1875 44.3008 Q35.1875 45.2539 34.8438 46.0195 Q34.5156 46.7852 33.8594 47.1914 Q33.2031 47.5977 32.4844 47.5977 Q31.9531 47.5977 31.5312 47.3789 Q31.1094 47.1445 30.8438 46.8164 L30.8438 49.8477 L29.7969 49.8477 ZM30.75 44.3789 Q30.75 45.582 31.2344 46.1602 Q31.7188 46.7227 32.4062 46.7227 Q33.1094 46.7227 33.6094 46.1289 Q34.1094 45.5352 34.1094 44.2852 Q34.1094 43.0977 33.625 42.5195 Q33.1406 41.9258 32.4531 41.9258 Q31.7812 41.9258 31.2656 42.5508 Q30.75 43.1758 30.75 44.3789 ZM39.0938 46.5195 L39.25 47.4414 Q38.7969 47.5352 38.4531 47.5352 Q37.875 47.5352 37.5625 47.3633 Q37.25 47.1758 37.1094 46.8789 Q36.9844 46.582 36.9844 45.6289 L36.9844 42.0508 L36.2188 42.0508 L36.2188 41.2383 L36.9844 41.2383 L36.9844 39.6914 L38.0312 39.0664 L38.0312 41.2383 L39.0938 41.2383 L39.0938 42.0508 L38.0312 42.0508 L38.0312 45.6914 Q38.0312 46.1445 38.0781 46.2695 Q38.1406 46.3945 38.2656 46.4727 Q38.3906 46.5508 38.625 46.5508 Q38.8125 46.5508 39.0938 46.5195 ZM43.8594 46.6914 Q43.2656 47.1914 42.7188 47.3945 Q42.1875 47.5977 41.5625 47.5977 Q40.5312 47.5977 39.9844 47.0977 Q39.4375 46.5977 39.4375 45.8164 Q39.4375 45.3633 39.6406 44.9883 Q39.8438 44.5977 40.1875 44.3789 Q40.5312 44.1445 40.9531 44.0352 Q41.25 43.9414 41.8906 43.8633 Q43.1562 43.7227 43.7656 43.5039 Q43.7656 43.2852 43.7656 43.2383 Q43.7656 42.582 43.4688 42.3164 Q43.0625 41.9727 42.2656 41.9727 Q41.5312 41.9727 41.1719 42.2383 Q40.8125 42.4883 40.6406 43.1445 L39.6094 43.0039 Q39.75 42.3477 40.0781 41.9414 Q40.4062 41.5352 41.0156 41.3164 Q41.625 41.0977 42.4219 41.0977 Q43.2188 41.0977 43.7188 41.2852 Q44.2188 41.4727 44.4531 41.7539 Q44.6875 42.0352 44.7812 42.4727 Q44.8281 42.7383 44.8281 43.4414 L44.8281 44.8477 Q44.8281 46.3164 44.8906 46.707 Q44.9688 47.0977 45.1719 47.457 L44.0625 47.457 Q43.9062 47.1289 43.8594 46.6914 ZM43.7656 44.332 Q43.1875 44.5664 42.0469 44.7383 Q41.3906 44.832 41.125 44.957 Q40.8594 45.0664 40.7031 45.2852 Q40.5625 45.5039 40.5625 45.7852 Q40.5625 46.207 40.875 46.4883 Q41.2031 46.7695 41.8125 46.7695 Q42.4219 46.7695 42.8906 46.5039 Q43.375 46.2383 43.5938 45.7695 Q43.7656 45.4102 43.7656 44.7227 L43.7656 44.332 ZM46.7969 47.457 L46.7969 41.2383 L47.7344 41.2383 L47.7344 42.1133 Q48.4219 41.0977 49.7188 41.0977 Q50.2812 41.0977 50.75 41.3008 Q51.2344 41.5039 51.4688 41.832 Q51.7031 42.1602 51.7969 42.5977 Q51.8438 42.8945 51.8438 43.6289 L51.8438 47.457 L50.7969 47.457 L50.7969 43.6758 Q50.7969 43.0195 50.6719 42.707 Q50.5469 42.3945 50.2344 42.207 Q49.9219 42.0039 49.5 42.0039 Q48.8281 42.0039 48.3281 42.4414 Q47.8438 42.8633 47.8438 44.0508 L47.8438 47.457 L46.7969 47.457 ZM57.8594 45.1758 L58.8906 45.3164 Q58.7188 46.3789 58.0156 46.9883 Q57.3125 47.5977 56.2969 47.5977 Q55.0156 47.5977 54.2344 46.7695 Q53.4688 45.9258 53.4688 44.3633 Q53.4688 43.3633 53.7969 42.6133 Q54.1406 41.8477 54.8125 41.4727 Q55.5 41.0977 56.3125 41.0977 Q57.3125 41.0977 57.9531 41.6133 Q58.6094 42.1133 58.7969 43.0664 L57.7656 43.2227 Q57.625 42.5977 57.25 42.2852 Q56.875 41.957 56.3438 41.957 Q55.5469 41.957 55.0469 42.5352 Q54.5469 43.0977 54.5469 44.332 Q54.5469 45.5977 55.0312 46.1602 Q55.5156 46.7227 56.2812 46.7227 Q56.9062 46.7227 57.3125 46.3477 Q57.7344 45.9727 57.8594 45.1758 ZM64.0469 45.457 L65.1406 45.582 Q64.8906 46.5352 64.1875 47.0664 Q63.4844 47.5977 62.4062 47.5977 Q61.0469 47.5977 60.2344 46.7539 Q59.4375 45.9102 59.4375 44.3945 Q59.4375 42.832 60.25 41.9727 Q61.0625 41.0977 62.3438 41.0977 Q63.5938 41.0977 64.375 41.9414 Q65.1719 42.7852 65.1719 44.332 Q65.1719 44.4258 65.1719 44.6133 L60.5312 44.6133 Q60.5938 45.6445 61.1094 46.1914 Q61.625 46.7227 62.4062 46.7227 Q62.9844 46.7227 63.3906 46.4258 Q63.8125 46.1133 64.0469 45.457 ZM60.5938 43.7539 L64.0625 43.7539 Q64 42.957 63.6719 42.5664 Q63.1562 41.957 62.3594 41.957 Q61.625 41.957 61.125 42.4414 Q60.6406 42.9258 60.5938 43.7539 ZM73.8594 45.1758 L74.8906 45.3164 Q74.7188 46.3789 74.0156 46.9883 Q73.3125 47.5977 72.2969 47.5977 Q71.0156 47.5977 70.2344 46.7695 Q69.4688 45.9258 69.4688 44.3633 Q69.4688 43.3633 69.7969 42.6133 Q70.1406 41.8477 70.8125 41.4727 Q71.5 41.0977 72.3125 41.0977 Q73.3125 41.0977 73.9531 41.6133 Q74.6094 42.1133 74.7969 43.0664 L73.7656 43.2227 Q73.625 42.5977 73.25 42.2852 Q72.875 41.957 72.3438 41.957 Q71.5469 41.957 71.0469 42.5352 Q70.5469 43.0977 70.5469 44.332 Q70.5469 45.5977 71.0312 46.1602 Q71.5156 46.7227 72.2812 46.7227 Q72.9062 46.7227 73.3125 46.3477 Q73.7344 45.9727 73.8594 45.1758 ZM75.7812 47.457 L75.7812 41.2383 L76.7344 41.2383 L76.7344 42.1758 Q77.0938 41.5195 77.3906 41.3164 Q77.7031 41.0977 78.0781 41.0977 Q78.6094 41.0977 79.1562 41.4258 L78.7969 42.4102 Q78.4062 42.1758 78.0312 42.1758 Q77.6719 42.1758 77.3906 42.3945 Q77.125 42.5977 77.0156 42.9727 Q76.8281 43.5352 76.8281 44.1914 L76.8281 47.457 L75.7812 47.457 ZM79.7969 40.082 L79.7969 38.8633 L80.8594 38.8633 L80.8594 40.082 L79.7969 40.082 ZM79.7969 47.457 L79.7969 41.2383 L80.8594 41.2383 L80.8594 47.457 L79.7969 47.457 ZM85.0938 46.5195 L85.25 47.4414 Q84.7969 47.5352 84.4531 47.5352 Q83.875 47.5352 83.5625 47.3633 Q83.25 47.1758 83.1094 46.8789 Q82.9844 46.582 82.9844 45.6289 L82.9844 42.0508 L82.2188 42.0508 L82.2188 41.2383 L82.9844 41.2383 L82.9844 39.6914 L84.0312 39.0664 L84.0312 41.2383 L85.0938 41.2383 L85.0938 42.0508 L84.0312 42.0508 L84.0312 45.6914 Q84.0312 46.1445 84.0781 46.2695 Q84.1406 46.3945 84.2656 46.4727 Q84.3906 46.5508 84.625 46.5508 Q84.8125 46.5508 85.0938 46.5195 ZM90.0469 45.457 L91.1406 45.582 Q90.8906 46.5352 90.1875 47.0664 Q89.4844 47.5977 88.4062 47.5977 Q87.0469 47.5977 86.2344 46.7539 Q85.4375 45.9102 85.4375 44.3945 Q85.4375 42.832 86.25 41.9727 Q87.0625 41.0977 88.3438 41.0977 Q89.5938 41.0977 90.375 41.9414 Q91.1719 42.7852 91.1719 44.332 Q91.1719 44.4258 91.1719 44.6133 L86.5312 44.6133 Q86.5938 45.6445 87.1094 46.1914 Q87.625 46.7227 88.4062 46.7227 Q88.9844 46.7227 89.3906 46.4258 Q89.8125 46.1133 90.0469 45.457 ZM86.5938 43.7539 L90.0625 43.7539 Q90 42.957 89.6719 42.5664 Q89.1562 41.957 88.3594 41.957 Q87.625 41.957 87.125 42.4414 Q86.6406 42.9258 86.5938 43.7539 ZM92.7812 47.457 L92.7812 41.2383 L93.7344 41.2383 L93.7344 42.1758 Q94.0938 41.5195 94.3906 41.3164 Q94.7031 41.0977 95.0781 41.0977 Q95.6094 41.0977 96.1562 41.4258 L95.7969 42.4102 Q95.4062 42.1758 95.0312 42.1758 Q94.6719 42.1758 94.3906 42.3945 Q94.125 42.5977 94.0156 42.9727 Q93.8281 43.5352 93.8281 44.1914 L93.8281 47.457 L92.7812 47.457 ZM96.7969 40.082 L96.7969 38.8633 L97.8594 38.8633 L97.8594 40.082 L96.7969 40.082 ZM96.7969 47.457 L96.7969 41.2383 L97.8594 41.2383 L97.8594 47.457 L96.7969 47.457 ZM103.8594 46.6914 Q103.2656 47.1914 102.7188 47.3945 Q102.1875 47.5977 101.5625 47.5977 Q100.5312 47.5977 99.9844 47.0977 Q99.4375 46.5977 99.4375 45.8164 Q99.4375 45.3633 99.6406 44.9883 Q99.8438 44.5977 100.1875 44.3789 Q100.5312 44.1445 100.9531 44.0352 Q101.25 43.9414 101.8906 43.8633 Q103.1562 43.7227 103.7656 43.5039 Q103.7656 43.2852 103.7656 43.2383 Q103.7656 42.582 103.4688 42.3164 Q103.0625 41.9727 102.2656 41.9727 Q101.5312 41.9727 101.1719 42.2383 Q100.8125 42.4883 100.6406 43.1445 L99.6094 43.0039 Q99.75 42.3477 100.0781 41.9414 Q100.4062 41.5352 101.0156 41.3164 Q101.625 41.0977 102.4219 41.0977 Q103.2188 41.0977 103.7188 41.2852 Q104.2188 41.4727 104.4531 41.7539 Q104.6875 42.0352 104.7812 42.4727 Q104.8281 42.7383 104.8281 43.4414 L104.8281 44.8477 Q104.8281 46.3164 104.8906 46.707 Q104.9688 47.0977 105.1719 47.457 L104.0625 47.457 Q103.9062 47.1289 103.8594 46.6914 ZM103.7656 44.332 Q103.1875 44.5664 102.0469 44.7383 Q101.3906 44.832 101.125 44.957 Q100.8594 45.0664 100.7031 45.2852 Q100.5625 45.5039 100.5625 45.7852 Q100.5625 46.207 100.875 46.4883 Q101.2031 46.7695 101.8125 46.7695 Q102.4219 46.7695 102.8906 46.5039 Q103.375 46.2383 103.5938 45.7695 Q103.7656 45.4102 103.7656 44.7227 L103.7656 44.332 ZM107.0625 47.457 L107.0625 46.2539 L108.2656 46.2539 L108.2656 47.457 Q108.2656 48.1133 108.0312 48.5195 Q107.7969 48.9414 107.2969 49.1602 L107 48.707 Q107.3281 48.5664 107.4844 48.2695 Q107.6406 47.9883 107.6719 47.457 L107.0625 47.457 ZM116.8594 46.6914 Q116.2656 47.1914 115.7188 47.3945 Q115.1875 47.5977 114.5625 47.5977 Q113.5312 47.5977 112.9844 47.0977 Q112.4375 46.5977 112.4375 45.8164 Q112.4375 45.3633 112.6406 44.9883 Q112.8438 44.5977 113.1875 44.3789 Q113.5312 44.1445 113.9531 44.0352 Q114.25 43.9414 114.8906 43.8633 Q116.1562 43.7227 116.7656 43.5039 Q116.7656 43.2852 116.7656 43.2383 Q116.7656 42.582 116.4688 42.3164 Q116.0625 41.9727 115.2656 41.9727 Q114.5312 41.9727 114.1719 42.2383 Q113.8125 42.4883 113.6406 43.1445 L112.6094 43.0039 Q112.75 42.3477 113.0781 41.9414 Q113.4062 41.5352 114.0156 41.3164 Q114.625 41.0977 115.4219 41.0977 Q116.2188 41.0977 116.7188 41.2852 Q117.2188 41.4727 117.4531 41.7539 Q117.6875 42.0352 117.7812 42.4727 Q117.8281 42.7383 117.8281 43.4414 L117.8281 44.8477 Q117.8281 46.3164 117.8906 46.707 Q117.9688 47.0977 118.1719 47.457 L117.0625 47.457 Q116.9062 47.1289 116.8594 46.6914 ZM116.7656 44.332 Q116.1875 44.5664 115.0469 44.7383 Q114.3906 44.832 114.125 44.957 Q113.8594 45.0664 113.7031 45.2852 Q113.5625 45.5039 113.5625 45.7852 Q113.5625 46.207 113.875 46.4883 Q114.2031 46.7695 114.8125 46.7695 Q115.4219 46.7695 115.8906 46.5039 Q116.375 46.2383 116.5938 45.7695 Q116.7656 45.4102 116.7656 44.7227 L116.7656 44.332 ZM119.7969 47.457 L119.7969 41.2383 L120.7344 41.2383 L120.7344 42.1133 Q121.4219 41.0977 122.7188 41.0977 Q123.2812 41.0977 123.75 41.3008 Q124.2344 41.5039 124.4688 41.832 Q124.7031 42.1602 124.7969 42.5977 Q124.8438 42.8945 124.8438 43.6289 L124.8438 47.457 L123.7969 47.457 L123.7969 43.6758 Q123.7969 43.0195 123.6719 42.707 Q123.5469 42.3945 123.2344 42.207 Q122.9219 42.0039 122.5 42.0039 Q121.8281 42.0039 121.3281 42.4414 Q120.8438 42.8633 120.8438 44.0508 L120.8438 47.457 L119.7969 47.457 ZM130.8281 47.457 L130.8281 46.6758 Q130.2344 47.5977 129.0938 47.5977 Q128.3438 47.5977 127.7188 47.1914 Q127.0938 46.7695 126.75 46.0352 Q126.4062 45.3008 126.4062 44.3477 Q126.4062 43.4258 126.7188 42.6602 Q127.0312 41.8945 127.6562 41.5039 Q128.2812 41.0977 129.0469 41.0977 Q129.6094 41.0977 130.0469 41.332 Q130.4844 41.5664 130.7656 41.9414 L130.7656 38.8633 L131.8125 38.8633 L131.8125 47.457 L130.8281 47.457 ZM127.5 44.3477 Q127.5 45.5508 128 46.1445 Q128.5 46.7227 129.1875 46.7227 Q129.875 46.7227 130.3594 46.1602 Q130.8438 45.5977 130.8438 44.4414 Q130.8438 43.1602 130.3438 42.5664 Q129.8594 41.9727 129.1406 41.9727 Q128.4375 41.9727 127.9688 42.5508 Q127.5 43.1133 127.5 44.3477 ZM137.7656 47.457 L136.7812 47.457 L136.7812 38.8633 L137.8438 38.8633 L137.8438 41.9258 Q138.5156 41.0977 139.5469 41.0977 Q140.125 41.0977 140.625 41.332 Q141.1406 41.5508 141.4688 41.9727 Q141.8125 42.3945 142 42.9883 Q142.1875 43.582 142.1875 44.2539 Q142.1875 45.8477 141.3906 46.7227 Q140.5938 47.5977 139.5 47.5977 Q138.3906 47.5977 137.7656 46.6758 L137.7656 47.457 ZM137.75 44.3008 Q137.75 45.4102 138.0625 45.9102 Q138.5625 46.7227 139.4062 46.7227 Q140.0938 46.7227 140.5938 46.1289 Q141.1094 45.5352 141.1094 44.332 Q141.1094 43.1133 140.625 42.5352 Q140.1406 41.957 139.4531 41.957 Q138.7656 41.957 138.25 42.5664 Q137.75 43.1602 137.75 44.3008 ZM148.0469 45.457 L149.1406 45.582 Q148.8906 46.5352 148.1875 47.0664 Q147.4844 47.5977 146.4062 47.5977 Q145.0469 47.5977 144.2344 46.7539 Q143.4375 45.9102 143.4375 44.3945 Q143.4375 42.832 144.25 41.9727 Q145.0625 41.0977 146.3438 41.0977 Q147.5938 41.0977 148.375 41.9414 Q149.1719 42.7852 149.1719 44.332 Q149.1719 44.4258 149.1719 44.6133 L144.5312 44.6133 Q144.5938 45.6445 145.1094 46.1914 Q145.625 46.7227 146.4062 46.7227 Q146.9844 46.7227 147.3906 46.4258 Q147.8125 46.1133 148.0469 45.457 ZM144.5938 43.7539 L148.0625 43.7539 Q148 42.957 147.6719 42.5664 Q147.1562 41.957 146.3594 41.957 Q145.625 41.957 145.125 42.4414 Q144.6406 42.9258 144.5938 43.7539 Z"
                stroke="none" />
            <path clip-path="url(#807d6ce1-d0a5-4ff5-b3b4-855bbc534a8d)"
                d="M3.7656 63.457 L3.7656 54.8633 L4.8281 54.8633 L4.8281 63.457 L3.7656 63.457 ZM10.8594 62.6914 Q10.2656 63.1914 9.7188 63.3945 Q9.1875 63.5977 8.5625 63.5977 Q7.5312 63.5977 6.9844 63.0977 Q6.4375 62.5977 6.4375 61.8164 Q6.4375 61.3633 6.6406 60.9883 Q6.8438 60.5977 7.1875 60.3789 Q7.5312 60.1445 7.9531 60.0352 Q8.25 59.9414 8.8906 59.8633 Q10.1562 59.7227 10.7656 59.5039 Q10.7656 59.2852 10.7656 59.2383 Q10.7656 58.582 10.4688 58.3164 Q10.0625 57.9727 9.2656 57.9727 Q8.5312 57.9727 8.1719 58.2383 Q7.8125 58.4883 7.6406 59.1445 L6.6094 59.0039 Q6.75 58.3477 7.0781 57.9414 Q7.4062 57.5352 8.0156 57.3164 Q8.625 57.0977 9.4219 57.0977 Q10.2188 57.0977 10.7188 57.2852 Q11.2188 57.4727 11.4531 57.7539 Q11.6875 58.0352 11.7812 58.4727 Q11.8281 58.7383 11.8281 59.4414 L11.8281 60.8477 Q11.8281 62.3164 11.8906 62.707 Q11.9688 63.0977 12.1719 63.457 L11.0625 63.457 Q10.9062 63.1289 10.8594 62.6914 ZM10.7656 60.332 Q10.1875 60.5664 9.0469 60.7383 Q8.3906 60.832 8.125 60.957 Q7.8594 61.0664 7.7031 61.2852 Q7.5625 61.5039 7.5625 61.7852 Q7.5625 62.207 7.875 62.4883 Q8.2031 62.7695 8.8125 62.7695 Q9.4219 62.7695 9.8906 62.5039 Q10.375 62.2383 10.5938 61.7695 Q10.7656 61.4102 10.7656 60.7227 L10.7656 60.332 ZM14.7656 63.457 L13.7812 63.457 L13.7812 54.8633 L14.8438 54.8633 L14.8438 57.9258 Q15.5156 57.0977 16.5469 57.0977 Q17.125 57.0977 17.625 57.332 Q18.1406 57.5508 18.4688 57.9727 Q18.8125 58.3945 19 58.9883 Q19.1875 59.582 19.1875 60.2539 Q19.1875 61.8477 18.3906 62.7227 Q17.5938 63.5977 16.5 63.5977 Q15.3906 63.5977 14.7656 62.6758 L14.7656 63.457 ZM14.75 60.3008 Q14.75 61.4102 15.0625 61.9102 Q15.5625 62.7227 16.4062 62.7227 Q17.0938 62.7227 17.5938 62.1289 Q18.1094 61.5352 18.1094 60.332 Q18.1094 59.1133 17.625 58.5352 Q17.1406 57.957 16.4531 57.957 Q15.7656 57.957 15.25 58.5664 Q14.75 59.1602 14.75 60.3008 ZM25.0469 61.457 L26.1406 61.582 Q25.8906 62.5352 25.1875 63.0664 Q24.4844 63.5977 23.4062 63.5977 Q22.0469 63.5977 21.2344 62.7539 Q20.4375 61.9102 20.4375 60.3945 Q20.4375 58.832 21.25 57.9727 Q22.0625 57.0977 23.3438 57.0977 Q24.5938 57.0977 25.375 57.9414 Q26.1719 58.7852 26.1719 60.332 Q26.1719 60.4258 26.1719 60.6133 L21.5312 60.6133 Q21.5938 61.6445 22.1094 62.1914 Q22.625 62.7227 23.4062 62.7227 Q23.9844 62.7227 24.3906 62.4258 Q24.8125 62.1133 25.0469 61.457 ZM21.5938 59.7539 L25.0625 59.7539 Q25 58.957 24.6719 58.5664 Q24.1562 57.957 23.3594 57.957 Q22.625 57.957 22.125 58.4414 Q21.6406 58.9258 21.5938 59.7539 ZM27.7656 63.457 L27.7656 54.8633 L28.8281 54.8633 L28.8281 63.457 L27.7656 63.457 ZM35.0469 61.457 L36.1406 61.582 Q35.8906 62.5352 35.1875 63.0664 Q34.4844 63.5977 33.4062 63.5977 Q32.0469 63.5977 31.2344 62.7539 Q30.4375 61.9102 30.4375 60.3945 Q30.4375 58.832 31.25 57.9727 Q32.0625 57.0977 33.3438 57.0977 Q34.5938 57.0977 35.375 57.9414 Q36.1719 58.7852 36.1719 60.332 Q36.1719 60.4258 36.1719 60.6133 L31.5312 60.6133 Q31.5938 61.6445 32.1094 62.1914 Q32.625 62.7227 33.4062 62.7227 Q33.9844 62.7227 34.3906 62.4258 Q34.8125 62.1133 35.0469 61.457 ZM31.5938 59.7539 L35.0625 59.7539 Q35 58.957 34.6719 58.5664 Q34.1562 57.957 33.3594 57.957 Q32.625 57.957 32.125 58.4414 Q31.6406 58.9258 31.5938 59.7539 ZM41.8281 63.457 L41.8281 62.6758 Q41.2344 63.5977 40.0938 63.5977 Q39.3438 63.5977 38.7188 63.1914 Q38.0938 62.7695 37.75 62.0352 Q37.4062 61.3008 37.4062 60.3477 Q37.4062 59.4258 37.7188 58.6602 Q38.0312 57.8945 38.6562 57.5039 Q39.2812 57.0977 40.0469 57.0977 Q40.6094 57.0977 41.0469 57.332 Q41.4844 57.5664 41.7656 57.9414 L41.7656 54.8633 L42.8125 54.8633 L42.8125 63.457 L41.8281 63.457 ZM38.5 60.3477 Q38.5 61.5508 39 62.1445 Q39.5 62.7227 40.1875 62.7227 Q40.875 62.7227 41.3594 62.1602 Q41.8438 61.5977 41.8438 60.4414 Q41.8438 59.1602 41.3438 58.5664 Q40.8594 57.9727 40.1406 57.9727 Q39.4375 57.9727 38.9688 58.5508 Q38.5 59.1133 38.5 60.3477 ZM51.8594 62.6914 Q51.2656 63.1914 50.7188 63.3945 Q50.1875 63.5977 49.5625 63.5977 Q48.5312 63.5977 47.9844 63.0977 Q47.4375 62.5977 47.4375 61.8164 Q47.4375 61.3633 47.6406 60.9883 Q47.8438 60.5977 48.1875 60.3789 Q48.5312 60.1445 48.9531 60.0352 Q49.25 59.9414 49.8906 59.8633 Q51.1562 59.7227 51.7656 59.5039 Q51.7656 59.2852 51.7656 59.2383 Q51.7656 58.582 51.4688 58.3164 Q51.0625 57.9727 50.2656 57.9727 Q49.5312 57.9727 49.1719 58.2383 Q48.8125 58.4883 48.6406 59.1445 L47.6094 59.0039 Q47.75 58.3477 48.0781 57.9414 Q48.4062 57.5352 49.0156 57.3164 Q49.625 57.0977 50.4219 57.0977 Q51.2188 57.0977 51.7188 57.2852 Q52.2188 57.4727 52.4531 57.7539 Q52.6875 58.0352 52.7812 58.4727 Q52.8281 58.7383 52.8281 59.4414 L52.8281 60.8477 Q52.8281 62.3164 52.8906 62.707 Q52.9688 63.0977 53.1719 63.457 L52.0625 63.457 Q51.9062 63.1289 51.8594 62.6914 ZM51.7656 60.332 Q51.1875 60.5664 50.0469 60.7383 Q49.3906 60.832 49.125 60.957 Q48.8594 61.0664 48.7031 61.2852 Q48.5625 61.5039 48.5625 61.7852 Q48.5625 62.207 48.875 62.4883 Q49.2031 62.7695 49.8125 62.7695 Q50.4219 62.7695 50.8906 62.5039 Q51.375 62.2383 51.5938 61.7695 Q51.7656 61.4102 51.7656 60.7227 L51.7656 60.332 ZM58.8594 61.1758 L59.8906 61.3164 Q59.7188 62.3789 59.0156 62.9883 Q58.3125 63.5977 57.2969 63.5977 Q56.0156 63.5977 55.2344 62.7695 Q54.4688 61.9258 54.4688 60.3633 Q54.4688 59.3633 54.7969 58.6133 Q55.1406 57.8477 55.8125 57.4727 Q56.5 57.0977 57.3125 57.0977 Q58.3125 57.0977 58.9531 57.6133 Q59.6094 58.1133 59.7969 59.0664 L58.7656 59.2227 Q58.625 58.5977 58.25 58.2852 Q57.875 57.957 57.3438 57.957 Q56.5469 57.957 56.0469 58.5352 Q55.5469 59.0977 55.5469 60.332 Q55.5469 61.5977 56.0312 62.1602 Q56.5156 62.7227 57.2812 62.7227 Q57.9062 62.7227 58.3125 62.3477 Q58.7344 61.9727 58.8594 61.1758 ZM64.8594 61.1758 L65.8906 61.3164 Q65.7188 62.3789 65.0156 62.9883 Q64.3125 63.5977 63.2969 63.5977 Q62.0156 63.5977 61.2344 62.7695 Q60.4688 61.9258 60.4688 60.3633 Q60.4688 59.3633 60.7969 58.6133 Q61.1406 57.8477 61.8125 57.4727 Q62.5 57.0977 63.3125 57.0977 Q64.3125 57.0977 64.9531 57.6133 Q65.6094 58.1133 65.7969 59.0664 L64.7656 59.2227 Q64.625 58.5977 64.25 58.2852 Q63.875 57.957 63.3438 57.957 Q62.5469 57.957 62.0469 58.5352 Q61.5469 59.0977 61.5469 60.332 Q61.5469 61.5977 62.0312 62.1602 Q62.5156 62.7227 63.2812 62.7227 Q63.9062 62.7227 64.3125 62.3477 Q64.7344 61.9727 64.8594 61.1758 ZM66.4062 60.3477 Q66.4062 58.6133 67.3594 57.7852 Q68.1562 57.0977 69.3125 57.0977 Q70.5938 57.0977 71.4062 57.9414 Q72.2344 58.7695 72.2344 60.2539 Q72.2344 61.457 71.875 62.1445 Q71.5156 62.832 70.8125 63.2227 Q70.125 63.5977 69.3125 63.5977 Q68.0156 63.5977 67.2031 62.7695 Q66.4062 61.9258 66.4062 60.3477 ZM67.4844 60.3477 Q67.4844 61.5352 68 62.1289 Q68.5312 62.7227 69.3125 62.7227 Q70.1094 62.7227 70.625 62.1289 Q71.1406 61.5352 71.1406 60.3164 Q71.1406 59.1602 70.6094 58.5664 Q70.0938 57.9727 69.3125 57.9727 Q68.5312 57.9727 68 58.5664 Q67.4844 59.1445 67.4844 60.3477 ZM73.7812 63.457 L73.7812 57.2383 L74.7344 57.2383 L74.7344 58.1758 Q75.0938 57.5195 75.3906 57.3164 Q75.7031 57.0977 76.0781 57.0977 Q76.6094 57.0977 77.1562 57.4258 L76.7969 58.4102 Q76.4062 58.1758 76.0312 58.1758 Q75.6719 58.1758 75.3906 58.3945 Q75.125 58.5977 75.0156 58.9727 Q74.8281 59.5352 74.8281 60.1914 L74.8281 63.457 L73.7812 63.457 ZM81.8281 63.457 L81.8281 62.6758 Q81.2344 63.5977 80.0938 63.5977 Q79.3438 63.5977 78.7188 63.1914 Q78.0938 62.7695 77.75 62.0352 Q77.4062 61.3008 77.4062 60.3477 Q77.4062 59.4258 77.7188 58.6602 Q78.0312 57.8945 78.6562 57.5039 Q79.2812 57.0977 80.0469 57.0977 Q80.6094 57.0977 81.0469 57.332 Q81.4844 57.5664 81.7656 57.9414 L81.7656 54.8633 L82.8125 54.8633 L82.8125 63.457 L81.8281 63.457 ZM78.5 60.3477 Q78.5 61.5508 79 62.1445 Q79.5 62.7227 80.1875 62.7227 Q80.875 62.7227 81.3594 62.1602 Q81.8438 61.5977 81.8438 60.4414 Q81.8438 59.1602 81.3438 58.5664 Q80.8594 57.9727 80.1406 57.9727 Q79.4375 57.9727 78.9688 58.5508 Q78.5 59.1133 78.5 60.3477 ZM84.7969 56.082 L84.7969 54.8633 L85.8594 54.8633 L85.8594 56.082 L84.7969 56.082 ZM84.7969 63.457 L84.7969 57.2383 L85.8594 57.2383 L85.8594 63.457 L84.7969 63.457 ZM87.7969 63.457 L87.7969 57.2383 L88.7344 57.2383 L88.7344 58.1133 Q89.4219 57.0977 90.7188 57.0977 Q91.2812 57.0977 91.75 57.3008 Q92.2344 57.5039 92.4688 57.832 Q92.7031 58.1602 92.7969 58.5977 Q92.8438 58.8945 92.8438 59.6289 L92.8438 63.457 L91.7969 63.457 L91.7969 59.6758 Q91.7969 59.0195 91.6719 58.707 Q91.5469 58.3945 91.2344 58.207 Q90.9219 58.0039 90.5 58.0039 Q89.8281 58.0039 89.3281 58.4414 Q88.8438 58.8633 88.8438 60.0508 L88.8438 63.457 L87.7969 63.457 ZM94.5938 63.9727 L95.625 64.1289 Q95.6875 64.5977 95.9844 64.8164 Q96.375 65.1133 97.0469 65.1133 Q97.7812 65.1133 98.1719 64.8164 Q98.5781 64.5195 98.7188 64.0039 Q98.8125 63.6758 98.7969 62.6445 Q98.1094 63.457 97.0781 63.457 Q95.7969 63.457 95.0938 62.5352 Q94.3906 61.5977 94.3906 60.3164 Q94.3906 59.4258 94.7031 58.6758 Q95.0312 57.9102 95.6406 57.5039 Q96.25 57.0977 97.0781 57.0977 Q98.1875 57.0977 98.9062 57.9883 L98.9062 57.2383 L99.875 57.2383 L99.875 62.6133 Q99.875 64.0664 99.5781 64.6758 Q99.2812 65.2852 98.6406 65.6289 Q98 65.9883 97.0625 65.9883 Q95.9531 65.9883 95.2656 65.4883 Q94.5781 64.9883 94.5938 63.9727 ZM95.4688 60.2383 Q95.4688 61.457 95.9531 62.0195 Q96.4375 62.582 97.1719 62.582 Q97.9062 62.582 98.3906 62.0195 Q98.8906 61.457 98.8906 60.2695 Q98.8906 59.1289 98.375 58.5508 Q97.875 57.9727 97.1562 57.9727 Q96.4531 57.9727 95.9531 58.5508 Q95.4688 59.1133 95.4688 60.2383 ZM101.7656 63.457 L101.7656 54.8633 L102.8281 54.8633 L102.8281 63.457 L101.7656 63.457 ZM104.75 65.8477 L104.625 64.8633 Q104.9688 64.957 105.2344 64.957 Q105.5781 64.957 105.7812 64.832 Q106 64.7227 106.1406 64.5195 Q106.2344 64.3477 106.4688 63.7227 Q106.4844 63.6445 106.5625 63.4727 L104.1875 57.2383 L105.3281 57.2383 L106.625 60.832 Q106.875 61.5195 107.0781 62.2852 Q107.2656 61.5508 107.5156 60.8633 L108.8438 57.2383 L109.8906 57.2383 L107.5312 63.5664 Q107.1406 64.582 106.9375 64.9727 Q106.6562 65.5039 106.2812 65.7383 Q105.9219 65.9883 105.4219 65.9883 Q105.125 65.9883 104.75 65.8477 ZM110.0938 63.457 L110.0938 62.2539 L111.2969 62.2539 L111.2969 63.457 L110.0938 63.457 Z"
                stroke="none" />
        </g>
        <g
            data="{&quot;name&quot;:&quot;Assign People to the Issue&quot;,&quot;modelType&quot;:&quot;ActivityAction&quot;}"
            hyper="" model-id="shape-hbQ2atmGAqAAPxcf"
            style="pointer-events: auto; cursor: pointer;">
            <g fill="rgb(122,207,245)" fill-opacity="1" font-family="sans-serif" font-size="11px"
                image-rendering="optimizeQuality" stroke="rgb(122,207,245)" stroke-opacity="1"
                text-rendering="geometricPrecision" transform="translate(93,112)">
                <rect clip-path="url(#8293c73a-9877-4ee3-b4b5-1e987d9a6805)" height="40" rx="15"
                    ry="15" stroke="none" width="107" x="0" y="0" />
            </g>
            <g fill="black" fill-opacity="1" font-family="sans-serif" font-size="11px"
                image-rendering="optimizeQuality" stroke="black" stroke-linecap="butt"
                stroke-linejoin="round" stroke-miterlimit="0" stroke-opacity="1"
                text-rendering="geometricPrecision" transform="translate(93,112)">
                <rect clip-path="url(#8293c73a-9877-4ee3-b4b5-1e987d9a6805)" fill="none" height="40"
                    rx="15" ry="15" width="107" x="0" y="0" />
            </g>
        </g>
        <g fill="black" fill-opacity="1" font-family="sans-serif" font-size="11px"
            image-rendering="optimizeQuality" stroke="black" stroke-opacity="1"
            text-rendering="geometricPrecision" transform="translate(93,112)">
            <text clip-path="url(#f7a55746-299f-42b2-b5c0-ec76d29ce61e)" stroke="none" x="11"
                xml:space="preserve" y="17">Assign People to</text>
            <text clip-path="url(#f7a55746-299f-42b2-b5c0-ec76d29ce61e)" stroke="none" x="30"
                xml:space="preserve" y="32">the Issue</text>
        </g>
        <g
            data="{&quot;name&quot;:&quot;Create Branch&quot;,&quot;modelType&quot;:&quot;ActivityAction&quot;}"
            hyper="" model-id="shape-.Q82atmGAqAAPxdL"
            style="pointer-events: auto; cursor: pointer;">
            <g fill="rgb(122,207,245)" fill-opacity="1" font-family="sans-serif" font-size="11px"
                image-rendering="optimizeQuality" stroke="rgb(122,207,245)" stroke-opacity="1"
                text-rendering="geometricPrecision" transform="translate(93,177)">
                <rect clip-path="url(#8f561f0f-4f31-4337-a16a-8852ea6d4fdb)" height="40" rx="15"
                    ry="15" stroke="none" width="107" x="0" y="0" />
            </g>
            <g fill="black" fill-opacity="1" font-family="sans-serif" font-size="11px"
                image-rendering="optimizeQuality" stroke="black" stroke-linecap="butt"
                stroke-linejoin="round" stroke-miterlimit="0" stroke-opacity="1"
                text-rendering="geometricPrecision" transform="translate(93,177)">
                <rect clip-path="url(#8f561f0f-4f31-4337-a16a-8852ea6d4fdb)" fill="none" height="40"
                    rx="15" ry="15" width="107" x="0" y="0" />
            </g>
        </g>
        <g fill="black" fill-opacity="1" font-family="sans-serif" font-size="11px"
            image-rendering="optimizeQuality" stroke="black" stroke-opacity="1"
            text-rendering="geometricPrecision" transform="translate(93,177)">
            <text clip-path="url(#167633b2-5477-44c3-97f0-7f4af7f941f4)" stroke="none" x="18"
                xml:space="preserve" y="24">Create Branch</text>
        </g>
        <g
            data="{&quot;name&quot;:&quot;Implement and Test&quot;,&quot;modelType&quot;:&quot;ActivityAction&quot;}"
            hyper="" model-id="shape-Isi2atmGAqAAPxdl"
            style="pointer-events: auto; cursor: pointer;">
            <g fill="rgb(122,207,245)" fill-opacity="1" font-family="sans-serif" font-size="11px"
                image-rendering="optimizeQuality" stroke="rgb(122,207,245)" stroke-opacity="1"
                text-rendering="geometricPrecision" transform="translate(93,241)">
                <rect clip-path="url(#b762944b-3912-4927-8f43-3969284d652d)" height="40" rx="15"
                    ry="15" stroke="none" width="107" x="0" y="0" />
            </g>
            <g fill="black" fill-opacity="1" font-family="sans-serif" font-size="11px"
                image-rendering="optimizeQuality" stroke="black" stroke-linecap="butt"
                stroke-linejoin="round" stroke-miterlimit="0" stroke-opacity="1"
                text-rendering="geometricPrecision" transform="translate(93,241)">
                <rect clip-path="url(#b762944b-3912-4927-8f43-3969284d652d)" fill="none" height="40"
                    rx="15" ry="15" width="107" x="0" y="0" />
            </g>
        </g>
        <g fill="black" fill-opacity="1" font-family="sans-serif" font-size="11px"
            image-rendering="optimizeQuality" stroke="black" stroke-opacity="1"
            text-rendering="geometricPrecision" transform="translate(93,241)">
            <text clip-path="url(#d4ea6aa4-d952-4fcb-a389-603cb84f0eab)" stroke="none" x="4"
                xml:space="preserve" y="24">Implement and Test</text>
        </g>
        <g
            data="{&quot;name&quot;:&quot;Submit Pull Request&quot;,&quot;modelType&quot;:&quot;ActivityAction&quot;}"
            hyper="" model-id="shape-ri62atmGAqAAPxeF"
            style="pointer-events: auto; cursor: pointer;">
            <g fill="rgb(122,207,245)" fill-opacity="1" font-family="sans-serif" font-size="11px"
                image-rendering="optimizeQuality" stroke="rgb(122,207,245)" stroke-opacity="1"
                text-rendering="geometricPrecision" transform="translate(93,307)">
                <rect clip-path="url(#a80a4020-006d-4099-aaf3-08ad9be6c91e)" height="40" rx="15"
                    ry="15" stroke="none" width="107" x="0" y="0" />
            </g>
            <g fill="black" fill-opacity="1" font-family="sans-serif" font-size="11px"
                image-rendering="optimizeQuality" stroke="black" stroke-linecap="butt"
                stroke-linejoin="round" stroke-miterlimit="0" stroke-opacity="1"
                text-rendering="geometricPrecision" transform="translate(93,307)">
                <rect clip-path="url(#a80a4020-006d-4099-aaf3-08ad9be6c91e)" fill="none" height="40"
                    rx="15" ry="15" width="107" x="0" y="0" />
            </g>
        </g>
        <g fill="black" fill-opacity="1" font-family="sans-serif" font-size="11px"
            image-rendering="optimizeQuality" stroke="black" stroke-opacity="1"
            text-rendering="geometricPrecision" transform="translate(93,307)">
            <text clip-path="url(#30b93b5d-a4e5-4026-bf14-985dd421eedc)" stroke="none" x="25"
                xml:space="preserve" y="17">Submit Pull</text>
            <text clip-path="url(#30b93b5d-a4e5-4026-bf14-985dd421eedc)" stroke="none" x="33"
                xml:space="preserve" y="32">Request</text>
        </g>
        <g data="{&quot;name&quot;:&quot;&quot;,&quot;modelType&quot;:&quot;DecisionNode&quot;}"
            hyper="" model-id="shape-kVu2atmGAqAAPxel"
            style="pointer-events: auto; cursor: pointer;">
            <g fill="rgb(122,207,245)" fill-opacity="1" font-family="sans-serif" font-size="11px"
                image-rendering="optimizeQuality" stroke="rgb(122,207,245)" stroke-opacity="1"
                text-rendering="geometricPrecision" transform="translate(136,372)">
                <path clip-path="url(#4122a3e9-b758-44ac-9585-6aa603971060)"
                    d="M10 7.5 L17 20 L10 32.5 L3 20 Z" stroke="none" />
            </g>
            <g fill="black" fill-opacity="1" font-family="sans-serif" font-size="11px"
                image-rendering="optimizeQuality" stroke="black" stroke-linecap="butt"
                stroke-linejoin="round" stroke-miterlimit="0" stroke-opacity="1"
                text-rendering="geometricPrecision" transform="translate(136,372)">
                <path clip-path="url(#4122a3e9-b758-44ac-9585-6aa603971060)"
                    d="M10 7.5 L17 20 L10 32.5 L3 20 Z" fill="none" />
            </g>
        </g>
        <g
            data="{&quot;name&quot;:&quot;Merge to Main Branch&quot;,&quot;modelType&quot;:&quot;ActivityAction&quot;}"
            hyper="" model-id="shape-VVu2atmGAqAAPxev"
            style="pointer-events: auto; cursor: pointer;">
            <g fill="rgb(122,207,245)" fill-opacity="1" font-family="sans-serif" font-size="11px"
                image-rendering="optimizeQuality" stroke="rgb(122,207,245)" stroke-opacity="1"
                text-rendering="geometricPrecision" transform="translate(93,437)">
                <rect clip-path="url(#8f107851-e32e-4d6a-b21c-6ca007b28f86)" height="40" rx="15"
                    ry="15" stroke="none" width="107" x="0" y="0" />
            </g>
            <g fill="black" fill-opacity="1" font-family="sans-serif" font-size="11px"
                image-rendering="optimizeQuality" stroke="black" stroke-linecap="butt"
                stroke-linejoin="round" stroke-miterlimit="0" stroke-opacity="1"
                text-rendering="geometricPrecision" transform="translate(93,437)">
                <rect clip-path="url(#8f107851-e32e-4d6a-b21c-6ca007b28f86)" fill="none" height="40"
                    rx="15" ry="15" width="107" x="0" y="0" />
            </g>
        </g>
        <g fill="black" fill-opacity="1" font-family="sans-serif" font-size="11px"
            image-rendering="optimizeQuality" stroke="black" stroke-opacity="1"
            text-rendering="geometricPrecision" transform="translate(93,437)">
            <text clip-path="url(#8f04e6c3-6080-45cd-9e21-0b0ccfc9e635)" stroke="none" x="18"
                xml:space="preserve" y="17">Merge to Main</text>
            <text clip-path="url(#8f04e6c3-6080-45cd-9e21-0b0ccfc9e635)" stroke="none" x="36"
                xml:space="preserve" y="32">Branch</text>
        </g>
        <g
            data="{&quot;name&quot;:&quot;&quot;,&quot;modelType&quot;:&quot;ActivityFinalNode&quot;}"
            hyper="" model-id="shape-iaHZatmGAqAAPxoD"
            style="pointer-events: auto; cursor: pointer;">
            <g fill="black" fill-opacity="1" font-family="sans-serif" font-size="11px"
                image-rendering="optimizeQuality" stroke="black" stroke-opacity="1"
                text-rendering="geometricPrecision" transform="translate(137,502)">
                <circle clip-path="url(#bb3884c6-4b0d-466b-a79f-cdecb52b8412)" cx="10" cy="10"
                    r="6.6667" stroke="none" />
                <circle clip-path="url(#bb3884c6-4b0d-466b-a79f-cdecb52b8412)" cx="10" cy="10"
                    fill="none" r="10" stroke-linecap="butt" stroke-linejoin="round"
                    stroke-miterlimit="0" />
            </g>
        </g>
        <g data="{&quot;modelType&quot;:&quot;ControlFlow&quot;}" hyper=""
            model-id="connector-YC7WatmGAqAAPxbe" style="pointer-events: auto; cursor: pointer;">
            <g fill="black" fill-opacity="1" font-family="sans-serif" font-size="11px"
                image-rendering="optimizeQuality" stroke="black" stroke-linecap="butt"
                stroke-linejoin="round" stroke-opacity="1" text-rendering="geometricPrecision"
                transform="translate(96,-29)">
                <line clip-path="url(#d7741ef6-dab2-4ab5-a79d-1fee701dfa66)" fill="none" x1="50"
                    x2="50" y1="50" y2="75" />
                <line clip-path="url(#d7741ef6-dab2-4ab5-a79d-1fee701dfa66)" fill="none" x1="50"
                    x2="56" y1="75" y2="63" />
                <line clip-path="url(#d7741ef6-dab2-4ab5-a79d-1fee701dfa66)" fill="none" x1="50"
                    x2="44" y1="75" y2="63" />
            </g>
        </g>
        <g data="{&quot;modelType&quot;:&quot;Anchor&quot;}" hyper=""
            model-id="connector-.HXWatmGAqAAPxb4" style="pointer-events: auto; cursor: pointer;">
            <g fill="black" fill-opacity="1" font-family="sans-serif" font-size="11px"
                image-rendering="optimizeQuality" stroke="black" stroke-dasharray="4"
                stroke-linecap="butt" stroke-linejoin="round" stroke-opacity="1"
                text-rendering="geometricPrecision" transform="translate(150,17)">
                <line clip-path="url(#ab87d565-033a-4d78-9091-98de426292c0)" fill="none" x1="50"
                    x2="115" y1="50" y2="50" />
            </g>
        </g>
        <g data="{&quot;modelType&quot;:&quot;ControlFlow&quot;}" hyper=""
            model-id="connector-vbQ2atmGAqAAPxck" style="pointer-events: auto; cursor: pointer;">
            <g fill="black" fill-opacity="1" font-family="sans-serif" font-size="11px"
                image-rendering="optimizeQuality" stroke="black" stroke-linecap="butt"
                stroke-linejoin="round" stroke-opacity="1" text-rendering="geometricPrecision"
                transform="translate(97,37)">
                <line clip-path="url(#d5faa8e3-370d-49de-b08b-26f95010d2a0)" fill="none" x1="50"
                    x2="50" y1="50" y2="74" />
                <line clip-path="url(#d5faa8e3-370d-49de-b08b-26f95010d2a0)" fill="none" x1="50"
                    x2="56" y1="74" y2="62" />
                <line clip-path="url(#d5faa8e3-370d-49de-b08b-26f95010d2a0)" fill="none" x1="50"
                    x2="44" y1="74" y2="62" />
            </g>
        </g>
        <g data="{&quot;modelType&quot;:&quot;ControlFlow&quot;}" hyper=""
            model-id="connector-jQ82atmGAqAAPxdQ" style="pointer-events: auto; cursor: pointer;">
            <g fill="black" fill-opacity="1" font-family="sans-serif" font-size="11px"
                image-rendering="optimizeQuality" stroke="black" stroke-linecap="butt"
                stroke-linejoin="round" stroke-opacity="1" text-rendering="geometricPrecision"
                transform="translate(97,102)">
                <line clip-path="url(#8a1df869-e583-4c7f-be28-6560fc9ea2b4)" fill="none" x1="50"
                    x2="50" y1="50" y2="74" />
                <line clip-path="url(#8a1df869-e583-4c7f-be28-6560fc9ea2b4)" fill="none" x1="50"
                    x2="56" y1="74" y2="62" />
                <line clip-path="url(#8a1df869-e583-4c7f-be28-6560fc9ea2b4)" fill="none" x1="50"
                    x2="44" y1="74" y2="62" />
            </g>
        </g>
        <g data="{&quot;modelType&quot;:&quot;ControlFlow&quot;}" hyper=""
            model-id="connector-hsi2atmGAqAAPxdq" style="pointer-events: auto; cursor: pointer;">
            <g fill="black" fill-opacity="1" font-family="sans-serif" font-size="11px"
                image-rendering="optimizeQuality" stroke="black" stroke-linecap="butt"
                stroke-linejoin="round" stroke-opacity="1" text-rendering="geometricPrecision"
                transform="translate(96,167)">
                <line clip-path="url(#74c9923b-071b-4d06-9d23-cb0556ae5428)" fill="none" x1="50"
                    x2="50" y1="50" y2="73" />
                <line clip-path="url(#74c9923b-071b-4d06-9d23-cb0556ae5428)" fill="none" x1="50"
                    x2="56" y1="73" y2="61" />
                <line clip-path="url(#74c9923b-071b-4d06-9d23-cb0556ae5428)" fill="none" x1="50"
                    x2="44" y1="73" y2="61" />
            </g>
        </g>
        <g data="{&quot;modelType&quot;:&quot;ControlFlow&quot;}" hyper=""
            model-id="connector-CS62atmGAqAAPxeK" style="pointer-events: auto; cursor: pointer;">
            <g fill="black" fill-opacity="1" font-family="sans-serif" font-size="11px"
                image-rendering="optimizeQuality" stroke="black" stroke-linecap="butt"
                stroke-linejoin="round" stroke-opacity="1" text-rendering="geometricPrecision"
                transform="translate(96,231)">
                <line clip-path="url(#611de963-55dc-4eb7-9f13-77e4f21b6522)" fill="none" x1="50"
                    x2="50" y1="50" y2="75" />
                <line clip-path="url(#611de963-55dc-4eb7-9f13-77e4f21b6522)" fill="none" x1="50"
                    x2="56" y1="75" y2="63" />
                <line clip-path="url(#611de963-55dc-4eb7-9f13-77e4f21b6522)" fill="none" x1="50"
                    x2="44" y1="75" y2="63" />
            </g>
        </g>
        <g
            data="{&quot;name&quot;:&quot;pull request approved?&quot;,&quot;modelType&quot;:&quot;ControlFlow&quot;}"
            hyper="" model-id="connector-OVu2atmGAqAAPxeq"
            style="pointer-events: auto; cursor: pointer;">
            <g fill="black" fill-opacity="1" font-family="sans-serif" font-size="11px"
                image-rendering="optimizeQuality" stroke="black" stroke-linecap="butt"
                stroke-linejoin="round" stroke-opacity="1" text-rendering="geometricPrecision"
                transform="translate(96,297)">
                <line clip-path="url(#22952076-5992-421e-b418-4d65420e7e7e)" fill="none" x1="50"
                    x2="50" y1="50" y2="83" />
                <line clip-path="url(#22952076-5992-421e-b418-4d65420e7e7e)" fill="none" x1="50"
                    x2="56" y1="83" y2="71" />
                <line clip-path="url(#22952076-5992-421e-b418-4d65420e7e7e)" fill="none" x1="50"
                    x2="44" y1="83" y2="71" />
            </g>
        </g>
        <g data="{&quot;name&quot;:&quot;[Yes]&quot;,&quot;modelType&quot;:&quot;ControlFlow&quot;}"
            hyper="" model-id="connector-G1u2atmGAqAAPxe3"
            style="pointer-events: auto; cursor: pointer;">
            <g fill="black" fill-opacity="1" font-family="sans-serif" font-size="11px"
                image-rendering="optimizeQuality" stroke="black" stroke-linecap="butt"
                stroke-linejoin="round" stroke-opacity="1" text-rendering="geometricPrecision"
                transform="translate(96,354)">
                <line clip-path="url(#2bacc8ab-6a9f-414b-9964-8b8a8d89212f)" fill="none" x1="50"
                    x2="50" y1="50" y2="82" />
                <line clip-path="url(#2bacc8ab-6a9f-414b-9964-8b8a8d89212f)" fill="none" x1="50"
                    x2="56" y1="82" y2="70" />
                <line clip-path="url(#2bacc8ab-6a9f-414b-9964-8b8a8d89212f)" fill="none" x1="50"
                    x2="44" y1="82" y2="70" />
            </g>
        </g>
        <g data="{&quot;name&quot;:&quot;[No]&quot;,&quot;modelType&quot;:&quot;ControlFlow&quot;}"
            hyper="" model-id="connector-bBF2atmGAqAAPxgH"
            style="pointer-events: auto; cursor: pointer;">
            <g fill="black" fill-opacity="1" font-family="sans-serif" font-size="11px"
                image-rendering="optimizeQuality" stroke="black" stroke-linecap="butt"
                stroke-linejoin="round" stroke-opacity="1" text-rendering="geometricPrecision"
                transform="translate(-17,211)">
                <line clip-path="url(#37162c5c-ab3a-408e-a38a-67e6e449c426)" fill="none" x1="156"
                    x2="50" y1="181" y2="181" />
                <line clip-path="url(#37162c5c-ab3a-408e-a38a-67e6e449c426)" fill="none" x1="50"
                    x2="50" y1="181" y2="50" />
                <line clip-path="url(#37162c5c-ab3a-408e-a38a-67e6e449c426)" fill="none" x1="50"
                    x2="109" y1="50" y2="50" />
                <line clip-path="url(#37162c5c-ab3a-408e-a38a-67e6e449c426)" fill="none" x1="109"
                    x2="97" y1="50" y2="44" />
                <line clip-path="url(#37162c5c-ab3a-408e-a38a-67e6e449c426)" fill="none" x1="109"
                    x2="97" y1="50" y2="56" />
            </g>
        </g>
        <g data="{&quot;modelType&quot;:&quot;ControlFlow&quot;}" hyper=""
            model-id="connector-NaHZatmGAqAAPxoI" style="pointer-events: auto; cursor: pointer;">
            <g fill="black" fill-opacity="1" font-family="sans-serif" font-size="11px"
                image-rendering="optimizeQuality" stroke="black" stroke-linecap="butt"
                stroke-linejoin="round" stroke-opacity="1" text-rendering="geometricPrecision"
                transform="translate(97,427)">
                <line clip-path="url(#71630596-c2b5-49b7-b969-d53bbb79cfe9)" fill="none" x1="50"
                    x2="50" y1="50" y2="76" />
                <line clip-path="url(#71630596-c2b5-49b7-b969-d53bbb79cfe9)" fill="none" x1="50"
                    x2="56" y1="76" y2="64" />
                <line clip-path="url(#71630596-c2b5-49b7-b969-d53bbb79cfe9)" fill="none" x1="50"
                    x2="44" y1="76" y2="64" />
            </g>
        </g>
        <g fill="black" fill-opacity="1" font-family="sans-serif" font-size="11px"
            image-rendering="optimizeQuality" stroke="black" stroke-opacity="1"
            text-rendering="geometricPrecision" transform="translate(2,321)">
            <text clip-path="url(#925a29f8-144a-485c-91d3-7d2095cbf779)" stroke="none" x="4"
                xml:space="preserve" y="14">[No]</text>
        </g>
        <g fill="black" fill-opacity="1" font-family="sans-serif" font-size="11px"
            image-rendering="optimizeQuality" stroke="black" stroke-opacity="1"
            text-rendering="geometricPrecision" transform="translate(151,403)">
            <text clip-path="url(#99b4e3ab-48aa-4ab2-85a7-9b4d63713cbb)" stroke="none" x="9"
                xml:space="preserve" y="12">[Yes]</text>
        </g>
        <g fill="black" fill-opacity="1" font-family="sans-serif" font-size="11px"
            image-rendering="optimizeQuality" stroke="black" stroke-opacity="1"
            text-rendering="geometricPrecision" transform="translate(83,351)">
            <text clip-path="url(#b8b24d35-ff6d-4586-96a0-084052ec8969)" stroke="none" x="10"
                xml:space="preserve" y="12">pull request approved?</text>
        </g>
    </g>
</svg>