<?xml version="1.0" encoding="UTF-8"?><svg xmlns="http://www.w3.org/2000/svg" xmlns:xlink="http://www.w3.org/1999/xlink" color-interpolation="auto" color-rendering="auto" fill="rgb(0,0,0)" fill-opacity="0" font-family="'Dialog'" font-size="12px" font-style="normal" font-weight="normal" height="696" image-rendering="auto" shape-rendering="auto" stroke="rgb(0,0,0)" stroke-dasharray="none" stroke-dashoffset="0" stroke-linecap="square" stroke-linejoin="miter" stroke-miterlimit="10" stroke-opacity="0" stroke-width="1" text-rendering="auto" viewbox="0 0 571 696" width="571"><!--Generated by the Batik Graphics2D SVG Generator--><defs id="genericDefs"/><g><defs id="defs1"><clipPath clipPathUnits="userSpaceOnUse" id="391f6b58-de9a-46b8-81bc-076b814374d6"><path d="M-7 -7 L431 -7 L431 671 L-7 671 L-7 -7 Z"/></clipPath><clipPath clipPathUnits="userSpaceOnUse" id="3a64caee-3eb5-4345-b216-cf476e00ca4a"><path d="M-7 -7 L431 -7 L431 671 L-7 671 L-7 -7 Z"/></clipPath><clipPath clipPathUnits="userSpaceOnUse" id="00ab7cb4-e42d-4d65-a1e4-4c3bb9214469"><path d="M-7 -7 L431 -7 L431 671 L-7 671 L-7 -7 Z"/></clipPath><clipPath clipPathUnits="userSpaceOnUse" id="15c94393-5930-409c-aac0-e6c8a0707c02"><path d="M0 0 L0 15 L420 15 L420 0 Z"/></clipPath><clipPath clipPathUnits="userSpaceOnUse" id="421746eb-7521-433e-820e-a93f511c439b"><path d="M-7 -7 L41 -7 L41 71 L-7 71 L-7 -7 Z"/></clipPath><clipPath clipPathUnits="userSpaceOnUse" id="15f8dbb7-7451-4583-a8da-250906833a23"><path d="M-7 -7 L41 -7 L41 71 L-7 71 L-7 -7 Z"/></clipPath><clipPath clipPathUnits="userSpaceOnUse" id="2ed0692e-fb1b-4bf2-b580-9076decf2a74"><path d="M-7 -7 L41 -7 L41 71 L-7 71 L-7 -7 Z"/></clipPath><clipPath clipPathUnits="userSpaceOnUse" id="119f6844-8c1d-4112-b1a2-7db82a2f6945"><path d="M-7 -7 L41 -7 L41 71 L-7 71 L-7 -7 Z"/></clipPath><clipPath clipPathUnits="userSpaceOnUse" id="a7c65300-8fe4-43dc-b8af-870922b73fd9"><path d="M-7 -7 L123 -7 L123 51 L-7 51 L-7 -7 Z"/></clipPath><clipPath clipPathUnits="userSpaceOnUse" id="653f9b58-ca1e-46b9-9517-b4f64c9d4d22"><path d="M-7 -7 L123 -7 L123 51 L-7 51 L-7 -7 Z"/></clipPath><clipPath clipPathUnits="userSpaceOnUse" id="c956d96f-a99c-4301-bf0f-3493659f2f35"><path d="M-7 -7 L123 -7 L123 51 L-7 51 L-7 -7 Z"/></clipPath><clipPath clipPathUnits="userSpaceOnUse" id="4223c85d-1343-46a1-a0b1-b1ce1ea741e5"><path d="M0 0 L0 40 L112 40 L112 0 Z"/></clipPath><clipPath clipPathUnits="userSpaceOnUse" id="c1f51a8e-9f42-47d9-aecf-9076f6aecfac"><path d="M-7 -7 L91 -7 L91 51 L-7 51 L-7 -7 Z"/></clipPath><clipPath clipPathUnits="userSpaceOnUse" id="de396838-ca33-4a2c-a7a2-1ac3d61b8da4"><path d="M-7 -7 L91 -7 L91 51 L-7 51 L-7 -7 Z"/></clipPath><clipPath clipPathUnits="userSpaceOnUse" id="c488c163-6e24-400c-86a5-65011f59ff97"><path d="M-7 -7 L91 -7 L91 51 L-7 51 L-7 -7 Z"/></clipPath><clipPath clipPathUnits="userSpaceOnUse" id="6786e69a-4d59-4d18-94f6-7b88227807d3"><path d="M0 0 L0 40 L80 40 L80 0 Z"/></clipPath><clipPath clipPathUnits="userSpaceOnUse" id="c2e07483-958f-4fb4-b3d7-799cec3578e1"><path d="M-7 -7 L170 -7 L170 81 L-7 81 L-7 -7 Z"/></clipPath><clipPath clipPathUnits="userSpaceOnUse" id="1119dda2-a78d-4edc-bc4c-6daaccc3b8fb"><path d="M-7 -7 L170 -7 L170 81 L-7 81 L-7 -7 Z"/></clipPath><clipPath clipPathUnits="userSpaceOnUse" id="97950397-91b2-4b50-a915-f9d0b21968e9"><path d="M-7 -7 L170 -7 L170 81 L-7 81 L-7 -7 Z"/></clipPath><clipPath clipPathUnits="userSpaceOnUse" id="576a5aad-015d-43df-a471-e8f4a619496b"><path d="M0 0 L0 55 L159 55 L159 0 Z"/></clipPath><clipPath clipPathUnits="userSpaceOnUse" id="ba51cf2c-b3b6-4ec2-9cc2-95da65d73fd8"><path d="M0 0 L0 15 L141 15 L141 0 Z"/></clipPath><clipPath clipPathUnits="userSpaceOnUse" id="b538eef1-6a07-4ff0-b3d2-155bf230b2fb"><path d="M0 0 L0 19 L141 19 L141 0 Z"/></clipPath><clipPath clipPathUnits="userSpaceOnUse" id="54d4c21e-881e-47a9-83da-3895aacf8af3"><path d="M0 0 L0 15 L159 15 L159 0 Z"/></clipPath><clipPath clipPathUnits="userSpaceOnUse" id="b538a4a5-ba47-41b0-9450-b99c7a7a9df6"><path d="M-7 -7 L186 -7 L186 66 L-7 66 L-7 -7 Z"/></clipPath><clipPath clipPathUnits="userSpaceOnUse" id="7e988719-e044-4f05-9505-3800d8d07619"><path d="M-7 -7 L186 -7 L186 66 L-7 66 L-7 -7 Z"/></clipPath><clipPath clipPathUnits="userSpaceOnUse" id="f461ff15-e7ec-425b-ac0f-a1aa800143c8"><path d="M-7 -7 L186 -7 L186 66 L-7 66 L-7 -7 Z"/></clipPath><clipPath clipPathUnits="userSpaceOnUse" id="33a70463-cc2b-4db0-9760-7c823106e2b6"><path d="M0 0 L0 40 L175 40 L175 0 Z"/></clipPath><clipPath clipPathUnits="userSpaceOnUse" id="756ec11b-7dcb-42cb-b9ed-3720543388e5"><path d="M0 0 L0 15 L141 15 L141 0 Z"/></clipPath><clipPath clipPathUnits="userSpaceOnUse" id="bb3cbb6f-22ee-4541-b9bd-9110269c7c22"><path d="M0 0 L0 19 L141 19 L141 0 Z"/></clipPath><clipPath clipPathUnits="userSpaceOnUse" id="5b01d6f5-60cf-47ca-96a5-dde06d8686c8"><path d="M0 0 L0 15 L175 15 L175 0 Z"/></clipPath><clipPath clipPathUnits="userSpaceOnUse" id="1a5839f4-b1de-467c-bd56-ae2b53863866"><path d="M-7 -7 L91 -7 L91 51 L-7 51 L-7 -7 Z"/></clipPath><clipPath clipPathUnits="userSpaceOnUse" id="f541e9f6-bcce-437f-9044-add6022bf08e"><path d="M-7 -7 L91 -7 L91 51 L-7 51 L-7 -7 Z"/></clipPath><clipPath clipPathUnits="userSpaceOnUse" id="d4f4a31b-24ba-4764-9b94-1d51488f7f77"><path d="M-7 -7 L91 -7 L91 51 L-7 51 L-7 -7 Z"/></clipPath><clipPath clipPathUnits="userSpaceOnUse" id="dd1e61b2-310b-4aa0-9a39-1ad6c2fa315b"><path d="M0 0 L0 40 L80 40 L80 0 Z"/></clipPath><clipPath clipPathUnits="userSpaceOnUse" id="fd0d9de3-38e2-47ca-9b0d-2e710c335105"><path d="M-7 -7 L91 -7 L91 51 L-7 51 L-7 -7 Z"/></clipPath><clipPath clipPathUnits="userSpaceOnUse" id="f84a4c32-8057-4ef2-8e16-cd80fe410454"><path d="M-7 -7 L91 -7 L91 51 L-7 51 L-7 -7 Z"/></clipPath><clipPath clipPathUnits="userSpaceOnUse" id="036b7d1d-6793-4136-b5c6-951682ff515b"><path d="M0 0 L0 40 L80 40 L80 0 Z"/></clipPath><clipPath clipPathUnits="userSpaceOnUse" id="0783003d-e2bf-4405-9307-0240d1c4774b"><path d="M-111 -15 L222 -15 L222 30 L-111 30 L-111 -15 Z"/></clipPath><clipPath clipPathUnits="userSpaceOnUse" id="ba81384d-b401-48b2-a563-c060613173d0"><path d="M-50 -15 L100 -15 L100 30 L-50 30 L-50 -15 Z"/></clipPath><clipPath clipPathUnits="userSpaceOnUse" id="69cde22f-5802-4ade-bc54-8436a642e8ec"><path d="M0 0 L374 0 L374 673 L0 673 L0 0 Z"/></clipPath><clipPath clipPathUnits="userSpaceOnUse" id="eaac6c92-0964-437d-8255-2ab24862d8be"><path d="M316 530 L316 545 L205 545 L205 530 ZM0 0 L0 305 L48 305 L48 320 L0 320 L0 435 L48 435 L48 450 L0 450 L0 541 L48 541 L48 556 L0 556 L0 673 L374 673 L374 0 Z"/></clipPath><clipPath clipPathUnits="userSpaceOnUse" id="20f9923c-7664-42c3-a5e1-a1125b131598"><path d="M0 0 L468 0 L468 104 L0 104 L0 0 Z"/></clipPath><clipPath clipPathUnits="userSpaceOnUse" id="beedb9f6-a99e-4224-8c9a-a3b4634365ff"><path d="M455 80 L455 95 L405 95 L405 80 ZM0 0 L0 104 L468 104 L468 0 Z"/></clipPath><clipPath clipPathUnits="userSpaceOnUse" id="b15455ce-a5e5-4ccb-a62b-954f741c706f"><path d="M0 0 L258 0 L258 403 L0 403 L0 0 Z"/></clipPath><clipPath clipPathUnits="userSpaceOnUse" id="1075c43a-6dba-4a72-87ee-94518ef0a875"><path d="M0 0 L0 403 L258 403 L258 0 Z"/></clipPath><clipPath clipPathUnits="userSpaceOnUse" id="bd26f8da-aeb9-4d53-9845-d9c1001950ce"><path d="M0 0 L223 0 L223 193 L0 193 L0 0 Z"/></clipPath><clipPath clipPathUnits="userSpaceOnUse" id="f26ee328-4831-47d3-bd95-0572607781f2"><path d="M0 0 L0 193 L223 193 L223 0 Z"/></clipPath><clipPath clipPathUnits="userSpaceOnUse" id="3192032e-56d4-478c-8261-fe46756f48b9"><path d="M0 0 L211 0 L211 104 L0 104 L0 0 Z"/></clipPath><clipPath clipPathUnits="userSpaceOnUse" id="76909675-42fa-468a-9f65-570c7b26baf0"><path d="M0 0 L0 104 L211 104 L211 95 L118 95 L118 80 L211 80 L211 0 Z"/></clipPath><clipPath clipPathUnits="userSpaceOnUse" id="9d9196b3-1558-4323-84cd-de15aca0f975"><path d="M0 0 L274 0 L274 147 L0 147 L0 0 Z"/></clipPath><clipPath clipPathUnits="userSpaceOnUse" id="c3a426bf-56e2-4279-b292-9ec838a991fd"><path d="M0 0 L0 44 L8 44 L8 59 L0 59 L0 147 L274 147 L274 48 L165 48 L165 33 L274 33 L274 0 Z"/></clipPath><clipPath clipPathUnits="userSpaceOnUse" id="a06a98b9-a4be-4051-a5c6-7ae4deb839f9"><path d="M0 0 L268 0 L268 313 L0 313 L0 0 Z"/></clipPath><clipPath clipPathUnits="userSpaceOnUse" id="86ca9af2-b409-469a-b7f7-bd43ea709f93"><path d="M0 0 L0 95 L8 95 L8 110 L0 110 L0 225 L8 225 L8 240 L0 240 L0 313 L268 313 L268 0 Z"/></clipPath><clipPath clipPathUnits="userSpaceOnUse" id="25b3f8f5-a501-44ca-873e-858ba301cc80"><path d="M0 0 L174 0 L174 354 L0 354 L0 0 Z"/></clipPath><clipPath clipPathUnits="userSpaceOnUse" id="12be92c3-1de2-4c4f-8255-c697b2dedde6"><path d="M0 0 L0 175 L48 175 L48 190 L0 190 L0 354 L174 354 L174 226 L118 226 L118 211 L174 211 L174 120 L118 120 L118 105 L174 105 L174 0 Z"/></clipPath><clipPath clipPathUnits="userSpaceOnUse" id="0233b5c9-aad1-4a90-84ec-d6d20d808a95"><path d="M0 0 L104 0 L104 161 L0 161 L0 0 Z"/></clipPath><clipPath clipPathUnits="userSpaceOnUse" id="ce6913f5-dc41-44c0-a026-aeacd7a8948e"><path d="M0 0 L0 70 L48 70 L48 85 L0 85 L0 161 L104 161 L104 0 Z"/></clipPath><clipPath clipPathUnits="userSpaceOnUse" id="1df886a4-b5ba-4394-9767-acb5d1716753"><path d="M0 0 L104 0 L104 147 L0 147 L0 0 Z"/></clipPath><clipPath clipPathUnits="userSpaceOnUse" id="d329ed8f-7b7e-43eb-879c-7f325af38fd0"><path d="M0 0 L0 64 L48 64 L48 79 L0 79 L0 147 L104 147 L104 0 Z"/></clipPath><clipPath clipPathUnits="userSpaceOnUse" id="76f3bd1c-5965-45e2-8067-a87bd75e374c"><path d="M0 0 L104 0 L104 169 L0 169 L0 0 Z"/></clipPath><clipPath clipPathUnits="userSpaceOnUse" id="0da81145-5eed-4a38-a2bf-2b6cfe8a7469"><path d="M0 0 L0 75 L48 75 L48 90 L0 90 L0 169 L104 169 L104 0 Z"/></clipPath><clipPath clipPathUnits="userSpaceOnUse" id="e7c865e5-3751-4849-965f-254d2beb4f85"><path d="M-80 -15 L160 -15 L160 30 L-80 30 L-80 -15 Z"/></clipPath><clipPath clipPathUnits="userSpaceOnUse" id="b313621c-8cfb-4a67-acdc-0f745aee4b9b"><path d="M-82 -15 L164 -15 L164 30 L-82 30 L-82 -15 Z"/></clipPath></defs><g fill="white" fill-opacity="1" stroke="white" stroke-opacity="1" text-rendering="geometricPrecision"><rect height="696" stroke="none" width="571" x="0" y="0"/></g><g data="{&quot;name&quot;:&quot;User Input System&quot;,&quot;modelType&quot;:&quot;System&quot;}" hyper="" model-id="shape-4zd6atmGAqAAbQl8" style="pointer-events: auto; cursor: pointer;"><g fill="rgb(122,207,245)" fill-opacity="1" font-family="sans-serif" font-size="11px" image-rendering="optimizeQuality" stroke="rgb(122,207,245)" stroke-opacity="1" text-rendering="geometricPrecision" transform="translate(2,32)"><rect clip-path="url(#3a64caee-3eb5-4345-b216-cf476e00ca4a)" height="659" stroke="none" width="419" x="0" y="0"/></g><g fill="black" fill-opacity="1" font-family="sans-serif" font-size="11px" image-rendering="optimizeQuality" stroke="black" stroke-linecap="butt" stroke-linejoin="round" stroke-miterlimit="0" stroke-opacity="1" text-rendering="geometricPrecision" transform="translate(2,32)"><rect clip-path="url(#3a64caee-3eb5-4345-b216-cf476e00ca4a)" fill="none" height="659" width="419" x="0" y="0"/></g></g><g fill="black" fill-opacity="1" font-family="sans-serif" font-size="11px" image-rendering="optimizeQuality" stroke="black" stroke-opacity="1" text-rendering="geometricPrecision" transform="translate(2,32)"><text clip-path="url(#15c94393-5930-409c-aac0-e6c8a0707c02)" stroke="none" x="164" xml:space="preserve" y="12">Chirp! activities</text></g><g data="{&quot;name&quot;:&quot;Guest&quot;,&quot;modelType&quot;:&quot;Actor&quot;}" hyper="" model-id="shape-0zd6atmGAqAAbQl_" style="pointer-events: auto; cursor: pointer;"><g fill="rgb(122,207,245)" fill-opacity="1" font-family="sans-serif" font-size="11px" image-rendering="optimizeQuality" stroke="rgb(122,207,245)" stroke-opacity="1" text-rendering="geometricPrecision" transform="translate(527,572)"><circle clip-path="url(#15f8dbb7-7451-4583-a8da-250906833a23)" cx="14.5" cy="7.5" r="7.5" stroke="none"/></g><g fill="black" fill-opacity="1" font-family="sans-serif" font-size="11px" image-rendering="optimizeQuality" stroke="black" stroke-linecap="butt" stroke-linejoin="round" stroke-miterlimit="0" stroke-opacity="1" text-rendering="geometricPrecision" transform="translate(527,572)"><circle clip-path="url(#15f8dbb7-7451-4583-a8da-250906833a23)" cx="14.5" cy="7.5" fill="none" r="7.5"/><line clip-path="url(#15f8dbb7-7451-4583-a8da-250906833a23)" fill="none" x1="15" x2="15" y1="15" y2="40"/><line clip-path="url(#15f8dbb7-7451-4583-a8da-250906833a23)" fill="none" x1="0" x2="30" y1="24" y2="24"/><line clip-path="url(#15f8dbb7-7451-4583-a8da-250906833a23)" fill="none" x1="15" x2="0" y1="40" y2="60"/><line clip-path="url(#15f8dbb7-7451-4583-a8da-250906833a23)" fill="none" x1="15" x2="30" y1="40" y2="60"/></g></g><g data="{&quot;name&quot;:&quot;AuthenticatedUser&quot;,&quot;modelType&quot;:&quot;Actor&quot;}" hyper="" model-id="shape-szd6atmGAqAAbQmC" style="pointer-events: auto; cursor: pointer;"><g fill="rgb(122,207,245)" fill-opacity="1" font-family="sans-serif" font-size="11px" image-rendering="optimizeQuality" stroke="rgb(122,207,245)" stroke-opacity="1" text-rendering="geometricPrecision" transform="translate(467,422)"><circle clip-path="url(#119f6844-8c1d-4112-b1a2-7db82a2f6945)" cx="14.5" cy="7.5" r="7.5" stroke="none"/></g><g fill="black" fill-opacity="1" font-family="sans-serif" font-size="11px" image-rendering="optimizeQuality" stroke="black" stroke-linecap="butt" stroke-linejoin="round" stroke-miterlimit="0" stroke-opacity="1" text-rendering="geometricPrecision" transform="translate(467,422)"><circle clip-path="url(#119f6844-8c1d-4112-b1a2-7db82a2f6945)" cx="14.5" cy="7.5" fill="none" r="7.5"/><line clip-path="url(#119f6844-8c1d-4112-b1a2-7db82a2f6945)" fill="none" x1="15" x2="15" y1="15" y2="40"/><line clip-path="url(#119f6844-8c1d-4112-b1a2-7db82a2f6945)" fill="none" x1="0" x2="30" y1="24" y2="24"/><line clip-path="url(#119f6844-8c1d-4112-b1a2-7db82a2f6945)" fill="none" x1="15" x2="0" y1="40" y2="60"/><line clip-path="url(#119f6844-8c1d-4112-b1a2-7db82a2f6945)" fill="none" x1="15" x2="30" y1="40" y2="60"/></g></g><g data="{&quot;name&quot;:&quot;View Public Timeline&quot;,&quot;modelType&quot;:&quot;UseCase&quot;}" hyper="" model-id="shape-Szd6atmGAqAAbQmG" style="pointer-events: auto; cursor: pointer;"><g fill="rgb(122,207,245)" fill-opacity="1" font-family="sans-serif" font-size="11px" image-rendering="optimizeQuality" stroke="rgb(122,207,245)" stroke-opacity="1" text-rendering="geometricPrecision" transform="translate(216,102)"><ellipse clip-path="url(#653f9b58-ca1e-46b9-9517-b4f64c9d4d22)" cx="56" cy="20" rx="56" ry="20" stroke="none"/></g><g fill="black" fill-opacity="1" font-family="sans-serif" font-size="11px" image-rendering="optimizeQuality" stroke="black" stroke-linecap="butt" stroke-linejoin="round" stroke-miterlimit="0" stroke-opacity="1" text-rendering="geometricPrecision" transform="translate(216,102)"><ellipse clip-path="url(#653f9b58-ca1e-46b9-9517-b4f64c9d4d22)" cx="56" cy="20" fill="none" rx="56" ry="20"/></g></g><g fill="black" fill-opacity="1" font-family="sans-serif" font-size="11px" image-rendering="optimizeQuality" stroke="black" stroke-opacity="1" text-rendering="geometricPrecision" transform="translate(216,102)"><text clip-path="url(#4223c85d-1343-46a1-a0b1-b1ce1ea741e5)" stroke="none" x="4" xml:space="preserve" y="24">View Public Timeline</text></g><g data="{&quot;name&quot;:&quot;Register&quot;,&quot;modelType&quot;:&quot;UseCase&quot;}" hyper="" model-id="shape-Rzd6atmGAqAAbQmU" style="pointer-events: auto; cursor: pointer;"><g fill="rgb(122,207,245)" fill-opacity="1" font-family="sans-serif" font-size="11px" image-rendering="optimizeQuality" stroke="rgb(122,207,245)" stroke-opacity="1" text-rendering="geometricPrecision" transform="translate(82,582)"><ellipse clip-path="url(#de396838-ca33-4a2c-a7a2-1ac3d61b8da4)" cx="40" cy="20" rx="40" ry="20" stroke="none"/></g><g fill="black" fill-opacity="1" font-family="sans-serif" font-size="11px" image-rendering="optimizeQuality" stroke="black" stroke-linecap="butt" stroke-linejoin="round" stroke-miterlimit="0" stroke-opacity="1" text-rendering="geometricPrecision" transform="translate(82,582)"><ellipse clip-path="url(#de396838-ca33-4a2c-a7a2-1ac3d61b8da4)" cx="40" cy="20" fill="none" rx="40" ry="20"/></g></g><g fill="black" fill-opacity="1" font-family="sans-serif" font-size="11px" image-rendering="optimizeQuality" stroke="black" stroke-opacity="1" text-rendering="geometricPrecision" transform="translate(82,582)"><text clip-path="url(#6786e69a-4d59-4d18-94f6-7b88227807d3)" stroke="none" x="19" xml:space="preserve" y="24">Register</text></g><g data="{&quot;name&quot;:&quot;Login&quot;,&quot;modelType&quot;:&quot;UseCase&quot;}" hyper="" model-id="shape-lzd6atmGAqAAbQmg" style="pointer-events: auto; cursor: pointer;"><g fill="rgb(122,207,245)" fill-opacity="1" font-family="sans-serif" font-size="11px" image-rendering="optimizeQuality" stroke="rgb(122,207,245)" stroke-opacity="1" text-rendering="geometricPrecision" transform="translate(192,297)"><ellipse clip-path="url(#1119dda2-a78d-4edc-bc4c-6daaccc3b8fb)" cx="79.5" cy="35" rx="79.5" ry="35" stroke="none"/></g><g fill="black" fill-opacity="1" font-family="sans-serif" font-size="11px" image-rendering="optimizeQuality" stroke="black" stroke-linecap="butt" stroke-linejoin="round" stroke-miterlimit="0" stroke-opacity="1" text-rendering="geometricPrecision" transform="translate(192,297)"><ellipse clip-path="url(#1119dda2-a78d-4edc-bc4c-6daaccc3b8fb)" cx="79.5" cy="35" fill="none" rx="79.5" ry="35"/></g></g><g fill="black" fill-opacity="1" font-family="sans-serif" font-size="11px" image-rendering="optimizeQuality" stroke="black" stroke-linecap="butt" stroke-linejoin="round" stroke-miterlimit="0" stroke-opacity="1" text-rendering="geometricPrecision" transform="translate(192,312)"><line clip-path="url(#576a5aad-015d-43df-a471-e8f4a619496b)" fill="none" x1="14" x2="143" y1="0" y2="0"/></g><g fill="black" fill-opacity="1" font-family="sans-serif" font-size="11px" image-rendering="optimizeQuality" stroke="black" stroke-opacity="1" text-rendering="geometricPrecision" transform="translate(201,346)"><text clip-path="url(#ba51cf2c-b3b6-4ec2-9cc2-95da65d73fd8)" stroke="none" x="54" xml:space="preserve" y="12">Follow</text></g><g fill="black" fill-opacity="1" font-family="sans-serif" font-size="11px" image-rendering="optimizeQuality" stroke="black" stroke-opacity="1" text-rendering="geometricPrecision" transform="translate(201,331)"><text clip-path="url(#ba51cf2c-b3b6-4ec2-9cc2-95da65d73fd8)" stroke="none" x="43" xml:space="preserve" y="12">Post Cheep</text></g><g fill="black" fill-opacity="1" font-family="sans-serif" font-size="11px" font-weight="bold" image-rendering="optimizeQuality" stroke="black" stroke-opacity="1" text-rendering="geometricPrecision" transform="translate(201,312)"><text clip-path="url(#b538eef1-6a07-4ff0-b3d2-155bf230b2fb)" stroke="none" x="24" xml:space="preserve" y="16">extension points</text></g><g fill="black" fill-opacity="1" font-family="sans-serif" font-size="11px" image-rendering="optimizeQuality" stroke="black" stroke-opacity="1" text-rendering="geometricPrecision" transform="translate(192,297)"><text clip-path="url(#54d4c21e-881e-47a9-83da-3895aacf8af3)" stroke="none" x="66" xml:space="preserve" y="12">Login</text></g><g data="{&quot;name&quot;:&quot;Post Cheep&quot;,&quot;modelType&quot;:&quot;UseCase&quot;}" hyper="" model-id="shape-dzd6atmGAqAAbQms" style="pointer-events: auto; cursor: pointer;"><g fill="rgb(122,207,245)" fill-opacity="1" font-family="sans-serif" font-size="11px" image-rendering="optimizeQuality" stroke="rgb(122,207,245)" stroke-opacity="1" text-rendering="geometricPrecision" transform="translate(184,424)"><ellipse clip-path="url(#7e988719-e044-4f05-9505-3800d8d07619)" cx="87.5" cy="27.5" rx="87.5" ry="27.5" stroke="none"/></g><g fill="black" fill-opacity="1" font-family="sans-serif" font-size="11px" image-rendering="optimizeQuality" stroke="black" stroke-linecap="butt" stroke-linejoin="round" stroke-miterlimit="0" stroke-opacity="1" text-rendering="geometricPrecision" transform="translate(184,424)"><ellipse clip-path="url(#7e988719-e044-4f05-9505-3800d8d07619)" cx="87.5" cy="27.5" fill="none" rx="87.5" ry="27.5"/></g></g><g fill="black" fill-opacity="1" font-family="sans-serif" font-size="11px" image-rendering="optimizeQuality" stroke="black" stroke-linecap="butt" stroke-linejoin="round" stroke-miterlimit="0" stroke-opacity="1" text-rendering="geometricPrecision" transform="translate(184,439)"><line clip-path="url(#33a70463-cc2b-4db0-9760-7c823106e2b6)" fill="none" x1="9" x2="164" y1="0" y2="0"/></g><g fill="black" fill-opacity="1" font-family="sans-serif" font-size="11px" image-rendering="optimizeQuality" stroke="black" stroke-opacity="1" text-rendering="geometricPrecision" transform="translate(201,458)"><text clip-path="url(#756ec11b-7dcb-42cb-b9ed-3720543388e5)" stroke="none" x="57" xml:space="preserve" y="12">Reply</text></g><g fill="black" fill-opacity="1" font-family="sans-serif" font-size="11px" font-weight="bold" image-rendering="optimizeQuality" stroke="black" stroke-opacity="1" text-rendering="geometricPrecision" transform="translate(201,439)"><text clip-path="url(#bb3cbb6f-22ee-4541-b9bd-9110269c7c22)" stroke="none" x="24" xml:space="preserve" y="16">extension points</text></g><g fill="black" fill-opacity="1" font-family="sans-serif" font-size="11px" image-rendering="optimizeQuality" stroke="black" stroke-opacity="1" text-rendering="geometricPrecision" transform="translate(184,424)"><text clip-path="url(#5b01d6f5-60cf-47ca-96a5-dde06d8686c8)" stroke="none" x="58" xml:space="preserve" y="12">Post Cheep</text></g><g data="{&quot;name&quot;:&quot;Reply&quot;,&quot;modelType&quot;:&quot;UseCase&quot;}" hyper="" model-id="shape-bzd6atmGAqAAbQm4" style="pointer-events: auto; cursor: pointer;"><g fill="rgb(122,207,245)" fill-opacity="1" font-family="sans-serif" font-size="11px" image-rendering="optimizeQuality" stroke="rgb(122,207,245)" stroke-opacity="1" text-rendering="geometricPrecision" transform="translate(232,522)"><ellipse clip-path="url(#f541e9f6-bcce-437f-9044-add6022bf08e)" cx="40" cy="20" rx="40" ry="20" stroke="none"/></g><g fill="black" fill-opacity="1" font-family="sans-serif" font-size="11px" image-rendering="optimizeQuality" stroke="black" stroke-linecap="butt" stroke-linejoin="round" stroke-miterlimit="0" stroke-opacity="1" text-rendering="geometricPrecision" transform="translate(232,522)"><ellipse clip-path="url(#f541e9f6-bcce-437f-9044-add6022bf08e)" cx="40" cy="20" fill="none" rx="40" ry="20"/></g></g><g fill="black" fill-opacity="1" font-family="sans-serif" font-size="11px" image-rendering="optimizeQuality" stroke="black" stroke-opacity="1" text-rendering="geometricPrecision" transform="translate(232,522)"><text clip-path="url(#dd1e61b2-310b-4aa0-9a39-1ad6c2fa315b)" stroke="none" x="25" xml:space="preserve" y="24">Reply</text></g><g data="{&quot;name&quot;:&quot;Follow&quot;,&quot;modelType&quot;:&quot;UseCase&quot;}" hyper="" model-id="shape-Pzd6atmGAqAAbQnE" style="pointer-events: auto; cursor: pointer;"><g fill="rgb(122,207,245)" fill-opacity="1" font-family="sans-serif" font-size="11px" image-rendering="optimizeQuality" stroke="rgb(122,207,245)" stroke-opacity="1" text-rendering="geometricPrecision" transform="translate(232,192)"><ellipse clip-path="url(#fd0d9de3-38e2-47ca-9b0d-2e710c335105)" cx="40" cy="20" rx="40" ry="20" stroke="none"/></g><g fill="black" fill-opacity="1" font-family="sans-serif" font-size="11px" image-rendering="optimizeQuality" stroke="black" stroke-linecap="butt" stroke-linejoin="round" stroke-miterlimit="0" stroke-opacity="1" text-rendering="geometricPrecision" transform="translate(232,192)"><ellipse clip-path="url(#fd0d9de3-38e2-47ca-9b0d-2e710c335105)" cx="40" cy="20" fill="none" rx="40" ry="20"/></g></g><g fill="black" fill-opacity="1" font-family="sans-serif" font-size="11px" image-rendering="optimizeQuality" stroke="black" stroke-opacity="1" text-rendering="geometricPrecision" transform="translate(232,192)"><text clip-path="url(#036b7d1d-6793-4136-b5c6-951682ff515b)" stroke="none" x="24" xml:space="preserve" y="24">Follow</text></g><g fill="black" fill-opacity="1" font-family="sans-serif" font-size="11px" image-rendering="optimizeQuality" stroke="black" stroke-opacity="1" text-rendering="geometricPrecision" transform="translate(427,482)"><text clip-path="url(#0783003d-e2bf-4405-9307-0240d1c4774b)" stroke="none" x="10" xml:space="preserve" y="12">AuthenticatedUser</text></g><g fill="black" fill-opacity="1" font-family="sans-serif" font-size="11px" image-rendering="optimizeQuality" stroke="black" stroke-opacity="1" text-rendering="geometricPrecision" transform="translate(517,632)"><text clip-path="url(#ba81384d-b401-48b2-a563-c060613173d0)" stroke="none" x="10" xml:space="preserve" y="12">Guest</text></g><g data="{&quot;modelType&quot;:&quot;Association&quot;}" hyper="" model-id="connector-4Ld6atmGAqAAbQnR" style="pointer-events: auto; cursor: pointer;"><g fill="black" fill-opacity="1" font-family="sans-serif" font-size="11px" image-rendering="optimizeQuality" stroke="black" stroke-linecap="butt" stroke-linejoin="round" stroke-opacity="1" text-rendering="geometricPrecision" transform="translate(222,-48)"><line clip-path="url(#eaac6c92-0964-437d-8255-2ab24862d8be)" fill="none" x1="320" x2="320" y1="619" y2="50"/><line clip-path="url(#eaac6c92-0964-437d-8255-2ab24862d8be)" fill="none" x1="320" x2="50" y1="50" y2="50"/><line clip-path="url(#eaac6c92-0964-437d-8255-2ab24862d8be)" fill="none" x1="50" x2="50" y1="50" y2="150"/></g></g><g data="{&quot;modelType&quot;:&quot;Association&quot;}" hyper="" model-id="connector-yLd6atmGAqAAbQna" style="pointer-events: auto; cursor: pointer;"><g fill="black" fill-opacity="1" font-family="sans-serif" font-size="11px" image-rendering="optimizeQuality" stroke="black" stroke-linecap="butt" stroke-linejoin="round" stroke-opacity="1" text-rendering="geometricPrecision" transform="translate(112,552)"><line clip-path="url(#beedb9f6-a99e-4224-8c9a-a3b4634365ff)" fill="none" x1="414" x2="50" y1="50" y2="50"/></g></g><g data="{&quot;modelType&quot;:&quot;Association&quot;}" hyper="" model-id="connector-aLd6atmGAqAAbQnh" style="pointer-events: auto; cursor: pointer;"><g fill="black" fill-opacity="1" font-family="sans-serif" font-size="11px" image-rendering="optimizeQuality" stroke="black" stroke-linecap="butt" stroke-linejoin="round" stroke-opacity="1" text-rendering="geometricPrecision" transform="translate(278,72)"><line clip-path="url(#1075c43a-6dba-4a72-87ee-94518ef0a875)" fill="none" x1="204" x2="204" y1="349" y2="50"/><line clip-path="url(#1075c43a-6dba-4a72-87ee-94518ef0a875)" fill="none" x1="204" x2="50" y1="50" y2="50"/></g></g><g data="{&quot;modelType&quot;:&quot;Association&quot;}" hyper="" model-id="connector-WLd6atmGAqAAbQno" style="pointer-events: auto; cursor: pointer;"><g fill="black" fill-opacity="1" font-family="sans-serif" font-size="11px" image-rendering="optimizeQuality" stroke="black" stroke-linecap="butt" stroke-linejoin="round" stroke-opacity="1" text-rendering="geometricPrecision" transform="translate(301,282)"><line clip-path="url(#f26ee328-4831-47d3-bd95-0572607781f2)" fill="none" x1="169" x2="169" y1="139" y2="50"/><line clip-path="url(#f26ee328-4831-47d3-bd95-0572607781f2)" fill="none" x1="169" x2="50" y1="50" y2="50"/></g></g><g data="{&quot;modelType&quot;:&quot;Association&quot;}" hyper="" model-id="connector-eLd6atmGAqAAbQnv" style="pointer-events: auto; cursor: pointer;"><g fill="black" fill-opacity="1" font-family="sans-serif" font-size="11px" image-rendering="optimizeQuality" stroke="black" stroke-linecap="butt" stroke-linejoin="round" stroke-opacity="1" text-rendering="geometricPrecision" transform="translate(309,402)"><line clip-path="url(#76909675-42fa-468a-9f65-570c7b26baf0)" fill="none" x1="157" x2="50" y1="50" y2="50"/></g></g><g data="{&quot;modelType&quot;:&quot;Association&quot;}" hyper="" model-id="connector-RLd6atmGAqAAbQn2" style="pointer-events: auto; cursor: pointer;"><g fill="black" fill-opacity="1" font-family="sans-serif" font-size="11px" image-rendering="optimizeQuality" stroke="black" stroke-linecap="butt" stroke-linejoin="round" stroke-opacity="1" text-rendering="geometricPrecision" transform="translate(262,449)"><line clip-path="url(#c3a426bf-56e2-4279-b292-9ec838a991fd)" fill="none" x1="220" x2="220" y1="50" y2="93"/><line clip-path="url(#c3a426bf-56e2-4279-b292-9ec838a991fd)" fill="none" x1="220" x2="50" y1="93" y2="93"/></g></g><g data="{&quot;modelType&quot;:&quot;Association&quot;}" hyper="" model-id="connector-ZLd6atmGAqAAbQn9" style="pointer-events: auto; cursor: pointer;"><g fill="black" fill-opacity="1" font-family="sans-serif" font-size="11px" image-rendering="optimizeQuality" stroke="black" stroke-linecap="butt" stroke-linejoin="round" stroke-opacity="1" text-rendering="geometricPrecision" transform="translate(262,162)"><line clip-path="url(#86ca9af2-b409-469a-b7f7-bd43ea709f93)" fill="none" x1="214" x2="214" y1="259" y2="50"/><line clip-path="url(#86ca9af2-b409-469a-b7f7-bd43ea709f93)" fill="none" x1="214" x2="50" y1="50" y2="50"/></g></g><g data="{&quot;modelType&quot;:&quot;Include&quot;}" hyper="" model-id="connector-dLd6atmGAqAAbQoF" style="pointer-events: auto; cursor: pointer;"><g fill="black" fill-opacity="1" font-family="sans-serif" font-size="11px" image-rendering="optimizeQuality" stroke="black" stroke-dasharray="4" stroke-linecap="butt" stroke-linejoin="round" stroke-opacity="1" text-rendering="geometricPrecision" transform="translate(72,282)"><line clip-path="url(#12be92c3-1de2-4c4f-8255-c697b2dedde6)" fill="none" x1="120" x2="50" y1="50" y2="50"/><line clip-path="url(#12be92c3-1de2-4c4f-8255-c697b2dedde6)" fill="none" x1="50" x2="50" y1="50" y2="300"/><line clip-path="url(#12be92c3-1de2-4c4f-8255-c697b2dedde6)" fill="none" stroke-dasharray="none" x1="50" x2="56" y1="300" y2="288"/><line clip-path="url(#12be92c3-1de2-4c4f-8255-c697b2dedde6)" fill="none" stroke-dasharray="none" x1="50" x2="44" y1="300" y2="288"/></g></g><g data="{&quot;modelType&quot;:&quot;Extend&quot;}" hyper="" model-id="connector-7Ld6atmGAqAAbQoK" style="pointer-events: auto; cursor: pointer;"><g fill="black" fill-opacity="1" font-family="sans-serif" font-size="11px" image-rendering="optimizeQuality" stroke="black" stroke-dasharray="4" stroke-linecap="butt" stroke-linejoin="round" stroke-opacity="1" text-rendering="geometricPrecision" transform="translate(222,317)"><line clip-path="url(#ce6913f5-dc41-44c0-a026-aeacd7a8948e)" fill="none" x1="50" x2="50" y1="107" y2="50"/><line clip-path="url(#ce6913f5-dc41-44c0-a026-aeacd7a8948e)" fill="none" stroke-dasharray="none" x1="50" x2="44" y1="50" y2="62"/><line clip-path="url(#ce6913f5-dc41-44c0-a026-aeacd7a8948e)" fill="none" stroke-dasharray="none" x1="50" x2="56" y1="50" y2="62"/></g></g><g data="{&quot;modelType&quot;:&quot;Extend&quot;}" hyper="" model-id="connector-Qrd6atmGAqAAbQoQ" style="pointer-events: auto; cursor: pointer;"><g fill="black" fill-opacity="1" font-family="sans-serif" font-size="11px" image-rendering="optimizeQuality" stroke="black" stroke-dasharray="4" stroke-linecap="butt" stroke-linejoin="round" stroke-opacity="1" text-rendering="geometricPrecision" transform="translate(222,429)"><line clip-path="url(#d329ed8f-7b7e-43eb-879c-7f325af38fd0)" fill="none" x1="50" x2="50" y1="93" y2="50"/><line clip-path="url(#d329ed8f-7b7e-43eb-879c-7f325af38fd0)" fill="none" stroke-dasharray="none" x1="50" x2="44" y1="50" y2="62"/><line clip-path="url(#d329ed8f-7b7e-43eb-879c-7f325af38fd0)" fill="none" stroke-dasharray="none" x1="50" x2="56" y1="50" y2="62"/></g></g><g data="{&quot;modelType&quot;:&quot;Extend&quot;}" hyper="" model-id="connector-Yrd6atmGAqAAbQoU" style="pointer-events: auto; cursor: pointer;"><g fill="black" fill-opacity="1" font-family="sans-serif" font-size="11px" image-rendering="optimizeQuality" stroke="black" stroke-dasharray="4" stroke-linecap="butt" stroke-linejoin="round" stroke-opacity="1" text-rendering="geometricPrecision" transform="translate(222,182)"><line clip-path="url(#0da81145-5eed-4a38-a2bf-2b6cfe8a7469)" fill="none" x1="50" x2="50" y1="50" y2="115"/><line clip-path="url(#0da81145-5eed-4a38-a2bf-2b6cfe8a7469)" fill="none" stroke-dasharray="none" x1="50" x2="56" y1="115" y2="103"/><line clip-path="url(#0da81145-5eed-4a38-a2bf-2b6cfe8a7469)" fill="none" stroke-dasharray="none" x1="50" x2="44" y1="115" y2="103"/></g></g><g fill="black" fill-opacity="1" font-family="sans-serif" font-size="11px" image-rendering="optimizeQuality" stroke="black" stroke-opacity="1" text-rendering="geometricPrecision" transform="translate(190,257)"><text clip-path="url(#e7c865e5-3751-4849-965f-254d2beb4f85)" stroke="none" x="10" xml:space="preserve" y="12">&lt;&lt;Extend&gt;&gt;</text></g><g fill="black" fill-opacity="1" font-family="sans-serif" font-size="11px" image-rendering="optimizeQuality" stroke="black" stroke-opacity="1" text-rendering="geometricPrecision" transform="translate(190,493)"><text clip-path="url(#e7c865e5-3751-4849-965f-254d2beb4f85)" stroke="none" x="10" xml:space="preserve" y="12">&lt;&lt;Extend&gt;&gt;</text></g><g fill="black" fill-opacity="1" font-family="sans-serif" font-size="11px" image-rendering="optimizeQuality" stroke="black" stroke-opacity="1" text-rendering="geometricPrecision" transform="translate(190,387)"><text clip-path="url(#e7c865e5-3751-4849-965f-254d2beb4f85)" stroke="none" x="10" xml:space="preserve" y="12">&lt;&lt;Extend&gt;&gt;</text></g><g fill="black" fill-opacity="1" font-family="sans-serif" font-size="11px" image-rendering="optimizeQuality" stroke="black" stroke-opacity="1" text-rendering="geometricPrecision" transform="translate(38,457)"><text clip-path="url(#b313621c-8cfb-4a67-acdc-0f745aee4b9b)" stroke="none" x="9" xml:space="preserve" y="12">&lt;&lt;Include&gt;&gt;</text></g></g></svg>