<?xml version="1.0" encoding="UTF-8"?>
<svg xmlns="http://www.w3.org/2000/svg" xmlns:xlink="http://www.w3.org/1999/xlink"
    color-interpolation="auto" color-rendering="auto" fill="rgb(0,0,0)" fill-opacity="0"
    font-family="'Dialog'" font-size="12px" font-style="normal" font-weight="normal" height="556"
    image-rendering="auto" shape-rendering="auto" stroke="rgb(0,0,0)" stroke-dasharray="none"
    stroke-dashoffset="0" stroke-linecap="square" stroke-linejoin="miter" stroke-miterlimit="10"
    stroke-opacity="0" stroke-width="1" text-rendering="auto" viewbox="0 0 454 556" width="454"><!--Generated
    by the Batik Graphics2D SVG Generator-->
    <defs id="genericDefs" />
    <g>
        <defs id="defs1">
            <clipPath clipPathUnits="userSpaceOnUse" id="11ce328a-1dba-4991-8064-fd7d187333a3">
                <path d="M-7 -7 L196 -7 L196 76 L-7 76 L-7 -7 Z" />
            </clipPath>
            <clipPath clipPathUnits="userSpaceOnUse" id="91185ed5-4c49-4df9-9a44-c0c09eed0f6e">
                <path d="M0 0 L0 65 L185 65 L185 0 Z" />
            </clipPath>
            <clipPath clipPathUnits="userSpaceOnUse" id="a3aae0b6-8860-4bf1-85f2-2c5a4ef35d4e">
                <path d="M0 0 L0 53 L150 53 L150 0 Z" />
            </clipPath>
            <clipPath clipPathUnits="userSpaceOnUse" id="f0cff3d5-f4ca-4d9d-85f3-dfd01cec46f7">
                <path d="M-7 -7 L51 -7 L51 31 L-7 31 L-7 -7 Z" />
            </clipPath>
            <clipPath clipPathUnits="userSpaceOnUse" id="8c41def4-fcd8-451c-bf12-4d22968affbd">
                <path d="M-7 -7 L51 -7 L51 31 L-7 31 L-7 -7 Z" />
            </clipPath>
            <clipPath clipPathUnits="userSpaceOnUse" id="b55cb34c-8876-406d-a06c-d34dd4945ba5">
                <path d="M-7 -7 L133 -7 L133 51 L-7 51 L-7 -7 Z" />
            </clipPath>
            <clipPath clipPathUnits="userSpaceOnUse" id="b92f8660-8f53-4832-8e2a-1b35ddd4d3be">
                <path d="M-7 -7 L133 -7 L133 51 L-7 51 L-7 -7 Z" />
            </clipPath>
            <clipPath clipPathUnits="userSpaceOnUse" id="a515ad0c-2034-4339-8a59-042dd88eee4a">
                <path d="M-7 -7 L133 -7 L133 51 L-7 51 L-7 -7 Z" />
            </clipPath>
            <clipPath clipPathUnits="userSpaceOnUse" id="240ae95a-f20d-429d-b041-d4aa4d531fd9">
                <path d="M0 0 L0 40 L121 40 L121 0 Z" />
            </clipPath>
            <clipPath clipPathUnits="userSpaceOnUse" id="05258c72-53dc-4e27-9e3b-7985e661940d">
                <path d="M-7 -7 L40 -7 L40 51 L-7 51 L-7 -7 Z" />
            </clipPath>
            <clipPath clipPathUnits="userSpaceOnUse" id="1dad7e9c-537a-4829-a4f3-5799fe6de9b0">
                <path d="M-7 -7 L40 -7 L40 51 L-7 51 L-7 -7 Z" />
            </clipPath>
            <clipPath clipPathUnits="userSpaceOnUse" id="d0f2f721-be56-4e77-8fc9-d266cfdad4fa">
                <path d="M-7 -7 L133 -7 L133 51 L-7 51 L-7 -7 Z" />
            </clipPath>
            <clipPath clipPathUnits="userSpaceOnUse" id="27d57b2a-1339-4566-8eed-e271405df397">
                <path d="M-7 -7 L133 -7 L133 51 L-7 51 L-7 -7 Z" />
            </clipPath>
            <clipPath clipPathUnits="userSpaceOnUse" id="d074229c-6587-4d4d-92c8-52550f5d3663">
                <path d="M-7 -7 L133 -7 L133 51 L-7 51 L-7 -7 Z" />
            </clipPath>
            <clipPath clipPathUnits="userSpaceOnUse" id="aae92b6c-8c12-4c77-8082-fd76c7b3438f">
                <path d="M0 0 L0 40 L121 40 L121 0 Z" />
            </clipPath>
            <clipPath clipPathUnits="userSpaceOnUse" id="32b5c067-8244-49f3-82fd-740bedf6f8d6">
                <path d="M-7 -7 L40 -7 L40 51 L-7 51 L-7 -7 Z" />
            </clipPath>
            <clipPath clipPathUnits="userSpaceOnUse" id="3c654061-d1c4-47c4-a193-d5e42104dad1">
                <path d="M-7 -7 L40 -7 L40 51 L-7 51 L-7 -7 Z" />
            </clipPath>
            <clipPath clipPathUnits="userSpaceOnUse" id="ccf77292-89e9-4561-81c1-6b008bbac26e">
                <path d="M-7 -7 L40 -7 L40 51 L-7 51 L-7 -7 Z" />
            </clipPath>
            <clipPath clipPathUnits="userSpaceOnUse" id="83193670-cdda-4e6c-a4ef-ba859d03bf7a">
                <path d="M-7 -7 L40 -7 L40 51 L-7 51 L-7 -7 Z" />
            </clipPath>
            <clipPath clipPathUnits="userSpaceOnUse" id="5d27f14d-1923-4427-a886-04a86a5fd54e">
                <path d="M-7 -7 L133 -7 L133 51 L-7 51 L-7 -7 Z" />
            </clipPath>
            <clipPath clipPathUnits="userSpaceOnUse" id="fb98a150-a4c4-4154-a35f-eb32789667da">
                <path d="M-7 -7 L133 -7 L133 51 L-7 51 L-7 -7 Z" />
            </clipPath>
            <clipPath clipPathUnits="userSpaceOnUse" id="6cf1a7c1-6d52-4d95-bb75-6507e11e2465">
                <path d="M-7 -7 L133 -7 L133 51 L-7 51 L-7 -7 Z" />
            </clipPath>
            <clipPath clipPathUnits="userSpaceOnUse" id="9766ccce-8421-48c4-b4cf-59956a639064">
                <path d="M0 0 L0 40 L121 40 L121 0 Z" />
            </clipPath>
            <clipPath clipPathUnits="userSpaceOnUse" id="c8bf3c59-686d-4e0d-a822-9222ceaead95">
                <path d="M-7 -7 L40 -7 L40 51 L-7 51 L-7 -7 Z" />
            </clipPath>
            <clipPath clipPathUnits="userSpaceOnUse" id="c76be1e9-c05b-414d-b7d4-c7936cb09d85">
                <path d="M-7 -7 L40 -7 L40 51 L-7 51 L-7 -7 Z" />
            </clipPath>
            <clipPath clipPathUnits="userSpaceOnUse" id="d6fa48ba-0a0d-44ab-a5e5-d2dd8f2bd114">
                <path d="M-7 -7 L133 -7 L133 51 L-7 51 L-7 -7 Z" />
            </clipPath>
            <clipPath clipPathUnits="userSpaceOnUse" id="b40189c0-3255-4b24-80d2-6889f90d0cb1">
                <path d="M-7 -7 L133 -7 L133 51 L-7 51 L-7 -7 Z" />
            </clipPath>
            <clipPath clipPathUnits="userSpaceOnUse" id="a61d2a11-8915-4a82-a35e-2a56e505e911">
                <path d="M-7 -7 L133 -7 L133 51 L-7 51 L-7 -7 Z" />
            </clipPath>
            <clipPath clipPathUnits="userSpaceOnUse" id="f7072779-e612-48ed-a38b-f5fa8ca4d85b">
                <path d="M0 0 L0 40 L122 40 L122 0 Z" />
            </clipPath>
            <clipPath clipPathUnits="userSpaceOnUse" id="ec8f8b85-c29e-407c-9fc1-785c9e24ccee">
                <path d="M-7 -7 L40 -7 L40 51 L-7 51 L-7 -7 Z" />
            </clipPath>
            <clipPath clipPathUnits="userSpaceOnUse" id="ad407f09-66fd-4506-bc30-675ad218b70c">
                <path d="M-7 -7 L40 -7 L40 51 L-7 51 L-7 -7 Z" />
            </clipPath>
            <clipPath clipPathUnits="userSpaceOnUse" id="47f37d0d-acf2-4a09-a921-8f67a5693ed7">
                <path d="M-7 -7 L31 -7 L31 31 L-7 31 L-7 -7 Z" />
            </clipPath>
            <clipPath clipPathUnits="userSpaceOnUse" id="72f38a08-874a-4eeb-8b07-29f6ada1bc58">
                <path d="M-7 -7 L31 -7 L31 31 L-7 31 L-7 -7 Z" />
            </clipPath>
            <clipPath clipPathUnits="userSpaceOnUse" id="3123f4c0-cbc5-4bf6-abf3-a1f5dfc45f9d">
                <path d="M-7 -7 L40 -7 L40 51 L-7 51 L-7 -7 Z" />
            </clipPath>
            <clipPath clipPathUnits="userSpaceOnUse" id="61791290-81d5-470f-9fb9-76421fa8d705">
                <path d="M-7 -7 L40 -7 L40 51 L-7 51 L-7 -7 Z" />
            </clipPath>
            <clipPath clipPathUnits="userSpaceOnUse" id="249edd1f-1db1-4c6a-b93e-65be33a2d2b1">
                <path d="M-124 -15 L248 -15 L248 30 L-124 30 L-124 -15 Z" />
            </clipPath>
            <clipPath clipPathUnits="userSpaceOnUse" id="ae9beadd-dbda-4d8d-824c-d74d4e5a9bd5">
                <path d="M-80 -15 L160 -15 L160 30 L-80 30 L-80 -15 Z" />
            </clipPath>
            <clipPath clipPathUnits="userSpaceOnUse" id="b09196fc-c55d-4cdf-9e76-4d31ded9e1b3">
                <path d="M-54 -15 L108 -15 L108 30 L-54 30 L-54 -15 Z" />
            </clipPath>
            <clipPath clipPathUnits="userSpaceOnUse" id="f44dfa14-e165-47e7-8a6d-ba832bb4eed9">
                <path d="M-68 -15 L136 -15 L136 30 L-68 30 L-68 -15 Z" />
            </clipPath>
            <clipPath clipPathUnits="userSpaceOnUse" id="07c54c5d-ccb4-4771-8ad9-4aeb18df766c">
                <path d="M-146 -15 L292 -15 L292 30 L-146 30 L-146 -15 Z" />
            </clipPath>
            <clipPath clipPathUnits="userSpaceOnUse" id="f8037b36-18c7-4a32-9ae7-87e6bb41762c">
                <path d="M0 0 L28 0 L28 63 L0 63 L0 0 Z" />
            </clipPath>
            <clipPath clipPathUnits="userSpaceOnUse" id="082e6e99-e7b5-49c6-be8c-d4b5626c6bee">
                <path d="M0 0 L0 63 L28 63 L28 0 Z" />
            </clipPath>
            <clipPath clipPathUnits="userSpaceOnUse" id="90be1780-fde6-446c-9a77-db3a82a34574">
                <path d="M0 0 L75 0 L75 110 L0 110 L0 0 Z" />
            </clipPath>
            <clipPath clipPathUnits="userSpaceOnUse" id="d8cda818-1926-448c-8b7e-fe6b336a1504">
                <path
                    d="M0 0 L0 76 L32 76 L32 91 L0 91 L0 106 L33 106 L33 110 L75 110 L75 82 L47 82 L47 67 L75 67 L75 0 Z" />
            </clipPath>
            <clipPath clipPathUnits="userSpaceOnUse" id="fec3c38e-0664-4342-ac06-c553ea031175">
                <path d="M0 0 L128 0 L128 75 L0 75 L0 0 Z" />
            </clipPath>
            <clipPath clipPathUnits="userSpaceOnUse" id="dac4fb23-2843-4138-bb5a-30a0924ee44c">
                <path
                    d="M75 19 L75 34 L36 34 L36 19 ZM0 0 L0 28 L21 28 L21 43 L0 43 L0 58 L22 58 L22 73 L0 73 L0 75 L128 75 L128 0 Z" />
            </clipPath>
            <clipPath clipPathUnits="userSpaceOnUse" id="f38a01a4-bf77-412f-95b8-72ea32160484">
                <path d="M0 0 L75 0 L75 118 L0 118 L0 0 Z" />
            </clipPath>
            <clipPath clipPathUnits="userSpaceOnUse" id="5013941b-9c7b-431d-9e43-3aea1fa2fd1f">
                <path
                    d="M0 0 L0 16 L32 16 L32 31 L0 31 L0 46 L33 46 L33 61 L0 61 L0 91 L31 91 L31 106 L0 106 L0 118 L75 118 L75 22 L47 22 L47 7 L75 7 L75 0 Z" />
            </clipPath>
            <clipPath clipPathUnits="userSpaceOnUse" id="bbc7679b-837b-464a-b3a5-ec7f57e78493">
                <path d="M0 0 L25 0 L25 134 L0 134 L0 0 Z" />
            </clipPath>
            <clipPath clipPathUnits="userSpaceOnUse" id="788a46d2-e083-402e-bc66-7cc7c12c9c63">
                <path
                    d="M6 0 L6 14 L0 14 L0 49 L9 49 L9 65 L0 65 L0 134 L16 134 L16 132 L25 132 L25 0 Z" />
            </clipPath>
            <clipPath clipPathUnits="userSpaceOnUse" id="4373026d-3434-4bb6-8729-2afbe5305931">
                <path d="M0 0 L123 0 L123 70 L0 70 L0 0 Z" />
            </clipPath>
            <clipPath clipPathUnits="userSpaceOnUse" id="e5478068-355c-47ba-b1f6-5b8eac552642">
                <path d="M19 0 L19 3 L0 3 L0 33 L17 33 L17 48 L0 48 L0 70 L123 70 L123 0 Z" />
            </clipPath>
            <clipPath clipPathUnits="userSpaceOnUse" id="c6772605-af21-4f42-b904-57a00b159251">
                <path d="M0 0 L45 0 L45 80 L0 80 L0 0 Z" />
            </clipPath>
            <clipPath clipPathUnits="userSpaceOnUse" id="1972055a-c28f-41e2-a0c0-29b46b1c7f93">
                <path d="M0 0 L0 78 L45 78 L45 0 Z" />
            </clipPath>
            <clipPath clipPathUnits="userSpaceOnUse" id="cc1e86a6-49e4-4cfb-8d81-c6bc5572f7fc">
                <path d="M0 0 L143 0 L143 127 L0 127 L0 0 Z" />
            </clipPath>
            <clipPath clipPathUnits="userSpaceOnUse" id="26848872-1191-4a4a-9e22-db02854aeed7">
                <path
                    d="M0 0 L0 105 L57 105 L57 120 L0 120 L0 127 L143 127 L143 68 L114 68 L114 53 L143 53 L143 0 Z" />
            </clipPath>
            <clipPath clipPathUnits="userSpaceOnUse" id="7c56817a-2755-4748-924a-7c492afc289b">
                <path d="M0 0 L159 0 L159 100 L0 100 L0 0 Z" />
            </clipPath>
            <clipPath clipPathUnits="userSpaceOnUse" id="69f9a191-9a13-4084-9aea-1443c611e48d">
                <path
                    d="M96 4 L96 19 L58 19 L58 4 ZM0 0 L0 4 L19 4 L19 20 L0 20 L0 100 L26 100 L26 87 L80 87 L80 100 L159 100 L159 46 L105 46 L105 31 L159 31 L159 0 Z" />
            </clipPath>
            <clipPath clipPathUnits="userSpaceOnUse" id="3bb8a008-53c7-46f5-82bd-537eb91ea69f">
                <path d="M0 0 L28 0 L28 69 L0 69 L0 0 Z" />
            </clipPath>
            <clipPath clipPathUnits="userSpaceOnUse" id="da7c2d31-e444-4767-9447-00ada61d1e6b">
                <path d="M0 0 L0 65 L5 65 L5 69 L28 69 L28 0 Z" />
            </clipPath>
            <clipPath clipPathUnits="userSpaceOnUse" id="eca3cb22-064c-4f16-8890-46088f5332ec">
                <path d="M0 0 L107 0 L107 99 L0 99 L0 0 Z" />
            </clipPath>
            <clipPath clipPathUnits="userSpaceOnUse" id="01298ab3-3624-4fd7-9145-6b0c1110736d">
                <path d="M0 0 L0 99 L107 99 L107 52 L96 52 L96 37 L107 37 L107 0 Z" />
            </clipPath>
            <clipPath clipPathUnits="userSpaceOnUse" id="8f59c252-7e74-455e-a392-dac1968e36a3">
                <path d="M0 0 L25 0 L25 55 L0 55 L0 0 Z" />
            </clipPath>
            <clipPath clipPathUnits="userSpaceOnUse" id="d4354c6a-1396-42d3-8b4c-ad7ba261fe80">
                <path d="M0 0 L0 12 L6 12 L6 27 L0 27 L0 55 L25 55 L25 13 L15 13 L15 0 Z" />
            </clipPath>
            <clipPath clipPathUnits="userSpaceOnUse" id="0c9c9f38-a1bb-4018-b72b-29f4bd4a04fb">
                <path d="M0 0 L26 0 L26 67 L0 67 L0 0 Z" />
            </clipPath>
            <clipPath clipPathUnits="userSpaceOnUse" id="2b98062f-fd86-4c4e-8c82-864c67be310c">
                <path d="M4 0 L4 14 L0 14 L0 20 L8 20 L8 35 L0 35 L0 67 L26 67 L26 0 Z" />
            </clipPath>
            <clipPath clipPathUnits="userSpaceOnUse" id="4a370015-dbc9-4069-ba6c-23be6809ac7c">
                <path d="M0 0 L195 0 L195 294 L0 294 L0 0 Z" />
            </clipPath>
            <clipPath clipPathUnits="userSpaceOnUse" id="af26a258-f8d4-43c5-8ece-9f93fd49d5e5">
                <path
                    d="M115 41 L115 56 L80 56 L80 41 ZM188 71 L188 86 L42 86 L42 71 ZM189 101 L189 116 L154 116 L154 101 ZM187 146 L187 161 L119 161 L119 146 ZM190 196 L190 212 L155 212 L155 196 ZM166 261 L166 277 L131 277 L131 261 ZM0 0 L0 294 L150 294 L150 293 L188 293 L188 294 L195 294 L195 0 L117 0 L117 10 L79 10 L79 0 Z" />
            </clipPath>
            <clipPath clipPathUnits="userSpaceOnUse" id="c74bfdff-af4c-4bd1-a879-463e0cd3f68e">
                <path d="M0 0 L147 0 L147 50 L0 50 L0 0 Z" />
            </clipPath>
            <clipPath clipPathUnits="userSpaceOnUse" id="dcb56d2f-3ded-4f76-8b33-49b21741d0cd">
                <path d="M0 0 L0 7 L3 7 L3 22 L0 22 L0 50 L147 50 L147 0 Z" />
            </clipPath>
            <clipPath clipPathUnits="userSpaceOnUse" id="c491ce3e-21e4-4eec-8885-5102d44a6150">
                <path d="M0 0 L139 0 L139 88 L0 88 L0 0 Z" />
            </clipPath>
            <clipPath clipPathUnits="userSpaceOnUse" id="012d75de-c0d9-4574-8f37-d3c561693486">
                <path
                    d="M80 25 L80 40 L42 40 L42 25 ZM78 71 L78 86 L43 86 L43 71 ZM0 0 L0 7 L86 7 L86 22 L0 22 L0 88 L139 88 L139 0 Z" />
            </clipPath>
            <clipPath clipPathUnits="userSpaceOnUse" id="9abd03fc-191b-4168-ae89-049d2a9cbba2">
                <path d="M0 0 L142 0 L142 61 L0 61 L0 0 Z" />
            </clipPath>
            <clipPath clipPathUnits="userSpaceOnUse" id="8b4cf26e-9e4c-4784-af51-305c37e1cf68">
                <path d="M54 24 L54 39 L19 39 L19 24 ZM0 0 L0 54 L127 54 L127 61 L142 61 L142 0 Z" />
            </clipPath>
            <clipPath clipPathUnits="userSpaceOnUse" id="5ce41b27-dd63-4ca2-b531-05879b52fd6b">
                <path d="M-35 -15 L70 -15 L70 30 L-35 30 L-35 -15 Z" />
            </clipPath>
            <clipPath clipPathUnits="userSpaceOnUse" id="37b1d0d1-70b1-4652-a99a-73ce24c62a1d">
                <path d="M-38 -15 L76 -15 L76 30 L-38 30 L-38 -15 Z" />
            </clipPath>
            <clipPath clipPathUnits="userSpaceOnUse" id="7f261b69-3668-4938-b830-50f6f37ed236">
                <path d="M-35 -16 L70 -16 L70 32 L-35 32 L-35 -16 Z" />
            </clipPath>
            <clipPath clipPathUnits="userSpaceOnUse" id="f8d6306d-d9c7-4bc5-b77d-ed2426cdd660">
                <path d="M-39 -15 L78 -15 L78 30 L-39 30 L-39 -15 Z" />
            </clipPath>
        </defs>
        <g fill="white" fill-opacity="1" stroke="white" stroke-opacity="1"
            text-rendering="geometricPrecision">
            <rect height="556" stroke="none" width="454" x="0" y="0" />
        </g>
        <g fill="rgb(243,231,248)" fill-opacity="1" font-family="sans-serif" font-size="11px"
            image-rendering="optimizeQuality" stroke="rgb(243,231,248)" stroke-opacity="1"
            text-rendering="geometricPrecision" transform="translate(255,32.7143)">
            <path clip-path="url(#91185ed5-4c49-4df9-9a44-c0c09eed0f6e)"
                d="M33 0 C27.4772 0 23 4.4772 23 10 L23 21.4583 L23 21.4583 L0 32 L23 40.625 L23 53 C23 58.5228 27.4772 63 33 63 L173 63 C178.5228 63 183 58.5228 183 53 L183 10 C183 4.4772 178.5228 0 173 0 Z"
                stroke="none" />
        </g>
        <g fill="rgb(204,147,225)" fill-opacity="1" font-family="sans-serif" font-size="11px"
            image-rendering="optimizeQuality" stroke="rgb(204,147,225)" stroke-linecap="butt"
            stroke-linejoin="bevel" stroke-miterlimit="0" stroke-opacity="1"
            text-rendering="geometricPrecision" transform="translate(255,32.7143)">
            <path clip-path="url(#91185ed5-4c49-4df9-9a44-c0c09eed0f6e)"
                d="M33 0 C27.4772 0 23 4.4772 23 10 L23 21.4583 L23 21.4583 L0 32 L23 40.625 L23 53 C23 58.5228 27.4772 63 33 63 L173 63 C178.5228 63 183 58.5228 183 53 L183 10 C183 4.4772 178.5228 0 173 0 Z"
                fill="none" />
        </g>
        <g fill="black" fill-opacity="1" font-family="'Tahoma'" font-size="11px"
            image-rendering="optimizeQuality" stroke="black" stroke-opacity="1"
            text-rendering="geometricPrecision" transform="translate(283,37.7143)">
            <path clip-path="url(#a3aae0b6-8860-4bf1-85f2-2c5a4ef35d4e)"
                d="M2.9844 14.4189 L6.0156 6.5439 L7.125 6.5439 L10.3594 14.4189 L9.1719 14.4189 L8.25 12.0283 L4.9531 12.0283 L4.0938 14.4189 L2.9844 14.4189 ZM5.25 11.1846 L7.9219 11.1846 L7.1094 8.9971 Q6.7344 8.0127 6.5469 7.3721 Q6.3906 8.1221 6.125 8.8721 L5.25 11.1846 ZM11.7188 14.4189 L11.7188 8.7158 L12.5938 8.7158 L12.5938 9.5283 Q13.2188 8.5908 14.4062 8.5908 Q14.9219 8.5908 15.3594 8.7783 Q15.7969 8.9502 16 9.2627 Q16.2188 9.5596 16.3125 9.9658 Q16.3594 10.2471 16.3594 10.9189 L16.3594 14.4189 L15.3906 14.4189 L15.3906 10.9502 Q15.3906 10.3564 15.2812 10.0752 Q15.1719 9.7783 14.875 9.6064 Q14.5938 9.4189 14.2031 9.4189 Q13.5938 9.4189 13.1406 9.8096 Q12.6875 10.2002 12.6875 11.3096 L12.6875 14.4189 L11.7188 14.4189 ZM24.4688 14.4189 L24.4688 13.5752 Q23.7969 14.5439 22.6562 14.5439 Q22.1562 14.5439 21.7031 14.3564 Q21.2656 14.1533 21.0469 13.8721 Q20.8438 13.5752 20.7656 13.1533 Q20.7031 12.8721 20.7031 12.2471 L20.7031 8.7158 L21.6719 8.7158 L21.6719 11.8721 Q21.6719 12.6377 21.7344 12.9033 Q21.8281 13.2783 22.1094 13.4971 Q22.4062 13.7158 22.8438 13.7158 Q23.2812 13.7158 23.6562 13.4971 Q24.0469 13.2627 24.2031 12.8877 Q24.3594 12.4971 24.3594 11.7783 L24.3594 8.7158 L25.3281 8.7158 L25.3281 14.4189 L24.4688 14.4189 ZM26.7188 14.4189 L26.7188 8.7158 L27.5938 8.7158 L27.5938 9.5283 Q28.2188 8.5908 29.4062 8.5908 Q29.9219 8.5908 30.3594 8.7783 Q30.7969 8.9502 31 9.2627 Q31.2188 9.5596 31.3125 9.9658 Q31.3594 10.2471 31.3594 10.9189 L31.3594 14.4189 L30.3906 14.4189 L30.3906 10.9502 Q30.3906 10.3564 30.2812 10.0752 Q30.1719 9.7783 29.875 9.6064 Q29.5938 9.4189 29.2031 9.4189 Q28.5938 9.4189 28.1406 9.8096 Q27.6875 10.2002 27.6875 11.3096 L27.6875 14.4189 L26.7188 14.4189 ZM36.4531 13.7158 Q35.9062 14.1689 35.4062 14.3564 Q34.9219 14.5439 34.3438 14.5439 Q33.4062 14.5439 32.8906 14.0908 Q32.3906 13.6221 32.3906 12.9189 Q32.3906 12.4971 32.5781 12.1533 Q32.7812 11.8096 33.0781 11.6064 Q33.3906 11.3877 33.7812 11.2783 Q34.0625 11.2002 34.6406 11.1377 Q35.8125 10.9971 36.3594 10.7939 Q36.375 10.6064 36.375 10.5439 Q36.375 9.9502 36.0938 9.7158 Q35.7344 9.3877 35 9.3877 Q34.3125 9.3877 33.9844 9.6221 Q33.6719 9.8564 33.5156 10.4658 L32.5625 10.3408 Q32.6875 9.7314 32.9844 9.3564 Q33.2812 8.9814 33.8438 8.7939 Q34.4062 8.5908 35.1406 8.5908 Q35.875 8.5908 36.3281 8.7627 Q36.7812 8.9346 36.9844 9.2002 Q37.2031 9.4502 37.2969 9.8408 Q37.3438 10.0908 37.3438 10.7471 L37.3438 12.0283 Q37.3438 13.3721 37.4062 13.7314 Q37.4688 14.0908 37.6562 14.4189 L36.6406 14.4189 Q36.4844 14.1221 36.4531 13.7158 ZM36.3594 11.5596 Q35.8438 11.7783 34.7812 11.9189 Q34.1875 12.0127 33.9375 12.1221 Q33.7031 12.2158 33.5625 12.4346 Q33.4219 12.6377 33.4219 12.8877 Q33.4219 13.2783 33.7188 13.5439 Q34.0156 13.7939 34.5781 13.7939 Q35.1406 13.7939 35.5625 13.5439 Q36 13.2939 36.2188 12.8721 Q36.3594 12.5439 36.3594 11.9033 L36.3594 11.5596 ZM42.4688 14.4189 L42.4688 13.5752 Q41.7969 14.5439 40.6562 14.5439 Q40.1562 14.5439 39.7031 14.3564 Q39.2656 14.1533 39.0469 13.8721 Q38.8438 13.5752 38.7656 13.1533 Q38.7031 12.8721 38.7031 12.2471 L38.7031 8.7158 L39.6719 8.7158 L39.6719 11.8721 Q39.6719 12.6377 39.7344 12.9033 Q39.8281 13.2783 40.1094 13.4971 Q40.4062 13.7158 40.8438 13.7158 Q41.2812 13.7158 41.6562 13.4971 Q42.0469 13.2627 42.2031 12.8877 Q42.3594 12.4971 42.3594 11.7783 L42.3594 8.7158 L43.3281 8.7158 L43.3281 14.4189 L42.4688 14.4189 ZM46.8438 13.5596 L46.9688 14.4033 Q46.5625 14.4971 46.25 14.4971 Q45.7188 14.4971 45.4219 14.3252 Q45.1406 14.1533 45.0156 13.8877 Q44.9062 13.6221 44.9062 12.7471 L44.9062 9.4658 L44.1875 9.4658 L44.1875 8.7158 L44.9062 8.7158 L44.9062 7.3096 L45.8594 6.7158 L45.8594 8.7158 L46.8438 8.7158 L46.8438 9.4658 L45.8594 9.4658 L45.8594 12.8096 Q45.8594 13.2158 45.9062 13.3408 Q45.9688 13.4502 46.0781 13.5283 Q46.2031 13.5908 46.4062 13.5908 Q46.5781 13.5908 46.8438 13.5596 ZM47.7188 14.4189 L47.7188 6.5439 L48.6875 6.5439 L48.6875 9.3721 Q49.375 8.5908 50.4062 8.5908 Q51.0312 8.5908 51.5 8.8408 Q51.9688 9.0908 52.1719 9.5283 Q52.375 9.9658 52.375 10.8096 L52.375 14.4189 L51.4062 14.4189 L51.4062 10.8096 Q51.4062 10.0752 51.0938 9.7471 Q50.7812 9.4189 50.2031 9.4189 Q49.7656 9.4189 49.3906 9.6377 Q49.0156 9.8564 48.8438 10.2471 Q48.6875 10.6221 48.6875 11.2939 L48.6875 14.4189 L47.7188 14.4189 ZM53.3594 11.5596 Q53.3594 9.9814 54.25 9.2158 Q54.9844 8.5908 56.0469 8.5908 Q57.2188 8.5908 57.9531 9.3564 Q58.7031 10.1221 58.7031 11.4814 Q58.7031 12.5908 58.375 13.2314 Q58.0469 13.8564 57.4062 14.2002 Q56.7812 14.5439 56.0469 14.5439 Q54.8438 14.5439 54.0938 13.7783 Q53.3594 13.0127 53.3594 11.5596 ZM54.3594 11.5596 Q54.3594 12.6689 54.8281 13.2158 Q55.3125 13.7471 56.0469 13.7471 Q56.7656 13.7471 57.2344 13.2002 Q57.7188 12.6533 57.7188 11.5283 Q57.7188 10.4814 57.2344 9.9346 Q56.75 9.3877 56.0469 9.3877 Q55.3125 9.3877 54.8281 9.9346 Q54.3594 10.4658 54.3594 11.5596 ZM59.7188 14.4189 L59.7188 8.7158 L60.5781 8.7158 L60.5781 9.5752 Q60.9219 8.9658 61.2031 8.7783 Q61.4844 8.5908 61.8125 8.5908 Q62.3125 8.5908 62.8125 8.9033 L62.4844 9.7939 Q62.125 9.5908 61.7656 9.5908 Q61.4531 9.5908 61.2031 9.7783 Q60.9531 9.9658 60.8438 10.3096 Q60.6875 10.8252 60.6875 11.4346 L60.6875 14.4189 L59.7188 14.4189 ZM63.7344 7.6533 L63.7344 6.5439 L64.7031 6.5439 L64.7031 7.6533 L63.7344 7.6533 ZM63.7344 14.4189 L63.7344 8.7158 L64.7031 8.7158 L64.7031 14.4189 L63.7344 14.4189 ZM65.2188 14.4189 L65.2188 13.6377 L68.8438 9.4658 Q68.2344 9.4971 67.75 9.4971 L65.4375 9.4971 L65.4375 8.7158 L70.0938 8.7158 L70.0938 9.3564 L67 12.9814 L66.4062 13.6377 Q67.0625 13.5908 67.625 13.5908 L70.2656 13.5908 L70.2656 14.4189 L65.2188 14.4189 ZM75.625 12.5752 L76.625 12.7002 Q76.3906 13.5752 75.75 14.0596 Q75.1094 14.5439 74.125 14.5439 Q72.875 14.5439 72.1406 13.7783 Q71.4062 13.0127 71.4062 11.6221 Q71.4062 10.1689 72.1406 9.3877 Q72.8906 8.5908 74.0625 8.5908 Q75.2188 8.5908 75.9375 9.3721 Q76.6562 10.1377 76.6562 11.5596 Q76.6562 11.6377 76.6562 11.8096 L72.4062 11.8096 Q72.4531 12.7471 72.9219 13.2471 Q73.4062 13.7471 74.125 13.7471 Q74.6562 13.7471 75.0312 13.4814 Q75.4062 13.2002 75.625 12.5752 ZM72.4531 11.0127 L75.6406 11.0127 Q75.5781 10.2939 75.2812 9.9346 Q74.8125 9.3877 74.0781 9.3877 Q73.4062 9.3877 72.9531 9.8408 Q72.5 10.2783 72.4531 11.0127 ZM81.4219 14.4189 L81.4219 13.7002 Q80.8906 14.5439 79.8281 14.5439 Q79.1562 14.5439 78.5781 14.1689 Q78 13.7939 77.6875 13.1221 Q77.375 12.4502 77.375 11.5752 Q77.375 10.7158 77.6562 10.0283 Q77.9531 9.3252 78.5156 8.9658 Q79.0781 8.5908 79.7812 8.5908 Q80.2969 8.5908 80.7031 8.8096 Q81.1094 9.0283 81.3594 9.3721 L81.3594 6.5439 L82.3281 6.5439 L82.3281 14.4189 L81.4219 14.4189 ZM78.375 11.5752 Q78.375 12.6689 78.8281 13.2158 Q79.2969 13.7471 79.9219 13.7471 Q80.5625 13.7471 81 13.2314 Q81.4375 12.7158 81.4375 11.6533 Q81.4375 10.4814 80.9844 9.9346 Q80.5469 9.3877 79.875 9.3877 Q79.2344 9.3877 78.7969 9.9189 Q78.375 10.4346 78.375 11.5752 ZM90.4688 14.4189 L90.4688 13.5752 Q89.7969 14.5439 88.6562 14.5439 Q88.1562 14.5439 87.7031 14.3564 Q87.2656 14.1533 87.0469 13.8721 Q86.8438 13.5752 86.7656 13.1533 Q86.7031 12.8721 86.7031 12.2471 L86.7031 8.7158 L87.6719 8.7158 L87.6719 11.8721 Q87.6719 12.6377 87.7344 12.9033 Q87.8281 13.2783 88.1094 13.4971 Q88.4062 13.7158 88.8438 13.7158 Q89.2812 13.7158 89.6562 13.4971 Q90.0469 13.2627 90.2031 12.8877 Q90.3594 12.4971 90.3594 11.7783 L90.3594 8.7158 L91.3281 8.7158 L91.3281 14.4189 L90.4688 14.4189 ZM92.3438 12.7158 L93.2969 12.5596 Q93.375 13.1377 93.7344 13.4502 Q94.1094 13.7471 94.7656 13.7471 Q95.4375 13.7471 95.75 13.4814 Q96.0781 13.2158 96.0781 12.8408 Q96.0781 12.5127 95.7969 12.3252 Q95.5938 12.2002 94.8125 11.9971 Q93.75 11.7314 93.3281 11.5439 Q92.9219 11.3408 92.7031 10.9971 Q92.5 10.6533 92.5 10.2314 Q92.5 9.8408 92.6719 9.5283 Q92.8438 9.2002 93.1562 8.9814 Q93.375 8.8096 93.7656 8.7002 Q94.1562 8.5908 94.5938 8.5908 Q95.2656 8.5908 95.7656 8.7783 Q96.2812 8.9658 96.5156 9.3096 Q96.7656 9.6377 96.8594 10.1846 L95.9219 10.3096 Q95.8438 9.8721 95.5312 9.6377 Q95.2344 9.3877 94.6719 9.3877 Q94 9.3877 93.7188 9.6064 Q93.4375 9.8252 93.4375 10.1221 Q93.4375 10.3096 93.5469 10.4502 Q93.6719 10.6064 93.9219 10.7158 Q94.0625 10.7627 94.7812 10.9658 Q95.7969 11.2314 96.2031 11.4033 Q96.6094 11.5752 96.8438 11.9189 Q97.0781 12.2471 97.0781 12.7471 Q97.0781 13.2314 96.7969 13.6533 Q96.5156 14.0752 95.9844 14.3096 Q95.4531 14.5439 94.7812 14.5439 Q93.6719 14.5439 93.0781 14.0908 Q92.5 13.6221 92.3438 12.7158 ZM102.625 12.5752 L103.625 12.7002 Q103.3906 13.5752 102.75 14.0596 Q102.1094 14.5439 101.125 14.5439 Q99.875 14.5439 99.1406 13.7783 Q98.4062 13.0127 98.4062 11.6221 Q98.4062 10.1689 99.1406 9.3877 Q99.8906 8.5908 101.0625 8.5908 Q102.2188 8.5908 102.9375 9.3721 Q103.6562 10.1377 103.6562 11.5596 Q103.6562 11.6377 103.6562 11.8096 L99.4062 11.8096 Q99.4531 12.7471 99.9219 13.2471 Q100.4062 13.7471 101.125 13.7471 Q101.6562 13.7471 102.0312 13.4814 Q102.4062 13.2002 102.625 12.5752 ZM99.4531 11.0127 L102.6406 11.0127 Q102.5781 10.2939 102.2812 9.9346 Q101.8125 9.3877 101.0781 9.3877 Q100.4062 9.3877 99.9531 9.8408 Q99.5 10.2783 99.4531 11.0127 ZM104.7188 14.4189 L104.7188 8.7158 L105.5781 8.7158 L105.5781 9.5752 Q105.9219 8.9658 106.2031 8.7783 Q106.4844 8.5908 106.8125 8.5908 Q107.3125 8.5908 107.8125 8.9033 L107.4844 9.7939 Q107.125 9.5908 106.7656 9.5908 Q106.4531 9.5908 106.2031 9.7783 Q105.9531 9.9658 105.8438 10.3096 Q105.6875 10.8252 105.6875 11.4346 L105.6875 14.4189 L104.7188 14.4189 ZM115.4531 12.3252 L116.3906 12.4502 Q116.25 13.4346 115.5938 13.9971 Q114.9531 14.5439 114.0312 14.5439 Q112.8594 14.5439 112.1406 13.7783 Q111.4375 13.0127 111.4375 11.5908 Q111.4375 10.6689 111.7344 9.9814 Q112.0469 9.2783 112.6719 8.9346 Q113.2969 8.5908 114.0312 8.5908 Q114.9531 8.5908 115.5469 9.0596 Q116.1406 9.5283 116.3125 10.3877 L115.3594 10.5283 Q115.2344 9.9658 114.8906 9.6846 Q114.5469 9.3877 114.0625 9.3877 Q113.3438 9.3877 112.875 9.9189 Q112.4219 10.4346 112.4219 11.5596 Q112.4219 12.7158 112.8594 13.2314 Q113.2969 13.7471 114.0156 13.7471 Q114.5781 13.7471 114.9531 13.4033 Q115.3438 13.0596 115.4531 12.3252 ZM121.4531 13.7158 Q120.9062 14.1689 120.4062 14.3564 Q119.9219 14.5439 119.3438 14.5439 Q118.4062 14.5439 117.8906 14.0908 Q117.3906 13.6221 117.3906 12.9189 Q117.3906 12.4971 117.5781 12.1533 Q117.7812 11.8096 118.0781 11.6064 Q118.3906 11.3877 118.7812 11.2783 Q119.0625 11.2002 119.6406 11.1377 Q120.8125 10.9971 121.3594 10.7939 Q121.375 10.6064 121.375 10.5439 Q121.375 9.9502 121.0938 9.7158 Q120.7344 9.3877 120 9.3877 Q119.3125 9.3877 118.9844 9.6221 Q118.6719 9.8564 118.5156 10.4658 L117.5625 10.3408 Q117.6875 9.7314 117.9844 9.3564 Q118.2812 8.9814 118.8438 8.7939 Q119.4062 8.5908 120.1406 8.5908 Q120.875 8.5908 121.3281 8.7627 Q121.7812 8.9346 121.9844 9.2002 Q122.2031 9.4502 122.2969 9.8408 Q122.3438 10.0908 122.3438 10.7471 L122.3438 12.0283 Q122.3438 13.3721 122.4062 13.7314 Q122.4688 14.0908 122.6562 14.4189 L121.6406 14.4189 Q121.4844 14.1221 121.4531 13.7158 ZM121.3594 11.5596 Q120.8438 11.7783 119.7812 11.9189 Q119.1875 12.0127 118.9375 12.1221 Q118.7031 12.2158 118.5625 12.4346 Q118.4219 12.6377 118.4219 12.8877 Q118.4219 13.2783 118.7188 13.5439 Q119.0156 13.7939 119.5781 13.7939 Q120.1406 13.7939 120.5625 13.5439 Q121 13.2939 121.2188 12.8721 Q121.3594 12.5439 121.3594 11.9033 L121.3594 11.5596 ZM123.7188 14.4189 L123.7188 8.7158 L124.5938 8.7158 L124.5938 9.5283 Q125.2188 8.5908 126.4062 8.5908 Q126.9219 8.5908 127.3594 8.7783 Q127.7969 8.9502 128 9.2627 Q128.2188 9.5596 128.3125 9.9658 Q128.3594 10.2471 128.3594 10.9189 L128.3594 14.4189 L127.3906 14.4189 L127.3906 10.9502 Q127.3906 10.3564 127.2812 10.0752 Q127.1719 9.7783 126.875 9.6064 Q126.5938 9.4189 126.2031 9.4189 Q125.5938 9.4189 125.1406 9.8096 Q124.6875 10.2002 124.6875 11.3096 L124.6875 14.4189 L123.7188 14.4189 Z"
                stroke="none" />
            <path clip-path="url(#a3aae0b6-8860-4bf1-85f2-2c5a4ef35d4e)"
                d="M5.3125 29.4189 L3.1406 23.7158 L4.1562 23.7158 L5.3906 27.1377 Q5.5781 27.6846 5.75 28.2783 Q5.875 27.8252 6.1094 27.2002 L7.375 23.7158 L8.375 23.7158 L6.2188 29.4189 L5.3125 29.4189 ZM9.7344 22.6533 L9.7344 21.5439 L10.7031 21.5439 L10.7031 22.6533 L9.7344 22.6533 ZM9.7344 29.4189 L9.7344 23.7158 L10.7031 23.7158 L10.7031 29.4189 L9.7344 29.4189 ZM15.625 27.5752 L16.625 27.7002 Q16.3906 28.5752 15.75 29.0596 Q15.1094 29.5439 14.125 29.5439 Q12.875 29.5439 12.1406 28.7783 Q11.4062 28.0127 11.4062 26.6221 Q11.4062 25.1689 12.1406 24.3877 Q12.8906 23.5908 14.0625 23.5908 Q15.2188 23.5908 15.9375 24.3721 Q16.6562 25.1377 16.6562 26.5596 Q16.6562 26.6377 16.6562 26.8096 L12.4062 26.8096 Q12.4531 27.7471 12.9219 28.2471 Q13.4062 28.7471 14.125 28.7471 Q14.6562 28.7471 15.0312 28.4814 Q15.4062 28.2002 15.625 27.5752 ZM12.4531 26.0127 L15.6406 26.0127 Q15.5781 25.2939 15.2812 24.9346 Q14.8125 24.3877 14.0781 24.3877 Q13.4062 24.3877 12.9531 24.8408 Q12.5 25.2783 12.4531 26.0127 ZM18.7812 29.4189 L17.0312 23.7158 L18.0312 23.7158 L18.9375 27.0127 L19.2812 28.2314 Q19.2969 28.1377 19.5781 27.0596 L20.4844 23.7158 L21.4688 23.7158 L22.3281 27.0283 L22.6094 28.1064 L22.9375 27.0127 L23.9219 23.7158 L24.8594 23.7158 L23.0781 29.4189 L22.0781 29.4189 L21.1562 25.9971 L20.9375 25.0283 L19.7812 29.4189 L18.7812 29.4189 ZM34.4531 28.7158 Q33.9062 29.1689 33.4062 29.3564 Q32.9219 29.5439 32.3438 29.5439 Q31.4062 29.5439 30.8906 29.0908 Q30.3906 28.6221 30.3906 27.9189 Q30.3906 27.4971 30.5781 27.1533 Q30.7812 26.8096 31.0781 26.6064 Q31.3906 26.3877 31.7812 26.2783 Q32.0625 26.2002 32.6406 26.1377 Q33.8125 25.9971 34.3594 25.7939 Q34.375 25.6064 34.375 25.5439 Q34.375 24.9502 34.0938 24.7158 Q33.7344 24.3877 33 24.3877 Q32.3125 24.3877 31.9844 24.6221 Q31.6719 24.8564 31.5156 25.4658 L30.5625 25.3408 Q30.6875 24.7314 30.9844 24.3564 Q31.2812 23.9814 31.8438 23.7939 Q32.4062 23.5908 33.1406 23.5908 Q33.875 23.5908 34.3281 23.7627 Q34.7812 23.9346 34.9844 24.2002 Q35.2031 24.4502 35.2969 24.8408 Q35.3438 25.0908 35.3438 25.7471 L35.3438 27.0283 Q35.3438 28.3721 35.4062 28.7314 Q35.4688 29.0908 35.6562 29.4189 L34.6406 29.4189 Q34.4844 29.1221 34.4531 28.7158 ZM34.3594 26.5596 Q33.8438 26.7783 32.7812 26.9189 Q32.1875 27.0127 31.9375 27.1221 Q31.7031 27.2158 31.5625 27.4346 Q31.4219 27.6377 31.4219 27.8877 Q31.4219 28.2783 31.7188 28.5439 Q32.0156 28.7939 32.5781 28.7939 Q33.1406 28.7939 33.5625 28.5439 Q34 28.2939 34.2188 27.8721 Q34.3594 27.5439 34.3594 26.9033 L34.3594 26.5596 ZM36.7031 29.4189 L36.7031 21.5439 L37.6719 21.5439 L37.6719 29.4189 L36.7031 29.4189 ZM38.7031 29.4189 L38.7031 21.5439 L39.6719 21.5439 L39.6719 29.4189 L38.7031 29.4189 ZM47.4531 27.3252 L48.3906 27.4502 Q48.25 28.4346 47.5938 28.9971 Q46.9531 29.5439 46.0312 29.5439 Q44.8594 29.5439 44.1406 28.7783 Q43.4375 28.0127 43.4375 26.5908 Q43.4375 25.6689 43.7344 24.9814 Q44.0469 24.2783 44.6719 23.9346 Q45.2969 23.5908 46.0312 23.5908 Q46.9531 23.5908 47.5469 24.0596 Q48.1406 24.5283 48.3125 25.3877 L47.3594 25.5283 Q47.2344 24.9658 46.8906 24.6846 Q46.5469 24.3877 46.0625 24.3877 Q45.3438 24.3877 44.875 24.9189 Q44.4219 25.4346 44.4219 26.5596 Q44.4219 27.7158 44.8594 28.2314 Q45.2969 28.7471 46.0156 28.7471 Q46.5781 28.7471 46.9531 28.4033 Q47.3438 28.0596 47.4531 27.3252 ZM49.7188 29.4189 L49.7188 21.5439 L50.6875 21.5439 L50.6875 24.3721 Q51.375 23.5908 52.4062 23.5908 Q53.0312 23.5908 53.5 23.8408 Q53.9688 24.0908 54.1719 24.5283 Q54.375 24.9658 54.375 25.8096 L54.375 29.4189 L53.4062 29.4189 L53.4062 25.8096 Q53.4062 25.0752 53.0938 24.7471 Q52.7812 24.4189 52.2031 24.4189 Q51.7656 24.4189 51.3906 24.6377 Q51.0156 24.8564 50.8438 25.2471 Q50.6875 25.6221 50.6875 26.2939 L50.6875 29.4189 L49.7188 29.4189 ZM59.625 27.5752 L60.625 27.7002 Q60.3906 28.5752 59.75 29.0596 Q59.1094 29.5439 58.125 29.5439 Q56.875 29.5439 56.1406 28.7783 Q55.4062 28.0127 55.4062 26.6221 Q55.4062 25.1689 56.1406 24.3877 Q56.8906 23.5908 58.0625 23.5908 Q59.2188 23.5908 59.9375 24.3721 Q60.6562 25.1377 60.6562 26.5596 Q60.6562 26.6377 60.6562 26.8096 L56.4062 26.8096 Q56.4531 27.7471 56.9219 28.2471 Q57.4062 28.7471 58.125 28.7471 Q58.6562 28.7471 59.0312 28.4814 Q59.4062 28.2002 59.625 27.5752 ZM56.4531 26.0127 L59.6406 26.0127 Q59.5781 25.2939 59.2812 24.9346 Q58.8125 24.3877 58.0781 24.3877 Q57.4062 24.3877 56.9531 24.8408 Q56.5 25.2783 56.4531 26.0127 ZM65.625 27.5752 L66.625 27.7002 Q66.3906 28.5752 65.75 29.0596 Q65.1094 29.5439 64.125 29.5439 Q62.875 29.5439 62.1406 28.7783 Q61.4062 28.0127 61.4062 26.6221 Q61.4062 25.1689 62.1406 24.3877 Q62.8906 23.5908 64.0625 23.5908 Q65.2188 23.5908 65.9375 24.3721 Q66.6562 25.1377 66.6562 26.5596 Q66.6562 26.6377 66.6562 26.8096 L62.4062 26.8096 Q62.4531 27.7471 62.9219 28.2471 Q63.4062 28.7471 64.125 28.7471 Q64.6562 28.7471 65.0312 28.4814 Q65.4062 28.2002 65.625 27.5752 ZM62.4531 26.0127 L65.6406 26.0127 Q65.5781 25.2939 65.2812 24.9346 Q64.8125 24.3877 64.0781 24.3877 Q63.4062 24.3877 62.9531 24.8408 Q62.5 25.2783 62.4531 26.0127 ZM67.7188 31.6064 L67.7188 23.7158 L68.6094 23.7158 L68.6094 24.4502 Q68.9219 24.0283 69.3125 23.8096 Q69.7031 23.5908 70.2656 23.5908 Q70.9844 23.5908 71.5469 23.9658 Q72.1094 24.3408 72.3906 25.0283 Q72.6719 25.7002 72.6719 26.5283 Q72.6719 27.4033 72.3594 28.1064 Q72.0469 28.7939 71.4375 29.1689 Q70.8438 29.5439 70.1875 29.5439 Q69.7031 29.5439 69.3125 29.3408 Q68.9375 29.1377 68.6875 28.8252 L68.6875 31.6064 L67.7188 31.6064 ZM68.5938 26.6064 Q68.5938 27.7002 69.0469 28.2314 Q69.5 28.7471 70.125 28.7471 Q70.7656 28.7471 71.2188 28.2158 Q71.6875 27.6689 71.6875 26.5127 Q71.6875 25.4346 71.2344 24.8877 Q70.7969 24.3408 70.1719 24.3408 Q69.5469 24.3408 69.0625 24.9189 Q68.5938 25.4971 68.5938 26.6064 ZM73.3438 27.7158 L74.2969 27.5596 Q74.375 28.1377 74.7344 28.4502 Q75.1094 28.7471 75.7656 28.7471 Q76.4375 28.7471 76.75 28.4814 Q77.0781 28.2158 77.0781 27.8408 Q77.0781 27.5127 76.7969 27.3252 Q76.5938 27.2002 75.8125 26.9971 Q74.75 26.7314 74.3281 26.5439 Q73.9219 26.3408 73.7031 25.9971 Q73.5 25.6533 73.5 25.2314 Q73.5 24.8408 73.6719 24.5283 Q73.8438 24.2002 74.1562 23.9814 Q74.375 23.8096 74.7656 23.7002 Q75.1562 23.5908 75.5938 23.5908 Q76.2656 23.5908 76.7656 23.7783 Q77.2812 23.9658 77.5156 24.3096 Q77.7656 24.6377 77.8594 25.1846 L76.9219 25.3096 Q76.8438 24.8721 76.5312 24.6377 Q76.2344 24.3877 75.6719 24.3877 Q75 24.3877 74.7188 24.6064 Q74.4375 24.8252 74.4375 25.1221 Q74.4375 25.3096 74.5469 25.4502 Q74.6719 25.6064 74.9219 25.7158 Q75.0625 25.7627 75.7812 25.9658 Q76.7969 26.2314 77.2031 26.4033 Q77.6094 26.5752 77.8438 26.9189 Q78.0781 27.2471 78.0781 27.7471 Q78.0781 28.2314 77.7969 28.6533 Q77.5156 29.0752 76.9844 29.3096 Q76.4531 29.5439 75.7812 29.5439 Q74.6719 29.5439 74.0781 29.0908 Q73.5 28.6221 73.3438 27.7158 ZM79.9844 29.4189 L79.9844 28.3252 L81.0781 28.3252 L81.0781 29.4189 Q81.0781 30.0283 80.8594 30.4033 Q80.6562 30.7783 80.1875 30.9814 L79.9062 30.5596 Q80.2188 30.4346 80.3594 30.1689 Q80.5156 29.9033 80.5312 29.4189 L79.9844 29.4189 ZM86.6094 29.4189 L85.7188 29.4189 L85.7188 21.5439 L86.6875 21.5439 L86.6875 24.3564 Q87.2969 23.5908 88.25 23.5908 Q88.7812 23.5908 89.25 23.8096 Q89.7188 24.0127 90.0156 24.4033 Q90.3281 24.7783 90.5 25.3252 Q90.6719 25.8564 90.6719 26.4814 Q90.6719 27.9502 89.9375 28.7471 Q89.2188 29.5439 88.2031 29.5439 Q87.1875 29.5439 86.6094 28.7002 L86.6094 29.4189 ZM86.6094 26.5283 Q86.6094 27.5439 86.8906 28.0127 Q87.3438 28.7471 88.125 28.7471 Q88.75 28.7471 89.2031 28.2002 Q89.6719 27.6533 89.6719 26.5596 Q89.6719 25.4502 89.2344 24.9189 Q88.7969 24.3877 88.1562 24.3877 Q87.5312 24.3877 87.0625 24.9346 Q86.6094 25.4814 86.6094 26.5283 ZM95.4688 29.4189 L95.4688 28.5752 Q94.7969 29.5439 93.6562 29.5439 Q93.1562 29.5439 92.7031 29.3564 Q92.2656 29.1533 92.0469 28.8721 Q91.8438 28.5752 91.7656 28.1533 Q91.7031 27.8721 91.7031 27.2471 L91.7031 23.7158 L92.6719 23.7158 L92.6719 26.8721 Q92.6719 27.6377 92.7344 27.9033 Q92.8281 28.2783 93.1094 28.4971 Q93.4062 28.7158 93.8438 28.7158 Q94.2812 28.7158 94.6562 28.4971 Q95.0469 28.2627 95.2031 27.8877 Q95.3594 27.4971 95.3594 26.7783 L95.3594 23.7158 L96.3281 23.7158 L96.3281 29.4189 L95.4688 29.4189 ZM99.8438 28.5596 L99.9688 29.4033 Q99.5625 29.4971 99.25 29.4971 Q98.7188 29.4971 98.4219 29.3252 Q98.1406 29.1533 98.0156 28.8877 Q97.9062 28.6221 97.9062 27.7471 L97.9062 24.4658 L97.1875 24.4658 L97.1875 23.7158 L97.9062 23.7158 L97.9062 22.3096 L98.8594 21.7158 L98.8594 23.7158 L99.8438 23.7158 L99.8438 24.4658 L98.8594 24.4658 L98.8594 27.8096 Q98.8594 28.2158 98.9062 28.3408 Q98.9688 28.4502 99.0781 28.5283 Q99.2031 28.5908 99.4062 28.5908 Q99.5781 28.5908 99.8438 28.5596 ZM103.7344 22.6533 L103.7344 21.5439 L104.7031 21.5439 L104.7031 22.6533 L103.7344 22.6533 ZM103.7344 29.4189 L103.7344 23.7158 L104.7031 23.7158 L104.7031 29.4189 L103.7344 29.4189 ZM105.3438 27.7158 L106.2969 27.5596 Q106.375 28.1377 106.7344 28.4502 Q107.1094 28.7471 107.7656 28.7471 Q108.4375 28.7471 108.75 28.4814 Q109.0781 28.2158 109.0781 27.8408 Q109.0781 27.5127 108.7969 27.3252 Q108.5938 27.2002 107.8125 26.9971 Q106.75 26.7314 106.3281 26.5439 Q105.9219 26.3408 105.7031 25.9971 Q105.5 25.6533 105.5 25.2314 Q105.5 24.8408 105.6719 24.5283 Q105.8438 24.2002 106.1562 23.9814 Q106.375 23.8096 106.7656 23.7002 Q107.1562 23.5908 107.5938 23.5908 Q108.2656 23.5908 108.7656 23.7783 Q109.2812 23.9658 109.5156 24.3096 Q109.7656 24.6377 109.8594 25.1846 L108.9219 25.3096 Q108.8438 24.8721 108.5312 24.6377 Q108.2344 24.3877 107.6719 24.3877 Q107 24.3877 106.7188 24.6064 Q106.4375 24.8252 106.4375 25.1221 Q106.4375 25.3096 106.5469 25.4502 Q106.6719 25.6064 106.9219 25.7158 Q107.0625 25.7627 107.7812 25.9658 Q108.7969 26.2314 109.2031 26.4033 Q109.6094 26.5752 109.8438 26.9189 Q110.0781 27.2471 110.0781 27.7471 Q110.0781 28.2314 109.7969 28.6533 Q109.5156 29.0752 108.9844 29.3096 Q108.4531 29.5439 107.7812 29.5439 Q106.6719 29.5439 106.0781 29.0908 Q105.5 28.6221 105.3438 27.7158 ZM114.7188 29.4189 L114.7188 23.7158 L115.5938 23.7158 L115.5938 24.5283 Q116.2188 23.5908 117.4062 23.5908 Q117.9219 23.5908 118.3594 23.7783 Q118.7969 23.9502 119 24.2627 Q119.2188 24.5596 119.3125 24.9658 Q119.3594 25.2471 119.3594 25.9189 L119.3594 29.4189 L118.3906 29.4189 L118.3906 25.9502 Q118.3906 25.3564 118.2812 25.0752 Q118.1719 24.7783 117.875 24.6064 Q117.5938 24.4189 117.2031 24.4189 Q116.5938 24.4189 116.1406 24.8096 Q115.6875 25.2002 115.6875 26.3096 L115.6875 29.4189 L114.7188 29.4189 ZM120.3594 26.5596 Q120.3594 24.9814 121.25 24.2158 Q121.9844 23.5908 123.0469 23.5908 Q124.2188 23.5908 124.9531 24.3564 Q125.7031 25.1221 125.7031 26.4814 Q125.7031 27.5908 125.375 28.2314 Q125.0469 28.8564 124.4062 29.2002 Q123.7812 29.5439 123.0469 29.5439 Q121.8438 29.5439 121.0938 28.7783 Q120.3594 28.0127 120.3594 26.5596 ZM121.3594 26.5596 Q121.3594 27.6689 121.8281 28.2158 Q122.3125 28.7471 123.0469 28.7471 Q123.7656 28.7471 124.2344 28.2002 Q124.7188 27.6533 124.7188 26.5283 Q124.7188 25.4814 124.2344 24.9346 Q123.75 24.3877 123.0469 24.3877 Q122.3125 24.3877 121.8281 24.9346 Q121.3594 25.4658 121.3594 26.5596 ZM128.8438 28.5596 L128.9688 29.4033 Q128.5625 29.4971 128.25 29.4971 Q127.7188 29.4971 127.4219 29.3252 Q127.1406 29.1533 127.0156 28.8877 Q126.9062 28.6221 126.9062 27.7471 L126.9062 24.4658 L126.1875 24.4658 L126.1875 23.7158 L126.9062 23.7158 L126.9062 22.3096 L127.8594 21.7158 L127.8594 23.7158 L128.8438 23.7158 L128.8438 24.4658 L127.8594 24.4658 L127.8594 27.8096 Q127.8594 28.2158 127.9062 28.3408 Q127.9688 28.4502 128.0781 28.5283 Q128.2031 28.5908 128.4062 28.5908 Q128.5781 28.5908 128.8438 28.5596 Z"
                stroke="none" />
            <path clip-path="url(#a3aae0b6-8860-4bf1-85f2-2c5a4ef35d4e)"
                d="M7.4531 43.7158 Q6.9062 44.1689 6.4062 44.3564 Q5.9219 44.5439 5.3438 44.5439 Q4.4062 44.5439 3.8906 44.0908 Q3.3906 43.6221 3.3906 42.9189 Q3.3906 42.4971 3.5781 42.1533 Q3.7812 41.8096 4.0781 41.6064 Q4.3906 41.3877 4.7812 41.2783 Q5.0625 41.2002 5.6406 41.1377 Q6.8125 40.9971 7.3594 40.7939 Q7.375 40.6064 7.375 40.5439 Q7.375 39.9502 7.0938 39.7158 Q6.7344 39.3877 6 39.3877 Q5.3125 39.3877 4.9844 39.6221 Q4.6719 39.8564 4.5156 40.4658 L3.5625 40.3408 Q3.6875 39.7314 3.9844 39.3564 Q4.2812 38.9814 4.8438 38.7939 Q5.4062 38.5908 6.1406 38.5908 Q6.875 38.5908 7.3281 38.7627 Q7.7812 38.9346 7.9844 39.2002 Q8.2031 39.4502 8.2969 39.8408 Q8.3438 40.0908 8.3438 40.7471 L8.3438 42.0283 Q8.3438 43.3721 8.4062 43.7314 Q8.4688 44.0908 8.6562 44.4189 L7.6406 44.4189 Q7.4844 44.1221 7.4531 43.7158 ZM7.3594 41.5596 Q6.8438 41.7783 5.7812 41.9189 Q5.1875 42.0127 4.9375 42.1221 Q4.7031 42.2158 4.5625 42.4346 Q4.4219 42.6377 4.4219 42.8877 Q4.4219 43.2783 4.7188 43.5439 Q5.0156 43.7939 5.5781 43.7939 Q6.1406 43.7939 6.5625 43.5439 Q7 43.2939 7.2188 42.8721 Q7.3594 42.5439 7.3594 41.9033 L7.3594 41.5596 ZM10.6094 44.4189 L9.7188 44.4189 L9.7188 36.5439 L10.6875 36.5439 L10.6875 39.3564 Q11.2969 38.5908 12.25 38.5908 Q12.7812 38.5908 13.25 38.8096 Q13.7188 39.0127 14.0156 39.4033 Q14.3281 39.7783 14.5 40.3252 Q14.6719 40.8564 14.6719 41.4814 Q14.6719 42.9502 13.9375 43.7471 Q13.2188 44.5439 12.2031 44.5439 Q11.1875 44.5439 10.6094 43.7002 L10.6094 44.4189 ZM10.6094 41.5283 Q10.6094 42.5439 10.8906 43.0127 Q11.3438 43.7471 12.125 43.7471 Q12.75 43.7471 13.2031 43.2002 Q13.6719 42.6533 13.6719 41.5596 Q13.6719 40.4502 13.2344 39.9189 Q12.7969 39.3877 12.1562 39.3877 Q11.5312 39.3877 11.0625 39.9346 Q10.6094 40.4814 10.6094 41.5283 ZM15.7031 44.4189 L15.7031 36.5439 L16.6719 36.5439 L16.6719 44.4189 L15.7031 44.4189 ZM21.625 42.5752 L22.625 42.7002 Q22.3906 43.5752 21.75 44.0596 Q21.1094 44.5439 20.125 44.5439 Q18.875 44.5439 18.1406 43.7783 Q17.4062 43.0127 17.4062 41.6221 Q17.4062 40.1689 18.1406 39.3877 Q18.8906 38.5908 20.0625 38.5908 Q21.2188 38.5908 21.9375 39.3721 Q22.6562 40.1377 22.6562 41.5596 Q22.6562 41.6377 22.6562 41.8096 L18.4062 41.8096 Q18.4531 42.7471 18.9219 43.2471 Q19.4062 43.7471 20.125 43.7471 Q20.6562 43.7471 21.0312 43.4814 Q21.4062 43.2002 21.625 42.5752 ZM18.4531 41.0127 L21.6406 41.0127 Q21.5781 40.2939 21.2812 39.9346 Q20.8125 39.3877 20.0781 39.3877 Q19.4062 39.3877 18.9531 39.8408 Q18.5 40.2783 18.4531 41.0127 ZM28.8438 43.5596 L28.9688 44.4033 Q28.5625 44.4971 28.25 44.4971 Q27.7188 44.4971 27.4219 44.3252 Q27.1406 44.1533 27.0156 43.8877 Q26.9062 43.6221 26.9062 42.7471 L26.9062 39.4658 L26.1875 39.4658 L26.1875 38.7158 L26.9062 38.7158 L26.9062 37.3096 L27.8594 36.7158 L27.8594 38.7158 L28.8438 38.7158 L28.8438 39.4658 L27.8594 39.4658 L27.8594 42.8096 Q27.8594 43.2158 27.9062 43.3408 Q27.9688 43.4502 28.0781 43.5283 Q28.2031 43.5908 28.4062 43.5908 Q28.5781 43.5908 28.8438 43.5596 ZM29.3594 41.5596 Q29.3594 39.9814 30.25 39.2158 Q30.9844 38.5908 32.0469 38.5908 Q33.2188 38.5908 33.9531 39.3564 Q34.7031 40.1221 34.7031 41.4814 Q34.7031 42.5908 34.375 43.2314 Q34.0469 43.8564 33.4062 44.2002 Q32.7812 44.5439 32.0469 44.5439 Q30.8438 44.5439 30.0938 43.7783 Q29.3594 43.0127 29.3594 41.5596 ZM30.3594 41.5596 Q30.3594 42.6689 30.8281 43.2158 Q31.3125 43.7471 32.0469 43.7471 Q32.7656 43.7471 33.2344 43.2002 Q33.7188 42.6533 33.7188 41.5283 Q33.7188 40.4814 33.2344 39.9346 Q32.75 39.3877 32.0469 39.3877 Q31.3125 39.3877 30.8281 39.9346 Q30.3594 40.4658 30.3594 41.5596 ZM38.7344 37.6533 L38.7344 36.5439 L39.7031 36.5439 L39.7031 37.6533 L38.7344 37.6533 ZM38.7344 44.4189 L38.7344 38.7158 L39.7031 38.7158 L39.7031 44.4189 L38.7344 44.4189 ZM40.7188 44.4189 L40.7188 38.7158 L41.5938 38.7158 L41.5938 39.5283 Q42.2188 38.5908 43.4062 38.5908 Q43.9219 38.5908 44.3594 38.7783 Q44.7969 38.9502 45 39.2627 Q45.2188 39.5596 45.3125 39.9658 Q45.3594 40.2471 45.3594 40.9189 L45.3594 44.4189 L44.3906 44.4189 L44.3906 40.9502 Q44.3906 40.3564 44.2812 40.0752 Q44.1719 39.7783 43.875 39.6064 Q43.5938 39.4189 43.2031 39.4189 Q42.5938 39.4189 42.1406 39.8096 Q41.6875 40.2002 41.6875 41.3096 L41.6875 44.4189 L40.7188 44.4189 ZM48.8438 43.5596 L48.9688 44.4033 Q48.5625 44.4971 48.25 44.4971 Q47.7188 44.4971 47.4219 44.3252 Q47.1406 44.1533 47.0156 43.8877 Q46.9062 43.6221 46.9062 42.7471 L46.9062 39.4658 L46.1875 39.4658 L46.1875 38.7158 L46.9062 38.7158 L46.9062 37.3096 L47.8594 36.7158 L47.8594 38.7158 L48.8438 38.7158 L48.8438 39.4658 L47.8594 39.4658 L47.8594 42.8096 Q47.8594 43.2158 47.9062 43.3408 Q47.9688 43.4502 48.0781 43.5283 Q48.2031 43.5908 48.4062 43.5908 Q48.5781 43.5908 48.8438 43.5596 ZM53.625 42.5752 L54.625 42.7002 Q54.3906 43.5752 53.75 44.0596 Q53.1094 44.5439 52.125 44.5439 Q50.875 44.5439 50.1406 43.7783 Q49.4062 43.0127 49.4062 41.6221 Q49.4062 40.1689 50.1406 39.3877 Q50.8906 38.5908 52.0625 38.5908 Q53.2188 38.5908 53.9375 39.3721 Q54.6562 40.1377 54.6562 41.5596 Q54.6562 41.6377 54.6562 41.8096 L50.4062 41.8096 Q50.4531 42.7471 50.9219 43.2471 Q51.4062 43.7471 52.125 43.7471 Q52.6562 43.7471 53.0312 43.4814 Q53.4062 43.2002 53.625 42.5752 ZM50.4531 41.0127 L53.6406 41.0127 Q53.5781 40.2939 53.2812 39.9346 Q52.8125 39.3877 52.0781 39.3877 Q51.4062 39.3877 50.9531 39.8408 Q50.5 40.2783 50.4531 41.0127 ZM55.7188 44.4189 L55.7188 38.7158 L56.5781 38.7158 L56.5781 39.5752 Q56.9219 38.9658 57.2031 38.7783 Q57.4844 38.5908 57.8125 38.5908 Q58.3125 38.5908 58.8125 38.9033 L58.4844 39.7939 Q58.125 39.5908 57.7656 39.5908 Q57.4531 39.5908 57.2031 39.7783 Q56.9531 39.9658 56.8438 40.3096 Q56.6875 40.8252 56.6875 41.4346 L56.6875 44.4189 L55.7188 44.4189 ZM63.4531 43.7158 Q62.9062 44.1689 62.4062 44.3564 Q61.9219 44.5439 61.3438 44.5439 Q60.4062 44.5439 59.8906 44.0908 Q59.3906 43.6221 59.3906 42.9189 Q59.3906 42.4971 59.5781 42.1533 Q59.7812 41.8096 60.0781 41.6064 Q60.3906 41.3877 60.7812 41.2783 Q61.0625 41.2002 61.6406 41.1377 Q62.8125 40.9971 63.3594 40.7939 Q63.375 40.6064 63.375 40.5439 Q63.375 39.9502 63.0938 39.7158 Q62.7344 39.3877 62 39.3877 Q61.3125 39.3877 60.9844 39.6221 Q60.6719 39.8564 60.5156 40.4658 L59.5625 40.3408 Q59.6875 39.7314 59.9844 39.3564 Q60.2812 38.9814 60.8438 38.7939 Q61.4062 38.5908 62.1406 38.5908 Q62.875 38.5908 63.3281 38.7627 Q63.7812 38.9346 63.9844 39.2002 Q64.2031 39.4502 64.2969 39.8408 Q64.3438 40.0908 64.3438 40.7471 L64.3438 42.0283 Q64.3438 43.3721 64.4062 43.7314 Q64.4688 44.0908 64.6562 44.4189 L63.6406 44.4189 Q63.4844 44.1221 63.4531 43.7158 ZM63.3594 41.5596 Q62.8438 41.7783 61.7812 41.9189 Q61.1875 42.0127 60.9375 42.1221 Q60.7031 42.2158 60.5625 42.4346 Q60.4219 42.6377 60.4219 42.8877 Q60.4219 43.2783 60.7188 43.5439 Q61.0156 43.7939 61.5781 43.7939 Q62.1406 43.7939 62.5625 43.5439 Q63 43.2939 63.2188 42.8721 Q63.3594 42.5439 63.3594 41.9033 L63.3594 41.5596 ZM69.4531 42.3252 L70.3906 42.4502 Q70.25 43.4346 69.5938 43.9971 Q68.9531 44.5439 68.0312 44.5439 Q66.8594 44.5439 66.1406 43.7783 Q65.4375 43.0127 65.4375 41.5908 Q65.4375 40.6689 65.7344 39.9814 Q66.0469 39.2783 66.6719 38.9346 Q67.2969 38.5908 68.0312 38.5908 Q68.9531 38.5908 69.5469 39.0596 Q70.1406 39.5283 70.3125 40.3877 L69.3594 40.5283 Q69.2344 39.9658 68.8906 39.6846 Q68.5469 39.3877 68.0625 39.3877 Q67.3438 39.3877 66.875 39.9189 Q66.4219 40.4346 66.4219 41.5596 Q66.4219 42.7158 66.8594 43.2314 Q67.2969 43.7471 68.0156 43.7471 Q68.5781 43.7471 68.9531 43.4033 Q69.3438 43.0596 69.4531 42.3252 ZM73.8438 43.5596 L73.9688 44.4033 Q73.5625 44.4971 73.25 44.4971 Q72.7188 44.4971 72.4219 44.3252 Q72.1406 44.1533 72.0156 43.8877 Q71.9062 43.6221 71.9062 42.7471 L71.9062 39.4658 L71.1875 39.4658 L71.1875 38.7158 L71.9062 38.7158 L71.9062 37.3096 L72.8594 36.7158 L72.8594 38.7158 L73.8438 38.7158 L73.8438 39.4658 L72.8594 39.4658 L72.8594 42.8096 Q72.8594 43.2158 72.9062 43.3408 Q72.9688 43.4502 73.0781 43.5283 Q73.2031 43.5908 73.4062 43.5908 Q73.5781 43.5908 73.8438 43.5596 ZM81.7812 44.4189 L80.0312 38.7158 L81.0312 38.7158 L81.9375 42.0127 L82.2812 43.2314 Q82.2969 43.1377 82.5781 42.0596 L83.4844 38.7158 L84.4688 38.7158 L85.3281 42.0283 L85.6094 43.1064 L85.9375 42.0127 L86.9219 38.7158 L87.8594 38.7158 L86.0781 44.4189 L85.0781 44.4189 L84.1562 40.9971 L83.9375 40.0283 L82.7812 44.4189 L81.7812 44.4189 ZM90.7344 37.6533 L90.7344 36.5439 L91.7031 36.5439 L91.7031 37.6533 L90.7344 37.6533 ZM90.7344 44.4189 L90.7344 38.7158 L91.7031 38.7158 L91.7031 44.4189 L90.7344 44.4189 ZM94.8438 43.5596 L94.9688 44.4033 Q94.5625 44.4971 94.25 44.4971 Q93.7188 44.4971 93.4219 44.3252 Q93.1406 44.1533 93.0156 43.8877 Q92.9062 43.6221 92.9062 42.7471 L92.9062 39.4658 L92.1875 39.4658 L92.1875 38.7158 L92.9062 38.7158 L92.9062 37.3096 L93.8594 36.7158 L93.8594 38.7158 L94.8438 38.7158 L94.8438 39.4658 L93.8594 39.4658 L93.8594 42.8096 Q93.8594 43.2158 93.9062 43.3408 Q93.9688 43.4502 94.0781 43.5283 Q94.2031 43.5908 94.4062 43.5908 Q94.5781 43.5908 94.8438 43.5596 ZM95.7188 44.4189 L95.7188 36.5439 L96.6875 36.5439 L96.6875 39.3721 Q97.375 38.5908 98.4062 38.5908 Q99.0312 38.5908 99.5 38.8408 Q99.9688 39.0908 100.1719 39.5283 Q100.375 39.9658 100.375 40.8096 L100.375 44.4189 L99.4062 44.4189 L99.4062 40.8096 Q99.4062 40.0752 99.0938 39.7471 Q98.7812 39.4189 98.2031 39.4189 Q97.7656 39.4189 97.3906 39.6377 Q97.0156 39.8564 96.8438 40.2471 Q96.6875 40.6221 96.6875 41.2939 L96.6875 44.4189 L95.7188 44.4189 ZM106.8438 43.5596 L106.9688 44.4033 Q106.5625 44.4971 106.25 44.4971 Q105.7188 44.4971 105.4219 44.3252 Q105.1406 44.1533 105.0156 43.8877 Q104.9062 43.6221 104.9062 42.7471 L104.9062 39.4658 L104.1875 39.4658 L104.1875 38.7158 L104.9062 38.7158 L104.9062 37.3096 L105.8594 36.7158 L105.8594 38.7158 L106.8438 38.7158 L106.8438 39.4658 L105.8594 39.4658 L105.8594 42.8096 Q105.8594 43.2158 105.9062 43.3408 Q105.9688 43.4502 106.0781 43.5283 Q106.2031 43.5908 106.4062 43.5908 Q106.5781 43.5908 106.8438 43.5596 ZM107.7188 44.4189 L107.7188 36.5439 L108.6875 36.5439 L108.6875 39.3721 Q109.375 38.5908 110.4062 38.5908 Q111.0312 38.5908 111.5 38.8408 Q111.9688 39.0908 112.1719 39.5283 Q112.375 39.9658 112.375 40.8096 L112.375 44.4189 L111.4062 44.4189 L111.4062 40.8096 Q111.4062 40.0752 111.0938 39.7471 Q110.7812 39.4189 110.2031 39.4189 Q109.7656 39.4189 109.3906 39.6377 Q109.0156 39.8564 108.8438 40.2471 Q108.6875 40.6221 108.6875 41.2939 L108.6875 44.4189 L107.7188 44.4189 ZM117.625 42.5752 L118.625 42.7002 Q118.3906 43.5752 117.75 44.0596 Q117.1094 44.5439 116.125 44.5439 Q114.875 44.5439 114.1406 43.7783 Q113.4062 43.0127 113.4062 41.6221 Q113.4062 40.1689 114.1406 39.3877 Q114.8906 38.5908 116.0625 38.5908 Q117.2188 38.5908 117.9375 39.3721 Q118.6562 40.1377 118.6562 41.5596 Q118.6562 41.6377 118.6562 41.8096 L114.4062 41.8096 Q114.4531 42.7471 114.9219 43.2471 Q115.4062 43.7471 116.125 43.7471 Q116.6562 43.7471 117.0312 43.4814 Q117.4062 43.2002 117.625 42.5752 ZM114.4531 41.0127 L117.6406 41.0127 Q117.5781 40.2939 117.2812 39.9346 Q116.8125 39.3877 116.0781 39.3877 Q115.4062 39.3877 114.9531 39.8408 Q114.5 40.2783 114.4531 41.0127 ZM119.7188 44.4189 L119.7188 38.7158 L120.5938 38.7158 L120.5938 39.5127 Q120.8594 39.0908 121.2969 38.8408 Q121.75 38.5908 122.3125 38.5908 Q122.9531 38.5908 123.3594 38.8564 Q123.7656 39.1064 123.9375 39.5908 Q124.6094 38.5908 125.6875 38.5908 Q126.5469 38.5908 127 39.0596 Q127.4531 39.5283 127.4531 40.4971 L127.4531 44.4189 L126.5 44.4189 L126.5 40.8252 Q126.5 40.2471 126.4062 39.9971 Q126.3125 39.7314 126.0625 39.5752 Q125.8125 39.4189 125.4844 39.4189 Q124.875 39.4189 124.4688 39.8252 Q124.0781 40.2314 124.0781 41.1064 L124.0781 44.4189 L123.1094 44.4189 L123.1094 40.7158 Q123.1094 40.0752 122.875 39.7471 Q122.6406 39.4189 122.1094 39.4189 Q121.7031 39.4189 121.3438 39.6377 Q121 39.8564 120.8438 40.2783 Q120.6875 40.6846 120.6875 41.4658 L120.6875 44.4189 L119.7188 44.4189 ZM128 44.4189 L128 43.3252 L129.0938 43.3252 L129.0938 44.4189 L128 44.4189 Z"
                stroke="none" />
        </g>
        <g data="{&quot;name&quot;:&quot;&quot;,&quot;modelType&quot;:&quot;InitialNode&quot;}"
            hyper="" model-id="shape-lcPY1tmFYEWAATT0"
            style="pointer-events: auto; cursor: pointer;">
            <g fill="black" fill-opacity="1" font-family="sans-serif" font-size="11px"
                image-rendering="optimizeQuality" stroke="black" stroke-opacity="1"
                text-rendering="geometricPrecision" transform="translate(176,1.7143)">
                <circle clip-path="url(#8c41def4-fcd8-451c-bf12-4d22968affbd)" cx="20" cy="10"
                    r="10" stroke="none" />
            </g>
        </g>
        <g
            data="{&quot;name&quot;:&quot;Display public timeline &quot;,&quot;modelType&quot;:&quot;ActivityAction&quot;}"
            hyper="" model-id="shape-oqQ41tmFYEWAATU8"
            style="pointer-events: auto; cursor: pointer;">
            <g fill="rgb(122,207,245)" fill-opacity="1" font-family="sans-serif" font-size="11px"
                image-rendering="optimizeQuality" stroke="rgb(122,207,245)" stroke-opacity="1"
                text-rendering="geometricPrecision" transform="translate(134,56.7143)">
                <rect clip-path="url(#b92f8660-8f53-4832-8e2a-1b35ddd4d3be)" height="40" rx="15"
                    ry="15" stroke="none" width="122" x="0" y="0" />
            </g>
            <g fill="black" fill-opacity="1" font-family="sans-serif" font-size="11px"
                image-rendering="optimizeQuality" stroke="black" stroke-linecap="butt"
                stroke-linejoin="round" stroke-miterlimit="0" stroke-opacity="1"
                text-rendering="geometricPrecision" transform="translate(134,56.7143)">
                <rect clip-path="url(#b92f8660-8f53-4832-8e2a-1b35ddd4d3be)" fill="none" height="40"
                    rx="15" ry="15" width="122" x="0" y="0" />
            </g>
        </g>
        <g fill="black" fill-opacity="1" font-family="sans-serif" font-size="11px"
            image-rendering="optimizeQuality" stroke="black" stroke-opacity="1"
            text-rendering="geometricPrecision" transform="translate(134,56.7143)">
            <text clip-path="url(#240ae95a-f20d-429d-b041-d4aa4d531fd9)" stroke="none" x="26"
                xml:space="preserve" y="17">Display public</text>
            <text clip-path="url(#240ae95a-f20d-429d-b041-d4aa4d531fd9)" stroke="none" x="41"
                xml:space="preserve" y="32">timeline</text>
        </g>
        <g
            data="{&quot;name&quot;:&quot;View an authors timeline?&quot;,&quot;modelType&quot;:&quot;DecisionNode&quot;}"
            hyper="" model-id="shape-4kQE1tmFYEWAATbe"
            style="pointer-events: auto; cursor: pointer;">
            <g fill="rgb(122,207,245)" fill-opacity="1" font-family="sans-serif" font-size="11px"
                image-rendering="optimizeQuality" stroke="rgb(122,207,245)" stroke-opacity="1"
                text-rendering="geometricPrecision" transform="translate(181,124.7143)">
                <path clip-path="url(#1dad7e9c-537a-4829-a4f3-5799fe6de9b0)"
                    d="M14.5 7.5 L26 20 L14.5 32.5 L3 20 Z" stroke="none" />
            </g>
            <g fill="black" fill-opacity="1" font-family="sans-serif" font-size="11px"
                image-rendering="optimizeQuality" stroke="black" stroke-linecap="butt"
                stroke-linejoin="round" stroke-miterlimit="0" stroke-opacity="1"
                text-rendering="geometricPrecision" transform="translate(181,124.7143)">
                <path clip-path="url(#1dad7e9c-537a-4829-a4f3-5799fe6de9b0)"
                    d="M14.5 7.5 L26 20 L14.5 32.5 L3 20 Z" fill="none" />
            </g>
        </g>
        <g
            data="{&quot;name&quot;:&quot;Display authors timeline&quot;,&quot;modelType&quot;:&quot;ActivityAction&quot;}"
            hyper="" model-id="shape-I8SE1tmFYEWAATc_"
            style="pointer-events: auto; cursor: pointer;">
            <g fill="rgb(122,207,245)" fill-opacity="1" font-family="sans-serif" font-size="11px"
                image-rendering="optimizeQuality" stroke="rgb(122,207,245)" stroke-opacity="1"
                text-rendering="geometricPrecision" transform="translate(259,124.7143)">
                <rect clip-path="url(#27d57b2a-1339-4566-8eed-e271405df397)" height="40" rx="15"
                    ry="15" stroke="none" width="122" x="0" y="0" />
            </g>
            <g fill="black" fill-opacity="1" font-family="sans-serif" font-size="11px"
                image-rendering="optimizeQuality" stroke="black" stroke-linecap="butt"
                stroke-linejoin="round" stroke-miterlimit="0" stroke-opacity="1"
                text-rendering="geometricPrecision" transform="translate(259,124.7143)">
                <rect clip-path="url(#27d57b2a-1339-4566-8eed-e271405df397)" fill="none" height="40"
                    rx="15" ry="15" width="122" x="0" y="0" />
            </g>
        </g>
        <g fill="black" fill-opacity="1" font-family="sans-serif" font-size="11px"
            image-rendering="optimizeQuality" stroke="black" stroke-opacity="1"
            text-rendering="geometricPrecision" transform="translate(259,124.7143)">
            <text clip-path="url(#aae92b6c-8c12-4c77-8082-fd76c7b3438f)" stroke="none" x="22"
                xml:space="preserve" y="17">Display authors</text>
            <text clip-path="url(#aae92b6c-8c12-4c77-8082-fd76c7b3438f)" stroke="none" x="41"
                xml:space="preserve" y="32">timeline</text>
        </g>
        <g
            data="{&quot;name&quot;:&quot;Register?&quot;,&quot;modelType&quot;:&quot;DecisionNode&quot;}"
            hyper="" model-id="shape-4AQk1tmFYEWAATgR"
            style="pointer-events: auto; cursor: pointer;">
            <g fill="rgb(122,207,245)" fill-opacity="1" font-family="sans-serif" font-size="11px"
                image-rendering="optimizeQuality" stroke="rgb(122,207,245)" stroke-opacity="1"
                text-rendering="geometricPrecision" transform="translate(181,191.7143)">
                <path clip-path="url(#3c654061-d1c4-47c4-a193-d5e42104dad1)"
                    d="M14.5 7.5 L26 20 L14.5 32.5 L3 20 Z" stroke="none" />
            </g>
            <g fill="black" fill-opacity="1" font-family="sans-serif" font-size="11px"
                image-rendering="optimizeQuality" stroke="black" stroke-linecap="butt"
                stroke-linejoin="round" stroke-miterlimit="0" stroke-opacity="1"
                text-rendering="geometricPrecision" transform="translate(181,191.7143)">
                <path clip-path="url(#3c654061-d1c4-47c4-a193-d5e42104dad1)"
                    d="M14.5 7.5 L26 20 L14.5 32.5 L3 20 Z" fill="none" />
            </g>
        </g>
        <g
            data="{&quot;name&quot;:&quot;Login?&quot;,&quot;modelType&quot;:&quot;DecisionNode&quot;}"
            hyper="" model-id="shape-PpMk1tmFYEWAATh5"
            style="pointer-events: auto; cursor: pointer;">
            <g fill="rgb(122,207,245)" fill-opacity="1" font-family="sans-serif" font-size="11px"
                image-rendering="optimizeQuality" stroke="rgb(122,207,245)" stroke-opacity="1"
                text-rendering="geometricPrecision" transform="translate(181,324.7143)">
                <path clip-path="url(#83193670-cdda-4e6c-a4ef-ba859d03bf7a)"
                    d="M14.5 7.5 L26 20 L14.5 32.5 L3 20 Z" stroke="none" />
            </g>
            <g fill="black" fill-opacity="1" font-family="sans-serif" font-size="11px"
                image-rendering="optimizeQuality" stroke="black" stroke-linecap="butt"
                stroke-linejoin="round" stroke-miterlimit="0" stroke-opacity="1"
                text-rendering="geometricPrecision" transform="translate(181,324.7143)">
                <path clip-path="url(#83193670-cdda-4e6c-a4ef-ba859d03bf7a)"
                    d="M14.5 7.5 L26 20 L14.5 32.5 L3 20 Z" fill="none" />
            </g>
        </g>
        <g
            data="{&quot;name&quot;:&quot;Register&quot;,&quot;modelType&quot;:&quot;ActivityAction&quot;}"
            hyper="" model-id="shape-1hak1tmFYEWAATjA"
            style="pointer-events: auto; cursor: pointer;">
            <g fill="rgb(122,207,245)" fill-opacity="1" font-family="sans-serif" font-size="11px"
                image-rendering="optimizeQuality" stroke="rgb(122,207,245)" stroke-opacity="1"
                text-rendering="geometricPrecision" transform="translate(259,191.7143)">
                <rect clip-path="url(#fb98a150-a4c4-4154-a35f-eb32789667da)" height="40" rx="15"
                    ry="15" stroke="none" width="122" x="0" y="0" />
            </g>
            <g fill="black" fill-opacity="1" font-family="sans-serif" font-size="11px"
                image-rendering="optimizeQuality" stroke="black" stroke-linecap="butt"
                stroke-linejoin="round" stroke-miterlimit="0" stroke-opacity="1"
                text-rendering="geometricPrecision" transform="translate(259,191.7143)">
                <rect clip-path="url(#fb98a150-a4c4-4154-a35f-eb32789667da)" fill="none" height="40"
                    rx="15" ry="15" width="122" x="0" y="0" />
            </g>
        </g>
        <g fill="black" fill-opacity="1" font-family="sans-serif" font-size="11px"
            image-rendering="optimizeQuality" stroke="black" stroke-opacity="1"
            text-rendering="geometricPrecision" transform="translate(259,191.7143)">
            <text clip-path="url(#9766ccce-8421-48c4-b4cf-59956a639064)" stroke="none" x="40"
                xml:space="preserve" y="24">Register</text>
        </g>
        <g
            data="{&quot;name&quot;:&quot;Successful?&quot;,&quot;modelType&quot;:&quot;DecisionNode&quot;}"
            hyper="" model-id="shape-60Wk1tmFYEWAATj3"
            style="pointer-events: auto; cursor: pointer;">
            <g fill="rgb(122,207,245)" fill-opacity="1" font-family="sans-serif" font-size="11px"
                image-rendering="optimizeQuality" stroke="rgb(122,207,245)" stroke-opacity="1"
                text-rendering="geometricPrecision" transform="translate(305,258.7143)">
                <path clip-path="url(#c76be1e9-c05b-414d-b7d4-c7936cb09d85)"
                    d="M14.5 7.5 L26 20 L14.5 32.5 L3 20 Z" stroke="none" />
            </g>
            <g fill="black" fill-opacity="1" font-family="sans-serif" font-size="11px"
                image-rendering="optimizeQuality" stroke="black" stroke-linecap="butt"
                stroke-linejoin="round" stroke-miterlimit="0" stroke-opacity="1"
                text-rendering="geometricPrecision" transform="translate(305,258.7143)">
                <path clip-path="url(#c76be1e9-c05b-414d-b7d4-c7936cb09d85)"
                    d="M14.5 7.5 L26 20 L14.5 32.5 L3 20 Z" fill="none" />
            </g>
        </g>
        <g
            data="{&quot;name&quot;:&quot;Login&quot;,&quot;modelType&quot;:&quot;ActivityAction&quot;}"
            hyper="" model-id="shape-mUnk1tmFYEWAATni"
            style="pointer-events: auto; cursor: pointer;">
            <g fill="rgb(122,207,245)" fill-opacity="1" font-family="sans-serif" font-size="11px"
                image-rendering="optimizeQuality" stroke="rgb(122,207,245)" stroke-opacity="1"
                text-rendering="geometricPrecision" transform="translate(136,386.7143)">
                <rect clip-path="url(#b40189c0-3255-4b24-80d2-6889f90d0cb1)" height="40" rx="15"
                    ry="15" stroke="none" width="122" x="0" y="0" />
            </g>
            <g fill="black" fill-opacity="1" font-family="sans-serif" font-size="11px"
                image-rendering="optimizeQuality" stroke="black" stroke-linecap="butt"
                stroke-linejoin="round" stroke-miterlimit="0" stroke-opacity="1"
                text-rendering="geometricPrecision" transform="translate(136,386.7143)">
                <rect clip-path="url(#b40189c0-3255-4b24-80d2-6889f90d0cb1)" fill="none" height="40"
                    rx="15" ry="15" width="122" x="0" y="0" />
            </g>
        </g>
        <g fill="black" fill-opacity="1" font-family="sans-serif" font-size="11px"
            image-rendering="optimizeQuality" stroke="black" stroke-opacity="1"
            text-rendering="geometricPrecision" transform="translate(136,386.7143)">
            <text clip-path="url(#f7072779-e612-48ed-a38b-f5fa8ca4d85b)" stroke="none" x="47"
                xml:space="preserve" y="24">Login</text>
        </g>
        <g
            data="{&quot;name&quot;:&quot;Successful?&quot;,&quot;modelType&quot;:&quot;DecisionNode&quot;}"
            hyper="" model-id="shape-BUnk1tmFYEWAATnn"
            style="pointer-events: auto; cursor: pointer;">
            <g fill="rgb(122,207,245)" fill-opacity="1" font-family="sans-serif" font-size="11px"
                image-rendering="optimizeQuality" stroke="rgb(122,207,245)" stroke-opacity="1"
                text-rendering="geometricPrecision" transform="translate(182,459.7143)">
                <path clip-path="url(#ad407f09-66fd-4506-bc30-675ad218b70c)"
                    d="M14.5 7.5 L26 20 L14.5 32.5 L3 20 Z" stroke="none" />
            </g>
            <g fill="black" fill-opacity="1" font-family="sans-serif" font-size="11px"
                image-rendering="optimizeQuality" stroke="black" stroke-linecap="butt"
                stroke-linejoin="round" stroke-miterlimit="0" stroke-opacity="1"
                text-rendering="geometricPrecision" transform="translate(182,459.7143)">
                <path clip-path="url(#ad407f09-66fd-4506-bc30-675ad218b70c)"
                    d="M14.5 7.5 L26 20 L14.5 32.5 L3 20 Z" fill="none" />
            </g>
        </g>
        <g
            data="{&quot;name&quot;:&quot;&quot;,&quot;modelType&quot;:&quot;ActivityFinalNode&quot;}"
            hyper="" model-id="shape-JFCU1tmFYEWAATqR"
            style="pointer-events: auto; cursor: pointer;">
            <g fill="black" fill-opacity="1" font-family="sans-serif" font-size="11px"
                image-rendering="optimizeQuality" stroke="black" stroke-opacity="1"
                text-rendering="geometricPrecision" transform="translate(186,532.7143)">
                <circle clip-path="url(#72f38a08-874a-4eeb-8b07-29f6ada1bc58)" cx="10" cy="10"
                    r="6.6667" stroke="none" />
                <circle clip-path="url(#72f38a08-874a-4eeb-8b07-29f6ada1bc58)" cx="10" cy="10"
                    fill="none" r="10" stroke-linecap="butt" stroke-linejoin="round"
                    stroke-miterlimit="0" />
            </g>
        </g>
        <g
            data="{&quot;name&quot;:&quot;View public timeline?&quot;,&quot;modelType&quot;:&quot;DecisionNode&quot;}"
            hyper="" model-id="shape-9vW01tmFYEWAATs_"
            style="pointer-events: auto; cursor: pointer;">
            <g fill="rgb(122,207,245)" fill-opacity="1" font-family="sans-serif" font-size="11px"
                image-rendering="optimizeQuality" stroke="rgb(122,207,245)" stroke-opacity="1"
                text-rendering="geometricPrecision" transform="translate(56,57.7143)">
                <path clip-path="url(#61791290-81d5-470f-9fb9-76421fa8d705)"
                    d="M14.5 7.5 L26 20 L14.5 32.5 L3 20 Z" stroke="none" />
            </g>
            <g fill="black" fill-opacity="1" font-family="sans-serif" font-size="11px"
                image-rendering="optimizeQuality" stroke="black" stroke-linecap="butt"
                stroke-linejoin="round" stroke-miterlimit="0" stroke-opacity="1"
                text-rendering="geometricPrecision" transform="translate(56,57.7143)">
                <path clip-path="url(#61791290-81d5-470f-9fb9-76421fa8d705)"
                    d="M14.5 7.5 L26 20 L14.5 32.5 L3 20 Z" fill="none" />
            </g>
        </g>
        <g fill="black" fill-opacity="1" font-family="sans-serif" font-size="11px"
            image-rendering="optimizeQuality" stroke="black" stroke-opacity="1"
            text-rendering="geometricPrecision" transform="translate(2,42.7143)">
            <text clip-path="url(#249edd1f-1db1-4c6a-b93e-65be33a2d2b1)" stroke="none" x="10"
                xml:space="preserve" y="12">View public timeline?</text>
        </g>
        <g fill="black" fill-opacity="1" font-family="sans-serif" font-size="11px"
            image-rendering="optimizeQuality" stroke="black" stroke-opacity="1"
            text-rendering="geometricPrecision" transform="translate(109,479.7143)">
            <text clip-path="url(#ae9beadd-dbda-4d8d-824c-d74d4e5a9bd5)" stroke="none" x="10"
                xml:space="preserve" y="12">Successful?</text>
        </g>
        <g fill="black" fill-opacity="1" font-family="sans-serif" font-size="11px"
            image-rendering="optimizeQuality" stroke="black" stroke-opacity="1"
            text-rendering="geometricPrecision" transform="translate(279,288.7143)">
            <text clip-path="url(#ae9beadd-dbda-4d8d-824c-d74d4e5a9bd5)" stroke="none" x="10"
                xml:space="preserve" y="12">Successful?</text>
        </g>
        <g fill="black" fill-opacity="1" font-family="sans-serif" font-size="11px"
            image-rendering="optimizeQuality" stroke="black" stroke-opacity="1"
            text-rendering="geometricPrecision" transform="translate(200,344.7143)">
            <text clip-path="url(#b09196fc-c55d-4cdf-9e76-4d31ded9e1b3)" stroke="none" x="10"
                xml:space="preserve" y="12">Login?</text>
        </g>
        <g fill="black" fill-opacity="1" font-family="sans-serif" font-size="11px"
            image-rendering="optimizeQuality" stroke="black" stroke-opacity="1"
            text-rendering="geometricPrecision" transform="translate(122,211.7143)">
            <text clip-path="url(#f44dfa14-e165-47e7-8a6d-ba832bb4eed9)" stroke="none" x="10"
                xml:space="preserve" y="12">Register?</text>
        </g>
        <g fill="black" fill-opacity="1" font-family="sans-serif" font-size="11px"
            image-rendering="optimizeQuality" stroke="black" stroke-opacity="1"
            text-rendering="geometricPrecision" transform="translate(45,136.7143)">
            <text clip-path="url(#07c54c5d-ccb4-4771-8ad9-4aeb18df766c)" stroke="none" x="10"
                xml:space="preserve" y="12">View an authors timeline?</text>
        </g>
        <g data="{&quot;modelType&quot;:&quot;ControlFlow&quot;}" hyper=""
            model-id="connector-pkI41tmFYEWAATVT" style="pointer-events: auto; cursor: pointer;">
            <g fill="black" fill-opacity="1" font-family="sans-serif" font-size="11px"
                image-rendering="optimizeQuality" stroke="black" stroke-linecap="butt"
                stroke-linejoin="round" stroke-opacity="1" text-rendering="geometricPrecision"
                transform="translate(183,9.7143)">
                <line clip-path="url(#082e6e99-e7b5-49c6-be8c-d4b5626c6bee)" fill="none" x1="12"
                    x2="12" y1="12" y2="47" />
                <line clip-path="url(#082e6e99-e7b5-49c6-be8c-d4b5626c6bee)" fill="none" x1="12"
                    x2="18" y1="47" y2="35" />
                <line clip-path="url(#082e6e99-e7b5-49c6-be8c-d4b5626c6bee)" fill="none" x1="12"
                    x2="6" y1="47" y2="35" />
            </g>
        </g>
        <g data="{&quot;modelType&quot;:&quot;ControlFlow&quot;}" hyper=""
            model-id="connector-T.041tmFYEWAATWN" style="pointer-events: auto; cursor: pointer;">
            <g fill="black" fill-opacity="1" font-family="sans-serif" font-size="11px"
                image-rendering="optimizeQuality" stroke="black" stroke-linecap="butt"
                stroke-linejoin="round" stroke-opacity="1" text-rendering="geometricPrecision"
                transform="translate(159,60.7143)">
                <line clip-path="url(#d8cda818-1926-448c-8b7e-fe6b336a1504)" fill="none" x1="36"
                    x2="36" y1="36" y2="71" />
                <line clip-path="url(#d8cda818-1926-448c-8b7e-fe6b336a1504)" fill="none" x1="36"
                    x2="42" y1="71" y2="59" />
                <line clip-path="url(#d8cda818-1926-448c-8b7e-fe6b336a1504)" fill="none" x1="36"
                    x2="30" y1="71" y2="59" />
            </g>
        </g>
        <g data="{&quot;name&quot;:&quot;Yes&quot;,&quot;modelType&quot;:&quot;ControlFlow&quot;}"
            hyper="" model-id="connector-.8SE1tmFYEWAATdE"
            style="pointer-events: auto; cursor: pointer;">
            <g fill="black" fill-opacity="1" font-family="sans-serif" font-size="11px"
                image-rendering="optimizeQuality" stroke="black" stroke-linecap="butt"
                stroke-linejoin="round" stroke-opacity="1" text-rendering="geometricPrecision"
                transform="translate(170,108.7143)">
                <line clip-path="url(#dac4fb23-2843-4138-bb5a-30a0924ee44c)" fill="none" x1="36"
                    x2="89" y1="36" y2="36" />
                <line clip-path="url(#dac4fb23-2843-4138-bb5a-30a0924ee44c)" fill="none" x1="89"
                    x2="77" y1="36" y2="30" />
                <line clip-path="url(#dac4fb23-2843-4138-bb5a-30a0924ee44c)" fill="none" x1="89"
                    x2="77" y1="36" y2="42" />
            </g>
        </g>
        <g data="{&quot;name&quot;:&quot;No&quot;,&quot;modelType&quot;:&quot;ControlFlow&quot;}"
            hyper="" model-id="connector-FNwk1tmFYEWAATgo"
            style="pointer-events: auto; cursor: pointer;">
            <g fill="black" fill-opacity="1" font-family="sans-serif" font-size="11px"
                image-rendering="optimizeQuality" stroke="black" stroke-linecap="butt"
                stroke-linejoin="round" stroke-opacity="1" text-rendering="geometricPrecision"
                transform="translate(159,120.7143)">
                <line clip-path="url(#5013941b-9c7b-431d-9e43-3aea1fa2fd1f)" fill="none" x1="36"
                    x2="36" y1="36" y2="79" />
                <line clip-path="url(#5013941b-9c7b-431d-9e43-3aea1fa2fd1f)" fill="none" x1="36"
                    x2="42" y1="79" y2="67" />
                <line clip-path="url(#5013941b-9c7b-431d-9e43-3aea1fa2fd1f)" fill="none" x1="36"
                    x2="30" y1="79" y2="67" />
            </g>
        </g>
        <g data="{&quot;name&quot;:&quot;No&quot;,&quot;modelType&quot;:&quot;ControlFlow&quot;}"
            hyper="" model-id="connector-imCk1tmFYEWAATii"
            style="pointer-events: auto; cursor: pointer;">
            <g fill="black" fill-opacity="1" font-family="sans-serif" font-size="11px"
                image-rendering="optimizeQuality" stroke="black" stroke-linecap="butt"
                stroke-linejoin="round" stroke-opacity="1" text-rendering="geometricPrecision"
                transform="translate(184,212.7143)">
                <line clip-path="url(#788a46d2-e083-402e-bc66-7cc7c12c9c63)" fill="none" x1="11"
                    x2="11" y1="11" y2="120" />
                <line clip-path="url(#788a46d2-e083-402e-bc66-7cc7c12c9c63)" fill="none" x1="11"
                    x2="17" y1="120" y2="108" />
                <line clip-path="url(#788a46d2-e083-402e-bc66-7cc7c12c9c63)" fill="none" x1="11"
                    x2="5" y1="120" y2="108" />
            </g>
        </g>
        <g data="{&quot;modelType&quot;:&quot;ControlFlow&quot;}" hyper=""
            model-id="connector-IRak1tmFYEWAATjF" style="pointer-events: auto; cursor: pointer;">
            <g fill="black" fill-opacity="1" font-family="sans-serif" font-size="11px"
                image-rendering="optimizeQuality" stroke="black" stroke-linecap="butt"
                stroke-linejoin="round" stroke-opacity="1" text-rendering="geometricPrecision"
                transform="translate(173,178.7143)">
                <line clip-path="url(#e5478068-355c-47ba-b1f6-5b8eac552642)" fill="none" x1="33"
                    x2="86" y1="33" y2="33" />
                <line clip-path="url(#e5478068-355c-47ba-b1f6-5b8eac552642)" fill="none" x1="86"
                    x2="74" y1="33" y2="27" />
                <line clip-path="url(#e5478068-355c-47ba-b1f6-5b8eac552642)" fill="none" x1="86"
                    x2="74" y1="33" y2="39" />
            </g>
        </g>
        <g data="{&quot;modelType&quot;:&quot;ControlFlow&quot;}" hyper=""
            model-id="connector-wxek1tmFYEWAATke" style="pointer-events: auto; cursor: pointer;">
            <g fill="black" fill-opacity="1" font-family="sans-serif" font-size="11px"
                image-rendering="optimizeQuality" stroke="black" stroke-linecap="butt"
                stroke-linejoin="round" stroke-opacity="1" text-rendering="geometricPrecision"
                transform="translate(299,210.7143)">
                <line clip-path="url(#1972055a-c28f-41e2-a0c0-29b46b1c7f93)" fill="none" x1="21"
                    x2="20" y1="21" y2="56" />
                <line clip-path="url(#1972055a-c28f-41e2-a0c0-29b46b1c7f93)" fill="none" x1="20"
                    x2="26" y1="56" y2="44" />
                <line clip-path="url(#1972055a-c28f-41e2-a0c0-29b46b1c7f93)" fill="none" x1="20"
                    x2="14" y1="56" y2="44" />
            </g>
        </g>
        <g data="{&quot;name&quot;:&quot;No&quot;,&quot;modelType&quot;:&quot;ControlFlow&quot;}"
            hyper="" model-id="connector-58hk1tmFYEWAATk5"
            style="pointer-events: auto; cursor: pointer;">
            <g fill="black" fill-opacity="1" font-family="sans-serif" font-size="11px"
                image-rendering="optimizeQuality" stroke="black" stroke-linecap="butt"
                stroke-linejoin="round" stroke-opacity="1" text-rendering="geometricPrecision"
                transform="translate(302,183.7143)">
                <line clip-path="url(#26848872-1191-4a4a-9e22-db02854aeed7)" fill="none" x1="28"
                    x2="112" y1="95" y2="95" />
                <line clip-path="url(#26848872-1191-4a4a-9e22-db02854aeed7)" fill="none" x1="112"
                    x2="112" y1="95" y2="28" />
                <line clip-path="url(#26848872-1191-4a4a-9e22-db02854aeed7)" fill="none" x1="112"
                    x2="80" y1="28" y2="28" />
                <line clip-path="url(#26848872-1191-4a4a-9e22-db02854aeed7)" fill="none" x1="80"
                    x2="92" y1="28" y2="34" />
                <line clip-path="url(#26848872-1191-4a4a-9e22-db02854aeed7)" fill="none" x1="80"
                    x2="92" y1="28" y2="22" />
            </g>
        </g>
        <g data="{&quot;name&quot;:&quot;Yes&quot;,&quot;modelType&quot;:&quot;ControlFlow&quot;}"
            hyper="" model-id="connector-1tZk1tmFYEWAATln"
            style="pointer-events: auto; cursor: pointer;">
            <g fill="black" fill-opacity="1" font-family="sans-serif" font-size="11px"
                image-rendering="optimizeQuality" stroke="black" stroke-linecap="butt"
                stroke-linejoin="round" stroke-opacity="1" text-rendering="geometricPrecision"
                transform="translate(174,257.7143)">
                <line clip-path="url(#69f9a191-9a13-4084-9aea-1443c611e48d)" fill="none" x1="134"
                    x2="21" y1="21" y2="21" />
                <line clip-path="url(#69f9a191-9a13-4084-9aea-1443c611e48d)" fill="none" x1="21"
                    x2="21" y1="21" y2="75" />
                <line clip-path="url(#69f9a191-9a13-4084-9aea-1443c611e48d)" fill="none" x1="21"
                    x2="27" y1="75" y2="63" />
                <line clip-path="url(#69f9a191-9a13-4084-9aea-1443c611e48d)" fill="none" x1="21"
                    x2="15" y1="75" y2="63" />
            </g>
        </g>
        <g data="{&quot;modelType&quot;:&quot;ControlFlow&quot;}" hyper=""
            model-id="connector-5Unk1tmFYEWAATns" style="pointer-events: auto; cursor: pointer;">
            <g fill="black" fill-opacity="1" font-family="sans-serif" font-size="11px"
                image-rendering="optimizeQuality" stroke="black" stroke-linecap="butt"
                stroke-linejoin="round" stroke-opacity="1" text-rendering="geometricPrecision"
                transform="translate(184,414.7143)">
                <line clip-path="url(#da7c2d31-e444-4767-9447-00ada61d1e6b)" fill="none" x1="12"
                    x2="12" y1="12" y2="53" />
                <line clip-path="url(#da7c2d31-e444-4767-9447-00ada61d1e6b)" fill="none" x1="12"
                    x2="18" y1="53" y2="41" />
                <line clip-path="url(#da7c2d31-e444-4767-9447-00ada61d1e6b)" fill="none" x1="12"
                    x2="6" y1="53" y2="41" />
            </g>
        </g>
        <g data="{&quot;name&quot;:&quot;No&quot;,&quot;modelType&quot;:&quot;ControlFlow&quot;}"
            hyper="" model-id="connector-lUnk1tmFYEWAATnx"
            style="pointer-events: auto; cursor: pointer;">
            <g fill="black" fill-opacity="1" font-family="sans-serif" font-size="11px"
                image-rendering="optimizeQuality" stroke="black" stroke-linecap="butt"
                stroke-linejoin="round" stroke-opacity="1" text-rendering="geometricPrecision"
                transform="translate(197,395.7143)">
                <line clip-path="url(#01298ab3-3624-4fd7-9145-6b0c1110736d)" fill="none" x1="11"
                    x2="93" y1="84" y2="84" />
                <line clip-path="url(#01298ab3-3624-4fd7-9145-6b0c1110736d)" fill="none" x1="93"
                    x2="93" y1="84" y2="11" />
                <line clip-path="url(#01298ab3-3624-4fd7-9145-6b0c1110736d)" fill="none" x1="93"
                    x2="61" y1="11" y2="11" />
                <line clip-path="url(#01298ab3-3624-4fd7-9145-6b0c1110736d)" fill="none" x1="61"
                    x2="73" y1="11" y2="17" />
                <line clip-path="url(#01298ab3-3624-4fd7-9145-6b0c1110736d)" fill="none" x1="61"
                    x2="73" y1="11" y2="5" />
            </g>
        </g>
        <g data="{&quot;name&quot;:&quot;Yes&quot;,&quot;modelType&quot;:&quot;ControlFlow&quot;}"
            hyper="" model-id="connector-l7_k1tmFYEWAATop"
            style="pointer-events: auto; cursor: pointer;">
            <g fill="black" fill-opacity="1" font-family="sans-serif" font-size="11px"
                image-rendering="optimizeQuality" stroke="black" stroke-linecap="butt"
                stroke-linejoin="round" stroke-opacity="1" text-rendering="geometricPrecision"
                transform="translate(185,346.7143)">
                <line clip-path="url(#d4354c6a-1396-42d3-8b4c-ad7ba261fe80)" fill="none" x1="11"
                    x2="11" y1="11" y2="41" />
                <line clip-path="url(#d4354c6a-1396-42d3-8b4c-ad7ba261fe80)" fill="none" x1="11"
                    x2="17" y1="41" y2="29" />
                <line clip-path="url(#d4354c6a-1396-42d3-8b4c-ad7ba261fe80)" fill="none" x1="11"
                    x2="5" y1="41" y2="29" />
            </g>
        </g>
        <g data="{&quot;name&quot;:&quot;Yes&quot;,&quot;modelType&quot;:&quot;ControlFlow&quot;}"
            hyper="" model-id="connector-LFCU1tmFYEWAATqW"
            style="pointer-events: auto; cursor: pointer;">
            <g fill="black" fill-opacity="1" font-family="sans-serif" font-size="11px"
                image-rendering="optimizeQuality" stroke="black" stroke-linecap="butt"
                stroke-linejoin="round" stroke-opacity="1" text-rendering="geometricPrecision"
                transform="translate(185,480.7143)">
                <line clip-path="url(#2b98062f-fd86-4c4e-8c82-864c67be310c)" fill="none" x1="11"
                    x2="11" y1="11" y2="53" />
                <line clip-path="url(#2b98062f-fd86-4c4e-8c82-864c67be310c)" fill="none" x1="11"
                    x2="17" y1="53" y2="41" />
                <line clip-path="url(#2b98062f-fd86-4c4e-8c82-864c67be310c)" fill="none" x1="11"
                    x2="5" y1="53" y2="41" />
            </g>
        </g>
        <g data="{&quot;name&quot;:&quot;No&quot;,&quot;modelType&quot;:&quot;ControlFlow&quot;}"
            hyper="" model-id="connector-v1KU1tmFYEWAATq2"
            style="pointer-events: auto; cursor: pointer;">
            <g fill="black" fill-opacity="1" font-family="sans-serif" font-size="11px"
                image-rendering="optimizeQuality" stroke="black" stroke-linecap="butt"
                stroke-linejoin="round" stroke-opacity="1" text-rendering="geometricPrecision"
                transform="translate(3,65.7143)">
                <line clip-path="url(#af26a258-f8d4-43c5-8ece-9f93fd49d5e5)" fill="none" x1="181"
                    x2="11" y1="279" y2="279" />
                <line clip-path="url(#af26a258-f8d4-43c5-8ece-9f93fd49d5e5)" fill="none" x1="11"
                    x2="11" y1="279" y2="11" />
                <line clip-path="url(#af26a258-f8d4-43c5-8ece-9f93fd49d5e5)" fill="none" x1="11"
                    x2="57" y1="11" y2="11" />
                <line clip-path="url(#af26a258-f8d4-43c5-8ece-9f93fd49d5e5)" fill="none" x1="57"
                    x2="45" y1="11" y2="5" />
                <line clip-path="url(#af26a258-f8d4-43c5-8ece-9f93fd49d5e5)" fill="none" x1="57"
                    x2="45" y1="11" y2="17" />
            </g>
        </g>
        <g data="{&quot;modelType&quot;:&quot;ControlFlow&quot;}" hyper=""
            model-id="connector-X1BU1tmFYEWAATrd" style="pointer-events: auto; cursor: pointer;">
            <g fill="black" fill-opacity="1" font-family="sans-serif" font-size="11px"
                image-rendering="optimizeQuality" stroke="black" stroke-linecap="butt"
                stroke-linejoin="round" stroke-opacity="1" text-rendering="geometricPrecision"
                transform="translate(189,159.7143)">
                <line clip-path="url(#dcb56d2f-3ded-4f76-8b33-49b21741d0cd)" fill="none" x1="137"
                    x2="137" y1="6" y2="16" />
                <line clip-path="url(#dcb56d2f-3ded-4f76-8b33-49b21741d0cd)" fill="none" x1="137"
                    x2="7" y1="16" y2="16" />
                <line clip-path="url(#dcb56d2f-3ded-4f76-8b33-49b21741d0cd)" fill="none" x1="7"
                    x2="6" y1="16" y2="40" />
                <line clip-path="url(#dcb56d2f-3ded-4f76-8b33-49b21741d0cd)" fill="none" x1="6"
                    x2="12" y1="40" y2="28" />
                <line clip-path="url(#dcb56d2f-3ded-4f76-8b33-49b21741d0cd)" fill="none" x1="6"
                    x2="0" y1="40" y2="28" />
            </g>
        </g>
        <g data="{&quot;name&quot;:&quot;Yes&quot;,&quot;modelType&quot;:&quot;ControlFlow&quot;}"
            hyper="" model-id="connector-KaB01tmFYEWAATti"
            style="pointer-events: auto; cursor: pointer;">
            <g fill="black" fill-opacity="1" font-family="sans-serif" font-size="11px"
                image-rendering="optimizeQuality" stroke="black" stroke-linecap="butt"
                stroke-linejoin="round" stroke-opacity="1" text-rendering="geometricPrecision"
                transform="translate(40,35.7143)">
                <line clip-path="url(#012d75de-c0d9-4574-8f37-d3c561693486)" fill="none" x1="42"
                    x2="94" y1="42" y2="42" />
                <line clip-path="url(#012d75de-c0d9-4574-8f37-d3c561693486)" fill="none" x1="94"
                    x2="82" y1="42" y2="36" />
                <line clip-path="url(#012d75de-c0d9-4574-8f37-d3c561693486)" fill="none" x1="94"
                    x2="82" y1="42" y2="48" />
            </g>
        </g>
        <g data="{&quot;name&quot;:&quot;No&quot;,&quot;modelType&quot;:&quot;ControlFlow&quot;}"
            hyper="" model-id="connector-yMV01tmFYEWAATup"
            style="pointer-events: auto; cursor: pointer;">
            <g fill="black" fill-opacity="1" font-family="sans-serif" font-size="11px"
                image-rendering="optimizeQuality" stroke="black" stroke-linecap="butt"
                stroke-linejoin="round" stroke-opacity="1" text-rendering="geometricPrecision"
                transform="translate(64,82.7143)">
                <line clip-path="url(#8b4cf26e-9e4c-4784-af51-305c37e1cf68)" fill="none" x1="7"
                    x2="7" y1="7" y2="23" />
                <line clip-path="url(#8b4cf26e-9e4c-4784-af51-305c37e1cf68)" fill="none" x1="7"
                    x2="131" y1="23" y2="23" />
                <line clip-path="url(#8b4cf26e-9e4c-4784-af51-305c37e1cf68)" fill="none" x1="131"
                    x2="131" y1="23" y2="50" />
                <line clip-path="url(#8b4cf26e-9e4c-4784-af51-305c37e1cf68)" fill="none" x1="131"
                    x2="137" y1="50" y2="38" />
                <line clip-path="url(#8b4cf26e-9e4c-4784-af51-305c37e1cf68)" fill="none" x1="131"
                    x2="125" y1="50" y2="38" />
            </g>
        </g>
        <g fill="black" fill-opacity="1" font-family="sans-serif" font-size="11px"
            image-rendering="optimizeQuality" stroke="black" stroke-opacity="1"
            text-rendering="geometricPrecision" transform="translate(83,106.7143)">
            <text clip-path="url(#5ce41b27-dd63-4ca2-b531-05879b52fd6b)" stroke="none" x="9"
                xml:space="preserve" y="12">No</text>
        </g>
        <g fill="black" fill-opacity="1" font-family="sans-serif" font-size="11px"
            image-rendering="optimizeQuality" stroke="black" stroke-opacity="1"
            text-rendering="geometricPrecision" transform="translate(82,60.7143)">
            <text clip-path="url(#37b1d0d1-70b1-4652-a99a-73ce24c62a1d)" stroke="none" x="9"
                xml:space="preserve" y="12">Yes</text>
        </g>
        <g fill="black" fill-opacity="1" font-family="sans-serif" font-size="11px"
            image-rendering="optimizeQuality" stroke="black" stroke-opacity="1"
            text-rendering="geometricPrecision" transform="translate(134,326.7143)">
            <text clip-path="url(#7f261b69-3668-4938-b830-50f6f37ed236)" stroke="none" x="9"
                xml:space="preserve" y="12">No</text>
        </g>
        <g fill="black" fill-opacity="1" font-family="sans-serif" font-size="11px"
            image-rendering="optimizeQuality" stroke="black" stroke-opacity="1"
            text-rendering="geometricPrecision" transform="translate(154,500.7143)">
            <text clip-path="url(#f8d6306d-d9c7-4bc5-b77d-ed2426cdd660)" stroke="none" x="10"
                xml:space="preserve" y="12">Yes</text>
        </g>
        <g fill="black" fill-opacity="1" font-family="sans-serif" font-size="11px"
            image-rendering="optimizeQuality" stroke="black" stroke-opacity="1"
            text-rendering="geometricPrecision" transform="translate(153,358.7143)">
            <text clip-path="url(#37b1d0d1-70b1-4652-a99a-73ce24c62a1d)" stroke="none" x="9"
                xml:space="preserve" y="12">Yes</text>
        </g>
        <g fill="black" fill-opacity="1" font-family="sans-serif" font-size="11px"
            image-rendering="optimizeQuality" stroke="black" stroke-opacity="1"
            text-rendering="geometricPrecision" transform="translate(293,432.7143)">
            <text clip-path="url(#5ce41b27-dd63-4ca2-b531-05879b52fd6b)" stroke="none" x="9"
                xml:space="preserve" y="12">No</text>
        </g>
        <g fill="black" fill-opacity="1" font-family="sans-serif" font-size="11px"
            image-rendering="optimizeQuality" stroke="black" stroke-opacity="1"
            text-rendering="geometricPrecision" transform="translate(232,261.7143)">
            <text clip-path="url(#37b1d0d1-70b1-4652-a99a-73ce24c62a1d)" stroke="none" x="9"
                xml:space="preserve" y="12">Yes</text>
        </g>
        <g fill="black" fill-opacity="1" font-family="sans-serif" font-size="11px"
            image-rendering="optimizeQuality" stroke="black" stroke-opacity="1"
            text-rendering="geometricPrecision" transform="translate(416,236.7143)">
            <text clip-path="url(#5ce41b27-dd63-4ca2-b531-05879b52fd6b)" stroke="none" x="9"
                xml:space="preserve" y="12">No</text>
        </g>
        <g fill="black" fill-opacity="1" font-family="sans-serif" font-size="11px"
            image-rendering="optimizeQuality" stroke="black" stroke-opacity="1"
            text-rendering="geometricPrecision" transform="translate(158,261.7143)">
            <text clip-path="url(#7f261b69-3668-4938-b830-50f6f37ed236)" stroke="none" x="9"
                xml:space="preserve" y="12">No</text>
        </g>
        <g fill="black" fill-opacity="1" font-family="sans-serif" font-size="11px"
            image-rendering="optimizeQuality" stroke="black" stroke-opacity="1"
            text-rendering="geometricPrecision" transform="translate(157,166.7143)">
            <text clip-path="url(#5ce41b27-dd63-4ca2-b531-05879b52fd6b)" stroke="none" x="9"
                xml:space="preserve" y="12">No</text>
        </g>
        <g fill="black" fill-opacity="1" font-family="sans-serif" font-size="11px"
            image-rendering="optimizeQuality" stroke="black" stroke-opacity="1"
            text-rendering="geometricPrecision" transform="translate(206,127.7143)">
            <text clip-path="url(#f8d6306d-d9c7-4bc5-b77d-ed2426cdd660)" stroke="none" x="10"
                xml:space="preserve" y="12">Yes</text>
        </g>
    </g>
</svg>